<svg id="b3a96f7b-1a65-44b3-8b69-367ad3744d66" data-name="Layer 1" xmlns="http://www.w3.org/2000/svg" viewBox="0 0 288.65 183.36"><title>ecommerce</title><rect x="12.91" y="178.16" width="260.2" height="5.2" rx="2.6" style="fill:#c5dfe8"/><rect x="109" y="240.8" width="70.65" height="85.71" transform="translate(281.15 280.88) rotate(159.84)" style="fill:#fcb548"/><rect x="143.24" y="234.71" width="35.33" height="85.71" transform="translate(311.2 263.36) rotate(159.84)" style="fill:#f4a740"/><path d="M152.91,242.71h0a1.36,1.36,0,0,0,.68-1.86,55.56,55.56,0,0,0-8-11.94c-7.46-8.34-15.92-11.32-24.45-8.61A17.12,17.12,0,0,0,110.68,229c-5,9.7-1.85,23.47-.64,27.85a1.37,1.37,0,0,0,1.74.93h0a1.37,1.37,0,0,0,.9-1.66c-1.1-4.06-4.08-17.13.42-25.88A14.54,14.54,0,0,1,122,222.9c7.54-2.4,14.81.24,21.6,7.83a53.47,53.47,0,0,1,7.59,11.34A1.36,1.36,0,0,0,152.91,242.71Z" transform="translate(-96.4 -219.32)" style="fill:#daeef6"/><rect x="309.27" y="290.18" width="73.15" height="45.02" rx="4.35" transform="translate(-213.49 148.83) rotate(-48.95)" style="fill:#56779f"/><rect x="314.43" y="311.45" width="73.15" height="11.47" transform="matrix(0.66, -0.75, 0.75, 0.66, -215.11, 154.26)" style="fill:#333"/><rect x="311.37" y="320.73" width="26.19" height="1.32" rx="0.58" transform="translate(-227.39 135.69) rotate(-48.95)" style="fill:#333"/><rect x="309.66" y="320.24" width="21.81" height="1.32" rx="0.58" transform="translate(-228.36 132.59) rotate(-48.95)" style="fill:#333"/><path d="M327.27,307.23l-16.45,18.89a.58.58,0,0,0,.06.81l.13.11a.57.57,0,0,0,.81-.05l16.45-18.89a.57.57,0,0,0-.06-.81l-.13-.11A.57.57,0,0,0,327.27,307.23Z" transform="translate(-96.4 -219.32)" style="fill:#333"/><rect x="343.97" y="282.68" width="12.94" height="7.85" rx="2.54" transform="translate(-192.24 143.33) rotate(-48.95)" style="fill:#333"/><rect x="49.51" y="36.41" width="194.45" height="142.17" rx="8.86" style="fill:#333"/><path d="M66.28,42H230.11a0,0,0,0,1,0,0V173a0,0,0,0,1,0,0H66.28A11.73,11.73,0,0,1,54.55,161.3V53.76A11.73,11.73,0,0,1,66.28,42Z" style="fill:#daeef6"/><rect x="61.66" y="59.4" width="160.2" height="111.39" style="fill:#fff"/><path d="M318.26,281.78v-8.25a5.12,5.12,0,0,0-5.12-5.12h-150a5.12,5.12,0,0,0-5.12,5.12v8.25Z" transform="translate(-96.4 -219.32)" style="fill:#f05c7e"/><rect x="146.03" y="52.52" width="68.96" height="6.49" rx="3.25" style="fill:#fff"/><path d="M171.27,274.73a2.82,2.82,0,1,1-2.43-2.44A2.83,2.83,0,0,1,171.27,274.73Z" transform="translate(-96.4 -219.32)" style="fill:#fff"/><path d="M183.59,274.73a2.82,2.82,0,1,1-2.43-2.44A2.82,2.82,0,0,1,183.59,274.73Z" transform="translate(-96.4 -219.32)" style="fill:#fff"/><path d="M195.92,274.73a2.82,2.82,0,1,1-2.43-2.44A2.83,2.83,0,0,1,195.92,274.73Z" transform="translate(-96.4 -219.32)" style="fill:#fff"/><rect x="112.7" y="79.37" width="58.11" height="44.09" rx="8.32" style="fill:#daeef6"/><path d="M231.23,335.71a2.61,2.61,0,1,1,2.61-2.6A2.61,2.61,0,0,1,231.23,335.71Zm0-4.41a1.81,1.81,0,1,0,1.81,1.81A1.81,1.81,0,0,0,231.23,331.3Z" transform="translate(-96.4 -219.32)" style="fill:#f05c7e"/><path d="M241.73,335.71a2.61,2.61,0,1,1,2.61-2.6A2.61,2.61,0,0,1,241.73,335.71Zm0-4.41a1.81,1.81,0,1,0,1.81,1.81A1.81,1.81,0,0,0,241.73,331.3Z" transform="translate(-96.4 -219.32)" style="fill:#f05c7e"/><path d="M257.19,306h0a.39.39,0,0,0-.48-.25l-7.24,1.57a.39.39,0,0,0-.3.28l-.73,3.69a.41.41,0,0,1-.4.29H219.51a.35.35,0,0,0-.37.46l6.09,14.84a.38.38,0,0,0,.37.23h19.19a.36.36,0,0,1,.39.41l-.4,1.93a.37.37,0,0,1-.39.29H228.22a.37.37,0,0,0-.4.34h0a.37.37,0,0,0,.4.35h16.84a.38.38,0,0,0,.39-.29L249.1,312l.09-.43h0l.69-3.42a.37.37,0,0,1,.3-.27l6.73-1.47A.35.35,0,0,0,257.19,306Zm-34.5,11.27h4.81a.39.39,0,0,1,.39.28l.89,3.8a.37.37,0,0,1-.39.42h-4.14a.4.4,0,0,1-.37-.23l-1.56-3.81A.36.36,0,0,1,222.69,317.3Zm6.43,0H234a.38.38,0,0,1,.4.35v3.8a.38.38,0,0,1-.4.35h-4a.39.39,0,0,1-.39-.28l-.89-3.8A.37.37,0,0,1,229.12,317.3Zm6.11-1v-3.62a.37.37,0,0,1,.4-.34h4.91a.36.36,0,0,1,.39.38l-.45,3.62a.37.37,0,0,1-.39.31h-4.46A.37.37,0,0,1,235.23,316.26Zm5.08,1.43-.47,3.8a.38.38,0,0,1-.39.31h-3.82a.38.38,0,0,1-.4-.35v-3.8a.38.38,0,0,1,.4-.35h4.29A.37.37,0,0,1,240.31,317.69ZM234,316.61H228.8a.39.39,0,0,1-.39-.28l-.85-3.62a.36.36,0,0,1,.39-.41H234a.37.37,0,0,1,.4.34v3.62A.37.37,0,0,1,234,316.61Zm.4,6.22v3.27a.38.38,0,0,1-.4.35H231.1a.39.39,0,0,1-.39-.28L230,322.9a.36.36,0,0,1,.39-.41H234A.37.37,0,0,1,234.43,322.83Zm1.2-.34h3.64a.37.37,0,0,1,.4.38l-.41,3.27a.38.38,0,0,1-.39.31h-3.24a.38.38,0,0,1-.4-.35v-3.27A.37.37,0,0,1,235.63,322.49Zm5.24,0h4.82a.36.36,0,0,1,.39.41l-.66,3.26a.39.39,0,0,1-.4.29h-4.55a.38.38,0,0,1-.4-.39l.41-3.26A.37.37,0,0,1,240.87,322.49Zm-.22-1.08.47-3.8a.39.39,0,0,1,.4-.31h5.22a.37.37,0,0,1,.4.41l-.78,3.8a.38.38,0,0,1-.39.29h-4.92A.37.37,0,0,1,240.65,321.41Zm6.38-4.8h-5.34a.37.37,0,0,1-.4-.38l.45-3.62a.38.38,0,0,1,.4-.31h5.62c.25,0,.44.19.39.4l-.73,3.62A.39.39,0,0,1,247,316.61Zm-20.31-4,.85,3.62a.37.37,0,0,1-.39.42h-5.06a.4.4,0,0,1-.37-.23l-1.49-3.62a.36.36,0,0,1,.38-.46h5.69A.39.39,0,0,1,226.72,312.57Zm-1.9,9.92h3.89a.38.38,0,0,1,.39.28l.77,3.26a.37.37,0,0,1-.39.42h-3.32a.38.38,0,0,1-.37-.23L224.45,323C224.35,322.73,224.54,322.49,224.82,322.49Z" transform="translate(-96.4 -219.32)" style="fill:#f05c7e"/><rect x="119.53" y="155.34" width="44.46" height="8.4" rx="4.2" style="fill:#f05c7e"/><path d="M229.71,379.53a1.06,1.06,0,0,1-.05.31,1,1,0,0,1-.12.26.89.89,0,0,1-.19.2.68.68,0,0,1-.25.14,1.4,1.4,0,0,1-.29.09,2,2,0,0,1-.36,0h-.95a.19.19,0,0,1-.12,0,.18.18,0,0,1-.06-.15v-3.23a.18.18,0,0,1,.06-.15.19.19,0,0,1,.12,0h.82a1.88,1.88,0,0,1,.53.06.89.89,0,0,1,.35.18.78.78,0,0,1,.21.29,1.12,1.12,0,0,1,.07.38,1,1,0,0,1,0,.25,1.36,1.36,0,0,1-.1.21.65.65,0,0,1-.15.18.86.86,0,0,1-.2.13.88.88,0,0,1,.27.1.83.83,0,0,1,.23.19,1.17,1.17,0,0,1,.15.27A.9.9,0,0,1,229.71,379.53Zm-.73-1.62a.88.88,0,0,0,0-.24.57.57,0,0,0-.12-.18.43.43,0,0,0-.2-.11,1.06,1.06,0,0,0-.33,0h-.5v1.17h.55a.85.85,0,0,0,.3-.05.64.64,0,0,0,.19-.13.72.72,0,0,0,.11-.19A.91.91,0,0,0,229,377.91Zm.22,1.64a.82.82,0,0,0,0-.28.8.8,0,0,0-.15-.21.65.65,0,0,0-.25-.12,1.3,1.3,0,0,0-.38-.05h-.57v1.28h.7a1.11,1.11,0,0,0,.28,0A.66.66,0,0,0,229,380a.58.58,0,0,0,.15-.19A.76.76,0,0,0,229.2,379.55Z" transform="translate(-96.4 -219.32)" style="fill:#fff"/><path d="M233.15,379.23a1.72,1.72,0,0,1-.09.58,1.23,1.23,0,0,1-.28.44,1.12,1.12,0,0,1-.43.27,1.82,1.82,0,0,1-.59.1,1.53,1.53,0,0,1-.54-.09,1.1,1.1,0,0,1-.43-.26,1.27,1.27,0,0,1-.27-.42,1.78,1.78,0,0,1-.09-.59V377a.06.06,0,0,1,0,0l0,0h.38l0,0v2.22a1.42,1.42,0,0,0,.06.44.73.73,0,0,0,.18.31.64.64,0,0,0,.27.19,1.1,1.1,0,0,0,.37.06,1.12,1.12,0,0,0,.38-.06.71.71,0,0,0,.44-.49,1.33,1.33,0,0,0,.06-.42V377l0,0,0,0h.37l0,0a.06.06,0,0,1,0,0Z" transform="translate(-96.4 -219.32)" style="fill:#fff"/><path d="M236.12,380.36s0,.07,0,.09a.08.08,0,0,1,0,.06l0,0h-1.78a.19.19,0,0,1-.12,0,.17.17,0,0,1,0-.15v-3.23a.17.17,0,0,1,0-.15.19.19,0,0,1,.12,0H236l0,0a.64.64,0,0,1,0,.07v.18s0,.05,0,.06l0,0h-1.45v1.13h1.25l0,0s0,0,0,.06v.18s0,0,0,.06l0,0h-1.25v1.29h1.47l0,0a.08.08,0,0,1,0,.06S236.12,380.33,236.12,380.36Z" transform="translate(-96.4 -219.32)" style="fill:#fff"/><path d="M240.92,380.36a.31.31,0,0,1,0,.1s0,.05,0,.06l-.07,0h-.37a.27.27,0,0,1-.1-.06.57.57,0,0,1-.11-.11l-.1-.18L239,378.15l-.17-.33-.16-.34h0c0,.13,0,.27,0,.41v2.6a.06.06,0,0,1,0,0l0,0h-.38l0,0v-3.38a.19.19,0,0,1,.07-.16.2.2,0,0,1,.13,0h.38l.1.05a.38.38,0,0,1,.09.09l.09.14.84,1.59a1.91,1.91,0,0,1,.15.28c.05.09.1.18.14.27l.14.27c0,.08.09.17.13.26h0v-.46c0-.16,0-.31,0-.46v-2l0,0,0,0,.07,0h.23l.07,0,0,0a.06.06,0,0,1,0,0Z" transform="translate(-96.4 -219.32)" style="fill:#fff"/><path d="M244.91,378.71a2.71,2.71,0,0,1-.1.79,1.55,1.55,0,0,1-.31.6,1.37,1.37,0,0,1-.51.38,1.83,1.83,0,0,1-.73.14,1.86,1.86,0,0,1-.7-.13,1.1,1.1,0,0,1-.49-.35,1.44,1.44,0,0,1-.29-.58,2.66,2.66,0,0,1-.1-.79,3.06,3.06,0,0,1,.1-.77,1.79,1.79,0,0,1,.31-.6,1.41,1.41,0,0,1,.52-.37,1.83,1.83,0,0,1,.73-.14,1.85,1.85,0,0,1,.69.12,1.18,1.18,0,0,1,.49.36,1.58,1.58,0,0,1,.3.56A3.1,3.1,0,0,1,244.91,378.71Zm-.51,0a2.52,2.52,0,0,0-.05-.57,1.47,1.47,0,0,0-.18-.46,1,1,0,0,0-.34-.31,1.17,1.17,0,0,0-.52-.11,1.07,1.07,0,0,0-.53.12.87.87,0,0,0-.34.32,1.3,1.3,0,0,0-.19.45,2.51,2.51,0,0,0-.06.55,3.61,3.61,0,0,0,.05.59,1.47,1.47,0,0,0,.18.46.83.83,0,0,0,.34.3,1.16,1.16,0,0,0,.53.11,1.09,1.09,0,0,0,.53-.12,1,1,0,0,0,.34-.32,1.27,1.27,0,0,0,.19-.46A2.45,2.45,0,0,0,244.4,378.75Z" transform="translate(-96.4 -219.32)" style="fill:#fff"/><path d="M249.07,380.46s0,0,0,.06l-.06,0h-.49l-.05,0a.09.09,0,0,1,0-.06l-.76-2.73h0l-.7,2.73a.14.14,0,0,1,0,.06l-.06,0h-.49a.15.15,0,0,1-.06,0,.09.09,0,0,1,0-.06l-1-3.34a.84.84,0,0,1,0-.1.06.06,0,0,1,0-.06l.07,0h.28l.08,0s0,0,0,0a.08.08,0,0,1,0,0l.81,3h0l.77-3a.14.14,0,0,1,0-.06l0,0h.41l0,0a.14.14,0,0,1,0,.06l.83,3h0l.79-3a.08.08,0,0,0,0,0l0,0H250l.08,0a.14.14,0,0,1,0,.06.58.58,0,0,1,0,.1Z" transform="translate(-96.4 -219.32)" style="fill:#fff"/><rect x="112.57" y="143.64" width="58.37" height="1.84" style="fill:#daeef6"/><rect x="112.57" y="147.9" width="58.37" height="1.84" style="fill:#daeef6"/><rect x="112.57" y="139.39" width="58.37" height="1.84" style="fill:#daeef6"/><rect x="112.57" y="135.13" width="58.37" height="1.84" style="fill:#daeef6"/><rect x="112.57" y="130.88" width="58.37" height="1.84" style="fill:#daeef6"/><path d="M338.57,326.42a4.93,4.93,0,1,1-4.51-4.51A4.94,4.94,0,0,1,338.57,326.42Z" transform="translate(-96.4 -219.32)" style="fill:#daeef6;opacity:0.30000000000000004"/><path d="M335.13,328.87h-2.95a.58.58,0,0,1-.58-.58v-2.94a.58.58,0,0,1,.58-.58h2.95a.58.58,0,0,1,.58.58v2.94A.58.58,0,0,1,335.13,328.87Zm-2.95-3.95a.43.43,0,0,0-.42.43v2.94a.43.43,0,0,0,.42.43h2.95a.43.43,0,0,0,.42-.43v-2.94a.43.43,0,0,0-.42-.43Z" transform="translate(-96.4 -219.32)" style="fill:#daeef6"/><path d="M308.36,325.44c.95,3.41,3.94,6.71,8.2,9.08a27.81,27.81,0,0,0,13.28,3.4c.4,0,.81,0,1.21,0l1.42-.06.64,0c.4,0,.81,0,1.21,0a27.74,27.74,0,0,0,13.29-3.38c4.26-2.36,7.26-5.66,8.22-9.06,1.22-4.32-.81-8.3-5.57-10.92a8.27,8.27,0,0,0-7.75-.45c-3.44,1.59-6.43,5.7-8.89,12.2-.63,1.68-1.14,3.29-1.54,4.67-.39-1.38-.9-3-1.52-4.63-2.45-6.51-5.43-10.62-8.86-12.22a8.32,8.32,0,0,0-7.76.43C309.18,317.15,307.14,321.12,308.36,325.44Zm27.71,7.9a57.49,57.49,0,0,1,1.77-5.53c2-5.19,4.29-8.62,6.55-9.67a3.52,3.52,0,0,1,1.49-.34,4.55,4.55,0,0,1,2.22.65c2.9,1.6,4,3.55,3.42,5.78C350.34,328.4,343.76,332.76,336.07,333.34Zm-20-14.88a4.52,4.52,0,0,1,2.22-.65,3.32,3.32,0,0,1,1.48.35c2.26,1,4.59,4.49,6.54,9.68a55.43,55.43,0,0,1,1.76,5.53c-7.69-.59-14.26-5-15.43-9.14C312,322,313.2,320.05,316.1,318.46Z" transform="translate(-96.4 -219.32)" style="fill:#f05c7e"/><path d="M302.16,398.48l57.57,0a5.59,5.59,0,0,0,5.61-5.6l.05-50.79a5.61,5.61,0,0,0-5.61-5.61l-57.57,0a5.61,5.61,0,0,0-5.62,5.6l0,50.79A5.61,5.61,0,0,0,302.16,398.48Z" transform="translate(-96.4 -219.32)" style="fill:#fcb548"/><path d="M296.57,367.48l68.8.06,0-23.79a7.21,7.21,0,0,0-7.21-7.22l-54.36,0a7.22,7.22,0,0,0-7.23,7.21Z" transform="translate(-96.4 -219.32)" style="fill:#f4a740"/><path d="M295.38,359.64l71.19.06a3.7,3.7,0,0,0,3.7-3.7l0-15.76a3.72,3.72,0,0,0-3.7-3.71l-71.19-.06a3.7,3.7,0,0,0-3.7,3.7l0,15.76A3.71,3.71,0,0,0,295.38,359.64Z" transform="translate(-96.4 -219.32)" style="fill:#fcb548"/><rect x="322.71" y="336.5" width="15.68" height="62" transform="translate(564.38 515.98) rotate(-179.95)" style="fill:#f05c7e"/><rect x="322.71" y="359.67" width="15.68" height="7.84" transform="translate(564.39 508.14) rotate(-179.95)" style="fill:#e13269"/></svg>