<svg id="a6d31a22-02e5-464c-84c2-21ff32b23204" data-name="Layer 1" xmlns="http://www.w3.org/2000/svg" viewBox="0 0 249.58 306.22"><title>blogapp</title><path d="M382,203.8a9.74,9.74,0,0,1-.26-2.29,19.2,19.2,0,0,0-.31-2.75,27.3,27.3,0,0,0-.72-3.69,34.72,34.72,0,0,0-3.84-9.51,35.33,35.33,0,0,0-42-15.88,32.6,32.6,0,0,0-9,4.58,39.21,39.21,0,0,0-4.06,3.29,40.67,40.67,0,0,0-3.52,4,34.93,34.93,0,0,0-1,41.42,39.53,39.53,0,0,0,3.33,4.15,38.56,38.56,0,0,0,3.89,3.48,33,33,0,0,0,8.75,5A35.48,35.48,0,0,0,376,221.77a34.59,34.59,0,0,0,4.3-9.31,27.9,27.9,0,0,0,.9-3.65,20.19,20.19,0,0,0,.44-2.73,9.79,9.79,0,0,1,.37-2.28,10.15,10.15,0,0,1,0,2.31,15.31,15.31,0,0,1-.25,2.79,24.62,24.62,0,0,1-.74,3.77,34,34,0,0,1-4.1,9.69,36.57,36.57,0,0,1-25,16.91,36.93,36.93,0,0,1-19.34-2,35,35,0,0,1-9.24-5.22,34,34,0,0,1-7.65-8,36.7,36.7,0,0,1,1.06-43.71,41.68,41.68,0,0,1,3.74-4.19,41,41,0,0,1,4.29-3.45,34.64,34.64,0,0,1,9.49-4.76,36.63,36.63,0,0,1,19.4-1A36.5,36.5,0,0,1,377.86,185a33.71,33.71,0,0,1,3.62,9.88,25.21,25.21,0,0,1,.56,3.79,16.9,16.9,0,0,1,.12,2.81A10.26,10.26,0,0,1,382,203.8Z" transform="translate(-309.01 -166.09)" style="fill:#ebebeb"/><path d="M374.81,181.3c.08.11-.57.68-1.82,1.61l-2.32,1.66c-.46.32-.94.67-1.47,1l-1.78.92a40.64,40.64,0,0,1-21.17,5.34l-3.21-.15-3.07-.48c-.51-.08-1-.15-1.5-.25l-1.43-.38c-1-.26-1.88-.49-2.77-.77a46.29,46.29,0,0,1-9-4.14c-4.82-2.92-7.17-5.57-7-5.74s2.82,2,7.68,4.52a54.68,54.68,0,0,0,8.84,3.62c.87.25,1.77.44,2.68.67l1.38.34,1.43.22,2.94.43,3.05.13a43.83,43.83,0,0,0,20.5-4.61l1.8-.78c.55-.28,1-.59,1.52-.85l2.46-1.36C373.93,181.54,374.73,181.19,374.81,181.3Z" transform="translate(-309.01 -166.09)" style="fill:#ebebeb"/><path d="M317.19,225.09c-.08-.11.57-.68,1.83-1.61l2.32-1.66c.46-.32.94-.67,1.47-1l1.77-.93a40.78,40.78,0,0,1,21.18-5.33l3.2.15,3.08.48c.5.08,1,.15,1.49.25l1.44.38c.94.26,1.88.48,2.77.77a46.18,46.18,0,0,1,9,4.14c4.83,2.92,7.18,5.57,7,5.74s-2.82-2-7.68-4.52a54.82,54.82,0,0,0-8.85-3.62c-.86-.25-1.76-.44-2.67-.67l-1.38-.35-1.43-.21-2.94-.43-3-.13a43.88,43.88,0,0,0-20.51,4.61l-1.79.77c-.55.29-1,.6-1.52.86l-2.46,1.36C318.07,224.85,317.27,225.2,317.19,225.09Z" transform="translate(-309.01 -166.09)" style="fill:#ebebeb"/><path d="M382,204.64c0,.54-16.15.6-36,.11s-36-1.31-36-1.86,16.15-.6,36-.12S382,204.09,382,204.64Z" transform="translate(-309.01 -166.09)" style="fill:#ebebeb"/><path d="M344.33,238.9c-.55,0-.6-16.14-.12-36s1.32-36,1.87-36,.6,16.14.11,36S344.88,238.91,344.33,238.9Z" transform="translate(-309.01 -166.09)" style="fill:#ebebeb"/><path d="M344.33,238.85c-.14.21-4.1-2.48-8.68-8.57a48.57,48.57,0,0,1-6.44-11.69,43.4,43.4,0,0,1-2.79-16.14,41.49,41.49,0,0,1,3.64-16,50.56,50.56,0,0,1,7-11.33c4.85-5.86,8.85-8.46,9-8.25s-3.43,3.17-7.88,9.11a54.33,54.33,0,0,0-6.47,11.19,41.64,41.64,0,0,0-3.33,15.29A43.83,43.83,0,0,0,330.93,218a52,52,0,0,0,5.86,11.51C341,235.6,344.53,238.63,344.33,238.85Z" transform="translate(-309.01 -166.09)" style="fill:#ebebeb"/><path d="M346.88,166.92c.14-.21,4.11,2.48,8.69,8.57A48.38,48.38,0,0,1,362,187.18a43.39,43.39,0,0,1,2.79,16.13,41.32,41.32,0,0,1-3.63,16,50.43,50.43,0,0,1-7,11.33c-4.85,5.86-8.85,8.46-9,8.25s3.43-3.18,7.88-9.12a53.61,53.61,0,0,0,6.46-11.19,41.34,41.34,0,0,0,3.33-15.28,43.7,43.7,0,0,0-2.52-15.48,51.51,51.51,0,0,0-5.87-11.5C350.26,170.16,346.68,167.14,346.88,166.92Z" transform="translate(-309.01 -166.09)" style="fill:#ebebeb"/><rect x="57.68" y="53.47" width="191.66" height="252.54" style="fill:#fff"/><path d="M558.35,472.09c0-2.07-.09-102.86-.23-252.54l.23.24-191.64,0h0l.26-.26c0,94,0,181.09-.05,252.54l-.21-.21,191.66.21-191.66.21h-.22v-.21c0-71.45,0-158.58,0-252.54v-.26h.28l191.64,0h.24v.23C558.45,369.23,558.35,470,558.35,472.09Z" transform="translate(-309.01 -166.09)" style="fill:#263238"/><path d="M558.35,238c0,.09-42.91.16-95.83.16s-95.83-.07-95.83-.16,42.9-.15,95.83-.15S558.35,237.92,558.35,238Z" transform="translate(-309.01 -166.09)" style="fill:#263238"/><path d="M434.23,229.37h65.39" transform="translate(-309.01 -166.09)" style="fill:#455b64"/><path d="M499.62,229.37c0,.09-14.64.15-32.7.15s-32.69-.06-32.69-.15,14.64-.15,32.69-.15S499.62,229.29,499.62,229.37Z" transform="translate(-309.01 -166.09)" style="fill:#455b64"/><path d="M376.27,229.37a2.12,2.12,0,1,1-2.12-2.12A2.12,2.12,0,0,1,376.27,229.37Z" transform="translate(-309.01 -166.09)" style="fill:#e0e0e0"/><path d="M383.45,229.37a2.12,2.12,0,1,1-2.12-2.12A2.12,2.12,0,0,1,383.45,229.37Z" transform="translate(-309.01 -166.09)" style="fill:#e0e0e0"/><path d="M390.64,229.37a2.12,2.12,0,1,1-2.12-2.12A2.12,2.12,0,0,1,390.64,229.37Z" transform="translate(-309.01 -166.09)" style="fill:#e0e0e0"/><path d="M439.6,263.8h-4.39l-.84,2h-2.24l4.21-9.46h2.17l4.23,9.46h-2.3Zm-.69-1.66-1.5-3.62-1.5,3.62Z" transform="translate(-309.01 -166.09)" style="fill:#455b64"/><path d="M449.75,265.83l-1.83-2.64h-2v2.64h-2.19v-9.46h4.09c2.53,0,4.11,1.31,4.11,3.43a3.08,3.08,0,0,1-1.94,3l2.12,3Zm-2.06-7.68h-1.78v3.3h1.78c1.34,0,2-.62,2-1.65S449,258.15,447.69,258.15Z" transform="translate(-309.01 -166.09)" style="fill:#455b64"/><path d="M455.48,258.15h-3v-1.78h8.24v1.78h-3v7.68h-2.18Z" transform="translate(-309.01 -166.09)" style="fill:#455b64"/><path d="M461.87,256.37h2.19v9.46h-2.19Z" transform="translate(-309.01 -166.09)" style="fill:#455b64"/><path d="M465.7,261.1a5.21,5.21,0,0,1,9-3.22l-1.41,1.3a3,3,0,0,0-2.37-1.11,3,3,0,0,0,0,6.06,3,3,0,0,0,2.37-1.12l1.41,1.29a5.2,5.2,0,0,1-9-3.2Z" transform="translate(-309.01 -166.09)" style="fill:#455b64"/><path d="M476.2,256.37h2.19v7.68h4.74v1.78H476.2Z" transform="translate(-309.01 -166.09)" style="fill:#455b64"/><path d="M491.69,264.07v1.76h-7.33v-9.46h7.15v1.76h-5v2.05h4.39v1.7h-4.39v2.19Z" transform="translate(-309.01 -166.09)" style="fill:#455b64"/><path d="M427.45,262c0,.08-10.14.15-22.66.15s-22.66-.07-22.66-.15,10.15-.16,22.66-.16S427.45,261.86,427.45,262Z" transform="translate(-309.01 -166.09)" style="fill:#263238"/><path d="M548,262c0,.08-10.66.15-23.79.15s-23.79-.07-23.79-.15,10.65-.16,23.79-.16S548,261.86,548,262Z" transform="translate(-309.01 -166.09)" style="fill:#263238"/><rect x="184.39" y="248.85" width="45.96" height="44.47" style="fill:#455b64"/><g style="opacity:0.30000000000000004"><polygon points="187.95 289.51 200.67 266.63 211.07 281.25 217.39 273.49 226.79 289.51 187.95 289.51"/></g><g style="opacity:0.30000000000000004"><path d="M523.62,425.84c2.7,3.54-1.3,7.54-4.84,4.84C516.08,427.14,520.08,423.14,523.62,425.84Z" transform="translate(-309.01 -166.09)"/></g><g style="opacity:0.30000000000000004"><path d="M535.8,455.72a.54.54,0,0,1,0-.18c0-.14,0-.31,0-.52,0-.48,0-1.14,0-2,0-1.77,0-4.32,0-7.56,0-6.49-.06-15.74-.1-26.85l.19.19-38.84,0,.22-.21h0v10c0,3.27,0,6.47,0,9.59,0,6.22,0,12.11,0,17.53l-.19-.19,28.08.1,7.92,0,2.1,0h0l-2.06,0-7.88.05-28.2.1h-.19v-.19c0-5.42,0-11.31,0-17.53q0-4.68,0-9.59v-10h0c-.19.19.27-.27.22-.23l38.84,0H536v.18c0,11.16-.08,20.45-.1,27,0,3.22,0,5.76,0,7.51,0,.85,0,1.5,0,2,0,.21,0,.37,0,.5S535.8,455.72,535.8,455.72Z" transform="translate(-309.01 -166.09)"/></g><path d="M426.66,278.79c0,.14-10.05.26-22.44.26s-22.45-.12-22.45-.26,10.05-.26,22.45-.26S426.66,278.65,426.66,278.79Z" transform="translate(-309.01 -166.09)" style="fill:#263238"/><path d="M461.28,289.56c0,.15-17.8.26-39.75.26s-39.76-.11-39.76-.26,17.8-.26,39.76-.26S461.28,289.42,461.28,289.56Z" transform="translate(-309.01 -166.09)" style="fill:#263238"/><path d="M488.47,288.78c0,.14-4.83.26-10.77.26s-10.78-.12-10.78-.26,4.83-.26,10.78-.26S488.47,288.63,488.47,288.78Z" transform="translate(-309.01 -166.09)" style="fill:#263238"/><path d="M541.18,288.32c0,.14-9.95.26-22.23.26s-22.23-.12-22.23-.26,9.95-.26,22.23-.26S541.18,288.17,541.18,288.32Z" transform="translate(-309.01 -166.09)" style="fill:#263238"/><path d="M540.72,297.48c0,.15-35.71.27-79.75.27s-79.76-.12-79.76-.27,35.7-.26,79.76-.26S540.72,297.34,540.72,297.48Z" transform="translate(-309.01 -166.09)" style="fill:#263238"/><path d="M455.46,307.11c0,.14-16.52.26-36.89.26s-36.9-.12-36.9-.26,16.51-.26,36.9-.26S455.46,307,455.46,307.11Z" transform="translate(-309.01 -166.09)" style="fill:#263238"/><path d="M482.51,307.11a99.4,99.4,0,0,1-10.09.26,99.12,99.12,0,0,1-10.08-.26,99.12,99.12,0,0,1,10.08-.26A99.4,99.4,0,0,1,482.51,307.11Z" transform="translate(-309.01 -166.09)" style="fill:#263238"/><path d="M540.72,306.19c0,.15-11.59.26-25.9.26s-25.89-.11-25.89-.26,11.59-.26,25.89-.26S540.72,306.05,540.72,306.19Z" transform="translate(-309.01 -166.09)" style="fill:#263238"/><path d="M460.28,389.59c0,.14-17.8.26-39.76.26s-39.75-.12-39.75-.26,17.79-.26,39.75-.26S460.28,389.45,460.28,389.59Z" transform="translate(-309.01 -166.09)" style="fill:#263238"/><path d="M487.46,388.8c0,.15-4.82.26-10.77.26s-10.77-.11-10.77-.26,4.82-.26,10.77-.26S487.46,388.66,487.46,388.8Z" transform="translate(-309.01 -166.09)" style="fill:#263238"/><path d="M540.18,388.35c0,.14-10,.26-22.23.26s-22.24-.12-22.24-.26,10-.27,22.24-.27S540.18,388.2,540.18,388.35Z" transform="translate(-309.01 -166.09)" style="fill:#263238"/><path d="M539.72,397.51c0,.15-35.71.26-79.76.26s-79.76-.11-79.76-.26,35.71-.26,79.76-.26S539.72,397.37,539.72,397.51Z" transform="translate(-309.01 -166.09)" style="fill:#263238"/><path d="M454.46,407.14c0,.14-16.52.26-36.9.26s-36.9-.12-36.9-.26,16.52-.26,36.9-.26S454.46,407,454.46,407.14Z" transform="translate(-309.01 -166.09)" style="fill:#263238"/><path d="M481.5,407.14a99.12,99.12,0,0,1-10.08.26,99.12,99.12,0,0,1-10.08-.26,95.75,95.75,0,0,1,10.08-.26A95.75,95.75,0,0,1,481.5,407.14Z" transform="translate(-309.01 -166.09)" style="fill:#263238"/><path d="M539.72,406.22c0,.15-11.6.26-25.9.26s-25.9-.11-25.9-.26,11.59-.26,25.9-.26S539.72,406.08,539.72,406.22Z" transform="translate(-309.01 -166.09)" style="fill:#263238"/><path d="M482.51,417.7c0,.14-22.54.26-50.34.26s-50.34-.12-50.34-.26,22.53-.26,50.34-.26S482.51,417.56,482.51,417.7Z" transform="translate(-309.01 -166.09)" style="fill:#263238"/><path d="M481.5,428.26c0,.14-22.49.26-50.23.26S381,428.4,381,428.26s22.49-.26,50.24-.26S481.5,428.12,481.5,428.26Z" transform="translate(-309.01 -166.09)" style="fill:#263238"/><rect x="72.09" y="151.21" width="97.62" height="62.33" style="fill:#f3725f"/><path d="M474.52,374.67s0-.34,0-1,0-1.58,0-2.8c0-2.47,0-6.08-.05-10.71,0-9.26-.06-22.58-.11-38.9l.2.2-88.46.06h0l.26-.26c0,18.91,0,37,0,53.39l-.24-.24,63.62.11,18.27.07,4.88,0h1.26l.43,0h-.4l-1.24,0-4.82,0-18.22.06-63.78.12h-.25v-.24c0-16.43,0-34.48,0-53.39V321h.26l88.46.06h.21v.2c-.05,16.37-.08,29.74-.11,39,0,4.6,0,8.2-.05,10.66,0,1.2,0,2.13,0,2.77S474.52,374.67,474.52,374.67Z" transform="translate(-309.01 -166.09)" style="fill:#263238"/><g style="opacity:0.2"><polygon points="79.44 208.58 105.03 175.6 123.52 196.73 137.68 183.99 163.42 208.58 79.44 208.58"/></g><g style="opacity:0.2"><path d="M438.25,337.76a5.71,5.71,0,1,1-5.7-5.7A5.71,5.71,0,0,1,438.25,337.76Z" transform="translate(-309.01 -166.09)"/></g><path d="M540.72,316.76c0,.14-12.25.26-27.36.26S486,316.9,486,316.76s12.25-.27,27.37-.27S540.72,316.61,540.72,316.76Z" transform="translate(-309.01 -166.09)" style="fill:#263238"/><path d="M540.72,326.46c0,.14-12.25.26-27.36.26S486,326.6,486,326.46s12.25-.26,27.37-.26S540.72,326.31,540.72,326.46Z" transform="translate(-309.01 -166.09)" style="fill:#263238"/><path d="M538.76,368.67c0,.15-12.25.27-27.37.27s-27.36-.12-27.36-.27,12.25-.26,27.36-.26S538.76,368.53,538.76,368.67Z" transform="translate(-309.01 -166.09)" style="fill:#263238"/><path d="M538.76,379.62c0,.15-12.25.26-27.37.26s-27.36-.11-27.36-.26,12.25-.26,27.36-.26S538.76,379.48,538.76,379.62Z" transform="translate(-309.01 -166.09)" style="fill:#263238"/><path d="M522.84,336.16c0,.14-8.25.26-18.42.26S486,336.3,486,336.16s8.25-.26,18.43-.26S522.84,336,522.84,336.16Z" transform="translate(-309.01 -166.09)" style="fill:#263238"/><path d="M541.13,336a91.16,91.16,0,0,1-13.76,0,91.16,91.16,0,0,1,13.76,0Z" transform="translate(-309.01 -166.09)" style="fill:#263238"/><path d="M541.13,346.8c0,.14-8.22.26-18.35.26s-18.36-.12-18.36-.26,8.22-.26,18.36-.26S541.13,346.65,541.13,346.8Z" transform="translate(-309.01 -166.09)" style="fill:#263238"/><path d="M522.84,357.66c0,.14-8.25.26-18.42.26S486,357.8,486,357.66s8.25-.26,18.43-.26S522.84,357.52,522.84,357.66Z" transform="translate(-309.01 -166.09)" style="fill:#263238"/><path d="M541.13,357.55a91.16,91.16,0,0,1-13.76,0,91.16,91.16,0,0,1,13.76,0Z" transform="translate(-309.01 -166.09)" style="fill:#263238"/><path d="M497.13,346.55a49.56,49.56,0,0,1-10.14,0,49.56,49.56,0,0,1,10.14,0Z" transform="translate(-309.01 -166.09)" style="fill:#263238"/><path d="M482.51,438.6c0,.15-22.72.26-50.74.26S381,438.75,381,438.6s22.72-.26,50.74-.26S482.51,438.46,482.51,438.6Z" transform="translate(-309.01 -166.09)" style="fill:#263238"/><path d="M484,450.31c0,.14-22.71.26-50.73.26s-50.74-.12-50.74-.26,22.71-.26,50.74-.26S484,450.16,484,450.31Z" transform="translate(-309.01 -166.09)" style="fill:#263238"/><rect x="47.77" y="46.88" width="191.66" height="252.54" style="fill:#fff"/><path d="M548.45,465.5c0-2.06-.1-102.85-.24-252.53l.24.23-191.65,0h0L357,213c0,94,0,181.08,0,252.53l-.22-.21,191.67.21-191.67.22h-.21v-.22c0-71.45,0-158.58-.05-252.53v-.26h.28l191.65,0h.23V213C548.54,362.65,548.45,463.44,548.45,465.5Z" transform="translate(-309.01 -166.09)" style="fill:#263238"/><path d="M548.45,231.42c0,.08-42.91.15-95.83.15s-95.84-.07-95.84-.15,42.9-.16,95.84-.16S548.45,231.33,548.45,231.42Z" transform="translate(-309.01 -166.09)" style="fill:#263238"/><path d="M424.33,222.79h65.38" transform="translate(-309.01 -166.09)" style="fill:#455b64"/><path d="M489.71,222.79c0,.08-14.64.15-32.69.15s-32.69-.07-32.69-.15,14.63-.16,32.69-.16S489.71,222.7,489.71,222.79Z" transform="translate(-309.01 -166.09)" style="fill:#455b64"/><circle cx="55.23" cy="56.7" r="2.12" style="fill:#e0e0e0"/><path d="M373.55,222.79a2.12,2.12,0,1,1-2.12-2.12A2.11,2.11,0,0,1,373.55,222.79Z" transform="translate(-309.01 -166.09)" style="fill:#e0e0e0"/><path d="M380.73,222.79a2.12,2.12,0,1,1-2.12-2.12A2.11,2.11,0,0,1,380.73,222.79Z" transform="translate(-309.01 -166.09)" style="fill:#e0e0e0"/><path d="M429.7,257.22h-4.4l-.83,2h-2.25l4.22-9.46h2.16l4.23,9.46h-2.3Zm-.69-1.66-1.5-3.63-1.5,3.63Z" transform="translate(-309.01 -166.09)" style="fill:#455b64"/><path d="M439.84,259.25,438,256.61h-2v2.64h-2.18v-9.46h4.09c2.53,0,4.11,1.31,4.11,3.43a3.06,3.06,0,0,1-1.95,3l2.12,3.05Zm-2-7.68H436v3.3h1.79c1.34,0,2-.62,2-1.65S439.13,251.57,437.79,251.57Z" transform="translate(-309.01 -166.09)" style="fill:#455b64"/><path d="M445.57,251.57h-3v-1.78h8.25v1.78h-3v7.68h-2.19Z" transform="translate(-309.01 -166.09)" style="fill:#455b64"/><path d="M452,249.79h2.19v9.46H452Z" transform="translate(-309.01 -166.09)" style="fill:#455b64"/><path d="M455.8,254.52a4.86,4.86,0,0,1,5.13-4.9,4.91,4.91,0,0,1,3.9,1.68l-1.41,1.3a3,3,0,0,0-2.38-1.11,3,3,0,1,0,0,6.05,3,3,0,0,0,2.38-1.12l1.41,1.3a5.2,5.2,0,0,1-9-3.2Z" transform="translate(-309.01 -166.09)" style="fill:#455b64"/><path d="M466.3,249.79h2.19v7.67h4.74v1.79H466.3Z" transform="translate(-309.01 -166.09)" style="fill:#455b64"/><path d="M481.78,257.49v1.76h-7.32v-9.46h7.15v1.75h-5v2.06H481v1.7h-4.4v2.19Z" transform="translate(-309.01 -166.09)" style="fill:#455b64"/><path d="M417.55,255.36c0,.09-10.15.16-22.66.16s-22.66-.07-22.66-.16,10.14-.15,22.66-.15S417.55,255.28,417.55,255.36Z" transform="translate(-309.01 -166.09)" style="fill:#263238"/><path d="M538,255.36c0,.09-10.65.16-23.79.16s-23.79-.07-23.79-.16,10.65-.15,23.79-.15S538,255.28,538,255.36Z" transform="translate(-309.01 -166.09)" style="fill:#263238"/><rect x="174.48" y="242.26" width="45.96" height="44.47" style="fill:#455b64"/><g style="opacity:0.30000000000000004"><polygon points="178.05 282.92 190.76 260.04 201.16 274.67 207.48 266.9 216.88 282.92 178.05 282.92"/></g><g style="opacity:0.30000000000000004"><path d="M513.72,419.25c2.69,3.54-1.31,7.55-4.85,4.85C506.17,420.56,510.18,416.56,513.72,419.25Z" transform="translate(-309.01 -166.09)"/></g><g style="opacity:0.30000000000000004"><path d="M525.89,449.13s0-.06,0-.18,0-.3,0-.52c0-.47,0-1.14,0-2,0-1.76,0-4.31-.05-7.55,0-6.5-.06-15.75-.1-26.85l.19.19-38.83,0c-.05,0,.41-.41.21-.22h0V431.6c0,6.23,0,12.12,0,17.53l-.19-.19,28.08.1,7.92,0,2.1,0h.73s0,0-.17,0l-.52,0-2.06,0-7.88.05-28.2.09h-.19v-.2c0-5.41,0-11.3,0-17.53V412h0l.22-.22,38.83,0h.19V412c0,11.15-.07,20.44-.1,27,0,3.22,0,5.76,0,7.51,0,.84,0,1.5,0,2,0,.21,0,.37,0,.5S525.9,449.14,525.89,449.13Z" transform="translate(-309.01 -166.09)"/></g><path d="M416.76,272.2c0,.15-10.05.26-22.45.26s-22.45-.11-22.45-.26,10.05-.26,22.45-.26S416.76,272.06,416.76,272.2Z" transform="translate(-309.01 -166.09)" style="fill:#263238"/><path d="M451.38,283c0,.14-17.8.26-39.76.26s-39.76-.12-39.76-.26,17.8-.26,39.76-.26S451.38,282.83,451.38,283Z" transform="translate(-309.01 -166.09)" style="fill:#263238"/><path d="M478.56,282.19c0,.14-4.82.26-10.77.26s-10.77-.12-10.77-.26,4.82-.26,10.77-.26S478.56,282.05,478.56,282.19Z" transform="translate(-309.01 -166.09)" style="fill:#263238"/><path d="M531.28,281.73c0,.15-10,.26-22.23.26s-22.24-.11-22.24-.26,9.95-.26,22.24-.26S531.28,281.59,531.28,281.73Z" transform="translate(-309.01 -166.09)" style="fill:#263238"/><path d="M530.82,290.9c0,.14-35.71.26-79.76.26s-79.76-.12-79.76-.26,35.71-.26,79.76-.26S530.82,290.76,530.82,290.9Z" transform="translate(-309.01 -166.09)" style="fill:#263238"/><path d="M445.56,300.53c0,.14-16.52.26-36.9.26s-36.9-.12-36.9-.26,16.52-.26,36.9-.26S445.56,300.38,445.56,300.53Z" transform="translate(-309.01 -166.09)" style="fill:#263238"/><path d="M472.6,300.53a99.12,99.12,0,0,1-10.08.26,99.4,99.4,0,0,1-10.09-.26,96,96,0,0,1,10.09-.26A95.75,95.75,0,0,1,472.6,300.53Z" transform="translate(-309.01 -166.09)" style="fill:#263238"/><path d="M530.82,299.61c0,.14-11.6.26-25.9.26s-25.9-.12-25.9-.26,11.59-.26,25.9-.26S530.82,299.47,530.82,299.61Z" transform="translate(-309.01 -166.09)" style="fill:#263238"/><path d="M450.38,383c0,.14-17.81.26-39.76.26s-39.76-.12-39.76-.26,17.8-.26,39.76-.26S450.38,382.86,450.38,383Z" transform="translate(-309.01 -166.09)" style="fill:#263238"/><path d="M477.56,382.22c0,.14-4.83.26-10.77.26s-10.78-.12-10.78-.26,4.83-.26,10.78-.26S477.56,382.07,477.56,382.22Z" transform="translate(-309.01 -166.09)" style="fill:#263238"/><path d="M530.27,381.76c0,.14-9.95.26-22.23.26s-22.23-.12-22.23-.26,9.95-.26,22.23-.26S530.27,381.62,530.27,381.76Z" transform="translate(-309.01 -166.09)" style="fill:#263238"/><path d="M529.81,390.93c0,.14-35.71.26-79.75.26s-79.76-.12-79.76-.26,35.7-.26,79.76-.26S529.81,390.78,529.81,390.93Z" transform="translate(-309.01 -166.09)" style="fill:#263238"/><path d="M444.55,400.55c0,.15-16.52.26-36.89.26s-36.9-.11-36.9-.26,16.51-.26,36.9-.26S444.55,400.41,444.55,400.55Z" transform="translate(-309.01 -166.09)" style="fill:#263238"/><path d="M471.6,400.55a95.9,95.9,0,0,1-10.08.26,95.87,95.87,0,0,1-10.09-.26,99.24,99.24,0,0,1,10.09-.26A99.28,99.28,0,0,1,471.6,400.55Z" transform="translate(-309.01 -166.09)" style="fill:#263238"/><path d="M529.81,399.64c0,.14-11.59.26-25.89.26s-25.9-.12-25.9-.26,11.59-.26,25.9-.26S529.81,399.49,529.81,399.64Z" transform="translate(-309.01 -166.09)" style="fill:#263238"/><path d="M472.6,411.11c0,.15-22.54.26-50.33.26s-50.35-.11-50.35-.26,22.54-.26,50.35-.26S472.6,411,472.6,411.11Z" transform="translate(-309.01 -166.09)" style="fill:#263238"/><path d="M471.6,421.68c0,.14-22.49.26-50.23.26s-50.24-.12-50.24-.26,22.49-.26,50.24-.26S471.6,421.53,471.6,421.68Z" transform="translate(-309.01 -166.09)" style="fill:#263238"/><rect x="62.19" y="144.63" width="97.62" height="62.33" style="fill:#f3725f"/><path d="M464.62,368.08s0-.33,0-1,0-1.59,0-2.81c0-2.47,0-6.08-.06-10.71,0-9.25-.06-22.58-.1-38.9l.2.21-88.46.05h0l.26-.26c0,18.92,0,37,0,53.39l-.24-.24,63.63.12,18.27.06,4.87,0,1.26,0h.44l-.41,0H463l-4.83,0-18.21.07-63.79.11h-.24v-.24c0-16.42,0-34.47,0-53.39v-.26h.27l88.46.06h.2v.2c0,16.38-.08,29.74-.1,39,0,4.61,0,8.2-.06,10.66,0,1.21,0,2.13,0,2.77S464.62,368.08,464.62,368.08Z" transform="translate(-309.01 -166.09)" style="fill:#263238"/><g style="opacity:0.2"><polygon points="69.53 202 95.12 169.02 113.62 190.14 127.77 177.4 153.51 202 69.53 202"/></g><g style="opacity:0.2"><path d="M428.35,331.18a5.71,5.71,0,1,1-5.71-5.71A5.7,5.7,0,0,1,428.35,331.18Z" transform="translate(-309.01 -166.09)"/></g><path d="M530.82,310.17c0,.14-12.26.26-27.37.26s-27.37-.12-27.37-.26,12.26-.26,27.37-.26S530.82,310,530.82,310.17Z" transform="translate(-309.01 -166.09)" style="fill:#263238"/><path d="M530.82,319.87c0,.14-12.26.26-27.37.26s-27.37-.12-27.37-.26,12.26-.26,27.37-.26S530.82,319.73,530.82,319.87Z" transform="translate(-309.01 -166.09)" style="fill:#263238"/><path d="M528.85,362.09c0,.14-12.25.26-27.36.26s-27.37-.12-27.37-.26,12.25-.26,27.37-.26S528.85,362,528.85,362.09Z" transform="translate(-309.01 -166.09)" style="fill:#263238"/><path d="M528.85,373c0,.14-12.25.26-27.36.26s-27.37-.12-27.37-.26,12.25-.26,27.37-.26S528.85,372.9,528.85,373Z" transform="translate(-309.01 -166.09)" style="fill:#263238"/><path d="M512.94,329.57c0,.15-8.25.26-18.43.26s-18.43-.11-18.43-.26,8.25-.26,18.43-.26S512.94,329.43,512.94,329.57Z" transform="translate(-309.01 -166.09)" style="fill:#263238"/><path d="M531.23,329.46a91.16,91.16,0,0,1-13.76,0,91.16,91.16,0,0,1,13.76,0Z" transform="translate(-309.01 -166.09)" style="fill:#263238"/><path d="M531.23,340.21c0,.14-8.22.26-18.36.26s-18.36-.12-18.36-.26,8.22-.26,18.36-.26S531.23,340.07,531.23,340.21Z" transform="translate(-309.01 -166.09)" style="fill:#263238"/><path d="M512.94,351.08c0,.14-8.25.26-18.43.26s-18.43-.12-18.43-.26,8.25-.27,18.43-.27S512.94,350.93,512.94,351.08Z" transform="translate(-309.01 -166.09)" style="fill:#263238"/><path d="M531.23,351a91.16,91.16,0,0,1-13.76,0,91.16,91.16,0,0,1,13.76,0Z" transform="translate(-309.01 -166.09)" style="fill:#263238"/><path d="M487.23,340a49.56,49.56,0,0,1-10.14,0,49.56,49.56,0,0,1,10.14,0Z" transform="translate(-309.01 -166.09)" style="fill:#263238"/><path d="M472.6,432c0,.14-22.71.26-50.73.26s-50.74-.12-50.74-.26,22.71-.26,50.74-.26S472.6,431.87,472.6,432Z" transform="translate(-309.01 -166.09)" style="fill:#263238"/><path d="M474.13,443.72c0,.14-22.72.26-50.74.26s-50.74-.12-50.74-.26,22.72-.26,50.74-.26S474.13,443.58,474.13,443.72Z" transform="translate(-309.01 -166.09)" style="fill:#263238"/><rect x="38.25" y="37.35" width="191.66" height="252.54" style="fill:#fff"/><path d="M538.92,456c0-2.07-.1-102.86-.24-252.54l.24.23-191.64,0h0l.26-.26c0,93.95,0,181.08,0,252.54l-.22-.22,191.67.22-191.67.21H347V456c0-71.46,0-158.59-.05-252.54v-.26h.29l191.64,0h.23v.24C539,353.12,538.92,453.91,538.92,456Z" transform="translate(-309.01 -166.09)" style="fill:#263238"/><path d="M538.92,221.89c0,.08-42.91.15-95.83.15s-95.84-.07-95.84-.15,42.9-.16,95.84-.16S538.92,221.8,538.92,221.89Z" transform="translate(-309.01 -166.09)" style="fill:#263238"/><path d="M414.8,213.26h65.38" transform="translate(-309.01 -166.09)" style="fill:#455b64"/><path d="M480.18,213.26c0,.08-14.63.15-32.69.15s-32.69-.07-32.69-.15,14.63-.16,32.69-.16S480.18,213.17,480.18,213.26Z" transform="translate(-309.01 -166.09)" style="fill:#455b64"/><circle cx="45.71" cy="47.17" r="2.12" style="fill:#e0e0e0"/><path d="M364,213.26a2.12,2.12,0,1,1-2.12-2.12A2.12,2.12,0,0,1,364,213.26Z" transform="translate(-309.01 -166.09)" style="fill:#e0e0e0"/><path d="M371.2,213.26a2.12,2.12,0,1,1-2.11-2.12A2.11,2.11,0,0,1,371.2,213.26Z" transform="translate(-309.01 -166.09)" style="fill:#e0e0e0"/><path d="M420.17,247.69h-4.39l-.84,2h-2.25l4.22-9.46h2.16l4.23,9.46H421Zm-.69-1.66-1.5-3.62-1.5,3.62Z" transform="translate(-309.01 -166.09)" style="fill:#455b64"/><path d="M430.31,249.72l-1.82-2.64h-2v2.64h-2.19v-9.46h4.09c2.53,0,4.11,1.31,4.11,3.43a3.08,3.08,0,0,1-1.95,3l2.13,3ZM428.26,242h-1.78v3.3h1.78c1.34,0,2-.62,2-1.65S429.6,242,428.26,242Z" transform="translate(-309.01 -166.09)" style="fill:#455b64"/><path d="M436,242h-3v-1.78h8.24V242h-3v7.68H436Z" transform="translate(-309.01 -166.09)" style="fill:#455b64"/><path d="M442.43,240.26h2.19v9.46h-2.19Z" transform="translate(-309.01 -166.09)" style="fill:#455b64"/><path d="M446.27,245a5.21,5.21,0,0,1,9-3.22l-1.41,1.3a3,3,0,0,0-2.38-1.11,3,3,0,0,0,0,6,3,3,0,0,0,2.38-1.12l1.41,1.3a5.2,5.2,0,0,1-9-3.2Z" transform="translate(-309.01 -166.09)" style="fill:#455b64"/><path d="M456.77,240.26H459v7.67h4.74v1.79h-6.93Z" transform="translate(-309.01 -166.09)" style="fill:#455b64"/><path d="M472.25,248v1.76h-7.32v-9.46h7.15V242h-5v2.06h4.39v1.7h-4.39V248Z" transform="translate(-309.01 -166.09)" style="fill:#455b64"/><path d="M408,245.83c0,.09-10.15.16-22.66.16s-22.66-.07-22.66-.16,10.14-.15,22.66-.15S408,245.75,408,245.83Z" transform="translate(-309.01 -166.09)" style="fill:#263238"/><path d="M528.51,245.83c0,.09-10.65.16-23.78.16s-23.8-.07-23.8-.16,10.65-.15,23.8-.15S528.51,245.75,528.51,245.83Z" transform="translate(-309.01 -166.09)" style="fill:#263238"/><rect x="164.96" y="232.73" width="45.96" height="44.47" style="fill:#455b64"/><g style="opacity:0.30000000000000004"><polygon points="168.52 273.4 181.24 250.51 191.63 265.14 197.96 257.37 207.36 273.4 168.52 273.4"/></g><g style="opacity:0.30000000000000004"><path d="M504.19,409.72c2.7,3.55-1.31,7.55-4.85,4.85C496.65,411,500.65,407,504.19,409.72Z" transform="translate(-309.01 -166.09)"/></g><g style="opacity:0.30000000000000004"><path d="M516.37,439.61a.86.86,0,0,1,0-.19c0-.13,0-.3,0-.51,0-.48,0-1.15,0-2,0-1.76,0-4.31-.05-7.55,0-6.49,0-15.74-.09-26.85l.19.19-38.84,0s.41-.41.22-.21h0v5c0,1.67,0,3.32,0,4.95v9.58c0,6.23,0,12.12,0,17.54l-.19-.2,28.08.1,7.92.05,2.1,0,.54,0h-.5l-2.06,0-7.88.05-28.2.1h-.19v-.19c0-5.42,0-11.31,0-17.54,0-3.11,0-6.31,0-9.58v-10h0c-.2.19.26-.28.22-.23l38.84,0h.18v.19c0,11.16-.07,20.45-.09,27,0,3.22,0,5.76-.05,7.51,0,.85,0,1.5,0,2,0,.2,0,.37,0,.49S516.37,439.61,516.37,439.61Z" transform="translate(-309.01 -166.09)"/></g><path d="M407.23,262.68c0,.14-10.05.26-22.45.26s-22.44-.12-22.44-.26,10.05-.26,22.44-.26S407.23,262.53,407.23,262.68Z" transform="translate(-309.01 -166.09)" style="fill:#263238"/><path d="M441.85,273.45c0,.14-17.8.26-39.75.26s-39.76-.12-39.76-.26,17.79-.26,39.76-.26S441.85,273.31,441.85,273.45Z" transform="translate(-309.01 -166.09)" style="fill:#263238"/><path d="M469,272.66c0,.15-4.82.26-10.77.26s-10.77-.11-10.77-.26,4.82-.26,10.77-.26S469,272.52,469,272.66Z" transform="translate(-309.01 -166.09)" style="fill:#263238"/><path d="M521.75,272.2c0,.15-10,.26-22.23.26s-22.23-.11-22.23-.26,9.95-.26,22.23-.26S521.75,272.06,521.75,272.2Z" transform="translate(-309.01 -166.09)" style="fill:#263238"/><path d="M521.29,281.37c0,.15-35.71.26-79.75.26s-79.77-.11-79.77-.26,35.71-.26,79.77-.26S521.29,281.23,521.29,281.37Z" transform="translate(-309.01 -166.09)" style="fill:#263238"/><path d="M436,291c0,.14-16.52.26-36.9.26s-36.9-.12-36.9-.26,16.52-.26,36.9-.26S436,290.85,436,291Z" transform="translate(-309.01 -166.09)" style="fill:#263238"/><path d="M463.08,291a99.4,99.4,0,0,1-10.09.26,99.12,99.12,0,0,1-10.08-.26,95.75,95.75,0,0,1,10.08-.26A96,96,0,0,1,463.08,291Z" transform="translate(-309.01 -166.09)" style="fill:#263238"/><path d="M521.29,290.08c0,.15-11.6.26-25.9.26s-25.9-.11-25.9-.26,11.6-.26,25.9-.26S521.29,289.94,521.29,290.08Z" transform="translate(-309.01 -166.09)" style="fill:#263238"/><path d="M440.85,373.48c0,.14-17.8.26-39.76.26s-39.76-.12-39.76-.26,17.8-.26,39.76-.26S440.85,373.33,440.85,373.48Z" transform="translate(-309.01 -166.09)" style="fill:#263238"/><path d="M468,372.69c0,.14-4.82.26-10.77.26s-10.77-.12-10.77-.26,4.82-.26,10.77-.26S468,372.55,468,372.69Z" transform="translate(-309.01 -166.09)" style="fill:#263238"/><path d="M520.74,372.23c0,.15-9.95.26-22.23.26s-22.23-.11-22.23-.26,10-.26,22.23-.26S520.74,372.09,520.74,372.23Z" transform="translate(-309.01 -166.09)" style="fill:#263238"/><path d="M520.29,381.4c0,.14-35.72.26-79.76.26s-79.76-.12-79.76-.26,35.7-.26,79.76-.26S520.29,381.26,520.29,381.4Z" transform="translate(-309.01 -166.09)" style="fill:#263238"/><path d="M435,391c0,.14-16.52.26-36.9.26s-36.9-.12-36.9-.26,16.52-.26,36.9-.26S435,390.88,435,391Z" transform="translate(-309.01 -166.09)" style="fill:#263238"/><path d="M462.07,391a99.12,99.12,0,0,1-10.08.26A99.4,99.4,0,0,1,441.9,391a96,96,0,0,1,10.09-.26A95.75,95.75,0,0,1,462.07,391Z" transform="translate(-309.01 -166.09)" style="fill:#263238"/><path d="M520.29,390.11c0,.14-11.6.26-25.9.26s-25.9-.12-25.9-.26,11.59-.26,25.9-.26S520.29,390,520.29,390.11Z" transform="translate(-309.01 -166.09)" style="fill:#263238"/><path d="M463.08,401.59c0,.14-22.54.26-50.34.26s-50.34-.12-50.34-.26,22.53-.26,50.34-.26S463.08,401.44,463.08,401.59Z" transform="translate(-309.01 -166.09)" style="fill:#263238"/><path d="M462.07,412.15c0,.14-22.49.26-50.23.26s-50.24-.12-50.24-.26,22.49-.26,50.24-.26S462.07,412,462.07,412.15Z" transform="translate(-309.01 -166.09)" style="fill:#263238"/><rect x="52.66" y="135.1" width="97.62" height="62.33" style="fill:#f3725f"/><path d="M455.09,358.56s0-.34,0-1,0-1.58,0-2.81c0-2.47,0-6.08-.05-10.7,0-9.26-.07-22.58-.11-38.9l.2.2-88.46.06h0l.26-.26c0,18.91,0,37,0,53.39l-.24-.25,63.63.12,18.27.07,4.87,0h1.26l.44,0h-1.64l-4.83,0-18.21.07-63.79.12h-.24v-.24c0-16.43,0-34.48,0-53.39v-.26h.27l88.46,0h.21v.21c-.05,16.37-.09,29.73-.11,39,0,4.61,0,8.2-.05,10.66,0,1.21,0,2.13,0,2.77S455.09,358.56,455.09,358.56Z" transform="translate(-309.01 -166.09)" style="fill:#263238"/><g style="opacity:0.2"><polygon points="60.01 192.47 85.6 159.49 104.09 180.61 118.24 167.87 143.98 192.47 60.01 192.47"/></g><g style="opacity:0.2"><path d="M418.82,321.65a5.71,5.71,0,1,1-5.7-5.71A5.71,5.71,0,0,1,418.82,321.65Z" transform="translate(-309.01 -166.09)"/></g><path d="M521.29,300.64c0,.15-12.25.26-27.37.26s-27.36-.11-27.36-.26,12.25-.26,27.36-.26S521.29,300.5,521.29,300.64Z" transform="translate(-309.01 -166.09)" style="fill:#263238"/><path d="M521.29,310.34c0,.15-12.25.26-27.37.26s-27.36-.11-27.36-.26,12.25-.26,27.36-.26S521.29,310.2,521.29,310.34Z" transform="translate(-309.01 -166.09)" style="fill:#263238"/><path d="M519.33,352.56c0,.15-12.26.26-27.37.26s-27.36-.11-27.36-.26,12.25-.26,27.36-.26S519.33,352.42,519.33,352.56Z" transform="translate(-309.01 -166.09)" style="fill:#263238"/><path d="M519.33,363.51c0,.15-12.26.26-27.37.26s-27.36-.11-27.36-.26,12.25-.26,27.36-.26S519.33,363.37,519.33,363.51Z" transform="translate(-309.01 -166.09)" style="fill:#263238"/><path d="M503.41,320c0,.15-8.25.26-18.42.26s-18.43-.11-18.43-.26,8.25-.26,18.43-.26S503.41,319.9,503.41,320Z" transform="translate(-309.01 -166.09)" style="fill:#263238"/><path d="M521.7,319.93a91.16,91.16,0,0,1-13.76,0,91.16,91.16,0,0,1,13.76,0Z" transform="translate(-309.01 -166.09)" style="fill:#263238"/><path d="M521.7,330.68c0,.15-8.22.26-18.36.26s-18.36-.11-18.36-.26,8.22-.26,18.36-.26S521.7,330.54,521.7,330.68Z" transform="translate(-309.01 -166.09)" style="fill:#263238"/><path d="M503.41,341.55c0,.14-8.25.26-18.42.26s-18.43-.12-18.43-.26,8.25-.26,18.43-.26S503.41,341.4,503.41,341.55Z" transform="translate(-309.01 -166.09)" style="fill:#263238"/><path d="M521.7,341.44a91.16,91.16,0,0,1-13.76,0,87.79,87.79,0,0,1,13.76,0Z" transform="translate(-309.01 -166.09)" style="fill:#263238"/><path d="M477.7,330.43a49.56,49.56,0,0,1-10.14,0,49.56,49.56,0,0,1,10.14,0Z" transform="translate(-309.01 -166.09)" style="fill:#263238"/><path d="M463.08,422.49c0,.14-22.72.26-50.74.26s-50.74-.12-50.74-.26,22.71-.26,50.74-.26S463.08,422.35,463.08,422.49Z" transform="translate(-309.01 -166.09)" style="fill:#263238"/><path d="M464.6,434.19c0,.15-22.72.26-50.73.26s-50.74-.11-50.74-.26,22.71-.26,50.74-.26S464.6,434.05,464.6,434.19Z" transform="translate(-309.01 -166.09)" style="fill:#263238"/><circle cx="34.44" cy="168.89" r="13.39" style="fill:#ebebeb"/><path d="M356.83,335a22,22,0,0,0-.51-3.25A13.31,13.31,0,0,0,345.88,322a13.13,13.13,0,0,0-6.91.59,12.17,12.17,0,0,0-3.32,1.79,12.47,12.47,0,0,0-2.78,2.79,13.1,13.1,0,0,0,0,15.53,13.22,13.22,0,0,0,6.1,4.58,13.18,13.18,0,0,0,12.47-1.85,13.39,13.39,0,0,0,4.88-7.25,22.22,22.22,0,0,0,.51-3.24,5,5,0,0,1,0,.85,6,6,0,0,1-.08,1,8.5,8.5,0,0,1-.25,1.4,13.3,13.3,0,0,1-4.85,7.49,13.45,13.45,0,0,1-12.85,2,12.7,12.7,0,0,1-3.46-1.84,13,13,0,0,1-2.89-2.89,13.56,13.56,0,0,1,0-16.13,13.2,13.2,0,0,1,2.89-2.89,12.7,12.7,0,0,1,3.46-1.84,13.45,13.45,0,0,1,12.85,2,13.3,13.3,0,0,1,4.85,7.49,8.5,8.5,0,0,1,.25,1.4,6,6,0,0,1,.08,1A5.16,5.16,0,0,1,356.83,335Z" transform="translate(-309.01 -166.09)" style="fill:#263238"/><circle cx="235.19" cy="168.89" r="13.39" style="fill:#ebebeb"/><path d="M557.59,335a25.25,25.25,0,0,0-.52-3.25A13.31,13.31,0,0,0,546.63,322a13.13,13.13,0,0,0-6.91.59,13.13,13.13,0,0,0-6.09,4.58,13.08,13.08,0,0,0,0,15.53,12.47,12.47,0,0,0,2.78,2.79,12.31,12.31,0,0,0,3.32,1.79,13.18,13.18,0,0,0,12.47-1.85,13.39,13.39,0,0,0,4.88-7.25,25.58,25.58,0,0,0,.52-3.24,6.08,6.08,0,0,1,0,.85,5.16,5.16,0,0,1-.08,1,9.56,9.56,0,0,1-.24,1.4,13.52,13.52,0,0,1-10.56,10.07,13.61,13.61,0,0,1-7.15-.57,12.7,12.7,0,0,1-3.46-1.84,13.2,13.2,0,0,1-2.89-2.89,13.56,13.56,0,0,1,0-16.13A13.2,13.2,0,0,1,536.1,324a12.7,12.7,0,0,1,3.46-1.84,13.45,13.45,0,0,1,12.85,2,13.3,13.3,0,0,1,4.85,7.49,8.5,8.5,0,0,1,.25,1.4,5.16,5.16,0,0,1,.08,1A6.27,6.27,0,0,1,557.59,335Z" transform="translate(-309.01 -166.09)" style="fill:#263238"/><path d="M542.61,339.37a.52.52,0,0,1-.38-.17.51.51,0,0,1,.06-.71l4.19-3.51-4.19-3.52a.5.5,0,0,1,.64-.77l4.65,3.9a.5.5,0,0,1,.18.39.49.49,0,0,1-.18.38l-4.65,3.9A.46.46,0,0,1,542.61,339.37Z" transform="translate(-309.01 -166.09)" style="fill:#263238"/><path d="M345.77,339.37a.5.5,0,0,1-.32-.11l-4.65-3.9a.5.5,0,0,1,0-.77l4.65-3.9a.51.51,0,0,1,.71.06.51.51,0,0,1-.07.71L341.9,335l4.19,3.51a.51.51,0,0,1,.07.71A.52.52,0,0,1,345.77,339.37Z" transform="translate(-309.01 -166.09)" style="fill:#263238"/></svg>