<svg id="a99f0c56-b9f6-4635-a07f-9ba3e7b51534" data-name="Layer 1" xmlns="http://www.w3.org/2000/svg" xmlns:xlink="http://www.w3.org/1999/xlink" viewBox="0 0 279.91 266.08"><defs><clipPath id="e0efcc9c-8149-4153-b26f-c7ebc3aae1b0" transform="translate(-234.09 -187.89)"><path d="M360.78,274.68s-8.14-.11-9.93,2.56-9.2,19.22-9.2,19.22l11.54,6,2.49-7.11,4.05,14.84c-4.64,3.69-11.21,37.1-9.9,51.18l43.37.14s.3-39.06-11.43-51.9l2.75-15.52,2.64,7.57,12.25-5.07L390.2,280a8.92,8.92,0,0,0-7.75-4.58l-3,0s-1.27,11.09-9.33,10.88S360.78,274.68,360.78,274.68Z" style="fill:none"/></clipPath><clipPath id="b301eeab-5607-4ab4-be5c-a85312272f4e" transform="translate(-234.09 -187.89)"><path d="M273.34,303.7l10.31-7.49,13.4,15.86a6.76,6.76,0,0,1,1.38,6.11l-4.51,17.14a5.75,5.75,0,0,1-6,4.27h0a5.74,5.74,0,0,1-5.29-6.46l2-15.46Z" style="fill:none"/></clipPath><clipPath id="f0a90bad-55fa-4423-a94f-14493cf31c68" transform="translate(-234.09 -187.89)"><path d="M278.67,298.21,289,290.72l13.4,15.87a6.82,6.82,0,0,1,1.38,6.11l-4.52,17.14a5.72,5.72,0,0,1-5.95,4.26h0a5.74,5.74,0,0,1-5.3-6.46l2-15.46Z" style="fill:none"/></clipPath></defs><title>mobileapp</title><path d="M424.54,228.35h61.29a4.62,4.62,0,0,1,4.62,4.62v99.21a4.62,4.62,0,0,1-4.62,4.62H424.54a4.61,4.61,0,0,1-4.61-4.61V233a4.62,4.62,0,0,1,4.62-4.62Z" transform="translate(-136.98 493.2) rotate(-79.89)" style="fill:#e0e0e0"/><path d="M496.14,270.72a7.49,7.49,0,1,1-6.06-8.68A7.49,7.49,0,0,1,496.14,270.72Z" transform="translate(-234.09 -187.89)" style="fill:#fff"/><path d="M497.67,278.79a8.17,8.17,0,0,1-1.39-.13,7.65,7.65,0,1,1,1.39.13Zm0-15a7.18,7.18,0,0,0-1.26,14.25,7.18,7.18,0,0,0,8.33-5.81h0a7.2,7.2,0,0,0-5.81-8.33A7.76,7.76,0,0,0,497.65,263.81Z" transform="translate(-234.09 -187.89)" style="fill:#fff"/><path d="M409.53,284.45l-1.06,5.93-.61-.11,1-5.39-1.4-.25.1-.54Z" transform="translate(-234.09 -187.89)" style="fill:#fff"/><path d="M414.66,290.92l-.1.54-4.15-.74.07-.43,2.9-2c.78-.54,1-.91,1.05-1.32.13-.68-.28-1.19-1.19-1.35a2,2,0,0,0-1.73.37l-.37-.45a2.68,2.68,0,0,1,2.25-.47c1.21.21,1.86,1,1.68,2a2.5,2.5,0,0,1-1.3,1.68l-2.37,1.62Z" transform="translate(-234.09 -187.89)" style="fill:#fff"/><path d="M421.08,291l-1.18-.22-.28,1.56-.61-.11.28-1.55-3.35-.6.08-.44,3.84-3.37.68.12-3.71,3.29,2.57.46.24-1.37.6.1-.25,1.37,1.19.21Z" transform="translate(-234.09 -187.89)" style="fill:#fff"/><path d="M430.16,292.64l-1.18-.22L428.7,294l-.61-.11.28-1.55-3.35-.6.08-.44,3.84-3.37.68.12-3.71,3.29,2.57.46.25-1.38.59.11-.25,1.37,1.19.21Z" transform="translate(-234.09 -187.89)" style="fill:#fff"/><path d="M435.38,293.37c-.18,1-1,1.67-2.47,1.41a3.06,3.06,0,0,1-2-1.14l.38-.43a2.55,2.55,0,0,0,1.7,1c1,.18,1.62-.21,1.75-.93S434.5,292,433,291.7l-1.26-.23.84-2.91,3.24.57-.1.55-2.71-.49-.54,1.85.76.14C435,291.5,435.56,292.32,435.38,293.37Z" transform="translate(-234.09 -187.89)" style="fill:#fff"/><path d="M441.24,294.39a1.88,1.88,0,0,1-2.35,1.46c-1.57-.28-2.24-1.52-1.9-3.4s1.65-2.86,3.25-2.58a2.83,2.83,0,0,1,1.35.57l-.33.45a2.1,2.1,0,0,0-1.1-.48c-1.28-.23-2.25.44-2.54,2,0,.14,0,.31-.06.49a1.93,1.93,0,0,1,2-.69A1.83,1.83,0,0,1,441.24,294.39Zm-.61-.09c.14-.78-.34-1.38-1.26-1.54a1.39,1.39,0,0,0-1.75,1c-.12.65.31,1.37,1.34,1.55A1.31,1.31,0,0,0,440.63,294.3Z" transform="translate(-234.09 -187.89)" style="fill:#fff"/><path d="M449.33,295.9c-.17,1-1,1.63-2.46,1.37a3.14,3.14,0,0,1-2-1.14l.39-.43a2.58,2.58,0,0,0,1.71,1c1,.18,1.61-.18,1.74-.92s-.29-1.26-1.39-1.46l-.43-.07.08-.45,2-1.77-3-.54.1-.54,3.81.68-.08.43-2,1.81C449,294.17,449.5,295,449.33,295.9Z" transform="translate(-234.09 -187.89)" style="fill:#fff"/><path d="M455.29,296.9a1.89,1.89,0,0,1-2.35,1.46c-1.57-.29-2.23-1.53-1.9-3.4s1.65-2.87,3.25-2.58a2.64,2.64,0,0,1,1.35.57l-.33.45a2.11,2.11,0,0,0-1.1-.49c-1.28-.23-2.25.45-2.53,2.06a3,3,0,0,0-.06.48,1.94,1.94,0,0,1,2-.69A1.83,1.83,0,0,1,455.29,296.9Zm-.61-.09a1.32,1.32,0,0,0-1.26-1.55,1.39,1.39,0,0,0-1.75,1c-.12.65.31,1.36,1.34,1.54A1.31,1.31,0,0,0,454.68,296.81Z" transform="translate(-234.09 -187.89)" style="fill:#fff"/><path d="M461.48,293.71l-.08.43-3.46,5.06-.66-.12,3.4-4.95-3.05-.55-.19,1.11-.61-.1.3-1.66Z" transform="translate(-234.09 -187.89)" style="fill:#fff"/><path d="M470,295.22l-.07.43-3.46,5.06-.66-.12,3.39-4.95-3-.55-.2,1.11-.6-.1.29-1.65Z" transform="translate(-234.09 -187.89)" style="fill:#fff"/><path d="M475,300.54c-.18,1-1.19,1.54-2.6,1.29s-2.17-1.06-2-2.11a1.51,1.51,0,0,1,1.41-1.25,1.37,1.37,0,0,1-.7-1.47c.17-1,1.1-1.42,2.35-1.2s2,1,1.81,1.94a1.36,1.36,0,0,1-1.18,1.13A1.52,1.52,0,0,1,475,300.54Zm-.62-.12c.13-.73-.42-1.3-1.47-1.49s-1.75.16-1.88.89.41,1.3,1.46,1.49S474.27,301.15,474.4,300.42Zm-1.38-2c.92.16,1.55-.15,1.66-.8s-.39-1.18-1.28-1.33-1.54.14-1.65.8S472.1,298.28,473,298.45Z" transform="translate(-234.09 -187.89)" style="fill:#fff"/><path d="M481,300.2c-.36,2-1.65,2.87-3.25,2.58a2.73,2.73,0,0,1-1.35-.57l.33-.45a2.11,2.11,0,0,0,1.1.49c1.28.22,2.25-.45,2.54-2.06,0-.14,0-.31.06-.49a2,2,0,0,1-2,.7,1.83,1.83,0,0,1-1.68-2.14,1.88,1.88,0,0,1,2.35-1.46C480.7,297.08,481.36,298.33,481,300.2Zm-.63-1.33c.12-.65-.31-1.36-1.34-1.55a1.32,1.32,0,0,0-1.67,1c-.14.78.34,1.38,1.26,1.55A1.39,1.39,0,0,0,480.39,298.87Z" transform="translate(-234.09 -187.89)" style="fill:#fff"/><path d="M487.55,298.36l-1.06,5.92-.61-.1,1-5.39-1.39-.25.09-.54Z" transform="translate(-234.09 -187.89)" style="fill:#fff"/><path d="M492.68,304.83l-.09.54-4.16-.74.08-.43,2.89-2c.79-.54,1-.91,1.06-1.32.12-.68-.29-1.19-1.19-1.35a2,2,0,0,0-1.74.37l-.36-.45a2.67,2.67,0,0,1,2.25-.47c1.2.21,1.85,1,1.68,1.95-.1.56-.37,1-1.31,1.68l-2.36,1.62Z" transform="translate(-234.09 -187.89)" style="fill:#fff"/><path d="M498.21,304.62c-.18,1-1,1.62-2.47,1.37a3.14,3.14,0,0,1-2-1.15l.38-.43a2.63,2.63,0,0,0,1.71,1c1,.17,1.61-.19,1.74-.93s-.29-1.26-1.39-1.46l-.42-.07.08-.45,2-1.77-3-.54.09-.54,3.81.68-.07.43-2.06,1.81C497.86,302.89,498.38,303.67,498.21,304.62Z" transform="translate(-234.09 -187.89)" style="fill:#fff"/><rect x="473.81" y="284" width="2.61" height="48.22" transform="translate(-145.67 533.9) rotate(-79.89)" style="fill:#fff"/><rect x="484.45" y="302.94" width="2.61" height="24.73" transform="translate(-143.98 550.32) rotate(-79.89)" style="fill:#fff"/><g style="opacity:0.5"><rect x="407.99" y="265.47" width="20.23" height="15.11" rx="4.96" transform="translate(-179.69 -257.04) rotate(10.11)" style="fill:#ebebeb"/></g><path d="M407.56,274.58l.17-1L418,275.45a2.18,2.18,0,0,0,.77-4.29l-10.26-1.83.17-1,10.26,1.83a3.15,3.15,0,1,1-1.11,6.2Z" transform="translate(-234.09 -187.89)" style="fill:#e0e0e0"/><rect x="424.02" y="270.82" width="0.97" height="7.15" transform="translate(-154.57 455.95) rotate(-79.84)" style="fill:#e0e0e0"/><rect x="413.21" y="256.52" width="52.03" height="4.47" transform="translate(-181.85 -260.98) rotate(10.11)" style="fill:#fff"/><rect x="241.61" y="195.05" width="86.74" height="89.49" rx="8.76" transform="translate(-282.66 -113.82) rotate(-13.66)" style="fill:#e0e0e0"/><path d="M306,252.57l-.17.06-.49.14-1.91.5-7.09,1.78-23.84,5.86-.16,0-.06-.16c-.49-1.22-1-2.51-1.52-3.82l-10.89-27.68.15.07-6.37,1.49-1.7.38-.44.09-.15,0s0,0,.15-.06l.43-.12,1.68-.44,6.34-1.6.1,0,0,.11,11,27.63c.51,1.31,1,2.6,1.51,3.82l-.23-.12,23.87-5.73,7.12-1.67,1.92-.44.51-.1Z" transform="translate(-234.09 -187.89)" style="fill:#fff"/><path d="M269.84,254s.05,0,.16-.06l.49-.14,1.91-.49,7.17-1.8,24.74-6.08-.15.19c-.27-4.34-.57-9-.89-13.9-.15-2.5-.31-5-.46-7.31l.24.18-29.19,7-8.65,2-2.34.53-.6.13-.21,0,.2-.07.6-.16,2.32-.6,8.62-2.15L303,224.23l.22-.06,0,.23c.15,2.34.3,4.8.46,7.3.31,4.86.6,9.56.88,13.91v.15l-.15,0-24.77,5.95-7.2,1.69-1.92.44-.5.1Z" transform="translate(-234.09 -187.89)" style="fill:#fff"/><path d="M283.09,267.79s-.1-.3-.37-.76a3.41,3.41,0,0,0-1.65-1.46,3.29,3.29,0,1,0-1.69,6.28,3.33,3.33,0,0,0,2.93-1.16,3.44,3.44,0,0,0,.8-2.06c0-.54-.05-.84,0-.84s.05.06.08.2a2,2,0,0,1,.09.64,3.4,3.4,0,0,1-.73,2.23,3.61,3.61,0,1,1-1.35-5.55,3.5,3.5,0,0,1,1.68,1.65,2.71,2.71,0,0,1,.21.6C283.1,267.71,283.11,267.78,283.09,267.79Z" transform="translate(-234.09 -187.89)" style="fill:#fff"/><path d="M304.68,262.54s-.1-.29-.37-.76a3.44,3.44,0,0,0-1.66-1.46,3.3,3.3,0,0,0-4.49,3.8,3.3,3.3,0,0,0,5.74,1.32,3.44,3.44,0,0,0,.8-2.06c0-.53-.05-.83,0-.84s0,.07.08.21a2.67,2.67,0,0,1,.09.63,3.4,3.4,0,0,1-.74,2.23,3.55,3.55,0,0,1-3.18,1.35,3.62,3.62,0,0,1-1.61-6.63,3.57,3.57,0,0,1,3.44-.26,3.47,3.47,0,0,1,1.69,1.64,2.6,2.6,0,0,1,.21.61C304.69,262.46,304.7,262.54,304.68,262.54Z" transform="translate(-234.09 -187.89)" style="fill:#fff"/><path d="M309.92,219.14a9.85,9.85,0,1,1-11.9-7.25A9.86,9.86,0,0,1,309.92,219.14Z" transform="translate(-234.09 -187.89)" style="fill:#fff"/><path d="M304.52,217.78a10,10,0,0,1-.88,1.83c-.6,1.11-1.44,2.63-2.39,4.29-.35.62-.7,1.21-1,1.77l-.09.15-.15-.08c-1.26-.66-2.34-1.24-3.09-1.67a6,6,0,0,1-1.18-.74,5.72,5.72,0,0,1,1.28.53c.79.37,1.89.91,3.16,1.55l-.25.07c.32-.56.65-1.15,1-1.77.95-1.67,1.82-3.16,2.48-4.23A10.72,10.72,0,0,1,304.52,217.78Z" transform="translate(-234.09 -187.89)" style="fill:#e0e0e0"/><path d="M410.18,454l-81.31-.38a17.7,17.7,0,0,1-17.62-17.78L312.11,232a17.71,17.71,0,0,1,17.79-17.64l81.3.38a17.7,17.7,0,0,1,17.63,17.78L428,436.34A17.71,17.71,0,0,1,410.18,454Z" transform="translate(-234.09 -187.89)" style="fill:#455b64"/><path d="M411.09,221.76l-15.77-.07a3.91,3.91,0,0,0-3.84,4v2.86a3.92,3.92,0,0,1-3.85,4l-30.72-.14a3.92,3.92,0,0,1-3.81-4v-2.86a3.92,3.92,0,0,0-3.81-4l-5.55,0L330,221.39a12.39,12.39,0,0,0-12.46,12.35l-.84,198.94A12.4,12.4,0,0,0,329,445.14l81.14.37a12.39,12.39,0,0,0,12.46-12.35l.84-198.94A12.4,12.4,0,0,0,411.09,221.76Z" transform="translate(-234.09 -187.89)" style="fill:#fafbfb"/><path d="M412.86,241.34a13.93,13.93,0,0,1-2,.11c-1.26,0-3,.05-5,.05h-.13l0-.14-.12-.83c-.34-2.43-.62-4.61-.78-6l.1.09a13.39,13.39,0,0,1-1.81-.1,10.2,10.2,0,0,1,1.81-.1h.08l0,.09c.23,1.4.56,3.57.9,6,0,.28.07.56.11.83l-.16-.14,5,0A13.93,13.93,0,0,1,412.86,241.34Z" transform="translate(-234.09 -187.89)" style="fill:#263238"/><path d="M405.61,239.88a2.34,2.34,0,0,1,.54,0l1.51,0c1.29,0,3.1,0,5.2-.06l-.15.13c.15-.88.32-1.83.49-2.81.09-.5.18-1,.26-1.47l.15.19c-2.43,0-4.58,0-6.12-.06l-1.82,0a3,3,0,0,1-.66-.06,3,3,0,0,1,.66-.06l1.82,0c1.54,0,3.69,0,6.12-.06h.19l0,.19-.26,1.47c-.17,1-.34,1.92-.5,2.8l0,.13h-.13c-2.1,0-3.91,0-5.2-.05l-1.51,0A1.8,1.8,0,0,1,405.61,239.88Z" transform="translate(-234.09 -187.89)" style="fill:#263238"/><path d="M407.58,243.25c-.06,0-.06-.27-.35-.47a.61.61,0,0,0-.55-.05.56.56,0,0,0-.35.52.57.57,0,0,0,.35.53.58.58,0,0,0,.55-.06c.29-.19.29-.48.35-.47s0,.07,0,.19a.71.71,0,0,1-.24.46.8.8,0,0,1-.79.15.83.83,0,0,1-.57-.8.83.83,0,0,1,1.36-.65.75.75,0,0,1,.24.47C407.62,243.19,407.59,243.25,407.58,243.25Z" transform="translate(-234.09 -187.89)" style="fill:#263238"/><path d="M412.11,243.25c-.05,0-.05-.27-.35-.47a.6.6,0,0,0-.54-.05.57.57,0,0,0-.36.52.58.58,0,0,0,.36.53.57.57,0,0,0,.54-.06c.3-.19.3-.48.35-.47s.05.07,0,.19a.69.69,0,0,1-.25.46.78.78,0,0,1-.78.15.84.84,0,0,1-.58-.8.86.86,0,0,1,.58-.8.83.83,0,0,1,.78.15.73.73,0,0,1,.25.47C412.16,243.19,412.13,243.25,412.11,243.25Z" transform="translate(-234.09 -187.89)" style="fill:#263238"/><path d="M340.57,242.09a115,115,0,0,1-12.13,0,115,115,0,0,1,12.13,0Z" transform="translate(-234.09 -187.89)" style="fill:#263238"/><path d="M340.57,239.8c0,.08-2.72.15-6.07.15s-6.06-.07-6.06-.15a115,115,0,0,1,12.13,0Z" transform="translate(-234.09 -187.89)" style="fill:#263238"/><path d="M340.57,237.5a115,115,0,0,1-12.13,0c0-.08,2.71-.15,6.06-.15S340.57,237.42,340.57,237.5Z" transform="translate(-234.09 -187.89)" style="fill:#263238"/><g style="clip-path:url(#e0efcc9c-8149-4153-b26f-c7ebc3aae1b0)"><path d="M360.78,274.68s-8.14-.11-9.93,2.56-9.2,19.22-9.2,19.22l11.54,6,2.49-7.11,4.05,14.84c-4.64,3.69-11.21,37.1-9.9,51.18l43.37.14s.3-39.06-11.43-51.9l2.75-15.52,2.64,7.57,12.25-5.07L390.2,280a8.92,8.92,0,0,0-7.75-4.58l-3,0s-1.27,11.09-9.33,10.88S360.78,274.68,360.78,274.68Z" transform="translate(-234.09 -187.89)" style="fill:#e7515b"/><path d="M402.5,327.36l0-.2,0-.57a6.08,6.08,0,0,0-.11-.93,9,9,0,0,0-.26-1.25,11.68,11.68,0,0,0-1.35-3.2,12,12,0,0,0-14.43-5.11,11.42,11.42,0,0,0-3,1.63,13.46,13.46,0,0,0-1.36,1.16,12.11,12.11,0,0,0-1.17,1.39,12,12,0,0,0-2.33,7.08,12.62,12.62,0,0,0,.61,3.78,11.52,11.52,0,0,0,1.72,3.3,14.1,14.1,0,0,0,1.17,1.39,13.35,13.35,0,0,0,1.36,1.15,11.18,11.18,0,0,0,3,1.64,12,12,0,0,0,11.36-1.71,12.07,12.07,0,0,0,4.42-6.6,9.34,9.34,0,0,0,.26-1.25,6.37,6.37,0,0,0,.11-.93l0-.58,0-.19s0,.06,0,.19l0,.58a4.88,4.88,0,0,1-.08.94,7.83,7.83,0,0,1-.23,1.27,11.42,11.42,0,0,1-1.32,3.26,12,12,0,0,1-3.08,3.49,12.16,12.16,0,0,1-11.6,1.8,11.41,11.41,0,0,1-3.11-1.66,14.11,14.11,0,0,1-1.4-1.18,15.22,15.22,0,0,1-1.21-1.43,12,12,0,0,1-1.76-3.38,13.3,13.3,0,0,1-.63-3.88,12.34,12.34,0,0,1,2.39-7.27,15.09,15.09,0,0,1,1.21-1.42,14.11,14.11,0,0,1,1.4-1.18,11.72,11.72,0,0,1,3.11-1.67,12.3,12.3,0,0,1,6.45-.51,12.18,12.18,0,0,1,8.23,5.8,11.47,11.47,0,0,1,1.32,3.27,7.92,7.92,0,0,1,.23,1.26,4.94,4.94,0,0,1,.08.94l0,.58A.63.63,0,0,1,402.5,327.36Z" transform="translate(-234.09 -187.89)" style="fill:#fafbfb"/><path d="M364.28,300.1a15,15,0,0,0-.34-2.17,8.85,8.85,0,0,0-11.63-6.11,8.81,8.81,0,0,0-4.09,3.07,8.79,8.79,0,0,0,0,10.42,8.3,8.3,0,0,0,1.86,1.88,8.46,8.46,0,0,0,2.23,1.2,8.87,8.87,0,0,0,4.64.39,8.67,8.67,0,0,0,3.72-1.64,8.87,8.87,0,0,0,3.27-4.86,15,15,0,0,0,.34-2.18s0,0,0,.15v.43a3.71,3.71,0,0,1-.06.69,5.55,5.55,0,0,1-.17.94,8.29,8.29,0,0,1-1,2.42,9,9,0,0,1-2.28,2.59A8.9,8.9,0,0,1,357,309a9,9,0,0,1-4.79-.38A9.06,9.06,0,0,1,348,305.5a9.07,9.07,0,0,1,0-10.79,8.22,8.22,0,0,1,1.93-1.93,8.48,8.48,0,0,1,2.31-1.24,9.2,9.2,0,0,1,4.78-.38,9,9,0,0,1,6.1,4.32,8.19,8.19,0,0,1,1,2.42,5.22,5.22,0,0,1,.17.94,3.71,3.71,0,0,1,.06.69V300C364.29,300.05,364.29,300.1,364.28,300.1Z" transform="translate(-234.09 -187.89)" style="fill:#fafbfb"/><path d="M364.28,352.92s0-.24-.15-.65a2.68,2.68,0,0,0-3.49-1.79,2.61,2.61,0,0,0,0,4.89,2.66,2.66,0,0,0,2.48-.35,2.73,2.73,0,0,0,1-1.44c.12-.41.12-.66.15-.66s0,.06,0,.18a1.72,1.72,0,0,1-.05.51,2.76,2.76,0,0,1-1,1.59,2.87,2.87,0,0,1-2.72.44,2.89,2.89,0,0,1,0-5.44,2.87,2.87,0,0,1,2.72.45,2.7,2.7,0,0,1,1,1.59,1.66,1.66,0,0,1,.05.5C364.3,352.86,364.29,352.92,364.28,352.92Z" transform="translate(-234.09 -187.89)" style="fill:#fafbfb"/><path d="M359.51,282.46s0-.24-.15-.65a2.67,2.67,0,0,0-3.48-1.79,2.6,2.6,0,0,0,0,4.89,2.64,2.64,0,0,0,2.48-.35,2.7,2.7,0,0,0,1-1.44c.12-.41.12-.66.15-.66s0,.06,0,.18a1.72,1.72,0,0,1,0,.51,2.68,2.68,0,0,1-1,1.59,2.82,2.82,0,0,1-2.71.44,2.88,2.88,0,0,1,0-5.44,2.85,2.85,0,0,1,2.71.45,2.68,2.68,0,0,1,1,1.59,1.72,1.72,0,0,1,0,.51C359.53,282.4,359.52,282.46,359.51,282.46Z" transform="translate(-234.09 -187.89)" style="fill:#fafbfb"/><path d="M368.47,339.75l-.05-.26-.14-.74c-.11-.66-.27-1.59-.47-2.75-.39-2.38-.94-5.73-1.6-9.73l.16.11-13.5,2.15.13-.18h0v.09l0,.11,0,.24.08.46c0,.3.09.61.14.91.1.61.19,1.21.28,1.81.19,1.19.37,2.35.55,3.49l1,6.37-.15-.11,9.75-1.47,2.77-.4.74-.1.26,0-.23.05-.71.13-2.72.46L355,342l-.14,0,0-.14c-.31-2-.65-4.1-1-6.36-.18-1.14-.36-2.3-.55-3.49-.09-.6-.19-1.2-.28-1.81l-.15-.91-.07-.47,0-.23,0-.11v-.09h0c-.12.16.16-.23.13-.19l13.51-2.1.13,0,0,.13c.61,4,1.12,7.44,1.48,9.85.17,1.15.3,2.07.4,2.73,0,.29.07.53.09.71A.87.87,0,0,1,368.47,339.75Z" transform="translate(-234.09 -187.89)" style="fill:#fafbfb"/><path d="M385,304.43a2,2,0,0,1,.16-.27l.46-.75,1.77-2.77,6.28-9.78,0,.19-13.5-8.77c-.05,0,.42-.09.22,0h0l0,0,0,.06-.08.12-.15.23-.3.46-.59.91-1.18,1.8-2.27,3.49-4.16,6.35,0-.19,9.7,6.41,2.74,1.82.72.49.25.19-.24-.14-.72-.45-2.75-1.75-9.85-6.34-.12-.07.08-.12,4.13-6.37,2.27-3.49,1.17-1.8.6-.92.3-.46.15-.23.07-.11,0-.06,0,0v0h0a2.32,2.32,0,0,1,.23,0l13.48,8.8.11.08-.07.11-6.46,9.78-1.8,2.71-.48.7C385,304.36,385,304.43,385,304.43Z" transform="translate(-234.09 -187.89)" style="fill:#fafbfb"/><path d="M375.86,345.61l-.06.1-.15.28-.6,1.07-2.22,4c-1.88,3.34-4.62,8.1-7.81,13.65l-.13-.22h21.93l-.13.22c-3.19-5.55-5.92-10.31-7.8-13.65l-2.23-4-.6-1.07-.15-.28a.36.36,0,0,1-.05-.1,3.41,3.41,0,0,1,.21.33l.61,1,2.31,3.9c2,3.38,4.75,8.12,8,13.65l.13.23H364.63l.13-.23c3.21-5.53,6-10.27,8-13.65,1-1.66,1.77-3,2.32-3.9.25-.44.46-.78.61-1Z" transform="translate(-234.09 -187.89)" style="fill:#fafbfb"/><path d="M367.16,310.62s0,.09.08.24.12.4.2.67c.17.61.41,1.43.71,2.45.59,2,1.4,5,2.34,8.49l-.25-.07,4.35-4.35c1.53-1.54,3-3,4.36-4.35l.06.25c-3.47-.94-6.44-1.75-8.49-2.34l-2.45-.72-.67-.19-.24-.08.21,0,.64.16,2.48.6c2.16.54,5.13,1.32,8.6,2.24l.25.07-.18.18-4.35,4.36-4.36,4.35-.18.18-.07-.25c-.91-3.47-1.7-6.44-2.23-8.61-.26-1-.46-1.85-.61-2.47-.06-.26-.12-.47-.16-.64A1.09,1.09,0,0,1,367.16,310.62Z" transform="translate(-234.09 -187.89)" style="fill:#fafbfb"/></g><path d="M382,309.69c0,.09-4.91.28-11,.43s-11,.19-11,.11,4.91-.28,11-.43S382,309.6,382,309.69Z" transform="translate(-234.09 -187.89)" style="fill:#263238"/><path d="M352.07,285.32a53.61,53.61,0,0,1,2.05,5.4,52.88,52.88,0,0,1,1.75,5.51,54.43,54.43,0,0,1-2.05-5.41A53.18,53.18,0,0,1,352.07,285.32Z" transform="translate(-234.09 -187.89)" style="fill:#263238"/><path d="M385.69,286.07a8.08,8.08,0,0,1-.11,1.77c-.12,1.08-.31,2.57-.57,4.21s-.55,3.12-.78,4.18a8.91,8.91,0,0,1-.44,1.71,10.78,10.78,0,0,1,.22-1.75c.19-1.18.43-2.61.68-4.19s.48-3,.67-4.2A11.25,11.25,0,0,1,385.69,286.07Z" transform="translate(-234.09 -187.89)" style="fill:#263238"/><path d="M362.36,317.47a3.23,3.23,0,0,1-.23-1.16,9,9,0,0,1,.23-2.85,9.15,9.15,0,0,1,1.13-2.64,3.18,3.18,0,0,1,.75-.92,15.89,15.89,0,0,0-1.57,3.63A16.64,16.64,0,0,0,362.36,317.47Z" transform="translate(-234.09 -187.89)" style="fill:#263238"/><path d="M365.66,314.05a5.48,5.48,0,0,1,.06-4,19.22,19.22,0,0,1-.08,2A18.5,18.5,0,0,1,365.66,314.05Z" transform="translate(-234.09 -187.89)" style="fill:#263238"/><path d="M384.67,351.3a2.21,2.21,0,0,1-.37-.16c-.23-.12-.59-.26-1-.52a18.48,18.48,0,0,1-3.39-2.49,23.49,23.49,0,0,1-4-4.79,30.31,30.31,0,0,1-3.24-6.92,55.93,55.93,0,0,1-2.28-13.66c-.11-1.77-.16-3.21-.19-4.2,0-.47,0-.85,0-1.14a1.25,1.25,0,0,1,0-.4,3.35,3.35,0,0,1,.05.4c0,.29,0,.67.08,1.14.07,1,.17,2.44.28,4.18A59.21,59.21,0,0,0,373,336.32a30.82,30.82,0,0,0,3.19,6.86A24.21,24.21,0,0,0,380,348a20.42,20.42,0,0,0,3.31,2.54C384.19,351,384.68,351.27,384.67,351.3Z" transform="translate(-234.09 -187.89)" style="fill:#263238"/><g style="opacity:0.2"><path d="M370.61,321.23a24.92,24.92,0,0,0,9.16,16.07c1.82,1.43,4,2.76,4.73,4.94a7.55,7.55,0,0,1-.58,5.46,2,2,0,0,1-3.59.9c-4-3-6.61-7.65-8.05-12.47s-1.85-9.88-2.22-14.89" transform="translate(-234.09 -187.89)"/></g><path d="M394.65,385.29c0,.09-10.33.16-23.08.16s-23.09-.07-23.09-.16,10.33-.16,23.09-.16S394.65,385.2,394.65,385.29Z" transform="translate(-234.09 -187.89)" style="fill:#263238"/><path d="M394.65,258c0,.09-10.33.16-23.08.16s-23.09-.07-23.09-.16,10.33-.15,23.09-.15S394.65,257.9,394.65,258Z" transform="translate(-234.09 -187.89)" style="fill:#263238"/><path d="M394.65,389.1c0,.09-10.33.16-23.08.16s-23.09-.07-23.09-.16,10.33-.16,23.09-.16S394.65,389,394.65,389.1Z" transform="translate(-234.09 -187.89)" style="fill:#263238"/><path d="M368.44,400.2v6.65H366.9v-5.42h-1.33V400.2Z" transform="translate(-234.09 -187.89)"/><path d="M369.6,403.52c0-2.19,1.22-3.43,2.85-3.43s2.85,1.24,2.85,3.43-1.21,3.44-2.85,3.44S369.6,405.72,369.6,403.52Zm4.15,0c0-1.51-.53-2.13-1.3-2.13s-1.29.62-1.29,2.13.53,2.14,1.29,2.14S373.75,405,373.75,403.52Z" transform="translate(-234.09 -187.89)"/><path d="M379.54,401.66a1.31,1.31,0,0,1-1.38,1.45,1.44,1.44,0,0,1-.75-.18l.23-.46a.88.88,0,0,0,.51.13.72.72,0,0,0,.76-.79.92.92,0,0,1-.67.25.86.86,0,0,1-.93-.84.93.93,0,0,1,1-.91C379.08,400.31,379.54,400.78,379.54,401.66Zm-.7-.48c0-.23-.17-.4-.47-.4a.4.4,0,0,0-.45.4.41.41,0,0,0,.46.41A.42.42,0,0,0,378.84,401.18Z" transform="translate(-234.09 -187.89)" style="fill:#263238"/><path d="M382,401.66a1.31,1.31,0,0,1-1.38,1.45,1.44,1.44,0,0,1-.75-.18l.23-.46a.88.88,0,0,0,.51.13.72.72,0,0,0,.76-.79.92.92,0,0,1-.67.25.86.86,0,0,1-.93-.84.93.93,0,0,1,1-.91C381.54,400.31,382,400.78,382,401.66Zm-.7-.48c0-.23-.17-.4-.47-.4a.4.4,0,0,0-.45.4.41.41,0,0,0,.46.41A.42.42,0,0,0,381.3,401.18Z" transform="translate(-234.09 -187.89)" style="fill:#263238"/><rect x="143.13" y="216.14" width="4.75" height="0.6" style="fill:#263238"/><path d="M384.79,380.42c0,.09-5.72.16-12.78.16s-12.78-.07-12.78-.16,5.72-.16,12.78-.16S384.79,380.33,384.79,380.42Z" transform="translate(-234.09 -187.89)" style="fill:#e7515b"/><circle cx="405.78" cy="403.07" r="9.23" transform="translate(-357.45 -1.93) rotate(-22.5)" style="fill:#e7515b"/><path d="M403.44,408.25a3,3,0,0,1,.51-.46c.34-.28.84-.67,1.46-1.15,1.23-1,3-2.27,4.87-3.7v.25h0l0,0-.05,0-.09-.07-.17-.13-.36-.26-.68-.52-1.3-1-2.18-1.67L404,398.35a3,3,0,0,1-.51-.46,2.57,2.57,0,0,1,.59.36l1.51,1.07,2.23,1.61,1.3,1,.69.51.36.26.17.14.09.06.05,0h0v.26c-1.91,1.42-3.66,2.7-4.93,3.62L404,407.89A4,4,0,0,1,403.44,408.25Z" transform="translate(-234.09 -187.89)" style="fill:#fafbfb"/><circle cx="335.92" cy="403.07" r="9.23" transform="translate(-349.85 482.19) rotate(-80.78)" style="fill:#e7515b"/><path d="M338.25,397.89a3,3,0,0,1-.51.46c-.34.27-.83.67-1.45,1.15-1.24,1-3,2.27-4.88,3.69,0-.5,0-.14,0-.25h0l0,0,.09.06.18.14.35.26.69.52c.45.33.88.66,1.29,1l2.19,1.67c.62.48,1.11.87,1.45,1.15a3,3,0,0,1,.51.46,4.35,4.35,0,0,1-.58-.36l-1.52-1.07-2.22-1.62-1.31-1-.69-.52-.35-.26-.18-.13-.09-.07,0,0,0,0h0v-.26c1.92-1.43,3.66-2.71,4.93-3.62l1.52-1.07A2.67,2.67,0,0,1,338.25,397.89Z" transform="translate(-234.09 -187.89)" style="fill:#fafbfb"/><rect x="95.37" y="230.9" width="18.43" height="18.43" style="fill:#e0e0e0"/><rect x="118.76" y="230.9" width="18.43" height="18.43" style="fill:#e0e0e0"/><rect x="142.15" y="230.9" width="18.43" height="18.43" style="fill:#e0e0e0"/><rect x="165.54" y="230.9" width="18.43" height="18.43" style="fill:#e0e0e0"/><rect x="119.88" y="63.69" width="34.4" height="1.96" style="fill:#e7515b"/><g style="clip-path:url(#b301eeab-5607-4ab4-be5c-a85312272f4e)"><path d="M273.34,303.7l10.31-7.49,13.4,15.86a6.76,6.76,0,0,1,1.38,6.11l-4.51,17.14a5.75,5.75,0,0,1-6,4.27h0a5.74,5.74,0,0,1-5.29-6.46l2-15.46Z" transform="translate(-234.09 -187.89)" style="fill:#e7515b"/><path d="M283.23,316.77a4.35,4.35,0,0,1-.26-.59,16.35,16.35,0,0,1-.59-1.67,20.54,20.54,0,0,1,0-11.56,15.88,15.88,0,0,1,.58-1.67c.17-.39.26-.6.27-.6a3.09,3.09,0,0,1-.2.62c-.14.39-.32,1-.52,1.68a22.34,22.34,0,0,0-.78,5.75,22.81,22.81,0,0,0,.76,5.74c.2.72.38,1.29.53,1.68A4.05,4.05,0,0,1,283.23,316.77Z" transform="translate(-234.09 -187.89)" style="fill:#fafbfb"/><path d="M283.46,309.31a8.74,8.74,0,0,0-1,2.42,9.17,9.17,0,0,0-.09,2.63,2.42,2.42,0,0,1-.19-.77,5.62,5.62,0,0,1,.81-3.67A2.51,2.51,0,0,1,283.46,309.31Z" transform="translate(-234.09 -187.89)" style="fill:#fafbfb"/><path d="M280,305.89a1.93,1.93,0,0,1,.48.53,6,6,0,0,1,.8,1.52,6.16,6.16,0,0,1,.33,1.68,2.07,2.07,0,0,1,0,.71,12.53,12.53,0,0,0-.47-2.33A12.25,12.25,0,0,0,280,305.89Z" transform="translate(-234.09 -187.89)" style="fill:#fafbfb"/><path d="M283.7,304a8.77,8.77,0,0,0-1.26,1.6,8.42,8.42,0,0,0-.68,1.92,3.51,3.51,0,0,1,.51-2A3.62,3.62,0,0,1,283.7,304Z" transform="translate(-234.09 -187.89)" style="fill:#fafbfb"/><path d="M282.1,300.89a3.86,3.86,0,0,1-.06,3.21c-.06,0,.18-.72.19-1.61S282,300.9,282.1,300.89Z" transform="translate(-234.09 -187.89)" style="fill:#fafbfb"/><path d="M294.46,338.58s-.1-.21-.26-.59a16.69,16.69,0,0,1-.59-1.68,20.62,20.62,0,0,1-.82-5.78,21,21,0,0,1,.84-5.78c.21-.71.42-1.28.58-1.67s.26-.59.27-.59a3.09,3.09,0,0,1-.2.62c-.14.39-.32,1-.52,1.68a22.26,22.26,0,0,0-.78,5.74,23,23,0,0,0,.76,5.75c.2.71.38,1.29.53,1.68A3.41,3.41,0,0,1,294.46,338.58Z" transform="translate(-234.09 -187.89)" style="fill:#fafbfb"/><path d="M294.69,331.12a8.76,8.76,0,0,0-1,2.41,9.15,9.15,0,0,0-.09,2.63,2.3,2.3,0,0,1-.19-.76,5.62,5.62,0,0,1,.81-3.67A2.27,2.27,0,0,1,294.69,331.12Z" transform="translate(-234.09 -187.89)" style="fill:#fafbfb"/><path d="M291.25,327.7s.22.17.48.52a6.32,6.32,0,0,1,.8,1.53,6.09,6.09,0,0,1,.33,1.68,2.07,2.07,0,0,1,0,.71,12.37,12.37,0,0,0-.47-2.33A11.8,11.8,0,0,0,291.25,327.7Z" transform="translate(-234.09 -187.89)" style="fill:#fafbfb"/><path d="M294.93,325.79a8.77,8.77,0,0,0-1.26,1.6,8.42,8.42,0,0,0-.68,1.92,4.09,4.09,0,0,1,1.94-3.52Z" transform="translate(-234.09 -187.89)" style="fill:#fafbfb"/><path d="M293.33,322.69a3.13,3.13,0,0,1,.32,1.61,3,3,0,0,1-.38,1.6c-.06,0,.18-.71.19-1.6S293.27,322.71,293.33,322.69Z" transform="translate(-234.09 -187.89)" style="fill:#fafbfb"/><path d="M289.21,329.85a5,5,0,0,1-.27-.59,17.1,17.1,0,0,1-.58-1.68,20.54,20.54,0,0,1,0-11.56c.21-.71.42-1.28.58-1.67a5,5,0,0,1,.27-.59,4.23,4.23,0,0,1-.2.62c-.14.39-.33,1-.52,1.68a22.26,22.26,0,0,0-.78,5.74,22.5,22.5,0,0,0,.76,5.75c.2.71.38,1.29.52,1.68A4.23,4.23,0,0,1,289.21,329.85Z" transform="translate(-234.09 -187.89)" style="fill:#fafbfb"/><path d="M289.44,322.39a9,9,0,0,0-1,2.41,8.53,8.53,0,0,0-.08,2.63,2,2,0,0,1-.19-.76,5.62,5.62,0,0,1,.81-3.67A2.07,2.07,0,0,1,289.44,322.39Z" transform="translate(-234.09 -187.89)" style="fill:#fafbfb"/><path d="M286,319s.22.17.48.52a6.32,6.32,0,0,1,.8,1.53,6.09,6.09,0,0,1,.33,1.68,2.07,2.07,0,0,1,0,.71,13.41,13.41,0,0,0-.47-2.33A12.61,12.61,0,0,0,286,319Z" transform="translate(-234.09 -187.89)" style="fill:#fafbfb"/><path d="M289.68,317.06a8.3,8.3,0,0,0-1.26,1.6,8.42,8.42,0,0,0-.68,1.92,3.55,3.55,0,0,1,.51-2A3.49,3.49,0,0,1,289.68,317.06Z" transform="translate(-234.09 -187.89)" style="fill:#fafbfb"/><path d="M278.06,310a3.55,3.55,0,0,1-.27-.59,14.51,14.51,0,0,1-.58-1.67,20.66,20.66,0,0,1,0-11.56,16.69,16.69,0,0,1,.59-1.68,5,5,0,0,1,.27-.59,4.23,4.23,0,0,1-.2.62c-.15.39-.33,1-.53,1.68a22.84,22.84,0,0,0-.77,5.75,22.42,22.42,0,0,0,.76,5.74c.19.72.38,1.29.52,1.68A5.38,5.38,0,0,1,278.06,310Z" transform="translate(-234.09 -187.89)" style="fill:#fafbfb"/><path d="M278.29,302.51a7,7,0,0,0-1.12,5,2.14,2.14,0,0,1-.2-.76,5.84,5.84,0,0,1,.09-1.91,5.61,5.61,0,0,1,.73-1.76A1.9,1.9,0,0,1,278.29,302.51Z" transform="translate(-234.09 -187.89)" style="fill:#fafbfb"/><path d="M274.85,299.09a2.4,2.4,0,0,1,.48.53,6.15,6.15,0,0,1,1.13,3.2,1.67,1.67,0,0,1,0,.71,11.49,11.49,0,0,0-.47-2.33A12.66,12.66,0,0,0,274.85,299.09Z" transform="translate(-234.09 -187.89)" style="fill:#fafbfb"/><path d="M278.53,297.18a8.56,8.56,0,0,0-1.27,1.6,8.66,8.66,0,0,0-.67,1.92,3.45,3.45,0,0,1,.5-2A3.54,3.54,0,0,1,278.53,297.18Z" transform="translate(-234.09 -187.89)" style="fill:#fafbfb"/><path d="M287.35,299.64a6.41,6.41,0,0,1,.38.53,13,13,0,0,1,.93,1.51A20.4,20.4,0,0,1,291.13,313a17.44,17.44,0,0,1-.21,1.76,5.17,5.17,0,0,1-.14.63,4.93,4.93,0,0,1,.06-.64c.06-.42.12-1,.16-1.76a22.36,22.36,0,0,0-.48-5.77,21.93,21.93,0,0,0-2-5.45,17.59,17.59,0,0,0-.87-1.53A3.76,3.76,0,0,1,287.35,299.64Z" transform="translate(-234.09 -187.89)" style="fill:#fafbfb"/><path d="M288.72,307a8.51,8.51,0,0,0,.5-2.58,8.82,8.82,0,0,0-.49-2.59,2.14,2.14,0,0,1,.36.71,5.6,5.6,0,0,1,0,3.76A2,2,0,0,1,288.72,307Z" transform="translate(-234.09 -187.89)" style="fill:#fafbfb"/><path d="M292.82,309.58a2,2,0,0,1-.58-.41,6.18,6.18,0,0,1-1.11-1.31,6.09,6.09,0,0,1-.68-1.58,1.6,1.6,0,0,1-.11-.7,11.34,11.34,0,0,0,1,2.18A11.78,11.78,0,0,0,292.82,309.58Z" transform="translate(-234.09 -187.89)" style="fill:#fafbfb"/><path d="M289.64,312.24a9.4,9.4,0,0,0,.89-1.84,8.18,8.18,0,0,0,.24-2,4.1,4.1,0,0,1-1.13,3.86Z" transform="translate(-234.09 -187.89)" style="fill:#fafbfb"/><path d="M291.87,314.92a3.08,3.08,0,0,1-.66-1.51,3.11,3.11,0,0,1,0-1.64c.06,0,0,.73.16,1.6S291.92,314.89,291.87,314.92Z" transform="translate(-234.09 -187.89)" style="fill:#fafbfb"/><path d="M294.1,312.08a4.16,4.16,0,0,1,.39.52,13.88,13.88,0,0,1,.93,1.51,20.56,20.56,0,0,1,2,5.47,20.79,20.79,0,0,1,.43,5.82,16.58,16.58,0,0,1-.22,1.76,4.83,4.83,0,0,1-.13.64,4.86,4.86,0,0,1,.06-.65c.06-.41.11-1,.15-1.76a21.75,21.75,0,0,0-2.45-11.22c-.35-.66-.65-1.18-.87-1.53A4.29,4.29,0,0,1,294.1,312.08Z" transform="translate(-234.09 -187.89)" style="fill:#fafbfb"/><path d="M295.48,319.42a8.82,8.82,0,0,0,.49-2.59,8.52,8.52,0,0,0-.48-2.58,2.12,2.12,0,0,1,.35.7,5.57,5.57,0,0,1,.33,1.88,5.83,5.83,0,0,1-.33,1.88A2.14,2.14,0,0,1,295.48,319.42Z" transform="translate(-234.09 -187.89)" style="fill:#fafbfb"/><path d="M299.58,322a1.91,1.91,0,0,1-.59-.41,5.93,5.93,0,0,1-1.1-1.31,5.79,5.79,0,0,1-.69-1.57,2.15,2.15,0,0,1-.11-.71,12.15,12.15,0,0,0,1,2.18A11.56,11.56,0,0,0,299.58,322Z" transform="translate(-234.09 -187.89)" style="fill:#fafbfb"/><path d="M296.39,324.67a6.2,6.2,0,0,0,1.14-3.85,3.49,3.49,0,0,1-.06,2.07A3.44,3.44,0,0,1,296.39,324.67Z" transform="translate(-234.09 -187.89)" style="fill:#fafbfb"/><path d="M298.63,327.35a3,3,0,0,1-.67-1.5,3.23,3.23,0,0,1,0-1.65c.06,0,0,.74.16,1.61S298.68,327.32,298.63,327.35Z" transform="translate(-234.09 -187.89)" style="fill:#fafbfb"/><path d="M278.67,321.5a3.32,3.32,0,0,1,.53.38,14,14,0,0,1,1.34,1.16,21,21,0,0,1,3.59,4.6,20.27,20.27,0,0,1,2.15,5.43,17.59,17.59,0,0,1,.33,1.74,5.13,5.13,0,0,1,.06.65,5.76,5.76,0,0,1-.14-.64,16.89,16.89,0,0,0-.38-1.72,22.08,22.08,0,0,0-2.19-5.36,21.82,21.82,0,0,0-3.52-4.6,16.51,16.51,0,0,0-1.29-1.2A6.31,6.31,0,0,1,278.67,321.5Z" transform="translate(-234.09 -187.89)" style="fill:#fafbfb"/><path d="M282.19,328.08a8.47,8.47,0,0,0-.3-2.61,8.9,8.9,0,0,0-1.24-2.32,2.4,2.4,0,0,1,.55.57,5.56,5.56,0,0,1,1.12,3.58A2.27,2.27,0,0,1,282.19,328.08Z" transform="translate(-234.09 -187.89)" style="fill:#fafbfb"/><path d="M286.88,329.33a2,2,0,0,1-.68-.21,6.13,6.13,0,0,1-2.58-2.22,2,2,0,0,1-.31-.64,11.69,11.69,0,0,0,1.57,1.79A11.42,11.42,0,0,0,286.88,329.33Z" transform="translate(-234.09 -187.89)" style="fill:#fafbfb"/><path d="M284.64,332.82a8.6,8.6,0,0,0,.3-2,7.84,7.84,0,0,0-.38-2,4.08,4.08,0,0,1,.08,4Z" transform="translate(-234.09 -187.89)" style="fill:#fafbfb"/><path d="M287.57,334.71a3.88,3.88,0,0,1-1.55-2.82c.06,0,.2.71.64,1.49S287.61,334.67,287.57,334.71Z" transform="translate(-234.09 -187.89)" style="fill:#fafbfb"/><path d="M293.36,339.46a6.88,6.88,0,0,0-11.17-5.21l1.27,4.33,5.56,2.71Z" transform="translate(-234.09 -187.89)" style="fill:#fafbfb"/><path d="M300.77,323a6.79,6.79,0,0,1-3.89-12l5.72,3.64Z" transform="translate(-234.09 -187.89)" style="fill:#fafbfb"/></g><g style="opacity:0.4"><path d="M273.34,303.7l10.31-7.49,13.4,15.86a6.76,6.76,0,0,1,1.38,6.11l-4.51,17.14a5.75,5.75,0,0,1-6,4.27h0a5.74,5.74,0,0,1-5.29-6.46l2-15.46Z" transform="translate(-234.09 -187.89)"/></g><g style="clip-path:url(#f0a90bad-55fa-4423-a94f-14493cf31c68)"><path d="M278.67,298.21,289,290.72l13.4,15.87a6.82,6.82,0,0,1,1.38,6.11l-4.52,17.14a5.72,5.72,0,0,1-5.95,4.26h0a5.74,5.74,0,0,1-5.3-6.46l2-15.46Z" transform="translate(-234.09 -187.89)" style="fill:#e7515b"/><path d="M288.56,311.29a3.57,3.57,0,0,1-.27-.59,14.8,14.8,0,0,1-.58-1.68,20.66,20.66,0,0,1,0-11.56,16.35,16.35,0,0,1,.59-1.67,3.55,3.55,0,0,1,.27-.59,5.38,5.38,0,0,1-.2.62c-.15.39-.33,1-.53,1.68a22.31,22.31,0,0,0-.77,5.74,21.92,21.92,0,0,0,.76,5.74,17.39,17.39,0,0,0,.52,1.69A4.23,4.23,0,0,1,288.56,311.29Z" transform="translate(-234.09 -187.89)" style="fill:#fafbfb"/><path d="M288.79,303.82a8.75,8.75,0,0,0-1,2.42,8.55,8.55,0,0,0-.08,2.63,2.15,2.15,0,0,1-.2-.77,5.78,5.78,0,0,1,.09-1.9,5.61,5.61,0,0,1,.73-1.76A2,2,0,0,1,288.79,303.82Z" transform="translate(-234.09 -187.89)" style="fill:#fafbfb"/><path d="M285.35,300.41a2.18,2.18,0,0,1,.48.52,6.09,6.09,0,0,1,.79,1.52,5.92,5.92,0,0,1,.34,1.69,1.9,1.9,0,0,1,0,.71,11.49,11.49,0,0,0-.47-2.33A11.73,11.73,0,0,0,285.35,300.41Z" transform="translate(-234.09 -187.89)" style="fill:#fafbfb"/><path d="M289,298.5a8.17,8.17,0,0,0-1.27,1.6,8.49,8.49,0,0,0-.67,1.92,3.49,3.49,0,0,1,.5-2A3.41,3.41,0,0,1,289,298.5Z" transform="translate(-234.09 -187.89)" style="fill:#fafbfb"/><path d="M287.42,295.4a3,3,0,0,1,.32,1.61,3,3,0,0,1-.38,1.6c-.05,0,.18-.71.19-1.6S287.36,295.42,287.42,295.4Z" transform="translate(-234.09 -187.89)" style="fill:#fafbfb"/><path d="M299.79,333.09a2.74,2.74,0,0,1-.27-.59,13.85,13.85,0,0,1-.58-1.67,20.66,20.66,0,0,1,0-11.56,15.51,15.51,0,0,1,.59-1.67,4.81,4.81,0,0,1,.27-.6,4.23,4.23,0,0,1-.2.62c-.15.39-.33,1-.53,1.69a22.31,22.31,0,0,0-.77,5.74,21.92,21.92,0,0,0,.76,5.74c.19.72.38,1.29.52,1.69A5,5,0,0,1,299.79,333.09Z" transform="translate(-234.09 -187.89)" style="fill:#fafbfb"/><path d="M300,325.63a7.05,7.05,0,0,0-1.12,5.05,2.25,2.25,0,0,1-.2-.77,5.78,5.78,0,0,1,.09-1.9,5.58,5.58,0,0,1,.73-1.77A2.07,2.07,0,0,1,300,325.63Z" transform="translate(-234.09 -187.89)" style="fill:#fafbfb"/><path d="M296.58,322.21a2.4,2.4,0,0,1,.48.53,5.75,5.75,0,0,1,.79,1.52,5.93,5.93,0,0,1,.34,1.68,1.67,1.67,0,0,1-.05.71,11.62,11.62,0,0,0-.47-2.33A12.66,12.66,0,0,0,296.58,322.21Z" transform="translate(-234.09 -187.89)" style="fill:#fafbfb"/><path d="M300.26,320.3a9,9,0,0,0-1.27,1.6,8.66,8.66,0,0,0-.67,1.92,3.46,3.46,0,0,1,.5-2A3.54,3.54,0,0,1,300.26,320.3Z" transform="translate(-234.09 -187.89)" style="fill:#fafbfb"/><path d="M298.65,317.21a3.76,3.76,0,0,1-.06,3.21s.18-.72.19-1.61S298.59,317.22,298.65,317.21Z" transform="translate(-234.09 -187.89)" style="fill:#fafbfb"/><path d="M294.53,324.36a4.35,4.35,0,0,1-.26-.59,13.85,13.85,0,0,1-.58-1.67,20.42,20.42,0,0,1,0-11.56,15.51,15.51,0,0,1,.59-1.67,2.74,2.74,0,0,1,.27-.59,5,5,0,0,1-.2.61c-.15.39-.33,1-.53,1.69a21.92,21.92,0,0,0,0,11.48c.19.72.37,1.29.52,1.69A2.81,2.81,0,0,1,294.53,324.36Z" transform="translate(-234.09 -187.89)" style="fill:#fafbfb"/><path d="M294.76,316.9a9.1,9.1,0,0,0-1,2.42,8.55,8.55,0,0,0-.08,2.63,2,2,0,0,1-.2-.77,5.52,5.52,0,0,1,.09-1.9,5.36,5.36,0,0,1,.73-1.77A2.37,2.37,0,0,1,294.76,316.9Z" transform="translate(-234.09 -187.89)" style="fill:#fafbfb"/><path d="M291.32,313.48a1.93,1.93,0,0,1,.48.53,5.74,5.74,0,0,1,.8,1.52,5.86,5.86,0,0,1,.33,1.68,2.07,2.07,0,0,1,0,.71,11.62,11.62,0,0,0-.47-2.33A12.25,12.25,0,0,0,291.32,313.48Z" transform="translate(-234.09 -187.89)" style="fill:#fafbfb"/><path d="M295,311.57a9.22,9.22,0,0,0-1.26,1.6,8.66,8.66,0,0,0-.67,1.92,3.37,3.37,0,0,1,.5-2A3.62,3.62,0,0,1,295,311.57Z" transform="translate(-234.09 -187.89)" style="fill:#fafbfb"/><path d="M283.38,304.49a4.81,4.81,0,0,1-.27-.6c-.16-.38-.36-.95-.58-1.67a20.54,20.54,0,0,1,0-11.56,15.88,15.88,0,0,1,.58-1.67,3.55,3.55,0,0,1,.27-.59,5.38,5.38,0,0,1-.2.62c-.14.39-.33,1-.52,1.68a21.78,21.78,0,0,0,0,11.48c.2.72.38,1.3.52,1.69A4.23,4.23,0,0,1,283.38,304.49Z" transform="translate(-234.09 -187.89)" style="fill:#fafbfb"/><path d="M283.61,297a8.93,8.93,0,0,0-1,2.42,9.37,9.37,0,0,0-.08,2.63,2.42,2.42,0,0,1-.19-.77,5.52,5.52,0,0,1,.09-1.9,5.69,5.69,0,0,1,.72-1.77A2.51,2.51,0,0,1,283.61,297Z" transform="translate(-234.09 -187.89)" style="fill:#fafbfb"/><path d="M280.17,293.61s.22.17.48.52a5.92,5.92,0,0,1,1.13,3.21,2.07,2.07,0,0,1,0,.71,12.37,12.37,0,0,0-.47-2.33A11.38,11.38,0,0,0,280.17,293.61Z" transform="translate(-234.09 -187.89)" style="fill:#fafbfb"/><path d="M283.85,291.7a6.18,6.18,0,0,0-1.94,3.52,3.55,3.55,0,0,1,.51-2A3.42,3.42,0,0,1,283.85,291.7Z" transform="translate(-234.09 -187.89)" style="fill:#fafbfb"/><path d="M292.67,294.16a4.16,4.16,0,0,1,.39.52c.24.34.56.85.93,1.51a20.91,20.91,0,0,1,2,5.47,20.36,20.36,0,0,1,.42,5.82,14.66,14.66,0,0,1-.21,1.76,4.83,4.83,0,0,1-.13.64,3.39,3.39,0,0,1,.06-.65c.06-.41.11-1,.15-1.76a22,22,0,0,0-2.45-11.22c-.35-.66-.65-1.18-.87-1.53A4.29,4.29,0,0,1,292.67,294.16Z" transform="translate(-234.09 -187.89)" style="fill:#fafbfb"/><path d="M294.05,301.5a8.82,8.82,0,0,0,.49-2.59,8.61,8.61,0,0,0-.48-2.58,2.26,2.26,0,0,1,.35.71,5.5,5.5,0,0,1,.32,1.88,5.23,5.23,0,0,1-.33,1.87A2.26,2.26,0,0,1,294.05,301.5Z" transform="translate(-234.09 -187.89)" style="fill:#fafbfb"/><path d="M298.14,304.1a2.22,2.22,0,0,1-.58-.41,6,6,0,0,1-1.1-1.32,5.79,5.79,0,0,1-.69-1.57,2.13,2.13,0,0,1-.11-.7,12.6,12.6,0,0,0,1,2.17A12.93,12.93,0,0,0,298.14,304.1Z" transform="translate(-234.09 -187.89)" style="fill:#fafbfb"/><path d="M295,306.75a8.25,8.25,0,0,0,.89-1.83,8.55,8.55,0,0,0,.25-2,4.13,4.13,0,0,1-1.14,3.85Z" transform="translate(-234.09 -187.89)" style="fill:#fafbfb"/><path d="M297.19,309.43a3.12,3.12,0,0,1-.66-1.5,3,3,0,0,1,0-1.65c.06,0,0,.74.16,1.61S297.24,309.4,297.19,309.43Z" transform="translate(-234.09 -187.89)" style="fill:#fafbfb"/><path d="M299.43,306.59a4.16,4.16,0,0,1,.39.52,17.39,17.39,0,0,1,.92,1.51,20.45,20.45,0,0,1,2.47,11.3c-.06.74-.13,1.34-.21,1.76a3.53,3.53,0,0,1-.14.63,5.13,5.13,0,0,1,.06-.65c.06-.41.12-1,.16-1.75a22.4,22.4,0,0,0-.48-5.78,21.84,21.84,0,0,0-2-5.44c-.34-.66-.64-1.19-.87-1.54A3.47,3.47,0,0,1,299.43,306.59Z" transform="translate(-234.09 -187.89)" style="fill:#fafbfb"/><path d="M300.81,313.93a9.09,9.09,0,0,0,.49-2.58,8.82,8.82,0,0,0-.49-2.59,2.14,2.14,0,0,1,.36.71,5.6,5.6,0,0,1,0,3.76A2.39,2.39,0,0,1,300.81,313.93Z" transform="translate(-234.09 -187.89)" style="fill:#fafbfb"/><path d="M304.9,316.53a2,2,0,0,1-.58-.41,6,6,0,0,1-1.11-1.32,5.9,5.9,0,0,1-.68-1.57,1.61,1.61,0,0,1-.11-.7,11.41,11.41,0,0,0,1,2.17A11.59,11.59,0,0,0,304.9,316.53Z" transform="translate(-234.09 -187.89)" style="fill:#fafbfb"/><path d="M301.72,319.18a8.8,8.8,0,0,0,.89-1.83,8.22,8.22,0,0,0,.24-2,3.52,3.52,0,0,1-.06,2.08A3.48,3.48,0,0,1,301.72,319.18Z" transform="translate(-234.09 -187.89)" style="fill:#fafbfb"/><path d="M304,321.87a3.08,3.08,0,0,1-.66-1.51,2.93,2.93,0,0,1,0-1.64,14.86,14.86,0,0,0,.15,1.6C303.64,321.2,304,321.84,304,321.87Z" transform="translate(-234.09 -187.89)" style="fill:#fafbfb"/><path d="M284,316l.52.38a15.66,15.66,0,0,1,1.34,1.16,20.74,20.74,0,0,1,5.75,10,14.36,14.36,0,0,1,.32,1.75,3.37,3.37,0,0,1,.06.64,4.4,4.4,0,0,1-.13-.63c-.07-.41-.2-1-.38-1.72a21.86,21.86,0,0,0-5.71-10c-.53-.52-1-.93-1.29-1.2A3.47,3.47,0,0,1,284,316Z" transform="translate(-234.09 -187.89)" style="fill:#fafbfb"/><path d="M287.52,322.6a9.09,9.09,0,0,0-.31-2.61,8.49,8.49,0,0,0-1.24-2.32s.25.17.55.56a5.47,5.47,0,0,1,.87,1.7,5.31,5.31,0,0,1,.25,1.89A2.22,2.22,0,0,1,287.52,322.6Z" transform="translate(-234.09 -187.89)" style="fill:#fafbfb"/><path d="M292.2,323.85a2,2,0,0,1-.68-.22,6.06,6.06,0,0,1-1.44-.92,5.49,5.49,0,0,1-1.13-1.3,1.92,1.92,0,0,1-.32-.63,11.92,11.92,0,0,0,1.57,1.78A12.34,12.34,0,0,0,292.2,323.85Z" transform="translate(-234.09 -187.89)" style="fill:#fafbfb"/><path d="M290,327.34a6.2,6.2,0,0,0-.07-4,4.11,4.11,0,0,1,.07,4Z" transform="translate(-234.09 -187.89)" style="fill:#fafbfb"/><path d="M292.9,329.22a3.75,3.75,0,0,1-1.55-2.81s.2.71.63,1.48S292.94,329.18,292.9,329.22Z" transform="translate(-234.09 -187.89)" style="fill:#fafbfb"/><g style="opacity:0.8"><path d="M298.68,334a6.88,6.88,0,0,0-11.17-5.21l1.28,4.33,5.55,2.71Z" transform="translate(-234.09 -187.89)" style="fill:#fff"/></g><g style="opacity:0.8"><path d="M306.09,317.54a6.79,6.79,0,0,1-3.88-12l5.71,3.63Z" transform="translate(-234.09 -187.89)" style="fill:#fff"/></g></g><rect x="452.48" y="304.52" width="18.2" height="27.24" rx="2.19" transform="translate(-241.19 437.84) rotate(-67.85)" style="fill:#e7515b"/><g style="opacity:0.4"><rect x="452.48" y="304.52" width="18.2" height="27.24" rx="2.19" transform="translate(-241.19 437.84) rotate(-67.85)"/></g><path d="M469.5,315.16a1.29,1.29,0,0,1,.13-.32c.11-.24.25-.54.43-.9a21.82,21.82,0,0,0,1.34-3.38,8.21,8.21,0,0,0-.11-5.24,5.36,5.36,0,0,0-1.92-2.4,14.39,14.39,0,0,0-3-1.55,9.81,9.81,0,0,0-6.38-.71,5.86,5.86,0,0,0-2.41,1.45,8.7,8.7,0,0,0-1.5,2,18.36,18.36,0,0,0-1.37,3.36l-.3.95a1.68,1.68,0,0,1-.12.33,1.48,1.48,0,0,1,.06-.35q.07-.33.24-1a16.22,16.22,0,0,1,1.3-3.44,8.48,8.48,0,0,1,1.51-2.06,6.05,6.05,0,0,1,2.5-1.54,7.46,7.46,0,0,1,3.24-.22,14.17,14.17,0,0,1,3.35.92,14.74,14.74,0,0,1,3.09,1.58,5.57,5.57,0,0,1,2,2.55,8.29,8.29,0,0,1,.06,5.41,19,19,0,0,1-1.45,3.38l-.48.87C469.57,315.07,469.51,315.17,469.5,315.16Z" transform="translate(-234.09 -187.89)" style="fill:#263238"/><rect x="449.34" y="303.13" width="18.2" height="27.24" rx="2.19" transform="translate(-241.86 434.06) rotate(-67.85)" style="fill:#e7515b"/><g style="opacity:0.7000000000000001"><path d="M446.11,310.9a45.74,45.74,0,0,0,5.21,2.91c1.86.76.12,1.25,3.16.89s3.3-.34,4,.21,1,1.35,1.51,1.63,1.45.64,1.45.64,2.22.92,2.72,1.06c3.57,1,4.39.14,5.4,1.63s1.68,1.59,1.68,1.59l.69-1.71-3.23-1.31s-1.48-1.24-1.92-1.51-.63-.88-1.39-.56a4.72,4.72,0,0,1-1.93.3c-.45,0-2.06-.28-2.06-.28l-1.39-.57-.32-1.23-1.26-.88-.69-.09-1.72-.43-2.39-.34-2.46-.62-1.4-.57-2.11-.14Z" transform="translate(-234.09 -187.89)" style="fill:#fff"/></g><g style="opacity:0.7000000000000001"><path d="M445.61,314.13l3.64,2.83,1.81,1.55s2.43,1.36,3.25,1.33a6.79,6.79,0,0,1,2.14.51l1.22,1,1.7.69,1.89.25,1.7,0,1.47.6,1.94.79,1.78.73,1.09.44.27.74.63-1.54-5.05-3.43-3.8-.44L458.15,319l-1.44-1.69-2.54-.2-2.37-.6-2.57-1.23-2.72-1.11Z" transform="translate(-234.09 -187.89)" style="fill:#fff"/></g><g style="opacity:0.7000000000000001"><polygon points="210 127.95 211.64 132.16 213.03 134.07 217.45 135.87 214.7 131.51 212.57 130.1 210.82 127.94 210.28 127.27 210 127.95" style="fill:#fff"/></g><g style="opacity:0.7000000000000001"><polygon points="216.88 131.94 219.83 134.68 220.31 137.04 223.18 138.21 226.52 139.56 228.71 138.61 231.45 138.32 232.62 138.35 230.37 137.43 227.6 137.57 225.46 137.28 223.25 135.39 220.76 134.38 220.06 133.24 218.87 132.39 216.88 131.94" style="fill:#fff"/></g><g style="opacity:0.7000000000000001"><path d="M448.15,308.21l4.22.72,3.5-.83,2.43-.64,2.65,1.71L464,310.6l3.81.74,2.42.26,1.89,1.59.87,3,.05.76-.34.84-2.13-3.22a21,21,0,0,0-1.73-1.51c-.23-.1-1.3-.8-1.78-.73a9.13,9.13,0,0,1-3.08-.44c-1.12-.36-3.1-.9-3.1-.9l-1.86-1.12L458,309.4l-2.62,0-1.5.56-1.36.68-2.25-.91-3.24-1,.48-1.18Z" transform="translate(-234.09 -187.89)" style="fill:#fff"/></g><g style="opacity:0.7000000000000001"><polygon points="218.83 117.08 213.98 118.18 213.62 119.07 216.4 119.1 219.03 118.87 220.76 117.87 218.83 117.08" style="fill:#fff"/></g><path d="M465.59,329.48a2.5,2.5,0,0,0,.86.13,2.21,2.21,0,0,0,1-.28,2.18,2.18,0,0,0,.93-1.06c.83-2.06,2-5,3.47-8.66.37-.91.76-1.87,1.16-2.87.19-.49.42-1,.6-1.51a2.13,2.13,0,0,0-.18-1.56,2.23,2.23,0,0,0-1.28-1l-1.7-.68-3.52-1.43-15.71-6.38a2,2,0,0,0-2,.25,2,2,0,0,0-.64.79l-.42,1c-.55,1.36-1.1,2.69-1.63,4-1.08,2.62-2.11,5.15-3.09,7.57a2.46,2.46,0,0,0-.26.88,1.89,1.89,0,0,0,.12.88,2,2,0,0,0,1.2,1.21l3.32,1.36,6,2.45,8.62,3.57,2.34,1,.61.26.2.1s-.08,0-.22-.07l-.61-.23-2.37-.93-8.66-3.47-6-2.41L444.42,321a2.33,2.33,0,0,1-1.36-1.37,2.27,2.27,0,0,1-.14-1,3.1,3.1,0,0,1,.27-1l3.08-7.58,1.62-4c.15-.34.27-.67.43-1a2.33,2.33,0,0,1,3-1.2l15.7,6.4,3.52,1.44,1.69.69a2.5,2.5,0,0,1,1.41,1.14,2.31,2.31,0,0,1,.19,1.76c-.19.55-.41,1-.61,1.54-.41,1-.81,1.94-1.18,2.86l-3.57,8.62a2.18,2.18,0,0,1-1,1.09,2.27,2.27,0,0,1-1.05.27A1.76,1.76,0,0,1,465.59,329.48Z" transform="translate(-234.09 -187.89)" style="fill:#263238"/></svg>