<svg id="e93a9b6b-94bb-41f4-8869-28a5d595ece1" data-name="Layer 1" xmlns="http://www.w3.org/2000/svg" viewBox="0 0 83.95 96.36"><title>easy-develop</title><path d="M508.72,295.34c4.75,0,8.89.1,13,0,3.65-.12,5,1.53,5,5.11-.09,14.16.07,28.32-.09,42.48-.07,7.11-5.29,12.23-12.47,12.27q-29.49.17-59,0a12,12,0,0,1-12.33-12.4c-.12-18.16,0-36.32-.08-54.48,0-3.66,1.58-5,5.15-5q27.74.12,55.48,0c3.86,0,5.55,1.47,5.31,5.32C508.62,290.6,508.72,292.6,508.72,295.34ZM449,289.4a19.56,19.56,0,0,0-.29,2.23c0,17-.06,34,0,50.95,0,4.91,2,6.76,7.13,6.78,12.48.05,25,0,37.45,0h9.86v-60Zm59.95,11.88c0,14.6-.23,28.54.28,42.46.07,1.9,3.64,4.84,5.94,5.23,3.59.6,5.6-2.36,5.64-6,.07-7.16,0-14.32,0-21.47v-19.9c-1.47-.14-2.28-.26-3.08-.27C515.08,301.26,512.43,301.28,508.93,301.28Z" transform="translate(-442.81 -283.3)" style="fill:#434444"/><path d="M449,289.4h54.15v60h-9.86c-12.48,0-25,0-37.45,0-5.13,0-7.12-1.87-7.13-6.78-.06-17,0-34,0-50.95A19.56,19.56,0,0,1,449,289.4Zm47.71,21.18c0-9.2,0-9.2-7.12-9.21-10.69,0-10.69,0-10.69,7.62,0,10.2,0,10.2,7.62,10.2C496.69,319.19,496.69,319.19,496.69,310.58ZM476,325.37c-5.31,0-10.63-.22-15.92.13-1.75.12-3.39,1.74-5.08,2.68,1.62,1,3.22,2.83,4.86,2.87q15.93.4,31.86,0c1.63,0,3.22-1.9,4.84-2.91-1.71-.92-3.37-2.51-5.14-2.64C486.31,325.14,481.15,325.37,476,325.37Zm0,17.81c5.47,0,11,.19,16.42-.12,1.43-.08,2.78-1.69,4.18-2.59-1.44-1-2.85-2.92-4.3-3q-16.42-.39-32.85,0c-1.49,0-2.94,1.84-4.41,2.83,1.51,1,3,2.62,4.54,2.72C465,343.39,470.49,343.19,476,343.18Zm-12-36c1.65,0,3.4.35,4.91-.1s2.48-1.68,3.71-2.57c-1.25-1-2.4-2.8-3.75-3a43.78,43.78,0,0,0-10.36,0c-1.23.14-2.29,1.81-3.43,2.78,1.15.95,2.18,2.37,3.51,2.74C460.19,307.53,462.11,307.17,463.93,307.17Zm-.19,12v0c1.81,0,3.74.38,5.41-.12,1.3-.39,2.28-1.86,3.4-2.85-1.18-.93-2.29-2.53-3.56-2.67a48.49,48.49,0,0,0-10.36,0c-1.29.13-2.42,1.69-3.62,2.6,1.26,1,2.38,2.45,3.82,2.95S462.09,319.18,463.74,319.18Z" transform="translate(-442.81 -283.3)" style="fill:#fff"/><path d="M508.93,301.28c3.5,0,6.15,0,8.81,0,.8,0,1.61.13,3.08.27v19.9c0,7.15,0,14.31,0,21.47,0,3.68-2,6.64-5.64,6-2.3-.39-5.87-3.33-5.94-5.23C508.7,329.82,508.93,315.88,508.93,301.28Z" transform="translate(-442.81 -283.3)" style="fill:#fff"/><path d="M496.69,310.58c0,8.61,0,8.61-10.19,8.61-7.63,0-7.63,0-7.62-10.2,0-7.63,0-7.63,10.69-7.62C496.69,301.38,496.69,301.38,496.69,310.58Z" transform="translate(-442.81 -283.3)" style="fill:#cb2828"/><path d="M476,325.37c5.14,0,10.3-.23,15.42.13,1.77.13,3.43,1.72,5.14,2.64-1.62,1-3.21,2.87-4.84,2.91q-15.93.4-31.86,0c-1.64,0-3.24-1.87-4.86-2.87,1.69-.94,3.33-2.56,5.08-2.68C465.38,325.15,470.7,325.37,476,325.37Z" transform="translate(-442.81 -283.3)" style="fill:#fbb716"/><path d="M476,343.19c-5.48,0-11,.2-16.42-.13-1.57-.1-3-1.77-4.54-2.72,1.47-1,2.92-2.8,4.41-2.83q16.43-.36,32.85,0c1.45,0,2.86,1.92,4.3,3-1.4.9-2.75,2.51-4.18,2.59C486.93,343.37,481.44,343.18,476,343.19Z" transform="translate(-442.81 -283.3)" style="fill:#fbb716"/><path d="M463.93,307.17c-1.82,0-3.74.36-5.41-.12-1.33-.37-2.36-1.79-3.51-2.74,1.14-1,2.2-2.64,3.43-2.78a43.78,43.78,0,0,1,10.36,0c1.35.17,2.5,1.93,3.75,3-1.23.89-2.34,2.17-3.71,2.57S465.58,307.17,463.93,307.17Z" transform="translate(-442.81 -283.3)" style="fill:#fbb716"/><path d="M463.74,319.18c-1.65,0-3.44.4-4.91-.11s-2.56-1.93-3.82-2.95c1.2-.91,2.33-2.47,3.62-2.6a48.49,48.49,0,0,1,10.36,0c1.27.14,2.38,1.74,3.56,2.67-1.12,1-2.1,2.46-3.4,2.85-1.67.5-3.6.12-5.41.12Z" transform="translate(-442.81 -283.3)" style="fill:#fbb716"/><rect x="32.14" y="74.08" width="5.7" height="21.77" rx="2.85" style="fill:#36af4d;stroke:#35ae4b;stroke-miterlimit:10"/><rect x="14.13" y="75.07" width="5.7" height="13.18" rx="2.85" style="fill:#36af4d;stroke:#35ae4b;stroke-miterlimit:10"/><rect x="50.11" y="75.07" width="5.7" height="13.18" rx="2.85" style="fill:#36af4d;stroke:#35ae4b;stroke-miterlimit:10"/></svg>