<svg id="af92492d-dcdd-4753-a058-2b7c2cc70f9e" data-name="Layer 1" xmlns="http://www.w3.org/2000/svg" viewBox="0 0 98.87 108.22"><title>seo</title><polygon points="17.37 57.01 29.11 33.21 44.67 41.46 63.08 10.35 59.27 7.18 72.92 0.83 71.33 14.48 67.68 12.89 47.21 48.76 31.34 40.98 19.43 58.6 17.37 57.01" style="fill:#36af4d;stroke:#35ae4b;stroke-miterlimit:10"/><path d="M295.69,228.37a29.41,29.41,0,0,0-3.51-3.46c-1.65-1.35-1.74-2.53-.5-4.34,5.77-8.41,7.21-17.69,4.88-27.52-.7-2.94-2.11-5.72-3.19-8.56l-.77.14c-1.67,2.8-3.51,5.53-4.94,8.45a10.05,10.05,0,0,0-1,5c.92,10.07-3.66,19.3-12,23.66a23.28,23.28,0,0,1-31.14-32.35,23.05,23.05,0,0,1,28.09-9.86,79.79,79.79,0,0,1,7.51,3.89c1.43-2.48,2.69-4.91,4.21-7.17,1-1.51.61-2.26-.74-3.18-8.68-5.93-18.2-7.32-28.22-4.85-16.51,4.07-27.74,21.32-25.12,38.15,2.49,16,16,28.36,31.47,29.24a34.61,34.61,0,0,0,22.72-6.56c1.29-.91,2.09-.92,3.15.25,1.62,1.8,3.35,3.5,5.12,5.17a3.09,3.09,0,0,1,1.11,1.8l6-5.68C297.55,230.54,296.67,229.49,295.69,228.37Z" transform="translate(-228.92 -157.63)" style="fill:#e94331"/><path d="M292.73,237.75a4.32,4.32,0,0,0,.78,3.58c7.63,7.84,15.41,15.54,23.13,23.28a1.66,1.66,0,0,0,2.78,0c2.26-2.37,4.57-4.71,6.89-7,1.33-1.32,1.29-2.54,0-3.84-7.41-7.39-14.79-14.83-22.26-22.16-.81-.79-2.5-1.65-3.26-1.31a3.8,3.8,0,0,1-1.9.39l-6,5.68A3.38,3.38,0,0,1,292.73,237.75Z" transform="translate(-228.92 -157.63)" style="stroke:#000;stroke-miterlimit:10"/><path d="M292.73,237.75a4.32,4.32,0,0,0,.78,3.58c7.63,7.84,15.41,15.54,23.13,23.28a1.66,1.66,0,0,0,2.78,0c2.26-2.37,4.57-4.71,6.89-7,1.33-1.32,1.29-2.54,0-3.84-7.41-7.39-14.79-14.83-22.26-22.16-.81-.79-2.5-1.65-3.26-1.31a3.8,3.8,0,0,1-1.9.39l-6,5.68A3.38,3.38,0,0,1,292.73,237.75Z" transform="translate(-228.92 -157.63)" style="fill:#4b4f57"/></svg>