<svg id="b42b5b5d-b3e6-42db-8495-84ea85f955df" data-name="Layer 1" xmlns="http://www.w3.org/2000/svg" viewBox="0 0 401.85 213.79"><title>card-back-frame</title><path d="M300.19,239.64a3,3,0,0,0-1.89.82,2.23,2.23,0,0,0-1.76-.18,1.29,1.29,0,0,0-.61.63,2,2,0,0,0-1.87-1.21,2,2,0,0,0-2.32,1.59h11.44S302.71,239.64,300.19,239.64Z" transform="translate(-220.2 -236.25)" style="fill:#fff"/><path d="M337.42,358.54c-.52-.28-.23-.77-.23-1.14q0-26.4,0-52.81,0-18.84,0-37.69c0-.75.15-.9.9-.9q104.74,0,209.49.05c.26,0,.74-.41.88.22a1.45,1.45,0,0,1-.43.26,11.23,11.23,0,0,1-2.39.09H340.36c-2.58,0-2.58,0-2.58,2.53V356a9.6,9.6,0,0,1-.09,2.14A1.94,1.94,0,0,1,337.42,358.54Z" transform="translate(-220.2 -236.25)" style="fill:#fff"/><path d="M548.18,266.28a.39.39,0,0,1,.24,0q0,45.57,0,91.13c0,1-.22,1.16-1.16,1.16q-104.94,0-209.87,0a.69.69,0,0,1,0-.25,1.73,1.73,0,0,1,.43-.27,9.65,9.65,0,0,1,2.63-.14h204.4c3.16,0,2.87.21,2.87-2.84V269.09a8.25,8.25,0,0,1,.14-2.38A1.77,1.77,0,0,1,548.18,266.28Z" transform="translate(-220.2 -236.25)" style="fill:#9c9c9d"/><path d="M337.7,358.24l-.27.05q0-45.36,0-90.73c0-.91.13-1.31,1.21-1.31q104.78,0,209.56,0l0,.27a1.84,1.84,0,0,1-1.3.37c-.63,0-1.26,0-1.89,0H340.88c-3.07,0-2.79-.2-2.79,2.79q0,43,0,86.08A3.55,3.55,0,0,1,337.7,358.24Z" transform="translate(-220.2 -236.25)" style="fill:#d3d3d3"/><path d="M337.7,358.24q0-7.82,0-15.62,0-37.31,0-74.6c0-1.23.35-1.52,1.54-1.52q104,0,207.93,0l1,0c0,.46,0,.92,0,1.38v88.7c0,1.89.22,1.65-1.7,1.65H339.21C338.71,358.28,338.2,358.26,337.7,358.24Z" transform="translate(-220.2 -236.25)" style="fill:#fff"/><path d="M528.51,312.53c0,8.32,0,16.64,0,25,0,1-.25,1.33-1.31,1.33q-25.08-.06-50.16,0c-1,0-1.33-.27-1.33-1.33q0-25.08,0-50.16c0-1.05.29-1.32,1.33-1.32q25.08,0,50.16,0c1.06,0,1.32.29,1.31,1.32C528.49,295.73,528.51,304.13,528.51,312.53Z" transform="translate(-220.2 -236.25)" style="fill:#f3df18"/><path d="M369.92,306.1c-.22.59-.72.27-1.07.27-4,0-8,0-11.93,0-.8,0-1.06.18-1.05,1,.05,2.88,0,5.77,0,8.66a2.29,2.29,0,0,1,.12.37,1.23,1.23,0,0,1-.12.37c0,3.19.06,6.38,0,9.57,0,.92.27,1.07,1.12,1.07,4.23-.05,8.48,0,12.72,0a1.08,1.08,0,0,0,1-.46c1.65-2.17,3.31-4.33,5-6.45a1.09,1.09,0,0,0,0-1.61c-1.72-2.2-3.38-4.44-5.09-6.69.73-.27.87.29,1.12.62,1.41,1.88,2.82,3.76,4.18,5.67.49.68.74.81,1.3,0,1.44-2,3-3.94,4.48-5.91.17-.22.28-.53.66-.5.32.28,0,.43-.15.59-1.54,2-3.06,4.1-4.66,6.09a1.2,1.2,0,0,0,0,1.8c1.65,2,3.23,4.07,4.82,6.13.24.31.58.58.36,1.24l-6.15-7.87c-1.78,2.32-3.55,4.54-5.23,6.82a2.15,2.15,0,0,1-2,1c-4.2,0-8.39,0-12.59,0a2.29,2.29,0,0,1-1.24-.11,1.74,1.74,0,0,1-.11-1c0-6.54,0-13.08,0-19.62,0-.93.22-1.22,1.18-1.2,4.11.05,8.22,0,12.33,0A1.65,1.65,0,0,1,369.92,306.1Z" transform="translate(-220.2 -236.25)" style="fill:#292829"/><path d="M385.15,323.94v7.53h-.28V312.19l.29,0v3.95a12.76,12.76,0,0,1,2.79-3.24,6.45,6.45,0,0,1,9.39,2.25c1.79,3.29,1.39,8.26-.88,10.92a6.42,6.42,0,0,1-10.57-1.25c-.15-.29-.27-.58-.4-.88Z" transform="translate(-220.2 -236.25)" style="fill:#222122"/><path d="M422,322.4c0,3-2.53,5.69-6.19,5.83s-6.29-1.8-7-5.56a11.08,11.08,0,0,1,.48-6.54,6.68,6.68,0,0,1,12.91,1.63c.33,2.26.33,2.26-2,2.26-3.39,0-6.79,0-10.19,0-.79,0-1,.22-1,1,.17,5.56,5.16,8.57,9.84,5.89a5.44,5.44,0,0,0,2.51-3.31C421.47,323.2,421.39,322.74,422,322.4Z" transform="translate(-220.2 -236.25)" style="fill:#252425"/><path d="M438.86,322.54c.13.63.25,1.25.38,1.88a3.65,3.65,0,0,0,2,2.58,7.43,7.43,0,0,0,6.89,0,3.23,3.23,0,0,0-.34-6,38.93,38.93,0,0,0-5.3-1.48c-2.76-.74-3.82-2.2-3.3-4.56a3.64,3.64,0,0,1,2.55-2.71,8,8,0,0,1,5.67.1,3.88,3.88,0,0,1,2.52,4.37c-.52-.07-.33-.49-.37-.78a3.89,3.89,0,0,0-2.87-3.33,7.82,7.82,0,0,0-4.47-.05,3.54,3.54,0,0,0-2.69,3.26c0,1.48.72,2.42,2.54,3s3.46.95,5.18,1.46c2.28.68,3.4,2,3.3,3.85a4.41,4.41,0,0,1-3.88,4,11.74,11.74,0,0,1-4,0A4.43,4.43,0,0,1,438.86,322.54Z" transform="translate(-220.2 -236.25)" style="fill:#1e1e1e"/><path d="M424.18,322.49c.63.27.44.71.48,1a4.31,4.31,0,0,0,3,3.8,7.61,7.61,0,0,0,5.87-.21,3.36,3.36,0,0,0,2.17-3.36,3.11,3.11,0,0,0-2.4-2.89c-1.7-.57-3.46-.95-5.19-1.43-2.78-.77-3.81-2.2-3.26-4.57a4,4,0,0,1,3.29-2.92,8.23,8.23,0,0,1,4.71.24,4,4,0,0,1,2.74,4.47c-.55,0-.34-.47-.38-.75a4,4,0,0,0-3.42-3.51,7.51,7.51,0,0,0-4.45.31,3.39,3.39,0,0,0-2.15,3.25,2.93,2.93,0,0,0,2.37,2.74c1.76.52,3.55,1,5.31,1.49,2.34.68,3.46,2,3.34,3.93a4.37,4.37,0,0,1-3.94,3.93c-2.42.33-4.8.38-6.75-1.43A4.91,4.91,0,0,1,424.18,322.49Z" transform="translate(-220.2 -236.25)" style="fill:#201f1f"/><path d="M369.92,306.1c-4.37,0-8.73,0-13.09,0-1,0-1.28.29-1.28,1.28,0,6.8,0,13.6,0,20.4-.32-.26-.16-.63-.16-.94,0-6.62,0-13.24,0-19.85,0-.88.22-1.13,1.1-1.12,4.19,0,8.38,0,12.57,0C369.33,305.89,369.73,305.65,369.92,306.1Z" transform="translate(-220.2 -236.25)" style="fill:#292929"/><path d="M402.44,315.68c-.93,3-.37,6-.51,9,0,1.05,0,2.11,0,3.17h-.39v-16c.77,1.41,0,2.73.62,3.83C402.26,315.53,402.36,315.53,402.44,315.68Z" transform="translate(-220.2 -236.25)" style="fill:#2d2d2d"/><path d="M355.87,316.8l0-.36a12.39,12.39,0,0,1,3-.12c3.37-.08,6.75.12,10.12-.1.48.65-.15.46-.38.46-1.8,0-3.6,0-5.41,0C360.72,316.74,358.29,316.55,355.87,316.8Z" transform="translate(-220.2 -236.25)" style="fill:#2c2a2b"/><path d="M368.93,316.22c-.39.37-.87.21-1.32.21H355.83l0-.38c2.72.26,5.44.05,8.16.11C365.66,316.2,367.3,316.2,368.93,316.22Z" transform="translate(-220.2 -236.25)" style="fill:#292929"/><path d="M402.44,315.68l-.28,0c1-2.79,3.73-4.46,6.06-3.57A6.09,6.09,0,0,0,402.44,315.68Z" transform="translate(-220.2 -236.25)" style="fill:#2c2b2c"/><path d="M516.22,334.59c-3.52,0-6.46-1.12-8.53-4.12-.44-.64-.45-1,.28-1.34a4.29,4.29,0,0,0,.55-.31,8.58,8.58,0,0,1,2.4-1.31c.95-.18,1.13,1.08,1.8,1.58a5.08,5.08,0,0,0,5.19.85,2.26,2.26,0,0,0,.53-4.09,21.7,21.7,0,0,0-3.81-1.87,23.47,23.47,0,0,1-2.44-1.27,6.84,6.84,0,0,1-3.31-7.84c.7-2.77,3.09-4.63,6.42-4.87a7.65,7.65,0,0,1,7.16,3.06c.41.56.65,1-.23,1.41a6.77,6.77,0,0,0-1.27.8c-1,.71-1.91,1.39-2.86-.18a2.37,2.37,0,0,0-2.16-.8,2.14,2.14,0,0,0-2.25,1.47,2.25,2.25,0,0,0,1,2.71c1.15.7,2.42,1.13,3.61,1.73.85.43,1.73.81,2.54,1.32a7,7,0,0,1,3.33,8.3c-.68,2.59-3.52,4.6-6.72,4.76C517.06,334.6,516.64,334.59,516.22,334.59Z" transform="translate(-220.2 -236.25)" style="fill:#060606"/><path d="M499.52,319.4c0-2.69,0-5.38,0-8.07,0-.85.26-1.1,1.06-1,1.28.13,2.95-.54,3.74.28s.19,2.4.2,3.65c0,4.2,0,8.4,0,12.6a10.62,10.62,0,0,1-.35,3,6.34,6.34,0,0,1-6.31,4.79c-3.26.16-5.93-.79-7.77-3.63-.39-.6-.44-1,.32-1.33a6.86,6.86,0,0,0,1-.6,6.4,6.4,0,0,1,2-1.15c.84-.1.89,1.06,1.46,1.53a3,3,0,0,0,3.26.61,2.35,2.35,0,0,0,1.39-2.45C499.54,324.86,499.52,322.13,499.52,319.4Z" transform="translate(-220.2 -236.25)" style="fill:#060606"/><path d="M398,319.29c0,2.59-.39,4.38-1.48,5.95a6.09,6.09,0,0,1-9.49.5c-2.59-3-2.26-9.25.64-11.92a5.87,5.87,0,0,1,9.4,1.79A8.83,8.83,0,0,1,398,319.29Z" transform="translate(-220.2 -236.25)" style="fill:#fff"/><path d="M415.39,319.54c-1.85,0-3.7,0-5.54,0-.51,0-.9,0-.83-.71.58-5.49,5.19-7.95,9.35-5.92a7.12,7.12,0,0,1,3.44,6.07c0,.71-.5.54-.88.54C419.08,319.55,417.24,319.54,415.39,319.54Z" transform="translate(-220.2 -236.25)" style="fill:#fff"/><path d="M528.63,430.63q-46.12,0-92.26,0c-.95,0-1.16-.22-1.16-1.16q0-44.43,0-88.86c0-.86.17-1,1-1q92.4,0,184.78,0c.87,0,1,.17,1,1q0,44.49,0,89c0,.87-.16,1-1,1Q574.84,430.62,528.63,430.63Z" transform="translate(-220.2 -236.25)" style="fill:#fff"/><path d="M493.16,418.8a53.46,53.46,0,0,1-10.93,2.7c7.95-5.83,11.19-13.41,9.74-22.94-1.72,7.31-5.74,12.85-12.57,16.09s-13.74,2.62-20.44-1a2.65,2.65,0,0,1,1.47-.64c.44-.13.9-.21,1.54-.35a12.22,12.22,0,0,1-2.74-3.28A9.94,9.94,0,0,1,458,402a5.6,5.6,0,0,1,6.54-4.15c1.68.38,2.27,1.41,1.53,3-.64,1.38-.82,2.65.2,3.88a6.29,6.29,0,0,0,5,2.28c.52,0,.71-.41.95-.74a16.27,16.27,0,0,0,2.28-4.76c.55,1.38.27,2.68.37,4.12a8.15,8.15,0,0,0,3.16-4c.53-1.36,1.31-1.28,2.35-.9a5.89,5.89,0,0,1,2.69,2.05,15.27,15.27,0,0,0-1.07-5,26.82,26.82,0,0,0-30.86-17.54,2.17,2.17,0,0,0-1.43,1.08c-.47.7-1,1.36-1.51,2-.15.19-.35.41-.62.33s-.25-.41-.26-.64c0-.94,0-1.89,0-3-.82.74-1.09,1.76-2,2.22-.07-.1-.17-.17-.16-.22a3.19,3.19,0,0,0-2.26-3.77,2.83,2.83,0,0,1-1.6-1.87A5.59,5.59,0,0,0,439,373.4c-2.08-1.61-2.38-3-1.31-5.41a6,6,0,0,1,4.85-3.74A16,16,0,0,0,452.54,359c4.41-5.06,10.15-7.18,16.66-7.78a42.33,42.33,0,0,1,20.69,3.12c.39.17.78.3,1.18.44.06,0,.15,0,.22-.07-.72-3.87,0-5.58,3.45-7.74a5.82,5.82,0,0,0,2.78-4.94,15.74,15.74,0,0,1,11,15c0,6.44-4.3,14.06-14.14,15.67,6.3,2.46,18.58-1.33,20.15-14.25a48.51,48.51,0,0,1,12.12,25.27c1.61,10.36-.86,19.8-7,28.7a35.23,35.23,0,0,0-.73-10.36,36.81,36.81,0,0,1-15.49,23.67,37.59,37.59,0,0,0,5.44-13.65,39.41,39.41,0,0,1-12.34,12.51A35,35,0,0,1,479.87,430,36.56,36.56,0,0,0,493.16,418.8Z" transform="translate(-220.2 -236.25)" style="fill:#e0244f"/><path d="M545.68,381.3a15,15,0,0,1,4.92-2.71,8,8,0,0,1,5.07.09,5.44,5.44,0,0,1,3.84,4.95c.27,3.56.09,7.13,0,10.69,0,1.32.28,2.11,1.73,2.12a2.08,2.08,0,0,1,.73.16c.51.21.4.69.4,1.09s-.43.41-.75.37a46.83,46.83,0,0,0-9.17,0c-.39,0-1,.28-1-.52s.33-.88,1-1c2.22-.28,2.28-.33,2.22-2.58-.08-3,.12-6-.16-9.05a8.63,8.63,0,0,0-.33-2c-.59-1.78-2.16-2.49-4.18-1.94a10.28,10.28,0,0,0-3.81,2.14,1.36,1.36,0,0,0-.47,1.22c.06,3.19.16,6.38.13,9.56a2.12,2.12,0,0,0,1.8,2.44c.66.14.91.43.81,1.13s-.61.59-1,.56a63.43,63.43,0,0,0-9,0c-.35,0-.69,0-.75-.43s0-.78.41-.94a3.07,3.07,0,0,1,1-.27c1.42,0,1.86-.83,1.84-2.13,0-3.06-.1-6.12-.07-9.17a2.68,2.68,0,0,0-2.18-2.93c-.44-.13-.87-.23-.87-.87s.61-.63,1-.71a8.91,8.91,0,0,0,5.49-3,1.1,1.1,0,0,1,1.25-.36c.5.15.25.64.26,1C545.7,379.14,545.68,380.13,545.68,381.3Z" transform="translate(-220.2 -236.25)" style="fill:#eb2a47"/><path d="M577.05,386.22c-2,0-4,0-6,0-.46,0-1-.07-.93.66.1,3.06,1.06,6.81,5.25,8a7.69,7.69,0,0,0,6.34-1.2c.44-.27.77-.51,1.34-.11.72.51.81.84.12,1.49-3.55,3.37-7.7,4.42-12.3,2.86-4.42-1.5-6.74-6.13-6-11.23a10,10,0,0,1,14-7.7,7.7,7.7,0,0,1,4.9,6.66c.08.73,0,.94-.82.91-2-.06-3.94,0-5.91,0Z" transform="translate(-220.2 -236.25)" style="fill:#eb2a47"/><path d="M595.49,398.56a20,20,0,0,1-6.31-1.14,1.61,1.61,0,0,1-1.12-1.48c-.11-1.17-.26-2.34-.4-3.51,0-.38-.34-.89.3-1s1.08-.24,1.43.4.8,1.38,1.25,2a6.67,6.67,0,0,0,4,2.87,4,4,0,0,0,3-.25,2.91,2.91,0,0,0,1.82-2.65,2.34,2.34,0,0,0-1.92-2.21c-1.63-.54-3.31-.94-5-1.4-3-.82-4.83-3.1-4.71-5.76a6.05,6.05,0,0,1,5.22-6,15.62,15.62,0,0,1,7.58.62,2.33,2.33,0,0,1,.68.31c.38.28,1,4.58.79,5s-1.6.44-2-.23a12.72,12.72,0,0,0-1.91-2.8,4.61,4.61,0,0,0-5.1-1.06,2.36,2.36,0,0,0-.27,4.45,7.92,7.92,0,0,0,2.37.81,18.85,18.85,0,0,1,4.79,1.53,5.61,5.61,0,0,1,3.34,5.8,6.21,6.21,0,0,1-4.48,5.23A17.57,17.57,0,0,1,595.49,398.56Z" transform="translate(-220.2 -236.25)" style="fill:#eb2b47"/><path d="M614.54,388c0,1.8-.08,3.61,0,5.4.13,2.12,1.67,2.78,3.41,1.53.53-.38.88-.64,1.44,0s.05,1.06-.34,1.44A6.46,6.46,0,0,1,612.7,398c-2-.49-3.23-2.36-3.25-5,0-3.27,0-6.54.07-9.81,0-1.16-.27-1.57-1.44-1.45-.48,0-1.23.39-1.41-.55s.4-1.07,1-1.32a10,10,0,0,0,5.17-4.74,1.17,1.17,0,0,1,1.39-.75c.76.12.56.77.58,1.2a25.21,25.21,0,0,1-.07,3c0,.64.13.91.83.86,1-.07,1.93,0,2.88-.08s1,.35.92,1,.22,1.46-.87,1.44-1.93,0-2.9-.05c-.81-.05-1.12.22-1.09,1.06.05,1.72,0,3.44,0,5.16Z" transform="translate(-220.2 -236.25)" style="fill:#eb2b47"/><path d="M490.07,352.77a4.07,4.07,0,0,1-.39-4.56c1.47-2.75,1.17-5.11-1.17-7.21a5.15,5.15,0,0,1,6.51,2.9,1.35,1.35,0,0,1-.4,1.58c-.45.37-.9.74-1.38,1.08A6.58,6.58,0,0,0,490.07,352.77Z" transform="translate(-220.2 -236.25)" style="fill:#e1274f"/><path d="M574.18,384.74c-1,0-2.1,0-3.14,0-.65,0-.76-.22-.7-.8.24-2.33,2.14-4.31,4.18-4.3s3.76,1.78,4,4.21c.06.58-.08.75-.62.77-1.25,0-2.51.12-3.76.18Z" transform="translate(-220.2 -236.25)" style="fill:#fffefd"/><path d="M220.2,450V329H422.13V450Zm51.5-63.4V364H306v-2.89H268.2v56.24h38.18v-2.94H271.69V389.62h32.24v-3Zm37.84-25.57.94,1.37q9,12.51,18.08,25a1.44,1.44,0,0,1,0,2.05q-9.71,13.19-19.36,26.42l-1.08,1.55a17.06,17.06,0,0,1,2.41,0,2.57,2.57,0,0,0,2.67-1.36q8.63-12,17.34-23.84c.26-.36.54-.71.88-1.15.33.43.59.75.83,1.08q8.85,12.18,17.7,24.36c.25.35.63.81,1,.84,1.18.11,2.38,0,3.82,0l-21-29,38.08-55-.44-.32q-20,26.19-40.09,52.39c-.21-.27-.52-.66-.81-1.06q-8.1-11.23-16.21-22.47a2.21,2.21,0,0,0-1.19-.95A30.4,30.4,0,0,0,309.54,361.07Zm-85.32,4.74.33-.1Q238.5,386,252.45,406.2c8.78,12.73,27.74,38.28,29.39,39.55-.35-.55-.58-.94-.83-1.31l-30.13-44.85q-12.57-18.72-25.16-37.42c-.28-.43-.7-1-1.11-1.05a37.81,37.81,0,0,0-3.84-.05v56.3h3.45Zm155.33,51.6V364.05h19.82v-2.91h-43v3h19.76v53.38h2.68C379,417.47,379.2,417.44,379.55,417.41Zm33-7.16c.38,2.12,1.63,3.17,4,3.43s4.36-.68,5-2.31a4,4,0,0,0,.25-1c.22-1.81-.6-3-2.55-3.65-1.16-.37-2.37-.58-3.5-1a1.43,1.43,0,0,1-.45-2.52c1-.93,3.4-.83,4.08.36s1.31.89,2.17.75c-.22-1.95-1.56-3.12-3.81-3.36s-4.19.8-4.75,2.49a3.13,3.13,0,0,0,2.16,4.18c1.18.41,2.44.62,3.61,1.07a1.5,1.5,0,0,1,.61,2.6c-1.09,1.05-3.77,1-4.56-.28C414.25,410,413.55,410.08,412.58,410.25Zm-4.42-9c0,1.05,0,2,0,2.89,0,2,0,4-.06,6a1.48,1.48,0,0,1-1.42,1.63c-.66,0-1.69-.27-1.91-.73-.55-1.14-1.28-.9-2.12-.76a3.32,3.32,0,0,0,3.62,3.36,3.4,3.4,0,0,0,3.73-3.41c.08-1.75,0-3.51,0-5.27v-3.74Zm-7.61,11.3V412c-.49-.32-1-.91-1.48-.88A1.59,1.59,0,0,0,398,412.3a1.56,1.56,0,0,0,1.08,1.13C399.55,413.46,400.06,412.89,400.55,412.58Z" transform="translate(-220.2 -236.25)" style="fill:#fff"/><path d="M271.7,386.64h32.23v3H271.69v24.82h34.69v2.94H268.2V361.14H306V364H271.7Z" transform="translate(-220.2 -236.25)"/><path d="M309.54,361.07a30.4,30.4,0,0,1,3.49,0,2.21,2.21,0,0,1,1.19.95q8.13,11.22,16.21,22.47c.29.4.6.79.81,1.06q20.07-26.22,40.09-52.39l.44.32-38.08,55,21,29c-1.44,0-2.64.07-3.82,0-.35,0-.73-.49-1-.84q-8.87-12.16-17.7-24.36c-.24-.33-.5-.65-.83-1.08-.34.44-.62.79-.88,1.15q-8.68,11.91-17.34,23.84a2.57,2.57,0,0,1-2.67,1.36,17.06,17.06,0,0,0-2.41,0l1.08-1.55q9.68-13.21,19.36-26.42a1.44,1.44,0,0,0,0-2.05q-9.07-12.48-18.08-25Z" transform="translate(-220.2 -236.25)"/><path d="M224.22,365.81v51.56h-3.45v-56.3a37.81,37.81,0,0,1,3.84.05c.41.05.83.62,1.11,1.05q12.6,18.69,25.16,37.42L281,444.44c.25.37.48.76.83,1.31-1.65-1.27-20.61-26.82-29.39-39.55q-14-20.24-27.9-40.49Z" transform="translate(-220.2 -236.25)"/><path d="M379.55,417.41c-.35,0-.55.06-.76.06h-2.68V364.1H356.35v-3h43v2.91H379.55Z" transform="translate(-220.2 -236.25)"/><path d="M412.58,410.25c1-.17,1.67-.21,2.28.78.79,1.27,3.47,1.33,4.56.28a1.5,1.5,0,0,0-.61-2.6c-1.17-.45-2.43-.66-3.61-1.07a3.13,3.13,0,0,1-2.16-4.18c.56-1.69,2.54-2.73,4.75-2.49s3.59,1.41,3.81,3.36c-.86.14-1.58.3-2.17-.75s-3-1.29-4.08-.36a1.43,1.43,0,0,0,.45,2.52c1.13.44,2.34.65,3.5,1,1.95.64,2.77,1.84,2.55,3.65a4,4,0,0,1-.25,1c-.68,1.63-2.73,2.56-5,2.31S413,412.37,412.58,410.25Z" transform="translate(-220.2 -236.25)"/><path d="M408.16,401.28H410V405c0,1.76,0,3.52,0,5.27a3.4,3.4,0,0,1-3.73,3.41,3.32,3.32,0,0,1-3.62-3.36c.84-.14,1.57-.38,2.12.76.22.46,1.25.73,1.91.73a1.48,1.48,0,0,0,1.42-1.63c0-2,0-4,.06-6C408.17,403.25,408.16,402.33,408.16,401.28Z" transform="translate(-220.2 -236.25)"/><path d="M400.55,412.58c-.49.31-1,.88-1.47.85A1.56,1.56,0,0,1,398,412.3a1.59,1.59,0,0,1,1.07-1.18c.48,0,1,.56,1.48.88Z" transform="translate(-220.2 -236.25)"/><path d="M365,293.5q-53.7,0-107.39,0c-.95,0-1.16-.21-1.16-1.16q0-27.54,0-55.08c0-.86.17-1,1-1q107.52,0,215,0c.87,0,1,.17,1,1q-.06,27.6,0,55.21c0,.86-.17,1-1,1Q418.78,293.48,365,293.5Z" transform="translate(-220.2 -236.25)" style="fill:#f7f8f8"/><path d="M302.89,264.94a18.27,18.27,0,1,1-18.17-18.33A18.23,18.23,0,0,1,302.89,264.94Z" transform="translate(-220.2 -236.25)" style="fill:#08998b"/><path d="M398.4,280.6c1.15-3.1,2.24-6,3.32-9q4-10.86,8.78-21.38a2.12,2.12,0,0,1,2.06-1.35c2.06-.23,3,.62,3.78,2.44,4.11,9.23,7.69,18.66,11.16,28.14.36,1,.13,1.13-.8,1.14-3.6,0-3.6.05-4.83-3.34-.48-1.3-1-2.59-1.37-3.91a1,1,0,0,0-1.15-.85q-6.3,0-12.6,0a1,1,0,0,0-1.17.83c-.71,2.11-1.5,4.18-2.2,6.29-.23.7-.54,1-1.33,1C400.89,280.55,399.73,280.6,398.4,280.6Z" transform="translate(-220.2 -236.25)" style="fill:#009789"/><path d="M432.14,264.89V250.53c0-.59-.08-1.15.77-1.27,4.93-.69,9.87-1.15,14.71.42,6.93,2.25,9.11,11.21,3.93,16-2,1.82-4.43,2.45-7,2.84a38.42,38.42,0,0,1-6.78.25c-1,0-1.31.21-1.28,1.24.07,3.15,0,6.3,0,9.45,0,.88-.24,1.13-1.12,1.13-3.28,0-3.28,0-3.28-3.25Z" transform="translate(-220.2 -236.25)" style="fill:#009789"/><path d="M317.51,264.76c0-4.87,0-9.74,0-14.6,0-.9.15-1.24,1.15-1.23,5.58,0,11.17,0,16.75,0,.87,0,1.14.25,1.14,1.13,0,2.75,0,2.75-2.67,2.75-3.57,0-7.13,0-10.7,0-.9,0-1.26.19-1.23,1.17.07,2.39.06,4.79,0,7.18,0,.87.24,1.14,1.12,1.13,3.57,0,7.14,0,10.71,0,1,0,1.18.28,1.16,1.2,0,2.58,0,2.58-2.52,2.58-3,0-6,.07-9.06,0-1.23,0-1.43.4-1.41,1.48.06,3.95,0,7.89,0,11.84,0,.91-.14,1.34-1.22,1.32-3.24-.05-3.24,0-3.24-3.27Z" transform="translate(-220.2 -236.25)" style="fill:#019789"/><path d="M356.11,271.6c0,2.56,0,5.12,0,7.68,0,.49,0,.91-.64,1-3.86.49-7.73,1.22-11.63.5-4.12-.77-6.14-3.22-6.16-7.18,0-3.68,2.19-6.2,6.21-7.06a17.49,17.49,0,0,1,7.24,0c.82.18.88-.12.88-.79,0-4-1.82-5.83-5.84-5.83a17,17,0,0,0-4.71.66c-.7.2-.93,0-1-.64a.53.53,0,0,0,0-.13c-.38-2.68-.38-2.67,2.31-3.17a16.41,16.41,0,0,1,8,.11c3.32,1,5.21,3.58,5.31,7.26.07,2.52,0,5,0,7.56Z" transform="translate(-220.2 -236.25)" style="fill:#009789"/><path d="M368.51,281.12a20.2,20.2,0,0,1-6.32-1c-.7-.22-1-.54-.75-1.27s.17-2,.72-2.45,1.58.39,2.42.59a15.34,15.34,0,0,0,7,.13,2.48,2.48,0,0,0,2.13-2,2.85,2.85,0,0,0-1.18-2.88,17.54,17.54,0,0,0-3.67-1.91c-1.27-.54-2.57-1-3.79-1.69a5.88,5.88,0,0,1-3.39-6,6.1,6.1,0,0,1,4-5.49c3.52-1.5,7.07-.91,10.6,0,.2.06.48.11.43.36a28.18,28.18,0,0,1-.72,3.18c-.12.37-.59,0-.86-.09A13.18,13.18,0,0,0,369,260c-2.22.28-3.38,1.56-3.08,3.34a3.27,3.27,0,0,0,2.14,2.46c2,.88,4,1.64,6,2.57a6.36,6.36,0,0,1,3.66,8c-.85,3-3.27,4-6,4.49A11.77,11.77,0,0,1,368.51,281.12Z" transform="translate(-220.2 -236.25)" style="fill:#009789"/><path d="M387.34,267.4c.1,1.92-.19,4.23.23,6.53s1.44,3.22,3.7,3.37a8.23,8.23,0,0,0,4.18-.69c.83-.39,1.05-.11,1.23.69.6,2.68.62,2.66-2.15,3.37a13.18,13.18,0,0,1-6,.13,6.47,6.47,0,0,1-5.2-5.89,29.43,29.43,0,0,1-.25-3.51c0-6.64,0-13.27,0-19.9,0-.89.12-1.41,1.18-1.44s2.24-.82,2.89-.29.17,1.89.2,2.89,0,2.27,0,3.4c0,.68.23.86.87.85,2.35,0,4.71,0,7.06,0,.9,0,1.12.28,1.11,1.14,0,2.43,0,2.43-2.45,2.43-1.89,0-3.78,0-5.67,0-.7,0-.94.18-.93.91C387.37,263.24,387.34,265.13,387.34,267.4Z" transform="translate(-220.2 -236.25)" style="fill:#009789"/><path d="M464.22,264.76c0,4.91,0,9.82,0,14.73,0,.88-.23,1.13-1.12,1.13-3.38,0-3.38,0-3.38-3.29,0-9,0-18.05,0-27.08,0-1.07.32-1.33,1.35-1.32,3.15,0,3.16,0,3.16,3.11Z" transform="translate(-220.2 -236.25)" style="fill:#029789"/><path d="M292.58,261.72,284,279l-.25,0v-4.29c0-1.85,0-3.7,0-5.55,0-.8-.19-1.1-1-1.07-1.71.06-3.43,0-5.35,0l8.93-17.4.21.06c0,3.26,0,6.51,0,9.76,0,.95.18,1.35,1.23,1.28C289.23,261.65,290.79,261.72,292.58,261.72Z" transform="translate(-220.2 -236.25)" style="fill:#f7f8f8"/><path d="M418.86,268.77H407.24a137.55,137.55,0,0,1,5.81-14.62C415.27,259.08,417,263.89,418.86,268.77Z" transform="translate(-220.2 -236.25)" style="fill:#f7f8f8"/><path d="M436.52,258.86v-5.29c0-.47-.06-.92.66-.92,2.52,0,5.06-.28,7.54.29,2.28.53,4.18,1.65,4.71,4.16.49,2.33.27,4.54-1.74,6.18-1.6,1.32-3.59,1.56-5.56,1.7-1.55.11-3.11,0-4.66.07-.82,0-1-.28-1-1C436.55,262.31,436.52,260.58,436.52,258.86Z" transform="translate(-220.2 -236.25)" style="fill:#f7f8f8"/><path d="M352,273.61c0,.92,0,1.84,0,2.76,0,.56-.18.92-.74.95a21.78,21.78,0,0,1-6.74-.22,3.65,3.65,0,0,1-.76-6.63c2.49-1.25,5.1-1,7.72-.48.49.1.51.45.51.85C352,271.76,352,272.68,352,273.61Z" transform="translate(-220.2 -236.25)" style="fill:#f7f8f8"/></svg>