<svg id="a8320e87-8b14-4bb6-8a17-75a7b433ffed" data-name="Layer 1" xmlns="http://www.w3.org/2000/svg" xmlns:xlink="http://www.w3.org/1999/xlink" viewBox="0 0 197.48 76.42"><defs><linearGradient id="bc7b6c59-e7dc-49c0-a552-ce4a1bf9eeb3" x1="168.16" y1="196.08" x2="365.64" y2="196.08" gradientTransform="translate(145.68 101.56)" gradientUnits="userSpaceOnUse"><stop offset="0" stop-color="#7f3f98"/><stop offset="1" stop-color="#6279bb"/></linearGradient></defs><title>logo</title><path d="M313.84,334.46V261.27h11.51q10,0,14.65,1.29A19.62,19.62,0,0,1,350.46,269a17,17,0,0,1,3.89,11.14,16.21,16.21,0,0,1-1.77,7.59,19.41,19.41,0,0,1-5.75,6.4c4.45,2.08,7.7,4.7,9.75,7.83a19.79,19.79,0,0,1,3.09,11.12,20.72,20.72,0,0,1-3.19,11.25,20.25,20.25,0,0,1-8.22,7.58q-5,2.52-13.89,2.52Zm13.94-59.91V290h3c3.4,0,5.92-.72,7.57-2.14a7.31,7.31,0,0,0,2.47-5.83,6.79,6.79,0,0,0-2.35-5.44q-2.34-2-7.14-2Zm0,27.86v18.76h3.49q8.69,0,11.7-2.19a7.38,7.38,0,0,0,3-6.37,8.91,8.91,0,0,0-3.55-7.46q-3.54-2.73-11.77-2.74Z" transform="translate(-313.84 -259.43)" style="fill:#4f4f4f"/><path d="M370,259.43h13.58v75H370Z" transform="translate(-313.84 -259.43)" style="fill:#4f4f4f"/><path d="M395.84,280.32h13.73v26.07c0,5.08.35,8.6,1.05,10.58a9.21,9.21,0,0,0,3.37,4.6,9.65,9.65,0,0,0,5.71,1.64,10,10,0,0,0,5.76-1.62,9.41,9.41,0,0,0,3.51-4.75q.86-2.34.85-10V280.32h13.59v22.94q0,14.17-2.24,19.4a21.17,21.17,0,0,1-8.06,9.78q-5.33,3.4-13.54,3.41-8.9,0-14.4-4a21,21,0,0,1-7.74-11.1q-1.59-4.92-1.59-17.91Z" transform="translate(-313.84 -259.43)" style="fill:#4f4f4f"/><path d="M511.27,311.32H467.64a14.5,14.5,0,0,0,5.05,9.18,15.83,15.83,0,0,0,10.47,3.41,18.12,18.12,0,0,0,13.09-5.33L507.69,324a27,27,0,0,1-10.25,9,32.07,32.07,0,0,1-14.18,2.91q-12.74,0-20.75-8t-8-20.12q0-12.39,8-20.58a26.83,26.83,0,0,1,20-8.18q12.8,0,20.8,8.18t8,21.62Zm-13.58-10.7a13.67,13.67,0,0,0-5.31-7.36,15.4,15.4,0,0,0-9.19-2.84,16.27,16.27,0,0,0-10,3.19q-2.7,2-5,7Z" transform="translate(-313.84 -259.43)" style="fill:#4f4f4f"/><path d="M313.84,334.46V261.27h11.51q10,0,14.65,1.29A19.62,19.62,0,0,1,350.46,269a17,17,0,0,1,3.89,11.14,16.21,16.21,0,0,1-1.77,7.59,19.41,19.41,0,0,1-5.75,6.4c4.45,2.08,7.7,4.7,9.75,7.83a19.79,19.79,0,0,1,3.09,11.12,20.72,20.72,0,0,1-3.19,11.25,20.25,20.25,0,0,1-8.22,7.58q-5,2.52-13.89,2.52Zm13.94-59.91V290h3c3.4,0,5.92-.72,7.57-2.14a7.31,7.31,0,0,0,2.47-5.83,6.79,6.79,0,0,0-2.35-5.44q-2.34-2-7.14-2Zm0,27.86v18.76h3.49q8.69,0,11.7-2.19a7.38,7.38,0,0,0,3-6.37,8.91,8.91,0,0,0-3.55-7.46q-3.54-2.73-11.77-2.74Z" transform="translate(-313.84 -259.43)" style="fill:url(#bc7b6c59-e7dc-49c0-a552-ce4a1bf9eeb3)"/><path d="M370,259.43h13.58v75H370Z" transform="translate(-313.84 -259.43)" style="fill:url(#bc7b6c59-e7dc-49c0-a552-ce4a1bf9eeb3)"/><path d="M395.84,280.32h13.73v26.07c0,5.08.35,8.6,1.05,10.58a9.21,9.21,0,0,0,3.37,4.6,9.65,9.65,0,0,0,5.71,1.64,10,10,0,0,0,5.76-1.62,9.41,9.41,0,0,0,3.51-4.75q.86-2.34.85-10V280.32h13.59v22.94q0,14.17-2.24,19.4a21.17,21.17,0,0,1-8.06,9.78q-5.33,3.4-13.54,3.41-8.9,0-14.4-4a21,21,0,0,1-7.74-11.1q-1.59-4.92-1.59-17.91Z" transform="translate(-313.84 -259.43)" style="fill:url(#bc7b6c59-e7dc-49c0-a552-ce4a1bf9eeb3)"/><path d="M511.27,311.32H467.64a14.5,14.5,0,0,0,5.05,9.18,15.83,15.83,0,0,0,10.47,3.41,18.12,18.12,0,0,0,13.09-5.33L507.69,324a27,27,0,0,1-10.25,9,32.07,32.07,0,0,1-14.18,2.91q-12.74,0-20.75-8t-8-20.12q0-12.39,8-20.58a26.83,26.83,0,0,1,20-8.18q12.8,0,20.8,8.18t8,21.62Zm-13.58-10.7a13.67,13.67,0,0,0-5.31-7.36,15.4,15.4,0,0,0-9.19-2.84,16.27,16.27,0,0,0-10,3.19q-2.7,2-5,7Z" transform="translate(-313.84 -259.43)" style="fill:url(#bc7b6c59-e7dc-49c0-a552-ce4a1bf9eeb3)"/></svg>