<?xml version="1.0" encoding="utf-8"?>
<!-- Generator: Adobe Illustrator 23.0.5, SVG Export Plug-In . SVG Version: 6.00 Build 0)  -->
<svg version="1.1" id="ff3149d5-5ee9-4fd7-9182-8dea06d8dc52"
	 xmlns="http://www.w3.org/2000/svg" xmlns:xlink="http://www.w3.org/1999/xlink" x="0px" y="0px" viewBox="0 0 392.6 410.3"
	 style="enable-background:new 0 0 392.6 410.3;" xml:space="preserve">
<style type="text/css">
	.st0{fill:#263238;}
	.st1{font-family:'CenturyGothic';}
	.st2{font-size:11.9832px;}
	.st3{font-family:'CenturyGothic-Bold';}
	.st4{fill:#D1D2D3;}
	.st5{fill:#E5E6E6;}
	.st6{fill:#A7A8AB;}
	.st7{fill:#FFFFFF;}
</style>
<title>Product</title>
<text transform="matrix(0.8412 -0.5408 0.5408 0.8412 113.0553 146.624)" class="st0 st1 st2">Ecommerce App</text>
<text transform="matrix(0.8412 -0.5408 0.5408 0.8412 130.6348 174.0439)" class="st0 st1 st2">Mobile Application</text>
<text transform="matrix(0.8412 -0.5408 0.5408 0.8412 93.4575 120.096)" class="st0 st3 st2">JENIS APLIKASI</text>
<g>
	
		<image style="overflow:visible;opacity:0.75;" width="509" height="478" xlink:href="A2ACCEE6.png"  transform="matrix(1 0 0 1 -55.4921 -31.1638)">
	</image>
	<g>
		<polygon class="st4" points="147.6,26.1 2.1,133.6 187.4,384.3 390.5,234.2 247.8,41.1 		"/>
	</g>
</g>
<polygon class="st5" points="190.2,83.7 247.8,41.1 147.6,26.1 "/>
<polygon class="st6" points="247.8,41.1 190.2,83.7 290.4,98.7 "/>
<rect x="44.5" y="115.9" transform="matrix(0.8042 -0.5943 0.5943 0.8042 -74.6562 75.126)" class="st7" width="64.5" height="69.9"/>
<path class="st6" d="M108.3,148.5c-2.8-1.5-5.9-3-6.1-3c-0.2,0-7.5,2.6-12.2,4.3c-1.5,0.5-2.7,1-3.3,1.2l-3.1-2.2l0,0.1l-2.1-2.8
	c0.1-0.4,0.2-0.9,0.2-1.3c0-0.6-0.1-1.2-0.3-1.7c-0.3-0.8-1.2-1.9-1.1-2.8c0.1-0.9,0.4-1.4,0.3-2.4c-0.3-1.6-1.2-3.2-2.2-4.5
	c-0.3-0.4-1-0.8-1.2-0.1c-0.1,0.3,0.3,0.6,0.2,0.9c0,0,0,0,0,0c-0.3-0.7-0.5-1.5-0.7-1.8c-0.8-1.7-1.4-2.3-1.8-3
	c-1.4-2.5-2.9-4.7-5.7-5.6c-3-0.9-6.1-0.5-7.2,0.5c-0.1,0.1-0.8,0.7-0.6,0.7c-0.7-0.1-1.5,0.5-2.1,0.7c-3.3,1.4-5.5,5.7-6.2,9.1
	c-0.7,3.5,1.5,5.8,3.5,8.1c0.7,0.8,1.4,1.7,2.2,2.4c0.5,0.4,0.8,0.7,1.2,1.1c-0.1-0.1-0.2-0.2-0.3-0.2c-0.8,0-0.5,0.8-0.2,1.2
	c0.9,1.4,2.2,2.7,3.7,3.5c0.9,0.4,1.5,0.3,2.3,0.4c0.9,0.2,1.7,1.3,2.4,1.9c0.5,0.4,1,0.7,1.6,0.8c0.6,0.2,1.2,0.2,1.8,0.2l1.9,2.6
	l-0.2,0l1.1,3.6c-0.2,0.3-0.5,0.6-0.8,1.1c-0.1,0.1-0.2,0.3-0.3,0.4c-0.1,0.2-0.2,0.3-0.4,0.5c-0.2,0.3-0.4,0.5-0.6,0.8
	c-3,4-7.6,10.2-7.6,10.4c-0.1,0.2,0.6,4.1,1.2,7.4c0.1,0.7,0.4,1.3,0.8,1.9l9.1,12.3l21.5-15.9l0.3-0.2l0,0l0.7-0.5l21.6-15.9
	l-9-12.2C109.9,149.6,109.2,149,108.3,148.5z"/>
<g>
	
		<rect x="91.3" y="82.2" transform="matrix(0.8042 -0.5943 0.5943 0.8042 -25.962 96.2571)" class="st6" width="83.5" height="10.6"/>
	
		<rect x="103.4" y="98.5" transform="matrix(0.8042 -0.5943 0.5943 0.8042 -33.2952 106.6135)" class="st6" width="83.5" height="10.6"/>
	
		<rect x="115.5" y="114.9" transform="matrix(0.8042 -0.5943 0.5943 0.8042 -40.6275 116.9686)" class="st6" width="83.5" height="10.6"/>
	
		<rect x="68.3" y="155.9" transform="matrix(0.8042 -0.5943 0.5943 0.8042 -61.4289 135.9645)" class="st6" width="214.6" height="10.6"/>
	
		<rect x="86.5" y="180.5" transform="matrix(0.8042 -0.5943 0.5943 0.8042 -72.4557 151.5372)" class="st6" width="214.6" height="10.6"/>
	
		<rect x="104.6" y="205" transform="matrix(0.8042 -0.5943 0.5943 0.8042 -83.4815 167.1085)" class="st6" width="214.6" height="10.6"/>
	
		<rect x="122.7" y="229.5" transform="matrix(0.8042 -0.5943 0.5943 0.8042 -94.5083 182.6813)" class="st6" width="214.6" height="10.6"/>
	
		<rect x="140.8" y="254" transform="matrix(0.8042 -0.5943 0.5943 0.8042 -105.534 198.2525)" class="st6" width="214.6" height="10.6"/>
	
		<rect x="159" y="278.5" transform="matrix(0.8042 -0.5943 0.5943 0.8042 -116.5608 213.8253)" class="st6" width="214.6" height="10.6"/>
</g>
</svg>
