<svg id="ea7c2ae3-5a73-4a58-88ff-70b532bb7001" data-name="Layer 1" xmlns="http://www.w3.org/2000/svg" viewBox="0 0 319.81 379.91"><title>articles</title><rect x="312.91" y="132.86" width="236.9" height="325.32" transform="translate(-336.98 27.16) rotate(-16.27)" style="fill:#fff;stroke:#545554;stroke-miterlimit:10"/><path d="M376.56,200.07l-5.21,1.53-.29,2.69-2.67.78,1.73-12.69,2.57-.75,8.29,9.76-2.72.8Zm-1.39-1.73-3-3.78-.52,4.82Z" transform="translate(-271.45 -105.56)" style="fill:#455b64"/><path d="M389.3,199l-3.08-2.49-.12,0-2.26.66.91,3.12-2.6.76-3.28-11.22,4.86-1.42c3-.88,5.33.13,6.07,2.65a3.81,3.81,0,0,1-1.28,4.22l3.57,2.87Zm-5.09-8.39-2.12.62,1.14,3.91,2.12-.62c1.59-.46,2.17-1.43,1.82-2.65S385.79,190.1,384.21,190.57Z" transform="translate(-271.45 -105.56)" style="fill:#455b64"/><path d="M393.44,187.87l-3.59,1-.62-2.12L399,184l.62,2.12-3.59,1,2.66,9.11-2.6.76Z" transform="translate(-271.45 -105.56)" style="fill:#455b64"/><path d="M400.41,183.54l2.59-.76L406.28,194l-2.6.76Z" transform="translate(-271.45 -105.56)" style="fill:#455b64"/><path d="M406.6,187.82a6.43,6.43,0,0,1,9.59-6.94l-1.21,2a3.75,3.75,0,0,0-3.21-.49,3.74,3.74,0,1,0,2.1,7.18,3.74,3.74,0,0,0,2.43-2.15l2.12,1.05a6.42,6.42,0,0,1-11.82-.68Z" transform="translate(-271.45 -105.56)" style="fill:#455b64"/><path d="M417.42,178.58l2.59-.76,2.66,9.11,5.63-1.65.62,2.12-8.23,2.4Z" transform="translate(-271.45 -105.56)" style="fill:#455b64"/><path d="M438.46,182.35l.61,2.09L430.38,187l-3.28-11.22,8.48-2.48.61,2.09-5.9,1.72.71,2.44,5.21-1.52.59,2-5.21,1.52.76,2.6Z" transform="translate(-271.45 -105.56)" style="fill:#455b64"/><rect x="496.7" y="351.58" width="56.82" height="54.97" transform="translate(-356.64 56.78) rotate(-16.27)" style="fill:#455b64"/><g style="opacity:0.30000000000000004"><polygon points="237 302.1 244.16 270.54 261.56 284.29 266.37 272.89 283.08 288.65 237 302.1"/></g><g style="opacity:0.30000000000000004"><path d="M529.77,363.11c4.43,3.27,1.07,9.41-4.07,7.43C521.28,367.27,524.64,361.14,529.77,363.11Z" transform="translate(-271.45 -105.56)"/></g><rect x="331.44" y="265.24" width="120.68" height="77.04" transform="translate(-340.88 16.4) rotate(-16.27)" style="fill:#f3725f"/><g style="opacity:0.2"><polygon points="80.2 243.66 99.14 195.66 128.4 214.32 140.78 194.3 179.85 214.57 80.2 243.66"/></g><g style="opacity:0.2"><path d="M398,288.18a7.05,7.05,0,1,1-8.75-4.8A7.05,7.05,0,0,1,398,288.18Z" transform="translate(-271.45 -105.56)"/></g><rect x="270.57" y="138.91" width="236.9" height="23.13" transform="translate(-298.03 9.48) rotate(-16.27)" style="fill:#d6d4d5;stroke:#545554;stroke-miterlimit:10"/><circle cx="12.9" cy="76.2" r="2.62" style="fill:#e0e0e0"/><path d="M295.39,178.54a2.62,2.62,0,1,1-3.25-1.78A2.62,2.62,0,0,1,295.39,178.54Z" transform="translate(-271.45 -105.56)" style="fill:#e0e0e0"/><path d="M303.92,176.05a2.62,2.62,0,1,1-3.25-1.78A2.63,2.63,0,0,1,303.92,176.05Z" transform="translate(-271.45 -105.56)" style="fill:#e0e0e0"/><rect x="344.15" y="148.28" width="86.44" height="6.82" transform="translate(-298.44 9.07) rotate(-16.27)" style="fill:#fff"/><rect x="443.96" y="164.89" width="59.04" height="6.82" transform="translate(-299.64 33.87) rotate(-16.27)" style="fill:#d6d4d5"/><rect x="302.55" y="206.62" width="59.04" height="6.82" transform="translate(-317 -4.09) rotate(-16.27)" style="fill:#d6d4d5"/><rect x="307.51" y="226.17" width="59.04" height="6.82" transform="translate(-322.28 -1.91) rotate(-16.27)" style="fill:#d6d4d5"/><rect x="311.13" y="220.09" width="207.19" height="25" transform="translate(-320.01 19.98) rotate(-16.27)" style="fill:#d6d4d5"/><rect x="445.99" y="237.61" width="74.25" height="11.05" transform="translate(-320.23 39.57) rotate(-16.27)" style="fill:#d6d4d5"/><rect x="347.91" y="354.52" width="89.34" height="25" transform="translate(-358.57 19.16) rotate(-16.27)" style="fill:#d6d4d5"/><rect x="441.18" y="324.99" width="107.27" height="25" transform="translate(-346.2 46.62) rotate(-16.27)" style="fill:#d6d4d5"/><rect x="450.73" y="252.34" width="74.25" height="11.05" transform="translate(-324.17 41.49) rotate(-16.27)" style="fill:#d6d4d5"/><rect x="456.26" y="269.22" width="74.25" height="11.05" transform="translate(-328.67 43.71) rotate(-16.27)" style="fill:#d6d4d5"/><rect x="460.01" y="284.14" width="74.25" height="11.05" transform="translate(-332.7 45.36) rotate(-16.27)" style="fill:#d6d4d5"/><rect x="464.32" y="298.89" width="74.25" height="11.05" transform="translate(-336.67 47.16) rotate(-16.27)" style="fill:#d6d4d5"/><rect x="355.46" y="383.89" width="125.4" height="12.82" transform="translate(-364.07 27.26) rotate(-16.27)" style="fill:#d6d4d5"/><rect x="361.28" y="408.41" width="82.58" height="12.82" transform="matrix(0.96, -0.28, 0.28, 0.96, -371.57, 23.87)" style="fill:#d6d4d5"/><rect x="447.36" y="389.91" width="37.1" height="12.82" transform="translate(-363.85 40.88) rotate(-16.27)" style="fill:#d6d4d5"/><rect x="366.2" y="420.68" width="125.4" height="12.82" transform="translate(-373.95 31.75) rotate(-16.27)" style="fill:#d6d4d5"/></svg>