<?xml version="1.0" encoding="utf-8"?>
<!-- Generator: Adobe Illustrator 23.0.5, SVG Export Plug-In . SVG Version: 6.00 Build 0)  -->
<svg version="1.1" id="Layer_1" xmlns="http://www.w3.org/2000/svg" xmlns:xlink="http://www.w3.org/1999/xlink" x="0px" y="0px"
	 viewBox="0 0 935 818" style="enable-background:new 0 0 935 818;" xml:space="preserve">
<style type="text/css">
	.st0{fill:url(#SVGID_1_);}
	.st1{fill:url(#SVGID_2_);}
	.st2{fill:url(#SVGID_3_);}
	.st3{fill:none;stroke:#746C6C;stroke-width:2;}
	.st4{fill:none;stroke:#746C6C;}
	.st5{fill:#FFB037;}
	.st6{fill:#746C6C;}
	.st7{fill:#2F5D62;}
	.st8{fill:#FFFFFF;}
	.st9{fill:#364547;stroke:#364547;}
	.st10{fill:#2F5D62;stroke:#364547;}
	.st11{fill:#364547;}
	.st12{fill:none;stroke:#BAC3CB;}
	.st13{fill:#787878;}
	.st14{fill:#BE842B;}
	.st15{fill:#FFFFFF;stroke:#FFFFFF;stroke-miterlimit:10;}
	.st16{fill:#4B7FA0;}
	.st17{font-family:'Calibri-Bold';}
	.st18{font-size:8.0965px;}
	.st19{fill:#BCBDC9;}
	.st20{font-size:6.6361px;}
	.st21{fill:#BCBDC9;stroke:#FFFFFF;stroke-miterlimit:10;}
	.st22{fill:#F4F3F7;}
	.st23{fill:#FF956E;}
	.st24{font-size:11.7286px;}
	.st25{font-size:13.1705px;}
	.st26{fill:none;stroke:#FF3C00;stroke-width:3;stroke-miterlimit:10;}
	.st27{fill:#FF9A75;stroke:#FFFFFF;stroke-width:2;stroke-miterlimit:10;}
	.st28{font-size:21.6843px;}
	.st29{font-size:13.8096px;}
	.st30{fill:#BA320D;}
	.st31{font-size:11.9509px;}
</style>
<g>
	<g>
		
			<image style="overflow:visible;opacity:0.8;" width="551" height="158" xlink:href="7B46D8A7.png"  transform="matrix(1 0 0 1 214 528)">
		</image>
		<g>
			<g>
				<g>
					<image style="overflow:visible;" width="6" height="47" xlink:href="7B46D8A5.png"  transform="matrix(1 0 0 1 248 246)">
					</image>
					<image style="overflow:visible;" width="6" height="47" xlink:href="7B46D8AB.png"  transform="matrix(1 0 0 1 248 191)">
					</image>
				</g>
				<image style="overflow:visible;" width="285" height="577" xlink:href="7B46D8AD.png"  transform="matrix(1 0 0 1 252 100)">
				</image>
				<linearGradient id="SVGID_1_" gradientUnits="userSpaceOnUse" x1="266.9" y1="388.502" x2="522.2758" y2="388.502">
					<stop  offset="5.405410e-03" style="stop-color:#F4F6FC"/>
					<stop  offset="1" style="stop-color:#DCE3EF"/>
				</linearGradient>
				<path class="st0" d="M280.6,662.5c-3.7,0-5.9-0.4-7.6-1.2l-0.3-0.2c-0.5-0.3-1-0.6-1.4-1c-0.3-0.2-0.6-0.5-0.8-0.7
					c-0.5-0.5-0.8-0.9-1.2-1.4c-0.4-0.6-0.8-1.2-1.1-1.8c-1.5-3.2-1.3-8.7-1.1-14.1c0.1-2.1,0.1-4.1,0.1-6V128.5
					c0-4.4,0.4-6.8,1.5-8.7l0.3-0.5c0.2-0.2,0.4-0.5,0.6-0.8c0.2-0.3,0.5-0.6,0.8-0.9c0.3-0.3,0.6-0.6,0.9-0.8c0.5-0.4,1-0.7,1.5-1
					l0.4-0.2c1.6-0.8,3.8-1.2,7.5-1.2h226.8c4.2,0,6.7,0.2,8.6,1.1c0.5,0.2,0.9,0.5,1.3,0.8c0.6,0.4,1.1,0.8,1.6,1.3
					c0.3,0.3,0.6,0.6,0.8,0.9c0.2,0.3,0.5,0.6,0.7,0.9l0.2,0.4c1.1,1.9,1.5,4.3,1.5,8.7V636c0,2,0.1,4,0.1,6
					c0.2,5.4,0.4,10.9-1.1,14.2c-0.3,0.6-0.7,1.3-1.1,1.8c-0.3,0.5-0.7,0.9-1.1,1.3c-0.5,0.5-1,1-1.6,1.3c-0.4,0.3-0.9,0.6-1.4,0.8
					c-1.9,0.9-4.3,1.1-8.6,1.1H280.6z"/>
				<linearGradient id="SVGID_2_" gradientUnits="userSpaceOnUse" x1="394.588" y1="519.2443" x2="394.588" y2="114.4992">
					<stop  offset="0" style="stop-color:#5B6F83"/>
					<stop  offset="1" style="stop-color:#000000"/>
				</linearGradient>
				<path class="st1" d="M522,311.1V128.5c0-4.4-0.4-6.8-1.5-8.7l-0.2-0.4c-0.2-0.3-0.4-0.6-0.7-0.9c-0.2-0.3-0.5-0.6-0.8-0.9
					c-0.5-0.5-1-0.9-1.6-1.3c-0.4-0.3-0.9-0.5-1.3-0.8c-1.9-0.9-4.4-1.1-8.6-1.1H280.6c-3.7,0-5.8,0.3-7.5,1.2l-0.4,0.2
					c-0.5,0.3-1,0.6-1.5,1c-0.3,0.2-0.6,0.5-0.9,0.8c-0.3,0.3-0.6,0.6-0.8,0.9c-0.2,0.3-0.4,0.5-0.6,0.8l-0.3,0.5
					c-1.1,1.9-1.5,4.3-1.5,8.7v390.7C338.6,426.8,425.4,359.3,522,311.1z"/>
				<linearGradient id="SVGID_3_" gradientUnits="userSpaceOnUse" x1="264.5591" y1="388.5022" x2="524.6171" y2="388.5022">
					<stop  offset="0" style="stop-color:#FFFFFF"/>
					<stop  offset="1" style="stop-color:#BDC6D5"/>
				</linearGradient>
				<path class="st2" d="M524.5,641.9c-0.1-2-0.1-4-0.1-5.9V128.5c0-4.8-0.5-7.6-1.9-9.9l-0.3-0.5c-0.2-0.4-0.5-0.7-0.8-1
					c-0.3-0.4-0.6-0.7-1-1.1c-0.6-0.6-1.3-1.1-2-1.6c-0.5-0.3-1.1-0.7-1.6-0.9c-2.3-1.1-5-1.3-9.6-1.3H280.6c-4.1,0-6.6,0.4-8.6,1.5
					l-0.4,0.2c-0.6,0.3-1.2,0.8-1.8,1.2c-0.4,0.3-0.7,0.6-1.1,1c-0.4,0.3-0.7,0.7-1,1.1c-0.3,0.3-0.5,0.6-0.7,1l-0.3,0.5
					c-1.3,2.3-1.8,5-1.8,9.9V636c0,1.9-0.1,3.9-0.1,5.9c-0.2,5.7-0.4,11.5,1.3,15.2c0.4,0.8,0.8,1.5,1.3,2.2
					c0.4,0.6,0.9,1.1,1.4,1.6c0.3,0.3,0.7,0.6,1,0.9c0.6,0.5,1.2,0.9,1.8,1.2l0.4,0.2c2.1,1.1,4.6,1.5,8.6,1.5h226.8
					c4.6,0,7.3-0.2,9.6-1.3c0.6-0.3,1.1-0.6,1.6-0.9c0.7-0.5,1.4-1,2-1.6c0.5-0.5,1-1,1.4-1.6c0.5-0.7,0.9-1.4,1.3-2.2
					C524.9,653.4,524.7,647.6,524.5,641.9z M521.1,656.2c-0.3,0.6-0.7,1.3-1.1,1.8c-0.3,0.5-0.7,0.9-1.1,1.3c-0.5,0.5-1,1-1.6,1.3
					c-0.4,0.3-0.9,0.6-1.4,0.8c-1.9,0.9-4.3,1.1-8.6,1.1H280.6c-3.7,0-5.9-0.4-7.6-1.2l-0.3-0.2c-0.5-0.3-1-0.6-1.4-1
					c-0.3-0.2-0.6-0.5-0.8-0.7c-0.5-0.5-0.8-0.9-1.2-1.4c-0.4-0.6-0.8-1.2-1.1-1.8c-1.5-3.2-1.3-8.7-1.1-14.1c0.1-2.1,0.1-4.1,0.1-6
					V128.5c0-4.4,0.4-6.8,1.5-8.7l0.3-0.5c0.2-0.2,0.4-0.5,0.6-0.8c0.2-0.3,0.5-0.6,0.8-0.9c0.3-0.3,0.6-0.6,0.9-0.8
					c0.5-0.4,1-0.7,1.5-1l0.4-0.2c1.6-0.8,3.8-1.2,7.5-1.2h226.8c4.2,0,6.7,0.2,8.6,1.1c0.5,0.2,0.9,0.5,1.3,0.8
					c0.6,0.4,1.1,0.8,1.6,1.3c0.3,0.3,0.6,0.6,0.8,0.9c0.2,0.3,0.5,0.6,0.7,0.9l0.2,0.4c1.1,1.9,1.5,4.3,1.5,8.7V636
					c0,2,0.1,4,0.1,6C522.3,647.4,522.5,653,521.1,656.2z"/>
				<image style="overflow:visible;" width="9" height="8" xlink:href="7B46D8AF.png"  transform="matrix(1 0 0 1 437 121)">
				</image>
				<image style="overflow:visible;" width="70" height="11" xlink:href="7B46D8AC.png"  transform="matrix(1 0 0 1 359 120)">
				</image>
				<image style="overflow:visible;" width="285" height="577" xlink:href="7B46D8A4.png"  transform="matrix(1 0 0 1 252 100)">
				</image>
			</g>
			<image style="overflow:visible;" width="285" height="577" xlink:href="7B46D8A6.png"  transform="matrix(1 0 0 1 252 100)">
			</image>
		</g>
	</g>
	<line class="st3" x1="274.8" y1="142.2" x2="293.4" y2="142.2"/>
	<line class="st3" x1="274.8" y1="146.4" x2="285.3" y2="146.4"/>
	<line class="st3" x1="274.8" y1="150.5" x2="289.3" y2="150.5"/>
	<path class="st4" d="M507.6,154.9v-0.2l-0.2-0.2l-1.5-1.5v-4.3c0-1.4-0.4-2.6-1.3-3.6c-0.8-1-1.7-1.6-2.8-2V143
		c0-0.5-0.2-0.9-0.5-1.2c-0.3-0.3-0.8-0.5-1.2-0.5s-0.9,0.2-1.2,0.5c-0.3,0.3-0.5,0.8-0.5,1.2v0.1c-1.1,0.3-2.1,1-2.8,2
		c-0.8,1.1-1.3,2.3-1.3,3.6v4.3l-1.5,1.5l-0.2,0.2v0.2v0.8v0.5h0.5h4.9v0.2c0,0.5,0.2,1,0.6,1.4l0,0l0,0c0.4,0.4,0.9,0.6,1.5,0.6
		c0.6,0,1-0.2,1.4-0.6c0.4-0.4,0.6-0.9,0.6-1.4v-0.2h4.9h0.5v-0.5V154.9z"/>
	<circle class="st5" cx="504.2" cy="139.1" r="2.1"/>
	<path class="st6" d="M275.5,200.4c0.4,0,0.7-0.1,1-0.2c0.3-0.1,0.6-0.2,0.8-0.4v-11.2c-0.6-0.3-1.2-0.5-1.9-0.6l0.1-0.7h5.7
		l-0.1,0.7c-0.8,0.1-1.4,0.3-1.9,0.6v4.9h5.7v-4.9c-0.5-0.3-1.2-0.5-2-0.6l0.1-0.7h5.6l-0.1,0.7c-0.7,0.1-1.3,0.3-1.8,0.6v11.2
		c0.5,0.3,1.1,0.5,1.9,0.6l-0.1,0.8h-5.7l0.1-0.8c0.8-0.1,1.4-0.3,1.9-0.6v-5.2h-5.7v5.2c0.5,0.3,1.2,0.5,2,0.6l-0.1,0.8h-5.7
		L275.5,200.4z M294.1,201.3c-1.5,0-2.7-0.4-3.3-1.3c-0.7-0.9-1-2.1-1-3.8c0-1.5,0.4-2.7,1.1-3.6c0.7-0.9,1.8-1.3,3.2-1.3
		c1.4,0,2.3,0.4,2.9,1.1c0.6,0.7,0.8,1.8,0.9,3.2l-0.4,0.6h-5.7v0.1c0,0.9,0.1,1.6,0.2,2.2c0.1,0.6,0.4,1,0.7,1.4
		c0.4,0.3,0.9,0.5,1.7,0.5c0.6,0,1.1-0.1,1.5-0.3s0.8-0.4,1.1-0.7l0.5,0.6c-0.3,0.3-0.8,0.6-1.3,0.9
		C295.4,201.2,294.8,201.3,294.1,201.3z M296,195.2c0-1.1-0.1-1.9-0.4-2.4c-0.3-0.5-0.8-0.7-1.6-0.7c-0.8,0-1.4,0.3-1.7,0.9
		c-0.4,0.6-0.6,1.4-0.6,2.4L296,195.2z M298.9,200.4c0.3,0,0.6-0.1,0.8-0.2c0.2-0.1,0.4-0.2,0.6-0.4v-10.4c0-0.5-0.1-0.9-0.3-1
		c-0.2-0.2-0.6-0.3-1.1-0.3l0.1-0.6c0.5-0.1,1.1-0.2,1.7-0.4c0.6-0.2,1-0.3,1.1-0.3l0.4,0.2v12.9c0.3,0.3,0.8,0.4,1.4,0.6l-0.1,0.7
		h-4.6L298.9,200.4z M304.5,200.4c0.3,0,0.6-0.1,0.8-0.2c0.2-0.1,0.4-0.2,0.6-0.4v-10.4c0-0.5-0.1-0.9-0.3-1
		c-0.2-0.2-0.6-0.3-1.1-0.3l0.1-0.6c0.5-0.1,1.1-0.2,1.7-0.4c0.6-0.2,1-0.3,1.1-0.3l0.4,0.2v12.9c0.3,0.3,0.8,0.4,1.4,0.6l-0.1,0.7
		h-4.6L304.5,200.4z M314.5,201.3c-1.4,0-2.5-0.4-3.3-1.3c-0.7-0.9-1.1-2.1-1.1-3.7s0.4-2.9,1.1-3.7c0.7-0.9,1.8-1.3,3.3-1.3
		c1.4,0,2.5,0.4,3.3,1.3c0.7,0.8,1.1,2.1,1.1,3.7s-0.4,2.9-1.1,3.7C317,200.9,315.9,201.3,314.5,201.3z M314.5,200.4
		c0.9,0,1.5-0.3,1.9-1c0.4-0.6,0.6-1.7,0.6-3.1c0-1.4-0.2-2.5-0.6-3.1c-0.4-0.6-1.1-1-2-1c-0.9,0-1.5,0.3-1.9,1
		c-0.4,0.6-0.6,1.6-0.6,3.1c0,1.4,0.2,2.5,0.6,3.1C312.9,200,313.6,200.4,314.5,200.4z M320.2,203.3c0.3-0.2,0.5-0.5,0.7-0.9
		c0.2-0.3,0.2-0.6,0.2-1c0-0.2,0-0.4-0.1-0.5c-0.1-0.1-0.2-0.2-0.3-0.2c-0.1,0-0.1,0-0.2,0.1c-0.2-0.2-0.2-0.4-0.2-0.8
		c0-0.3,0.1-0.6,0.4-0.7c0.2-0.2,0.5-0.3,0.9-0.3c0.4,0,0.7,0.1,0.9,0.4c0.2,0.3,0.4,0.6,0.4,1.1c0,0.7-0.2,1.3-0.6,1.9
		c-0.4,0.6-0.9,1.1-1.5,1.5L320.2,203.3z"/>
	<path d="M275.5,224.1c0.3-0.1,0.5-0.1,0.6-0.2c0.2-0.1,0.3-0.2,0.5-0.4v-10.9c-0.3-0.2-0.7-0.5-1.3-0.7l0.1-0.8h4.7l3.4,9.3
		l2.9-9.3h5l-0.1,0.8c-0.5,0.2-1,0.4-1.3,0.7v10.9c0.3,0.3,0.8,0.5,1.6,0.7l-0.1,0.8h-5.6l0.1-0.8c0.3-0.1,0.5-0.1,0.6-0.2
		s0.3-0.2,0.5-0.4v-9h0l-3.3,10.5h-1.6l-3.7-9.9h0v8.5c0.3,0.3,0.8,0.5,1.6,0.7l-0.1,0.8h-4.5L275.5,224.1z M293,224.1
		c0.3-0.1,0.5-0.1,0.6-0.2c0.2-0.1,0.3-0.2,0.5-0.3v-6c0-0.5-0.1-0.8-0.3-1c-0.2-0.2-0.5-0.3-1-0.3l0.1-0.8l0.7-0.1
		c1.5-0.2,2.4-0.4,2.9-0.6l0.4,0.2l0.2,1.4c0.3-0.5,0.7-0.8,1.2-1.1c0.5-0.3,1-0.4,1.5-0.4c0.5,0,1,0.2,1.4,0.6
		c0.4,0.4,0.6,0.8,0.6,1.3c0,0.5-0.1,0.9-0.4,1.2c-0.3,0.3-0.6,0.4-1,0.4c-0.4,0-0.8-0.2-1-0.5c0.2-0.2,0.3-0.5,0.3-0.7
		s-0.1-0.4-0.3-0.5c-0.2-0.1-0.4-0.2-0.6-0.2c-0.3,0-0.6,0.1-0.9,0.4c-0.3,0.2-0.5,0.5-0.7,0.9v5.9c0.3,0.2,0.7,0.4,1.2,0.6
		l-0.1,0.8h-5.2L293,224.1z M302,225c-0.5,0-0.8-0.1-1.1-0.4c-0.2-0.3-0.4-0.7-0.4-1.2c0-0.5,0.1-0.9,0.4-1.2
		c0.2-0.3,0.6-0.4,1.1-0.4c0.5,0,0.8,0.1,1.1,0.4c0.2,0.3,0.4,0.7,0.4,1.2s-0.1,0.9-0.4,1.2C302.8,224.9,302.5,225,302,225z
		 M309.6,224.1c0.2,0,0.4-0.1,0.7-0.2c0.2-0.1,0.4-0.2,0.5-0.3v-11.1c-0.3-0.3-0.8-0.5-1.3-0.6l0.1-0.8h9.9l0.2,3.4
		c-0.3,0.1-0.6,0.1-0.8,0.1c-0.2,0-0.5,0-0.7-0.1c-0.1-0.5-0.2-1-0.4-1.3c-0.1-0.3-0.3-0.7-0.5-0.9h-3.4v4.9l1.9-0.1
		c0.2,0,0.5-0.2,0.7-0.4c0.2-0.2,0.4-0.6,0.5-1h1.1v4.3h-1.1c-0.2-0.6-0.4-0.9-0.6-1.2c-0.2-0.2-0.4-0.3-0.6-0.4l-1.9-0.2v5.1
		c0.3,0.3,0.8,0.5,1.6,0.7l-0.1,0.8h-5.7L309.6,224.1z M322.4,225.1c-1,0-1.7-0.2-2.2-0.7c-0.5-0.4-0.8-1.1-0.8-1.9
		c0-0.9,0.3-1.6,1-2.1c0.7-0.5,1.7-0.8,3-0.9l1.8-0.1v-1.2c0-1-0.1-1.6-0.4-2c-0.2-0.4-0.6-0.6-1.2-0.6c-0.4,0-0.7,0.1-1,0.3
		c-0.2,0.2-0.4,0.4-0.4,0.7c0,0.3,0.2,0.6,0.5,0.9c-0.1,0.3-0.2,0.6-0.5,0.8c-0.3,0.2-0.6,0.3-1,0.3c-0.5,0-0.8-0.1-1.1-0.4
		s-0.5-0.6-0.5-1.1c0-0.7,0.3-1.3,1-1.7c0.7-0.4,1.7-0.6,2.9-0.6c1.5,0,2.6,0.3,3.3,0.8c0.8,0.6,1.1,1.4,1.1,2.4v5.6
		c0.1,0.1,0.3,0.2,0.5,0.3c0.2,0.1,0.5,0.2,0.7,0.2l-0.1,0.7h-3.7l-0.2-1.2c-0.5,0.5-0.9,0.8-1.4,1
		C323.6,225,323.1,225.1,322.4,225.1z M323.5,223.7c0.6,0,1.3-0.4,1.9-1.1v-2.3l-1,0.1c-0.8,0.1-1.3,0.2-1.6,0.5s-0.5,0.7-0.5,1.3
		c0,0.5,0.1,0.8,0.3,1.1C322.7,223.6,323.1,223.7,323.5,223.7z M334.1,225c-0.7,0-1.4-0.2-1.8-0.6c-0.5-0.4-0.7-1-0.7-1.8v-6.2h-1.5
		v-1c0.7-0.3,1.3-0.6,1.8-1c0.5-0.4,1-1,1.3-1.6h1.3v2.2h2.6v1.3h-2.7v6c0,0.4,0.1,0.7,0.3,0.8c0.2,0.2,0.4,0.2,0.7,0.2
		c0.2,0,0.5,0,0.7-0.1c0.3-0.1,0.5-0.2,0.7-0.4l0.4,0.7c-0.4,0.4-0.9,0.7-1.6,0.9C335.2,224.9,334.6,225,334.1,225z M338.1,224.1
		c0.3-0.1,0.5-0.1,0.6-0.2c0.2-0.1,0.3-0.2,0.5-0.3v-10.2c0-0.5-0.1-0.9-0.3-1c-0.2-0.2-0.5-0.3-1-0.3l0.1-0.8
		c0.2,0,0.6-0.1,1.1-0.2c1.5-0.2,2.4-0.4,2.7-0.5l0.4,0.2v5.4c0.4-0.4,0.8-0.7,1.3-1c0.5-0.2,1.1-0.4,1.6-0.4c0.9,0,1.7,0.3,2.3,0.8
		c0.6,0.6,0.8,1.3,0.8,2.3v5.6c0.1,0.1,0.3,0.2,0.5,0.3c0.2,0.1,0.5,0.2,0.8,0.2l-0.1,0.8h-5.3l0.1-0.8c0.4-0.1,0.8-0.3,1-0.6v-5.4
		c0-0.7-0.1-1.2-0.3-1.5c-0.2-0.3-0.5-0.5-1-0.5c-0.3,0-0.7,0.1-1,0.3c-0.3,0.2-0.6,0.5-0.8,0.8v6.3c0.3,0.2,0.7,0.4,1.2,0.6
		l-0.1,0.8h-5.3L338.1,224.1z M354.5,225.1c-0.9,0-1.7-0.3-2.3-0.8c-0.6-0.6-0.8-1.3-0.8-2.3v-4.3c0-0.5-0.1-0.8-0.3-1
		c-0.2-0.2-0.5-0.3-1-0.3l0.1-0.8c0.2,0,0.6-0.1,1.1-0.2c1.5-0.2,2.4-0.4,2.7-0.5l0.4,0.2v6.8c0,1.3,0.4,2,1.3,2
		c0.4,0,0.7-0.1,1-0.3c0.3-0.2,0.6-0.5,0.8-0.8v-4.9c0-0.5-0.1-0.8-0.3-1c-0.2-0.2-0.5-0.3-1-0.3l0.1-0.8c0.2,0,0.6-0.1,1.1-0.2
		c1.5-0.2,2.4-0.4,2.7-0.5l0.4,0.2v8.7c0.1,0.1,0.3,0.2,0.6,0.3c0.3,0.1,0.6,0.2,0.8,0.2l-0.1,0.7h-3.9l-0.2-1.3
		c-0.4,0.5-0.8,0.8-1.4,1.1C355.7,224.9,355.2,225.1,354.5,225.1z M363.2,224.1c0.3-0.1,0.5-0.1,0.6-0.2c0.2-0.1,0.3-0.2,0.5-0.3v-6
		c0-0.5-0.1-0.8-0.3-1c-0.2-0.2-0.5-0.3-1-0.3l0.1-0.8l0.7-0.1c1.5-0.2,2.4-0.4,2.9-0.6l0.4,0.2l0.2,1.4c0.3-0.5,0.7-0.8,1.2-1.1
		c0.5-0.3,1-0.4,1.5-0.4c0.5,0,1,0.2,1.4,0.6c0.4,0.4,0.6,0.8,0.6,1.3c0,0.5-0.1,0.9-0.4,1.2c-0.3,0.3-0.6,0.4-1,0.4
		c-0.4,0-0.8-0.2-1-0.5c0.2-0.2,0.3-0.5,0.3-0.7s-0.1-0.4-0.3-0.5c-0.2-0.1-0.4-0.2-0.6-0.2c-0.3,0-0.6,0.1-0.9,0.4
		c-0.3,0.2-0.5,0.5-0.7,0.9v5.9c0.3,0.2,0.7,0.4,1.2,0.6l-0.1,0.8h-5.2L363.2,224.1z M377,224.1c0.3-0.1,0.5-0.1,0.6-0.2
		c0.2-0.1,0.4-0.2,0.5-0.4v-10.9c-0.3-0.2-0.7-0.5-1.3-0.7l0.1-0.8h5.8c3.5,0,5.3,1.2,5.3,3.6c0,0.9-0.2,1.6-0.7,2.2
		c-0.5,0.6-1.1,1-2,1.3c0.4,0.3,0.8,0.8,1.1,1.4l1.6,3.7c0.1,0.2,0.2,0.3,0.4,0.5c0.2,0.1,0.5,0.2,0.8,0.3l-0.1,0.8h-3.8l-2-5.4
		c-0.2-0.5-0.6-0.8-1.3-0.8l-0.9,0v4.8c0.3,0.3,0.8,0.5,1.6,0.7l-0.1,0.8h-5.7L377,224.1z M382.6,217.4c1.6,0,2.4-0.9,2.4-2.6
		c0-0.8-0.2-1.4-0.6-1.8c-0.4-0.4-1-0.6-1.7-0.6c-0.6,0-1,0-1.3,0.1v4.9H382.6z M394.7,225.1c-1.6,0-2.9-0.4-3.7-1.3
		c-0.8-0.9-1.2-2.1-1.2-3.8c0-1.7,0.4-3,1.2-3.9c0.8-0.9,2.1-1.3,3.7-1.3s2.9,0.4,3.7,1.3c0.8,0.9,1.3,2.2,1.3,3.8
		c0,1.7-0.4,3-1.3,3.8C397.5,224.6,396.3,225.1,394.7,225.1z M394.7,223.9c0.7,0,1.2-0.3,1.5-0.9c0.3-0.6,0.5-1.7,0.5-3.1
		c0-1.4-0.2-2.4-0.5-3.1c-0.3-0.6-0.8-1-1.5-1c-0.7,0-1.2,0.3-1.5,1c-0.3,0.6-0.5,1.7-0.5,3.1c0,1.4,0.2,2.4,0.5,3.1
		C393.5,223.6,394,223.9,394.7,223.9z M400.8,224.1c0.3-0.1,0.5-0.1,0.6-0.2c0.2-0.1,0.3-0.2,0.5-0.3v-10.2c0-0.5-0.1-0.9-0.3-1
		c-0.2-0.2-0.5-0.3-1-0.3l0.1-0.8c0.2,0,0.6-0.1,1.1-0.2c1.5-0.2,2.4-0.4,2.7-0.5l0.4,0.2v5.4c0.4-0.4,0.8-0.7,1.3-1
		c0.5-0.2,1.1-0.4,1.6-0.4c0.9,0,1.7,0.3,2.3,0.8c0.6,0.6,0.8,1.3,0.8,2.3v5.6c0.1,0.1,0.3,0.2,0.5,0.3c0.2,0.1,0.5,0.2,0.8,0.2
		l-0.1,0.8h-5.3l0.1-0.8c0.4-0.1,0.8-0.3,1-0.6v-5.4c0-0.7-0.1-1.2-0.3-1.5c-0.2-0.3-0.5-0.5-1-0.5c-0.3,0-0.7,0.1-1,0.3
		c-0.3,0.2-0.6,0.5-0.8,0.8v6.3c0.3,0.2,0.7,0.4,1.2,0.6l-0.1,0.8h-5.3L400.8,224.1z M413.3,224.1c0.3-0.1,0.5-0.1,0.6-0.2
		c0.2-0.1,0.3-0.2,0.5-0.3v-6c0-0.5-0.1-0.8-0.3-1c-0.2-0.2-0.5-0.3-1-0.3l0.1-0.8l0.7-0.1c1.5-0.2,2.4-0.4,2.9-0.6l0.4,0.2l0.2,1.2
		c0.4-0.4,0.8-0.8,1.3-1c0.5-0.2,1.1-0.4,1.7-0.4c0.7,0,1.2,0.2,1.7,0.5c0.5,0.3,0.9,0.7,1.1,1.2c0.3-0.5,0.8-0.9,1.3-1.2
		c0.6-0.3,1.2-0.5,1.8-0.5c0.9,0,1.7,0.3,2.3,0.8c0.6,0.6,0.8,1.3,0.8,2.3v5.6c0.3,0.3,0.8,0.4,1.3,0.6l-0.1,0.8h-5.2l0.1-0.8
		c0.4-0.1,0.7-0.3,1-0.6v-5.4c0-1.3-0.4-2-1.3-2c-0.4,0-0.7,0.1-1.1,0.4c-0.3,0.2-0.6,0.5-0.8,0.9c0,0.2,0,0.4,0,0.6v5.6
		c0.3,0.2,0.7,0.4,1.2,0.6l-0.1,0.8h-5.1l0.1-0.8c0.4-0.1,0.7-0.3,1-0.6v-5.4c0-1.3-0.4-2-1.3-2c-0.3,0-0.7,0.1-1,0.3
		s-0.6,0.5-0.8,0.8v6.3c0.3,0.2,0.7,0.4,1.2,0.6l-0.1,0.8h-5.2L413.3,224.1z M434.4,225.1c-1,0-1.7-0.2-2.2-0.7
		c-0.5-0.4-0.8-1.1-0.8-1.9c0-0.9,0.3-1.6,1-2.1c0.7-0.5,1.7-0.8,3-0.9l1.8-0.1v-1.2c0-1-0.1-1.6-0.4-2c-0.2-0.4-0.6-0.6-1.2-0.6
		c-0.4,0-0.7,0.1-1,0.3c-0.2,0.2-0.4,0.4-0.4,0.7c0,0.3,0.2,0.6,0.5,0.9c-0.1,0.3-0.2,0.6-0.5,0.8c-0.3,0.2-0.6,0.3-1,0.3
		c-0.5,0-0.8-0.1-1.1-0.4c-0.3-0.3-0.5-0.6-0.5-1.1c0-0.7,0.3-1.3,1-1.7c0.7-0.4,1.7-0.6,2.9-0.6c1.5,0,2.6,0.3,3.3,0.8
		c0.8,0.6,1.1,1.4,1.1,2.4v5.6c0.1,0.1,0.3,0.2,0.5,0.3c0.2,0.1,0.5,0.2,0.7,0.2l-0.1,0.7h-3.7l-0.2-1.2c-0.5,0.5-0.9,0.8-1.4,1
		C435.5,225,435,225.1,434.4,225.1z M435.4,223.7c0.6,0,1.3-0.4,1.9-1.1v-2.3l-1,0.1c-0.8,0.1-1.3,0.2-1.6,0.5s-0.5,0.7-0.5,1.3
		c0,0.5,0.1,0.8,0.3,1.1C434.7,223.6,435,223.7,435.4,223.7z M442.6,224.1c0.3-0.1,0.5-0.1,0.6-0.2c0.2-0.1,0.3-0.2,0.5-0.3v-6
		c0-0.5-0.1-0.8-0.3-1c-0.2-0.2-0.5-0.3-1-0.3l0.1-0.8l0.7-0.1c1.5-0.2,2.4-0.4,2.9-0.6l0.4,0.2l0.2,1.2c0.4-0.4,0.8-0.8,1.3-1
		c0.5-0.2,1.1-0.4,1.7-0.4c0.9,0,1.7,0.3,2.2,0.8c0.6,0.6,0.8,1.3,0.8,2.3v5.6c0.3,0.3,0.8,0.4,1.3,0.6l-0.1,0.8h-5.2l0.1-0.8
		c0.4-0.1,0.8-0.3,1-0.6v-5.4c0-0.7-0.1-1.2-0.3-1.5c-0.2-0.3-0.5-0.5-1-0.5c-0.4,0-0.7,0.1-1.1,0.3c-0.3,0.2-0.6,0.5-0.8,0.8v6.3
		c0.3,0.2,0.7,0.4,1.2,0.6l-0.1,0.8h-5.2L442.6,224.1z"/>
	<path class="st7" d="M301.6,251.8h186c14.8,0,26.9,12,26.9,26.9V380c0,14.8-12,26.9-26.9,26.9h-186c-14.8,0-26.9-12-26.9-26.9
		V278.7C274.8,263.8,286.8,251.8,301.6,251.8z"/>
	<path class="st8" d="M297,282.8h-0.8l-0.2-0.7l-0.4-1.1l-1.5,0l-1.3,0l-0.4,1.1l-0.2,0.7h-0.8l2.4-6.6h1L297,282.8z M295.4,280.3
		l-1.1-3.3h-0.1l-1.2,3.3l1.2,0L295.4,280.3z M300.1,277.6c0.6,0,1.1,0.1,1.5,0.4l-0.1,0.7l-0.1,0c-0.2-0.1-0.4-0.3-0.6-0.3
		c-0.2-0.1-0.5-0.1-0.7-0.1c-0.5,0-0.9,0.2-1.2,0.5c-0.3,0.3-0.4,0.8-0.4,1.5c0,0.7,0.1,1.2,0.4,1.5c0.3,0.3,0.7,0.5,1.2,0.5
		c0.2,0,0.5,0,0.7-0.1c0.3-0.1,0.5-0.2,0.7-0.4l0.1,0l-0.1,0.7c-0.5,0.3-1,0.4-1.5,0.4c-0.8,0-1.3-0.2-1.7-0.7
		c-0.4-0.5-0.6-1.1-0.6-1.9c0-0.8,0.2-1.5,0.6-2C298.7,277.8,299.3,277.6,300.1,277.6z M304.8,277.6c0.6,0,1.1,0.1,1.5,0.4l-0.1,0.7
		l-0.1,0c-0.2-0.1-0.4-0.3-0.6-0.3c-0.2-0.1-0.5-0.1-0.7-0.1c-0.5,0-0.9,0.2-1.2,0.5c-0.3,0.3-0.4,0.8-0.4,1.5
		c0,0.7,0.1,1.2,0.4,1.5c0.3,0.3,0.7,0.5,1.2,0.5c0.2,0,0.5,0,0.7-0.1c0.3-0.1,0.5-0.2,0.7-0.4l0.1,0l-0.1,0.7
		c-0.5,0.3-1,0.4-1.5,0.4c-0.8,0-1.3-0.2-1.7-0.7c-0.4-0.5-0.6-1.1-0.6-1.9c0-0.8,0.2-1.5,0.6-2C303.4,277.8,304,277.6,304.8,277.6z
		 M309.6,277.6c0.8,0,1.3,0.2,1.7,0.7c0.4,0.4,0.6,1.1,0.6,1.9c0,0.9-0.2,1.6-0.7,2c-0.4,0.5-1,0.7-1.8,0.7c-0.7,0-1.3-0.2-1.7-0.7
		c-0.4-0.5-0.6-1.1-0.6-1.9c0-0.9,0.2-1.5,0.7-2C308.2,277.8,308.8,277.6,309.6,277.6z M309.5,278.3c-0.5,0-1,0.2-1.2,0.5
		c-0.3,0.3-0.4,0.8-0.4,1.5c0,0.7,0.1,1.2,0.4,1.6c0.3,0.3,0.7,0.5,1.2,0.5c0.6,0,1-0.2,1.2-0.5c0.3-0.3,0.4-0.8,0.4-1.5
		c0-0.7-0.1-1.2-0.4-1.5C310.5,278.4,310.1,278.3,309.5,278.3z M317.3,280.3v0.7c0,0.6-0.2,1-0.5,1.4c-0.4,0.3-0.9,0.5-1.6,0.5
		c-0.7,0-1.2-0.2-1.5-0.5c-0.4-0.3-0.5-0.8-0.5-1.4l0-0.8l0-2.6h0.8l0,3.2c0,0.4,0.1,0.8,0.3,1c0.2,0.2,0.6,0.3,1,0.3
		c0.4,0,0.8-0.1,1-0.3c0.2-0.2,0.3-0.5,0.3-1l0-3.2h0.8L317.3,280.3z M323.3,281.3l0,1.5h-0.8l-2.7-3.9h-0.1l0,2.2l0,1.7H319l0-1.5
		l0-3.6h0.8l2.7,3.9h0.1l0-3.9l0.7-0.1L323.3,281.3z M328.3,277.7l-0.1,0.7l-1-0.1h-0.5l0,2.9l0,1.6H326l0-1.6l0-3h-0.5l-1,0.1
		l-0.1-0.1l0.1-0.6L328.3,277.7L328.3,277.7z M334,279.4c0.9,0.2,1.4,0.7,1.4,1.6c0,0.6-0.2,1.1-0.7,1.4c-0.5,0.3-1.1,0.5-2,0.5
		c-0.6,0-1.1,0-1.5,0h0l0.1-2l-0.1-4.6l1.8,0c0.6,0,1.1,0.1,1.4,0.4c0.3,0.3,0.5,0.7,0.5,1.2c0,0.4-0.1,0.7-0.3,1
		C334.6,279,334.4,279.2,334,279.4z M334.2,277.9c0-0.4-0.1-0.6-0.3-0.8c-0.2-0.2-0.5-0.2-1-0.2h-0.8l0,2.2l1.1,0
		C333.9,279,334.2,278.5,334.2,277.9z M332.9,282.2c0.6,0,1-0.1,1.3-0.3c0.3-0.2,0.5-0.5,0.5-0.9c0-0.7-0.4-1.1-1.3-1.2l-1.3,0l0,1
		l0,1.4C332.4,282.1,332.6,282.2,332.9,282.2z M340.8,282.8H340l-0.1-0.6l-0.3-0.8l-1.2,0l-1.1,0l-0.3,0.7l-0.1,0.6h-0.8l2-5.1h0.9
		L340.8,282.8z M339.4,280.9l-0.9-2.4h-0.1l-0.9,2.4l0.9,0L339.4,280.9z M344.8,282.2l-0.1,0.6h-2.7l0-1.6l0-3.6h0.8l0,3.5l0,1
		L344.8,282.2L344.8,282.2z M350,282.8h-0.8l-0.1-0.6l-0.3-0.8l-1.2,0l-1.1,0l-0.3,0.7l-0.1,0.6h-0.8l2-5.1h0.9L350,282.8z
		 M348.6,280.9l-0.9-2.4h-0.1l-0.9,2.4l0.9,0L348.6,280.9z M355.5,281.3l0,1.5h-0.8l-2.7-3.9h-0.1l0,2.2l0,1.7h-0.7l0-1.5l0-3.6h0.8
		l2.7,3.9h0.1l0-3.9l0.7-0.1L355.5,281.3z M359.2,277.6c0.6,0,1.1,0.1,1.5,0.4l-0.1,0.7l-0.1,0c-0.2-0.1-0.4-0.3-0.6-0.3
		c-0.2-0.1-0.5-0.1-0.7-0.1c-0.5,0-0.9,0.2-1.2,0.5c-0.3,0.3-0.4,0.8-0.4,1.5c0,0.7,0.1,1.2,0.4,1.5c0.3,0.3,0.7,0.5,1.2,0.5
		c0.2,0,0.5,0,0.7-0.1c0.3-0.1,0.5-0.2,0.7-0.4l0.1,0l-0.1,0.7c-0.5,0.3-1,0.4-1.5,0.4c-0.8,0-1.3-0.2-1.7-0.7
		c-0.4-0.5-0.6-1.1-0.6-1.9c0-0.8,0.2-1.5,0.6-2C357.9,277.8,358.5,277.6,359.2,277.6z M365.1,282.1L365.1,282.1l0,0.7H362l0-1.6
		l0-3.6h3.2l0.1,0.1l-0.1,0.6l-1.3,0l-1.1,0l0,1.6l1,0l0.9,0l0.1,0.1l-0.1,0.6l-1,0l-1,0l0,0.7l0,1l1,0L365.1,282.1z"/>
	<path class="st8" d="M297.3,302.2c1.1,0,2.1,0.3,2.8,0.8c0.7,0.5,1.1,1.3,1.1,2.2c0,0.7-0.2,1.4-0.7,2.2c-0.4,0.8-1.1,1.7-2.1,2.8
		l-1.9,2.1l0,0.1h3.3l2.2-0.2l0.2,0.2L302,315l-3-0.1h-5.6l-0.9,0l-0.2-0.1v-2l3.3-3.3c0.8-0.8,1.4-1.5,1.8-2c0.4-0.5,0.6-1,0.6-1.4
		c0-0.3-0.1-0.6-0.4-0.8c-0.2-0.2-0.6-0.3-1-0.3c-0.5,0-1.1,0.1-1.7,0.4c-0.6,0.3-1.1,0.6-1.6,1.1h-0.4l-0.5-2.6
		C294,302.7,295.7,302.2,297.3,302.2z M309.4,300.1c1.3,0,2.4,0.3,3.1,1c0.8,0.6,1.1,1.5,1.1,2.7c0,0.7-0.2,1.4-0.6,1.9
		c-0.4,0.5-0.9,1-1.6,1.5v0.1c0.8,0.4,1.4,0.9,1.9,1.4c0.5,0.5,0.7,1.2,0.7,2.1c0,1.3-0.5,2.4-1.5,3.2c-1,0.8-2.2,1.2-3.8,1.2
		c-1.5,0-2.7-0.3-3.5-1c-0.8-0.7-1.2-1.6-1.2-2.7c0-0.9,0.2-1.6,0.7-2.1c0.5-0.6,1.1-1,2-1.4v-0.1c-0.7-0.4-1.2-0.8-1.6-1.4
		c-0.4-0.5-0.6-1.2-0.6-2.1c0-1.3,0.4-2.2,1.3-3C306.7,300.5,307.9,300.1,309.4,300.1z M309.2,302.4c-0.6,0-1.1,0.2-1.5,0.5
		c-0.3,0.3-0.5,0.7-0.5,1.2c0,0.5,0.2,1,0.6,1.3c0.4,0.3,0.9,0.6,1.6,0.9c0.5-0.3,0.9-0.6,1.2-0.9c0.3-0.3,0.4-0.8,0.4-1.3
		c0-0.5-0.2-0.9-0.5-1.2C310.2,302.5,309.7,302.4,309.2,302.4z M308.8,308.6c-0.7,0.2-1.2,0.5-1.5,0.9c-0.3,0.3-0.5,0.8-0.5,1.4
		c0,0.6,0.2,1.1,0.6,1.4c0.4,0.3,1,0.5,1.7,0.5c0.7,0,1.3-0.2,1.7-0.5c0.4-0.4,0.6-0.8,0.6-1.4c0-0.6-0.2-1-0.6-1.3
		C310.3,309.3,309.7,309,308.8,308.6z M321.9,302.1c1.7,0,3,0.5,3.9,1.6c0.9,1.1,1.4,2.6,1.4,4.6c0,2.1-0.5,3.8-1.5,4.9
		c-1,1.2-2.4,1.7-4.2,1.7c-1.7,0-3-0.5-3.9-1.6c-0.9-1.1-1.4-2.6-1.4-4.6c0-2.1,0.5-3.8,1.5-5C318.7,302.7,320.1,302.1,321.9,302.1z
		 M321.7,305.2c-1,0-1.7,0.3-2.2,0.8c-0.5,0.5-0.7,1.4-0.7,2.6c0,1.2,0.2,2.1,0.7,2.7s1.2,0.9,2.2,0.9c1,0,1.7-0.3,2.2-0.8
		c0.5-0.6,0.7-1.4,0.7-2.6c0-1.2-0.2-2.1-0.7-2.7C323.4,305.5,322.7,305.2,321.7,305.2z M331,311.5c0.5,0,0.9,0.1,1.2,0.4
		c0.3,0.3,0.4,0.7,0.4,1.2c0,0.6-0.2,1-0.5,1.3c-0.3,0.3-0.7,0.5-1.3,0.5c-0.5,0-1-0.1-1.3-0.4c-0.3-0.3-0.4-0.7-0.4-1.3
		c0-0.5,0.2-1,0.5-1.3C330,311.7,330.5,311.5,331,311.5z M340.5,302.1c1.7,0,3,0.5,3.9,1.6c0.9,1.1,1.4,2.6,1.4,4.6
		c0,2.1-0.5,3.8-1.5,4.9c-1,1.2-2.4,1.7-4.2,1.7c-1.7,0-3-0.5-3.9-1.6c-0.9-1.1-1.4-2.6-1.4-4.6c0-2.1,0.5-3.8,1.5-5
		C337.3,302.7,338.7,302.1,340.5,302.1z M340.3,305.2c-1,0-1.7,0.3-2.2,0.8c-0.5,0.5-0.7,1.4-0.7,2.6c0,1.2,0.2,2.1,0.7,2.7
		s1.2,0.9,2.2,0.9c1,0,1.7-0.3,2.2-0.8c0.5-0.6,0.7-1.4,0.7-2.6c0-1.2-0.2-2.1-0.7-2.7C342,305.5,341.3,305.2,340.3,305.2z
		 M350.1,302.3h5.5l1.2,0v2.4l-4.1,8.9l-1.4,3.7l-2.7-0.7l-0.2-0.5l5.2-11h-4.1l-2.3,0.2l-0.2-0.3l0.2-2.8L350.1,302.3z"/>
	<path class="st8" d="M366.2,314.1l-0.1,0.8h-4.5l0.1-2.4l-0.1-5.6h4.5l0,0.1l-0.1,0.8l-1.9,0l-1.6,0l0,2.6l1.5,0l1.3,0l0.1,0.1
		l-0.1,0.8l-1.4,0l-1.4,0l0,1.2l0,1.6l1.6,0L366.2,314.1L366.2,314.1z M372.3,307l-0.1,0.8l-1.4-0.1h-0.8l0,4.7l0,2.5h-1l0.1-2.4
		l-0.1-4.8h-0.8l-1.4,0.1l-0.1-0.1l0.1-0.8L372.3,307L372.3,307z M379.9,312.4l0,2.5h-1l0-2.4l0-1.2l-2.2,0l-2,0l0,1.1l0,2.5h-1
		l0-2.4l0-5.6h1l0,3.5l2.1,0l2.1,0l0-3.5h1L379.9,312.4z"/>
	<path class="st8" d="M302.7,322.7l0,1.4l0.7,0l0.6,0l0,0l0,0.4l-0.7,0l-0.6,0l0,0.5l0,1.2h-0.5l0-1.2l0-2.8h2.1l0,0l0,0.4l-0.9,0
		L302.7,322.7z M306.3,325c0.3,0.4,0.5,0.8,0.8,1.1l0,0.1c-0.2,0.1-0.3,0.1-0.4,0.1l-0.1,0c-0.3-0.5-0.6-0.8-0.7-1.1l-0.6,0v0.2l0,1
		h-0.5l0-0.9l0-2.2l1.1,0c0.3,0,0.6,0.1,0.8,0.2c0.2,0.2,0.3,0.4,0.3,0.7c0,0.2-0.1,0.4-0.2,0.6C306.7,324.7,306.5,324.9,306.3,325z
		 M305.3,324.7l0.6,0c0.4-0.1,0.6-0.3,0.6-0.7c0-0.2-0.1-0.3-0.2-0.4c-0.1-0.1-0.3-0.1-0.5-0.1l-0.5,0L305.3,324.7z M309.8,325.8
		L309.8,325.8l0,0.4H308l0-0.9l0-2.2h1.9l0,0l0,0.4l-0.8,0l-0.6,0l0,0.9l0.6,0l0.5,0l0,0l0,0.4l-0.6,0l-0.6,0l0,0.4l0,0.6l0.6,0
		L309.8,325.8z M313.8,326.9c-0.1,0.1-0.1,0.2-0.2,0.3l0,0c-0.6-0.2-1.2-0.5-1.8-0.9c0,0-0.1,0-0.2,0c-0.4,0-0.8-0.1-1-0.4
		c-0.2-0.3-0.4-0.7-0.4-1.2c0-0.5,0.1-0.9,0.4-1.2c0.3-0.3,0.6-0.4,1.1-0.4c0.5,0,0.8,0.1,1,0.4c0.2,0.3,0.4,0.6,0.4,1.1
		c0,0.4-0.1,0.7-0.2,1c-0.2,0.3-0.4,0.4-0.7,0.5C312.7,326.5,313.3,326.7,313.8,326.9L313.8,326.9z M310.8,324.6
		c0,0.4,0.1,0.7,0.2,0.9c0.2,0.2,0.4,0.3,0.7,0.3c0.3,0,0.6-0.1,0.7-0.3c0.2-0.2,0.2-0.5,0.2-0.9c0-0.4-0.1-0.7-0.2-0.9
		c-0.2-0.2-0.4-0.3-0.7-0.3c-0.3,0-0.6,0.1-0.7,0.3C310.8,323.9,310.8,324.2,310.8,324.6z M316.4,324.7v0.4c0,0.4-0.1,0.6-0.3,0.8
		c-0.2,0.2-0.5,0.3-0.9,0.3c-0.4,0-0.7-0.1-0.9-0.3c-0.2-0.2-0.3-0.5-0.3-0.8l0-0.5l0-1.5h0.5l0,1.9c0,0.3,0.1,0.5,0.2,0.6
		c0.1,0.1,0.3,0.2,0.6,0.2c0.3,0,0.5-0.1,0.6-0.2c0.1-0.1,0.2-0.3,0.2-0.6l0-1.9h0.5L316.4,324.7z M319.3,325.8L319.3,325.8l0,0.4
		h-1.9l0-0.9l0-2.2h1.9l0,0l0,0.4l-0.8,0l-0.6,0l0,0.9l0.6,0l0.5,0l0,0l0,0.4l-0.6,0l-0.6,0l0,0.4l0,0.6l0.6,0L319.3,325.8z
		 M322.7,325.3l0,0.9h-0.5l-1.6-2.4h0l0,1.3l0,1h-0.4l0-0.9l0-2.2h0.5l1.6,2.4h0l0-2.3l0.4,0L322.7,325.3z M325.5,325.9l0,0.3h-1.6
		l0-0.9l0-2.2h0.5l0,2.1l0,0.6L325.5,325.9L325.5,325.9z M326.9,325.3l0,0.9h-0.5l0-0.9l0-0.2l-1-2h0.5l0.1,0.2l0.7,1.3h0l0.8-1.3
		l0.1-0.2h0.5l-1.1,2L326.9,325.3z M332.7,326.2h-0.5l-0.1-0.4l-0.2-0.7l-0.9,0l-0.8,0l-0.2,0.7l-0.1,0.4h-0.5l1.5-4h0.6
		L332.7,326.2z M331.7,324.7l-0.6-2h0l-0.7,2l0.7,0L331.7,324.7z M334.5,323.1c0.3,0,0.6,0.1,0.9,0.2l-0.1,0.4l-0.1,0
		c-0.1-0.1-0.2-0.2-0.4-0.2c-0.1,0-0.3-0.1-0.4-0.1c-0.3,0-0.5,0.1-0.7,0.3c-0.2,0.2-0.2,0.5-0.2,0.9c0,0.4,0.1,0.7,0.2,0.9
		c0.2,0.2,0.4,0.3,0.7,0.3c0.1,0,0.3,0,0.4-0.1c0.2-0.1,0.3-0.1,0.4-0.2l0.1,0l0,0.4c-0.3,0.2-0.6,0.2-0.9,0.2c-0.5,0-0.8-0.1-1-0.4
		c-0.2-0.3-0.4-0.7-0.4-1.2c0-0.5,0.1-0.9,0.4-1.2C333.7,323.2,334,323.1,334.5,323.1z M337.3,323.1c0.3,0,0.6,0.1,0.9,0.2l-0.1,0.4
		l-0.1,0c-0.1-0.1-0.2-0.2-0.4-0.2c-0.1,0-0.3-0.1-0.4-0.1c-0.3,0-0.5,0.1-0.7,0.3c-0.2,0.2-0.2,0.5-0.2,0.9c0,0.4,0.1,0.7,0.2,0.9
		c0.2,0.2,0.4,0.3,0.7,0.3c0.1,0,0.3,0,0.4-0.1c0.2-0.1,0.3-0.1,0.4-0.2l0.1,0l0,0.4c-0.3,0.2-0.6,0.2-0.9,0.2c-0.5,0-0.8-0.1-1-0.4
		c-0.2-0.3-0.4-0.7-0.4-1.2c0-0.5,0.1-0.9,0.4-1.2C336.5,323.2,336.9,323.1,337.3,323.1z M340.9,325.8L340.9,325.8l0,0.4H339l0-0.9
		l0-2.2h1.9l0,0l0,0.4l-0.8,0l-0.6,0l0,0.9l0.6,0l0.5,0l0,0l0,0.4l-0.6,0l-0.6,0l0,0.4l0,0.6l0.6,0L340.9,325.8z M342.6,323.1
		c0.3,0,0.5,0,0.8,0.1l-0.1,0.5l-0.1,0c-0.1-0.1-0.2-0.2-0.3-0.2c-0.1,0-0.2-0.1-0.3-0.1c-0.2,0-0.3,0-0.4,0.1
		c-0.1,0.1-0.2,0.2-0.2,0.3c0,0.1,0,0.2,0.1,0.3c0.1,0.1,0.3,0.2,0.5,0.2c0.2,0.1,0.3,0.2,0.4,0.2c0.1,0.1,0.2,0.2,0.3,0.3
		c0.1,0.1,0.1,0.2,0.1,0.4c0,0.2,0,0.3-0.1,0.5c-0.1,0.1-0.2,0.2-0.4,0.3c-0.2,0.1-0.4,0.1-0.6,0.1c-0.1,0-0.3,0-0.5,0
		c-0.2,0-0.3-0.1-0.4-0.2l0.1-0.5l0.1,0c0.1,0.1,0.3,0.2,0.4,0.3c0.2,0.1,0.3,0.1,0.4,0.1c0.2,0,0.3,0,0.4-0.1
		c0.1-0.1,0.2-0.2,0.2-0.3c0-0.1-0.1-0.2-0.2-0.3c-0.1-0.1-0.3-0.2-0.5-0.3c-0.2-0.1-0.3-0.2-0.4-0.2c-0.1-0.1-0.2-0.2-0.3-0.3
		c-0.1-0.1-0.1-0.2-0.1-0.4c0-0.2,0-0.3,0.1-0.4c0.1-0.1,0.2-0.2,0.4-0.3C342.2,323.1,342.4,323.1,342.6,323.1z M345.2,323.1
		c0.3,0,0.5,0,0.8,0.1l-0.1,0.5l-0.1,0c-0.1-0.1-0.2-0.2-0.3-0.2c-0.1,0-0.2-0.1-0.3-0.1c-0.2,0-0.3,0-0.4,0.1
		c-0.1,0.1-0.2,0.2-0.2,0.3c0,0.1,0,0.2,0.1,0.3c0.1,0.1,0.3,0.2,0.5,0.2c0.2,0.1,0.3,0.2,0.4,0.2c0.1,0.1,0.2,0.2,0.3,0.3
		c0.1,0.1,0.1,0.2,0.1,0.4c0,0.2,0,0.3-0.1,0.5c-0.1,0.1-0.2,0.2-0.4,0.3c-0.2,0.1-0.4,0.1-0.6,0.1c-0.1,0-0.3,0-0.5,0
		c-0.2,0-0.3-0.1-0.4-0.2l0.1-0.5l0.1,0c0.1,0.1,0.3,0.2,0.4,0.3c0.2,0.1,0.3,0.1,0.4,0.1c0.2,0,0.3,0,0.4-0.1
		c0.1-0.1,0.2-0.2,0.2-0.3c0-0.1-0.1-0.2-0.2-0.3c-0.1-0.1-0.3-0.2-0.5-0.3c-0.2-0.1-0.3-0.2-0.4-0.2c-0.1-0.1-0.2-0.2-0.3-0.3
		c-0.1-0.1-0.1-0.2-0.1-0.4c0-0.2,0-0.3,0.1-0.4c0.1-0.1,0.2-0.2,0.4-0.3C344.8,323.1,345,323.1,345.2,323.1z M348.2,323.1
		c0.5,0,0.8,0.1,1,0.4c0.2,0.3,0.4,0.6,0.4,1.1c0,0.5-0.1,0.9-0.4,1.2c-0.3,0.3-0.6,0.4-1.1,0.4c-0.4,0-0.8-0.1-1-0.4
		c-0.2-0.3-0.4-0.7-0.4-1.2c0-0.5,0.1-0.9,0.4-1.2C347.3,323.2,347.7,323.1,348.2,323.1z M348.1,323.5c-0.3,0-0.6,0.1-0.7,0.3
		c-0.2,0.2-0.2,0.5-0.2,0.9c0,0.4,0.1,0.7,0.2,0.9c0.2,0.2,0.4,0.3,0.7,0.3c0.3,0,0.6-0.1,0.7-0.3c0.2-0.2,0.2-0.5,0.2-0.9
		c0-0.4-0.1-0.7-0.2-0.9C348.7,323.6,348.5,323.5,348.1,323.5z M351.8,325c0.3,0.4,0.5,0.8,0.8,1.1l0,0.1c-0.2,0.1-0.3,0.1-0.4,0.1
		l-0.1,0c-0.3-0.5-0.6-0.8-0.7-1.1l-0.6,0v0.2l0,1h-0.5l0-0.9l0-2.2l1.1,0c0.3,0,0.6,0.1,0.8,0.2c0.2,0.2,0.3,0.4,0.3,0.7
		c0,0.2-0.1,0.4-0.2,0.6C352.2,324.7,352,324.9,351.8,325z M350.9,324.7l0.6,0c0.4-0.1,0.6-0.3,0.6-0.7c0-0.2-0.1-0.3-0.2-0.4
		c-0.1-0.1-0.3-0.1-0.5-0.1l-0.5,0L350.9,324.7z M355.1,321.3l0,3.1v3.4l-0.3,0l0,0v-3.3l0-3.2L355.1,321.3L355.1,321.3z
		 M359.8,325.8l0,0.4h-2.2l0-1.2l0-2.8h2.2l0,0l0,0.4l-0.9,0l-0.8,0l0,1.3l0.7,0l0.7,0l0,0l0,0.4l-0.7,0l-0.7,0l0,0.6l0,0.8l0.8,0
		L359.8,325.8L359.8,325.8z M362.8,322.3l0,0.4l-0.7,0h-0.4l0,2.3l0,1.2h-0.5l0-1.2l0-2.4h-0.4l-0.7,0l0,0l0-0.4L362.8,322.3
		L362.8,322.3z M366.6,325l0,1.2h-0.5l0-1.2l0-0.6l-1.1,0l-1,0l0,0.6l0,1.2h-0.5l0-1.2l0-2.8h0.5l0,1.8l1.1,0l1.1,0l0-1.8h0.5
		L366.6,325z M368.9,323.1c0.4,0,0.7,0.1,1,0.4c0.2,0.3,0.3,0.7,0.3,1.2c0,0.5-0.1,0.9-0.4,1.2c-0.2,0.3-0.6,0.4-1,0.4
		c-0.4,0-0.7-0.1-1-0.4c-0.2-0.3-0.3-0.6-0.3-1.1c0-0.5,0.1-0.9,0.4-1.2C368.1,323.2,368.4,323.1,368.9,323.1z M368.8,323.5
		c-0.3,0-0.6,0.1-0.7,0.3c-0.2,0.2-0.2,0.5-0.2,0.8c0,0.4,0.1,0.7,0.2,0.9c0.2,0.2,0.4,0.3,0.7,0.3s0.6-0.1,0.7-0.3
		c0.2-0.2,0.2-0.5,0.2-0.8c0-0.4-0.1-0.7-0.2-0.9C369.4,323.6,369.2,323.5,368.8,323.5z M372,322.5c0.3,0,0.5,0.1,0.7,0.2
		c0.2,0.2,0.3,0.4,0.3,0.6c0,0.2-0.1,0.4-0.2,0.5c-0.1,0.1-0.3,0.3-0.4,0.4v0c0.2,0.1,0.4,0.2,0.5,0.4c0.1,0.1,0.2,0.3,0.2,0.5
		c0,0.3-0.1,0.6-0.3,0.7s-0.5,0.3-0.9,0.3c-0.3,0-0.6-0.1-0.8-0.3c-0.2-0.2-0.3-0.4-0.3-0.7c0-0.2,0.1-0.4,0.2-0.6
		c0.1-0.1,0.3-0.3,0.5-0.4v0c-0.2-0.1-0.3-0.2-0.4-0.3c-0.1-0.1-0.2-0.3-0.2-0.5c0-0.3,0.1-0.5,0.3-0.7
		C371.4,322.6,371.7,322.5,372,322.5z M372,322.9c-0.2,0-0.3,0.1-0.5,0.2c-0.1,0.1-0.2,0.2-0.2,0.4c0,0.2,0.1,0.3,0.2,0.4
		c0.1,0.1,0.3,0.2,0.5,0.3c0.2-0.1,0.3-0.2,0.4-0.3c0.1-0.1,0.2-0.3,0.2-0.4c0-0.2-0.1-0.3-0.2-0.4C372.3,323,372.2,322.9,372,322.9
		z M371.9,324.5c-0.2,0.1-0.4,0.2-0.5,0.3c-0.1,0.1-0.2,0.3-0.2,0.5c0,0.2,0.1,0.3,0.2,0.5c0.1,0.1,0.3,0.2,0.5,0.2
		c0.2,0,0.4-0.1,0.5-0.2c0.1-0.1,0.2-0.3,0.2-0.5c0-0.1,0-0.2-0.1-0.3c-0.1-0.1-0.2-0.2-0.3-0.2
		C372.2,324.7,372.1,324.6,371.9,324.5z M375.8,323.2l0,1.8l0,1.3h-0.5l0-1.2l0-1.3l-0.8,0.2l0,0v-0.4L375.8,323.2L375.8,323.2z
		 M380.2,325l0,1.2h-0.5l0-1.2l0-0.6l-1.1,0l-1,0l0,0.6l0,1.2h-0.5l0-1.2l0-2.8h0.5l0,1.8l1.1,0l1.1,0l0-1.8h0.5L380.2,325z"/>
	<path class="st9" d="M297.5,352.6h53.7c4.3,0,7.8,3.5,7.8,7.8v12.4c0,4.3-3.5,7.8-7.8,7.8h-53.7c-4.3,0-7.8-3.5-7.8-7.8v-12.4
		C289.8,356,293.2,352.6,297.5,352.6z"/>
	<path class="st10" d="M464.9,621.3H498c4.3,0,7.8,3.5,7.8,7.8v8.3c0,4.3-3.5,7.8-7.8,7.8h-33.1c-4.3,0-7.8-3.5-7.8-7.8v-8.3
		C457.2,624.8,460.7,621.3,464.9,621.3z"/>
	<path class="st8" d="M473.5,634.5l1.7-5.5h1.7l-2.6,7.3h-1.6l-2.5-7.3h1.7L473.5,634.5z M479,636.3h-1.5v-5.5h1.5V636.3z
		 M477.4,629.4c0-0.2,0.1-0.4,0.2-0.5c0.1-0.1,0.3-0.2,0.6-0.2c0.2,0,0.4,0.1,0.6,0.2c0.1,0.1,0.2,0.3,0.2,0.5
		c0,0.2-0.1,0.4-0.2,0.5c-0.1,0.1-0.3,0.2-0.6,0.2c-0.2,0-0.4-0.1-0.6-0.2C477.5,629.8,477.4,629.6,477.4,629.4z M482.7,636.4
		c-0.8,0-1.5-0.2-2-0.7c-0.5-0.5-0.8-1.1-0.8-2v-0.1c0-0.5,0.1-1,0.3-1.5c0.2-0.4,0.5-0.8,0.9-1c0.4-0.2,0.8-0.4,1.3-0.4
		c0.7,0,1.3,0.2,1.8,0.7c0.4,0.5,0.6,1.1,0.6,2v0.6h-3.5c0,0.4,0.2,0.6,0.4,0.9c0.2,0.2,0.5,0.3,0.9,0.3c0.6,0,1-0.2,1.3-0.6
		l0.7,0.8c-0.2,0.3-0.5,0.6-0.9,0.7C483.6,636.3,483.1,636.4,482.7,636.4z M482.5,631.9c-0.3,0-0.5,0.1-0.7,0.3
		c-0.2,0.2-0.3,0.5-0.3,0.8h2v-0.1c0-0.3-0.1-0.6-0.3-0.7C483.1,632,482.8,631.9,482.5,631.9z M490.5,634.3l0.7-3.5h1.4l-1.4,5.5
		H490l-1-3.4l-1,3.4h-1.2l-1.4-5.5h1.4l0.7,3.5l1-3.5h1.1L490.5,634.3z"/>
	<path class="st9" d="M377.1,352.6h53.7c4.3,0,7.8,3.5,7.8,7.8v12.4c0,4.3-3.5,7.8-7.8,7.8h-53.7c-4.3,0-7.8-3.5-7.8-7.8v-12.4
		C369.3,356,372.8,352.6,377.1,352.6z"/>
	<path class="st11" d="M456.7,352.1h25.8c4.6,0,8.3,3.7,8.3,8.3v12.4c0,4.6-3.7,8.3-8.3,8.3h-25.8c-4.6,0-8.3-3.7-8.3-8.3v-12.4
		C448.4,355.8,452.1,352.1,456.7,352.1z"/>
	<path class="st8" d="M310.3,362.9c1,0,1.7,0.3,2.2,0.8c0.5,0.5,0.8,1.3,0.8,2.3c0,1.2-0.3,2.1-0.9,2.7c-0.6,0.6-1.4,0.9-2.5,0.9
		c-0.3,0-0.7,0-1.2,0c-0.4,0-0.8,0-1.2-0.1l0.1-2l-0.1-4.7L310.3,362.9z M310.2,368.6c1.1,0,1.6-0.7,1.6-2.2c0-0.8-0.1-1.4-0.4-1.8
		c-0.3-0.4-0.7-0.6-1.2-0.6c-0.4,0-0.8,0-1.2,0.1l-0.1,3.4l0,1C309.5,368.6,309.9,368.6,310.2,368.6z M317.9,368.6L317.9,368.6
		l0,1.1h-3.6l0.1-1.6l-0.1-3.7h3.6l0.1,0.1l-0.1,1l-1.3-0.1h-1l0,1.1l0.9,0l0.9,0l0.1,0.1l-0.1,1l-1,0h-0.9l0,0.5l0,0.7h0.9
		L317.9,368.6z M321.2,364.4c0.6,0,1,0.1,1.4,0.4c0.3,0.3,0.5,0.7,0.5,1.2c0,0.6-0.2,1.1-0.6,1.5c-0.4,0.4-1,0.5-1.7,0.5h-0.5
		l0.1,1.6H319l0.1-1.6l-0.1-3.7L321.2,364.4z M321,367.1c0.2-0.1,0.4-0.2,0.5-0.3c0.1-0.2,0.2-0.4,0.2-0.6c0-0.3-0.1-0.5-0.2-0.6
		c-0.1-0.1-0.4-0.2-0.7-0.2l-0.5,0l0,1.7L321,367.1z M326.3,364.3c0.8,0,1.4,0.2,1.8,0.7c0.4,0.4,0.6,1.1,0.6,1.9
		c0,0.9-0.2,1.6-0.7,2.1c-0.5,0.5-1.1,0.7-2,0.7c-0.8,0-1.4-0.2-1.8-0.7c-0.4-0.5-0.6-1.1-0.6-1.9c0-0.9,0.2-1.6,0.7-2
		C324.8,364.6,325.5,364.3,326.3,364.3z M326.2,365.4c-0.4,0-0.7,0.1-0.9,0.4c-0.2,0.2-0.3,0.6-0.3,1.2c0,0.5,0,0.8,0.1,1.1
		c0.1,0.3,0.2,0.4,0.4,0.5c0.2,0.1,0.4,0.2,0.7,0.2c0.4,0,0.7-0.1,0.9-0.3c0.2-0.2,0.3-0.6,0.3-1.2c0-0.5,0-0.8-0.1-1.1
		c-0.1-0.3-0.2-0.4-0.4-0.6C326.8,365.4,326.5,365.4,326.2,365.4z M331.7,364.3c0.5,0,1,0.1,1.4,0.3l-0.2,1.2l-0.2,0.1
		c-0.2-0.2-0.4-0.3-0.6-0.4c-0.2-0.1-0.4-0.1-0.6-0.1c-0.2,0-0.3,0-0.5,0.1c-0.1,0.1-0.2,0.2-0.2,0.3c0,0.1,0.1,0.3,0.2,0.4
		c0.1,0.1,0.4,0.2,0.7,0.3c0.3,0.1,0.6,0.3,0.8,0.4c0.2,0.1,0.4,0.3,0.5,0.5c0.1,0.2,0.2,0.4,0.2,0.7c0,0.3-0.1,0.6-0.2,0.8
		c-0.2,0.3-0.4,0.5-0.7,0.6c-0.3,0.2-0.7,0.2-1.2,0.2c-0.2,0-0.5,0-0.8-0.1c-0.3,0-0.6-0.1-0.8-0.2l0.2-1.2l0.1-0.1
		c0.2,0.2,0.5,0.4,0.8,0.5c0.3,0.1,0.5,0.2,0.8,0.2c0.2,0,0.3,0,0.5-0.1c0.1-0.1,0.2-0.2,0.2-0.4c0-0.2-0.1-0.3-0.2-0.4
		c-0.1-0.1-0.4-0.2-0.7-0.3c-0.3-0.1-0.6-0.3-0.8-0.4c-0.2-0.1-0.4-0.3-0.5-0.5c-0.1-0.2-0.2-0.4-0.2-0.7c0-0.3,0.1-0.6,0.2-0.8
		c0.2-0.3,0.4-0.5,0.7-0.6C330.9,364.4,331.3,364.3,331.7,364.3z M335.7,368l0.1,1.7h-1.3l0.1-1.6l-0.1-3.7h1.3L335.7,368z
		 M340.9,364.5l-0.1,1l-1.1-0.1h-0.3l0,2.5l0,1.7h-1.3l0.1-1.6l0-2.6h-0.3l-1.1,0.1l-0.1-0.1l0.1-1h4L340.9,364.5z"/>
	<path class="st8" d="M394,362.9c0.6,0,1.2,0.1,1.7,0.4l-0.2,1.2l-0.1,0.1c-0.2-0.1-0.4-0.3-0.7-0.3c-0.2-0.1-0.5-0.1-0.8-0.1
		c-1.1,0-1.6,0.7-1.6,2.2c0,0.8,0.1,1.4,0.4,1.8c0.3,0.4,0.7,0.6,1.3,0.6c0.3,0,0.5,0,0.8-0.1c0.3-0.1,0.5-0.2,0.7-0.3l0.1,0.1
		l-0.1,1.2c-0.5,0.2-1.1,0.4-1.7,0.4c-1,0-1.7-0.3-2.3-0.9c-0.5-0.6-0.8-1.4-0.8-2.5c0-1.1,0.3-2,0.8-2.6
		C392.2,363.2,393,362.9,394,362.9z M398.9,364.3c0.8,0,1.4,0.2,1.8,0.7c0.4,0.4,0.6,1.1,0.6,1.9c0,0.9-0.2,1.6-0.7,2.1
		c-0.5,0.5-1.1,0.7-2,0.7c-0.8,0-1.4-0.2-1.8-0.7c-0.4-0.5-0.6-1.1-0.6-1.9c0-0.9,0.2-1.6,0.7-2C397.4,364.6,398,364.3,398.9,364.3z
		 M398.7,365.4c-0.4,0-0.7,0.1-0.9,0.4c-0.2,0.2-0.3,0.6-0.3,1.2c0,0.5,0,0.8,0.1,1.1c0.1,0.3,0.2,0.4,0.4,0.5
		c0.2,0.1,0.4,0.2,0.7,0.2c0.4,0,0.7-0.1,0.9-0.3c0.2-0.2,0.3-0.6,0.3-1.2c0-0.5,0-0.8-0.1-1.1c-0.1-0.3-0.2-0.4-0.4-0.6
		C399.3,365.4,399,365.4,398.7,365.4z M407,368l0.1,1.7h-1.4l-2.1-3.2h-0.1l0,1.4l0,1.8h-1.2l0.1-1.5l-0.1-3.7h1.4l2.1,3.2h0.1
		l0-3.2l1.2-0.1L407,368z M410.4,364.3c0.5,0,1,0.1,1.4,0.3l-0.2,1.2l-0.2,0.1c-0.2-0.2-0.4-0.3-0.6-0.4c-0.2-0.1-0.4-0.1-0.6-0.1
		c-0.2,0-0.3,0-0.5,0.1c-0.1,0.1-0.2,0.2-0.2,0.3c0,0.1,0.1,0.3,0.2,0.4c0.1,0.1,0.4,0.2,0.7,0.3c0.3,0.1,0.6,0.3,0.8,0.4
		c0.2,0.1,0.4,0.3,0.5,0.5c0.1,0.2,0.2,0.4,0.2,0.7c0,0.3-0.1,0.6-0.2,0.8c-0.2,0.3-0.4,0.5-0.7,0.6c-0.3,0.2-0.7,0.2-1.2,0.2
		c-0.2,0-0.5,0-0.8-0.1c-0.3,0-0.6-0.1-0.8-0.2l0.2-1.2l0.1-0.1c0.2,0.2,0.5,0.4,0.8,0.5c0.3,0.1,0.5,0.2,0.8,0.2
		c0.2,0,0.3,0,0.5-0.1c0.1-0.1,0.2-0.2,0.2-0.4c0-0.2-0.1-0.3-0.2-0.4c-0.1-0.1-0.4-0.2-0.7-0.3c-0.3-0.1-0.6-0.3-0.8-0.4
		c-0.2-0.1-0.4-0.3-0.5-0.5c-0.1-0.2-0.2-0.4-0.2-0.7c0-0.3,0.1-0.6,0.2-0.8c0.2-0.3,0.4-0.5,0.7-0.6
		C409.6,364.4,410,364.3,410.4,364.3z M416.7,364.5l-0.1,1l-1.1-0.1h-0.3l0,2.5l0,1.7H414l0.1-1.6l0-2.6h-0.3l-1.1,0.1l-0.1-0.1
		l0.1-1h4L416.7,364.5z"/>
	<path class="st8" d="M465.1,366.2c0.5,0.1,0.8,0.3,1,0.6c0.2,0.3,0.3,0.6,0.3,1c0,1.3-1,1.9-3,1.9c-0.6,0-1.2,0-1.8-0.1l0.1-2
		l-0.1-4.7l2.4,0c0.7,0,1.2,0.1,1.6,0.4c0.4,0.3,0.6,0.7,0.6,1.2c0,0.4-0.1,0.7-0.3,0.9C465.7,365.8,465.4,366,465.1,366.2z
		 M464.7,364.8c0-0.3-0.1-0.5-0.3-0.6c-0.2-0.1-0.5-0.2-0.9-0.2H463l0,1.8l1,0c0.3-0.1,0.5-0.2,0.6-0.3
		C464.6,365.3,464.7,365.1,464.7,364.8z M463.7,368.7c0.4,0,0.8-0.1,1-0.3c0.2-0.2,0.4-0.4,0.4-0.7c0-0.5-0.3-0.8-1-0.9l-1.1,0
		l0,0.7l0,1.1C463.2,368.7,463.4,368.7,463.7,368.7z M471.9,367.1l0,0.8c0,0.6-0.2,1.1-0.6,1.4c-0.4,0.3-1,0.5-1.7,0.5
		c-0.7,0-1.3-0.2-1.6-0.5c-0.4-0.3-0.6-0.8-0.5-1.4l0-0.8l0-2.6h1.3l-0.1,3.3c0,0.3,0.1,0.6,0.2,0.7c0.2,0.2,0.4,0.2,0.8,0.2
		c0.4,0,0.6-0.1,0.8-0.2c0.2-0.2,0.3-0.4,0.2-0.7l-0.1-3.3h1.3L471.9,367.1z M475.6,368.2l0.1,1.4h-1.3l0.1-1.4l0-0.3l-1.8-3.5h1.4
		l0.1,0.4l0.9,1.8h0.1l1-1.8l0.2-0.4h1.3l-2,3.5L475.6,368.2z"/>
	<g>
		<path class="st8" d="M287.2,432.7h137.5c6.8,0,12.4,5.6,12.4,12.4v62c0,6.8-5.6,12.4-12.4,12.4H287.2c-6.8,0-12.4-5.6-12.4-12.4
			v-62C274.8,438.2,280.3,432.7,287.2,432.7z"/>
	</g>
	<path class="st11" d="M293.4,451.3h6.2c5.1,0,9.3,4.2,9.3,9.3v6.2c0,5.1-4.2,9.3-9.3,9.3h-6.2c-5.1,0-9.3-4.2-9.3-9.3v-6.2
		C284.1,455.4,288.2,451.3,293.4,451.3z"/>
	<path d="M286.2,489.3h3.2v1.2h-4.7v-7.3h1.5V489.3z M293.4,490.6c-0.1-0.1-0.1-0.3-0.1-0.5c-0.4,0.4-0.8,0.6-1.4,0.6
		c-0.5,0-1-0.2-1.3-0.5c-0.4-0.3-0.5-0.7-0.5-1.2c0-0.6,0.2-1,0.6-1.3c0.4-0.3,1.1-0.5,1.9-0.5h0.7v-0.3c0-0.3-0.1-0.5-0.2-0.6
		c-0.1-0.2-0.3-0.2-0.6-0.2c-0.2,0-0.4,0.1-0.6,0.2c-0.1,0.1-0.2,0.3-0.2,0.5h-1.5c0-0.3,0.1-0.6,0.3-0.9c0.2-0.3,0.5-0.5,0.8-0.6
		c0.4-0.2,0.8-0.2,1.2-0.2c0.7,0,1.2,0.2,1.6,0.5c0.4,0.3,0.6,0.8,0.6,1.4v2.4c0,0.5,0.1,0.9,0.2,1.2v0.1H293.4z M292.2,489.5
		c0.2,0,0.4,0,0.6-0.1c0.2-0.1,0.3-0.2,0.4-0.4v-0.9h-0.5c-0.7,0-1.1,0.3-1.2,0.8l0,0.1c0,0.2,0.1,0.3,0.2,0.4
		C291.8,489.5,292,489.5,292.2,489.5z M299,490c-0.4,0.4-0.9,0.7-1.5,0.7c-0.6,0-1-0.2-1.3-0.5c-0.3-0.3-0.5-0.8-0.5-1.5v-3.6h1.5
		v3.5c0,0.6,0.3,0.9,0.8,0.9c0.5,0,0.8-0.2,1-0.5v-3.9h1.5v5.5h-1.4L299,490z M302.9,485.1l0,0.6c0.4-0.5,0.9-0.7,1.6-0.7
		c0.6,0,1,0.2,1.3,0.5c0.3,0.3,0.4,0.8,0.4,1.5v3.5h-1.5v-3.5c0-0.3-0.1-0.5-0.2-0.7c-0.1-0.1-0.4-0.2-0.7-0.2
		c-0.4,0-0.7,0.2-0.9,0.5v3.9h-1.5v-5.5H302.9z M309.6,489.5c0.3,0,0.5-0.1,0.7-0.2c0.2-0.1,0.3-0.3,0.3-0.6h1.4
		c0,0.4-0.1,0.7-0.3,1c-0.2,0.3-0.5,0.5-0.8,0.7c-0.3,0.2-0.7,0.3-1.1,0.3c-0.8,0-1.4-0.2-1.8-0.7c-0.5-0.5-0.7-1.2-0.7-2.1v-0.1
		c0-0.8,0.2-1.5,0.7-2c0.4-0.5,1.1-0.8,1.8-0.8c0.7,0,1.2,0.2,1.6,0.6c0.4,0.4,0.6,0.9,0.6,1.5h-1.4c0-0.3-0.1-0.5-0.3-0.7
		c-0.2-0.2-0.4-0.3-0.7-0.3c-0.3,0-0.6,0.1-0.8,0.4c-0.2,0.2-0.3,0.6-0.3,1.2v0.2c0,0.6,0.1,1,0.3,1.2
		C309,489.4,309.3,489.5,309.6,489.5z M314.2,485.7c0.4-0.5,0.9-0.7,1.5-0.7c1.2,0,1.8,0.7,1.8,2.1v3.5H316v-3.5
		c0-0.3-0.1-0.5-0.2-0.7c-0.1-0.2-0.4-0.2-0.7-0.2c-0.4,0-0.7,0.2-0.9,0.5v3.9h-1.5v-7.8h1.5V485.7z M324.3,490.6
		c-0.1-0.1-0.1-0.3-0.1-0.5c-0.4,0.4-0.8,0.6-1.4,0.6c-0.5,0-1-0.2-1.3-0.5c-0.3-0.3-0.5-0.7-0.5-1.2c0-0.6,0.2-1,0.6-1.3
		c0.4-0.3,1.1-0.5,1.9-0.5h0.7v-0.3c0-0.3-0.1-0.5-0.2-0.6c-0.1-0.2-0.3-0.2-0.6-0.2c-0.2,0-0.4,0.1-0.6,0.2
		c-0.1,0.1-0.2,0.3-0.2,0.5H321c0-0.3,0.1-0.6,0.3-0.9c0.2-0.3,0.5-0.5,0.8-0.6c0.4-0.2,0.8-0.2,1.2-0.2c0.7,0,1.2,0.2,1.6,0.5
		c0.4,0.3,0.6,0.8,0.6,1.4v2.4c0,0.5,0.1,0.9,0.2,1.2v0.1H324.3z M323.1,489.5c0.2,0,0.4,0,0.6-0.1c0.2-0.1,0.3-0.2,0.4-0.4v-0.9
		h-0.5c-0.7,0-1.1,0.3-1.2,0.8l0,0.1c0,0.2,0.1,0.3,0.2,0.4C322.7,489.5,322.8,489.5,323.1,489.5z M334.5,484.4h-2.3v6.1h-1.5v-6.1
		h-2.2v-1.2h6V484.4z M338,486.5c-0.2,0-0.4,0-0.5,0c-0.6,0-0.9,0.2-1.1,0.6v3.6H335v-5.5h1.4l0,0.7c0.3-0.5,0.7-0.8,1.2-0.8
		c0.2,0,0.3,0,0.5,0.1L338,486.5z M341.8,490.6c-0.1-0.1-0.1-0.3-0.1-0.5c-0.4,0.4-0.8,0.6-1.4,0.6c-0.5,0-1-0.2-1.3-0.5
		c-0.4-0.3-0.5-0.7-0.5-1.2c0-0.6,0.2-1,0.6-1.3c0.4-0.3,1.1-0.5,1.9-0.5h0.7v-0.3c0-0.3-0.1-0.5-0.2-0.6c-0.1-0.2-0.3-0.2-0.6-0.2
		c-0.2,0-0.4,0.1-0.6,0.2c-0.1,0.1-0.2,0.3-0.2,0.5h-1.5c0-0.3,0.1-0.6,0.3-0.9c0.2-0.3,0.5-0.5,0.8-0.6c0.4-0.2,0.8-0.2,1.2-0.2
		c0.7,0,1.2,0.2,1.6,0.5c0.4,0.3,0.6,0.8,0.6,1.4v2.4c0,0.5,0.1,0.9,0.2,1.2v0.1H341.8z M340.6,489.5c0.2,0,0.4,0,0.6-0.1
		c0.2-0.1,0.3-0.2,0.4-0.4v-0.9H341c-0.7,0-1.1,0.3-1.2,0.8l0,0.1c0,0.2,0.1,0.3,0.2,0.4C340.2,489.5,340.3,489.5,340.6,489.5z
		 M345.5,485.1l0,0.6c0.4-0.5,0.9-0.7,1.6-0.7c0.6,0,1,0.2,1.3,0.5c0.3,0.3,0.4,0.8,0.4,1.5v3.5h-1.5v-3.5c0-0.3-0.1-0.5-0.2-0.7
		c-0.1-0.1-0.4-0.2-0.7-0.2c-0.4,0-0.7,0.2-0.9,0.5v3.9h-1.5v-5.5H345.5z M352.9,489c0-0.2-0.1-0.3-0.3-0.4
		c-0.2-0.1-0.5-0.2-0.8-0.3c-1.3-0.3-1.9-0.8-1.9-1.7c0-0.5,0.2-0.9,0.6-1.2c0.4-0.3,0.9-0.5,1.6-0.5c0.7,0,1.2,0.2,1.7,0.5
		c0.4,0.3,0.6,0.8,0.6,1.3h-1.5c0-0.2-0.1-0.4-0.2-0.5c-0.1-0.1-0.3-0.2-0.6-0.2c-0.2,0-0.4,0.1-0.6,0.2c-0.1,0.1-0.2,0.3-0.2,0.4
		c0,0.2,0.1,0.3,0.2,0.4c0.2,0.1,0.4,0.2,0.8,0.3c0.4,0.1,0.7,0.2,0.9,0.2c0.8,0.3,1.2,0.8,1.2,1.5c0,0.5-0.2,0.9-0.6,1.2
		c-0.4,0.3-1,0.5-1.7,0.5c-0.5,0-0.9-0.1-1.2-0.2c-0.4-0.2-0.6-0.4-0.8-0.7c-0.2-0.3-0.3-0.6-0.3-0.9h1.4c0,0.3,0.1,0.5,0.3,0.6
		c0.2,0.1,0.4,0.2,0.7,0.2c0.3,0,0.5-0.1,0.6-0.2C352.8,489.4,352.9,489.2,352.9,489z M358.4,490.6c-0.1-0.1-0.1-0.3-0.1-0.5
		c-0.4,0.4-0.8,0.6-1.4,0.6c-0.5,0-1-0.2-1.3-0.5c-0.4-0.3-0.5-0.7-0.5-1.2c0-0.6,0.2-1,0.6-1.3c0.4-0.3,1.1-0.5,1.9-0.5h0.7v-0.3
		c0-0.3-0.1-0.5-0.2-0.6c-0.1-0.2-0.3-0.2-0.6-0.2c-0.2,0-0.4,0.1-0.6,0.2c-0.1,0.1-0.2,0.3-0.2,0.5h-1.5c0-0.3,0.1-0.6,0.3-0.9
		c0.2-0.3,0.5-0.5,0.8-0.6c0.4-0.2,0.8-0.2,1.2-0.2c0.7,0,1.2,0.2,1.6,0.5c0.4,0.3,0.6,0.8,0.6,1.4v2.4c0,0.5,0.1,0.9,0.2,1.2v0.1
		H358.4z M357.2,489.5c0.2,0,0.4,0,0.6-0.1c0.2-0.1,0.3-0.2,0.4-0.4v-0.9h-0.5c-0.7,0-1.1,0.3-1.2,0.8l0,0.1c0,0.2,0.1,0.3,0.2,0.4
		C356.8,489.5,357,489.5,357.2,489.5z M363.1,489.5c0.3,0,0.5-0.1,0.7-0.2c0.2-0.1,0.3-0.3,0.3-0.6h1.4c0,0.4-0.1,0.7-0.3,1
		c-0.2,0.3-0.5,0.5-0.8,0.7c-0.3,0.2-0.7,0.3-1.1,0.3c-0.8,0-1.4-0.2-1.8-0.7c-0.5-0.5-0.7-1.2-0.7-2.1v-0.1c0-0.8,0.2-1.5,0.7-2
		c0.4-0.5,1.1-0.8,1.8-0.8c0.7,0,1.2,0.2,1.6,0.6c0.4,0.4,0.6,0.9,0.6,1.5H364c0-0.3-0.1-0.5-0.3-0.7c-0.2-0.2-0.4-0.3-0.7-0.3
		c-0.3,0-0.6,0.1-0.8,0.4c-0.2,0.2-0.3,0.6-0.3,1.2v0.2c0,0.6,0.1,1,0.3,1.2C362.5,489.4,362.7,489.5,363.1,489.5z M367.9,483.8v1.3
		h0.9v1.1h-0.9v2.7c0,0.2,0,0.3,0.1,0.4c0.1,0.1,0.2,0.1,0.4,0.1c0.2,0,0.3,0,0.4,0v1.1c-0.3,0.1-0.6,0.1-0.9,0.1
		c-1,0-1.5-0.5-1.6-1.5v-2.9h-0.8v-1.1h0.8v-1.3H367.9z M371.2,490.6h-1.5v-5.5h1.5V490.6z M369.7,483.7c0-0.2,0.1-0.4,0.2-0.5
		c0.1-0.1,0.3-0.2,0.6-0.2c0.2,0,0.4,0.1,0.6,0.2c0.1,0.1,0.2,0.3,0.2,0.5c0,0.2-0.1,0.4-0.2,0.5c-0.1,0.1-0.3,0.2-0.6,0.2
		c-0.2,0-0.4-0.1-0.6-0.2C369.7,484.1,369.7,483.9,369.7,483.7z M372.2,487.8c0-0.5,0.1-1,0.3-1.4c0.2-0.4,0.5-0.8,0.9-1
		c0.4-0.2,0.8-0.3,1.4-0.3c0.7,0,1.3,0.2,1.8,0.7c0.5,0.5,0.7,1.1,0.8,1.8l0,0.4c0,0.8-0.2,1.5-0.7,2c-0.5,0.5-1.1,0.8-1.9,0.8
		c-0.8,0-1.4-0.3-1.9-0.8C372.4,489.4,372.2,488.7,372.2,487.8L372.2,487.8z M373.6,487.9c0,0.5,0.1,0.9,0.3,1.2
		c0.2,0.3,0.5,0.4,0.8,0.4c0.4,0,0.6-0.1,0.8-0.4c0.2-0.3,0.3-0.7,0.3-1.3c0-0.5-0.1-0.9-0.3-1.2c-0.2-0.3-0.5-0.4-0.8-0.4
		c-0.4,0-0.6,0.1-0.8,0.4C373.7,486.9,373.6,487.3,373.6,487.9z M379.6,485.1l0,0.6c0.4-0.5,0.9-0.7,1.6-0.7c0.6,0,1,0.2,1.3,0.5
		c0.3,0.3,0.4,0.8,0.4,1.5v3.5h-1.5v-3.5c0-0.3-0.1-0.5-0.2-0.7c-0.1-0.1-0.4-0.2-0.7-0.2c-0.4,0-0.7,0.2-0.9,0.5v3.9h-1.5v-5.5
		H379.6z"/>
	<path class="st8" d="M297.2,463.1h2.6v1.8h-2.6v2.9h-1.9v-2.9h-2.6v-1.8h2.6v-2.8h1.9V463.1z"/>
	<path class="st6" d="M286.3,499.9h-0.6v-3.7l-1.1,0.4V496l1.6-0.6h0.1V499.9z M288,499.6c0-0.1,0-0.2,0.1-0.2
		c0.1-0.1,0.1-0.1,0.3-0.1s0.2,0,0.3,0.1c0.1,0.1,0.1,0.1,0.1,0.2c0,0.1,0,0.2-0.1,0.2c-0.1,0.1-0.1,0.1-0.3,0.1s-0.2,0-0.3-0.1
		C288,499.7,288,499.7,288,499.6z M291.4,499.9h-0.6v-3.7l-1.1,0.4V496l1.6-0.6h0.1V499.9z M295.9,499.9H293v-0.4l1.5-1.7
		c0.2-0.3,0.4-0.5,0.5-0.6c0.1-0.2,0.1-0.3,0.1-0.5c0-0.2-0.1-0.4-0.2-0.6c-0.1-0.1-0.3-0.2-0.6-0.2c-0.3,0-0.5,0.1-0.7,0.2
		c-0.2,0.2-0.2,0.4-0.2,0.7h-0.6c0-0.4,0.1-0.7,0.4-1c0.3-0.3,0.6-0.4,1.1-0.4c0.4,0,0.7,0.1,1,0.3c0.2,0.2,0.4,0.5,0.4,0.9
		c0,0.4-0.3,1-0.8,1.6l-1.2,1.3h2.2V499.9z M297.3,497.4h0.4c0.3,0,0.5-0.1,0.6-0.2c0.2-0.1,0.2-0.3,0.2-0.5c0-0.5-0.3-0.8-0.8-0.8
		c-0.2,0-0.4,0.1-0.6,0.2c-0.1,0.1-0.2,0.3-0.2,0.5h-0.6c0-0.3,0.1-0.6,0.4-0.9c0.3-0.2,0.6-0.3,1-0.3c0.4,0,0.7,0.1,1,0.3
		c0.2,0.2,0.4,0.5,0.4,0.9c0,0.2-0.1,0.4-0.2,0.6c-0.1,0.2-0.3,0.3-0.5,0.4c0.2,0.1,0.4,0.2,0.6,0.4c0.1,0.2,0.2,0.4,0.2,0.7
		c0,0.4-0.1,0.7-0.4,0.9c-0.3,0.2-0.6,0.3-1,0.3c-0.4,0-0.8-0.1-1-0.3c-0.3-0.2-0.4-0.5-0.4-0.9h0.6c0,0.2,0.1,0.4,0.2,0.6
		c0.2,0.1,0.4,0.2,0.6,0.2c0.3,0,0.5-0.1,0.6-0.2c0.1-0.1,0.2-0.3,0.2-0.6c0-0.3-0.1-0.5-0.2-0.6c-0.2-0.1-0.4-0.2-0.7-0.2h-0.4
		V497.4z M302.3,499.4h2.1v0.5h-2.7v-4.4h0.6V499.4z M304.8,498.2c0-0.3,0.1-0.6,0.2-0.9c0.1-0.3,0.3-0.5,0.5-0.6
		c0.2-0.1,0.5-0.2,0.8-0.2c0.4,0,0.8,0.2,1.1,0.5c0.3,0.3,0.4,0.7,0.4,1.2v0c0,0.3-0.1,0.6-0.2,0.9c-0.1,0.3-0.3,0.4-0.5,0.6
		c-0.2,0.1-0.5,0.2-0.8,0.2c-0.4,0-0.8-0.2-1.1-0.5C304.9,499.1,304.8,498.7,304.8,498.2L304.8,498.2z M305.3,498.3
		c0,0.4,0.1,0.7,0.3,0.9c0.2,0.2,0.4,0.3,0.7,0.3c0.3,0,0.5-0.1,0.7-0.3c0.2-0.2,0.3-0.5,0.3-0.9c0-0.4-0.1-0.7-0.3-0.9
		c-0.2-0.2-0.4-0.3-0.7-0.3c-0.3,0-0.5,0.1-0.7,0.3C305.4,497.5,305.3,497.8,305.3,498.3z M310.5,499.5c-0.2,0.3-0.5,0.4-1,0.4
		c-0.3,0-0.6-0.1-0.8-0.3c-0.2-0.2-0.3-0.5-0.3-0.9v-2.1h0.6v2.1c0,0.5,0.2,0.7,0.6,0.7c0.4,0,0.7-0.2,0.9-0.5v-2.4h0.6v3.3h-0.5
		L310.5,499.5z M312.4,496.6l0,0.4c0.3-0.3,0.6-0.5,1-0.5c0.7,0,1,0.4,1,1.2v2.2h-0.6v-2.2c0-0.2-0.1-0.4-0.2-0.5
		c-0.1-0.1-0.3-0.2-0.5-0.2c-0.2,0-0.3,0-0.5,0.1c-0.1,0.1-0.2,0.2-0.3,0.4v2.3h-0.6v-3.3H312.4z M316.6,499.5
		c0.2,0,0.4-0.1,0.5-0.2c0.1-0.1,0.2-0.3,0.2-0.5h0.5c0,0.2-0.1,0.4-0.2,0.5c-0.1,0.2-0.3,0.3-0.5,0.4c-0.2,0.1-0.4,0.2-0.6,0.2
		c-0.4,0-0.8-0.1-1.1-0.4c-0.3-0.3-0.4-0.7-0.4-1.2v-0.1c0-0.3,0.1-0.6,0.2-0.9c0.1-0.2,0.3-0.4,0.5-0.6c0.2-0.1,0.5-0.2,0.8-0.2
		c0.4,0,0.7,0.1,0.9,0.3c0.2,0.2,0.4,0.5,0.4,0.9h-0.5c0-0.2-0.1-0.4-0.2-0.5c-0.1-0.1-0.3-0.2-0.5-0.2c-0.3,0-0.5,0.1-0.7,0.3
		c-0.2,0.2-0.2,0.5-0.2,0.9v0.1c0,0.4,0.1,0.7,0.2,0.9C316.1,499.4,316.3,499.5,316.6,499.5z M319.1,497c0.2-0.3,0.6-0.5,1-0.5
		c0.7,0,1,0.4,1,1.2v2.2h-0.6v-2.2c0-0.2-0.1-0.4-0.2-0.5c-0.1-0.1-0.3-0.2-0.5-0.2c-0.2,0-0.3,0-0.5,0.1c-0.1,0.1-0.2,0.2-0.3,0.4
		v2.3h-0.6v-4.7h0.6V497z M323.3,499.9c-0.4,0-0.8-0.1-1.1-0.4c-0.3-0.3-0.4-0.7-0.4-1.2v-0.1c0-0.3,0.1-0.6,0.2-0.9
		c0.1-0.3,0.3-0.5,0.5-0.6c0.2-0.1,0.5-0.2,0.7-0.2c0.4,0,0.8,0.1,1,0.4c0.2,0.3,0.4,0.7,0.4,1.2v0.2h-2.2c0,0.3,0.1,0.6,0.3,0.8
		c0.2,0.2,0.4,0.3,0.7,0.3c0.2,0,0.4,0,0.5-0.1c0.1-0.1,0.3-0.2,0.4-0.3l0.3,0.3C324.3,499.7,323.9,499.9,323.3,499.9z M323.3,497
		c-0.2,0-0.4,0.1-0.6,0.2c-0.2,0.2-0.2,0.4-0.3,0.7h1.6v0c0-0.3-0.1-0.5-0.2-0.7C323.7,497.1,323.5,497,323.3,497z M327.2,499
		c0-0.2-0.1-0.3-0.2-0.4c-0.1-0.1-0.3-0.2-0.6-0.2c-0.3-0.1-0.5-0.1-0.7-0.2c-0.2-0.1-0.3-0.2-0.4-0.3c-0.1-0.1-0.1-0.3-0.1-0.4
		c0-0.3,0.1-0.5,0.3-0.7c0.2-0.2,0.5-0.3,0.9-0.3c0.4,0,0.7,0.1,0.9,0.3c0.2,0.2,0.3,0.4,0.3,0.7h-0.6c0-0.2-0.1-0.3-0.2-0.4
		c-0.1-0.1-0.3-0.2-0.5-0.2c-0.2,0-0.4,0-0.5,0.1c-0.1,0.1-0.2,0.2-0.2,0.3c0,0.1,0.1,0.2,0.2,0.3c0.1,0.1,0.3,0.1,0.6,0.2
		c0.3,0.1,0.5,0.1,0.7,0.2c0.2,0.1,0.3,0.2,0.4,0.3c0.1,0.1,0.1,0.3,0.1,0.4c0,0.3-0.1,0.5-0.4,0.7c-0.2,0.2-0.5,0.3-0.9,0.3
		c-0.3,0-0.5,0-0.7-0.1c-0.2-0.1-0.4-0.2-0.5-0.4c-0.1-0.2-0.2-0.3-0.2-0.5h0.6c0,0.2,0.1,0.3,0.2,0.4c0.1,0.1,0.3,0.2,0.6,0.2
		c0.2,0,0.4,0,0.5-0.1C327.1,499.2,327.2,499.1,327.2,499z"/>
	<g>
		<path class="st8" d="M458.7,432.7h137.5c6.8,0,12.4,5.6,12.4,12.4v62c0,6.8-5.6,12.4-12.4,12.4H458.7c-6.8,0-12.4-5.6-12.4-12.4
			v-62C446.3,438.2,451.9,432.7,458.7,432.7z"/>
	</g>
	<path class="st11" d="M464.9,451.3h6.2c5.1,0,9.3,4.2,9.3,9.3v6.2c0,5.1-4.2,9.3-9.3,9.3h-6.2c-5.1,0-9.3-4.2-9.3-9.3v-6.2
		C455.6,455.4,459.8,451.3,464.9,451.3z"/>
	<path d="M457.8,489.3h3.2v1.2h-4.7v-7.3h1.5V489.3z M465,490.6c-0.1-0.1-0.1-0.3-0.1-0.5c-0.4,0.4-0.8,0.6-1.4,0.6
		c-0.5,0-1-0.2-1.3-0.5c-0.4-0.3-0.5-0.7-0.5-1.2c0-0.6,0.2-1,0.6-1.3c0.4-0.3,1.1-0.5,1.9-0.5h0.7v-0.3c0-0.3-0.1-0.5-0.2-0.6
		c-0.1-0.2-0.3-0.2-0.6-0.2c-0.2,0-0.4,0.1-0.6,0.2c-0.1,0.1-0.2,0.3-0.2,0.5h-1.5c0-0.3,0.1-0.6,0.3-0.9c0.2-0.3,0.5-0.5,0.8-0.6
		c0.4-0.2,0.8-0.2,1.2-0.2c0.7,0,1.2,0.2,1.6,0.5c0.4,0.3,0.6,0.8,0.6,1.4v2.4c0,0.5,0.1,0.9,0.2,1.2v0.1H465z M463.8,489.5
		c0.2,0,0.4,0,0.6-0.1c0.2-0.1,0.3-0.2,0.4-0.4v-0.9h-0.5c-0.7,0-1.1,0.3-1.2,0.8l0,0.1c0,0.2,0.1,0.3,0.2,0.4
		C463.4,489.5,463.5,489.5,463.8,489.5z M470.6,490c-0.4,0.4-0.9,0.7-1.5,0.7c-0.6,0-1-0.2-1.3-0.5c-0.3-0.3-0.5-0.8-0.5-1.5v-3.6
		h1.5v3.5c0,0.6,0.3,0.9,0.8,0.9c0.5,0,0.8-0.2,1-0.5v-3.9h1.5v5.5h-1.4L470.6,490z M474.5,485.1l0,0.6c0.4-0.5,0.9-0.7,1.6-0.7
		c0.6,0,1,0.2,1.3,0.5c0.3,0.3,0.4,0.8,0.4,1.5v3.5h-1.5v-3.5c0-0.3-0.1-0.5-0.2-0.7c-0.1-0.1-0.4-0.2-0.7-0.2
		c-0.4,0-0.7,0.2-0.9,0.5v3.9h-1.5v-5.5H474.5z M481.2,489.5c0.3,0,0.5-0.1,0.7-0.2c0.2-0.1,0.3-0.3,0.3-0.6h1.4
		c0,0.4-0.1,0.7-0.3,1c-0.2,0.3-0.5,0.5-0.8,0.7c-0.3,0.2-0.7,0.3-1.1,0.3c-0.8,0-1.4-0.2-1.8-0.7c-0.5-0.5-0.7-1.2-0.7-2.1v-0.1
		c0-0.8,0.2-1.5,0.7-2c0.4-0.5,1.1-0.8,1.8-0.8c0.7,0,1.2,0.2,1.6,0.6c0.4,0.4,0.6,0.9,0.6,1.5h-1.4c0-0.3-0.1-0.5-0.3-0.7
		c-0.2-0.2-0.4-0.3-0.7-0.3c-0.3,0-0.6,0.1-0.8,0.4c-0.2,0.2-0.3,0.6-0.3,1.2v0.2c0,0.6,0.1,1,0.3,1.2
		C480.6,489.4,480.8,489.5,481.2,489.5z M485.7,485.7c0.4-0.5,0.9-0.7,1.5-0.7c1.2,0,1.8,0.7,1.8,2.1v3.5h-1.5v-3.5
		c0-0.3-0.1-0.5-0.2-0.7c-0.1-0.2-0.4-0.2-0.7-0.2c-0.4,0-0.7,0.2-0.9,0.5v3.9h-1.5v-7.8h1.5V485.7z M495.8,490.6
		c-0.1-0.1-0.1-0.3-0.1-0.5c-0.4,0.4-0.8,0.6-1.4,0.6c-0.5,0-1-0.2-1.3-0.5c-0.3-0.3-0.5-0.7-0.5-1.2c0-0.6,0.2-1,0.6-1.3
		c0.4-0.3,1.1-0.5,1.9-0.5h0.7v-0.3c0-0.3-0.1-0.5-0.2-0.6c-0.1-0.2-0.3-0.2-0.6-0.2c-0.2,0-0.4,0.1-0.6,0.2
		c-0.1,0.1-0.2,0.3-0.2,0.5h-1.5c0-0.3,0.1-0.6,0.3-0.9c0.2-0.3,0.5-0.5,0.8-0.6c0.4-0.2,0.8-0.2,1.2-0.2c0.7,0,1.2,0.2,1.6,0.5
		c0.4,0.3,0.6,0.8,0.6,1.4v2.4c0,0.5,0.1,0.9,0.2,1.2v0.1H495.8z M494.6,489.5c0.2,0,0.4,0,0.6-0.1c0.2-0.1,0.3-0.2,0.4-0.4v-0.9
		h-0.5c-0.7,0-1.1,0.3-1.2,0.8l0,0.1c0,0.2,0.1,0.3,0.2,0.4C494.2,489.5,494.4,489.5,494.6,489.5z M506.1,484.4h-2.3v6.1h-1.5v-6.1
		h-2.2v-1.2h6V484.4z M509.6,486.5c-0.2,0-0.4,0-0.5,0c-0.6,0-0.9,0.2-1.1,0.6v3.6h-1.5v-5.5h1.4l0,0.7c0.3-0.5,0.7-0.8,1.2-0.8
		c0.2,0,0.3,0,0.5,0.1L509.6,486.5z M513.3,490.6c-0.1-0.1-0.1-0.3-0.1-0.5c-0.4,0.4-0.8,0.6-1.4,0.6c-0.5,0-1-0.2-1.3-0.5
		c-0.4-0.3-0.5-0.7-0.5-1.2c0-0.6,0.2-1,0.6-1.3c0.4-0.3,1.1-0.5,1.9-0.5h0.7v-0.3c0-0.3-0.1-0.5-0.2-0.6c-0.1-0.2-0.3-0.2-0.6-0.2
		c-0.2,0-0.4,0.1-0.6,0.2c-0.1,0.1-0.2,0.3-0.2,0.5h-1.5c0-0.3,0.1-0.6,0.3-0.9c0.2-0.3,0.5-0.5,0.8-0.6c0.4-0.2,0.8-0.2,1.2-0.2
		c0.7,0,1.2,0.2,1.6,0.5c0.4,0.3,0.6,0.8,0.6,1.4v2.4c0,0.5,0.1,0.9,0.2,1.2v0.1H513.3z M512.1,489.5c0.2,0,0.4,0,0.6-0.1
		c0.2-0.1,0.3-0.2,0.4-0.4v-0.9h-0.5c-0.7,0-1.1,0.3-1.2,0.8l0,0.1c0,0.2,0.1,0.3,0.2,0.4C511.7,489.5,511.9,489.5,512.1,489.5z
		 M517.1,485.1l0,0.6c0.4-0.5,0.9-0.7,1.6-0.7c0.6,0,1,0.2,1.3,0.5c0.3,0.3,0.4,0.8,0.4,1.5v3.5h-1.5v-3.5c0-0.3-0.1-0.5-0.2-0.7
		c-0.1-0.1-0.4-0.2-0.7-0.2c-0.4,0-0.7,0.2-0.9,0.5v3.9h-1.5v-5.5H517.1z M524.5,489c0-0.2-0.1-0.3-0.3-0.4
		c-0.2-0.1-0.5-0.2-0.8-0.3c-1.3-0.3-1.9-0.8-1.9-1.7c0-0.5,0.2-0.9,0.6-1.2c0.4-0.3,0.9-0.5,1.6-0.5c0.7,0,1.2,0.2,1.7,0.5
		c0.4,0.3,0.6,0.8,0.6,1.3h-1.5c0-0.2-0.1-0.4-0.2-0.5c-0.1-0.1-0.3-0.2-0.6-0.2c-0.2,0-0.4,0.1-0.6,0.2c-0.1,0.1-0.2,0.3-0.2,0.4
		c0,0.2,0.1,0.3,0.2,0.4c0.2,0.1,0.4,0.2,0.8,0.3c0.4,0.1,0.7,0.2,0.9,0.2c0.8,0.3,1.2,0.8,1.2,1.5c0,0.5-0.2,0.9-0.6,1.2
		c-0.4,0.3-1,0.5-1.7,0.5c-0.5,0-0.9-0.1-1.2-0.2c-0.4-0.2-0.6-0.4-0.8-0.7c-0.2-0.3-0.3-0.6-0.3-0.9h1.4c0,0.3,0.1,0.5,0.3,0.6
		c0.2,0.1,0.4,0.2,0.7,0.2c0.3,0,0.5-0.1,0.6-0.2C524.4,489.4,524.5,489.2,524.5,489z M530,490.6c-0.1-0.1-0.1-0.3-0.1-0.5
		c-0.4,0.4-0.8,0.6-1.4,0.6c-0.5,0-1-0.2-1.3-0.5c-0.4-0.3-0.5-0.7-0.5-1.2c0-0.6,0.2-1,0.6-1.3c0.4-0.3,1.1-0.5,1.9-0.5h0.7v-0.3
		c0-0.3-0.1-0.5-0.2-0.6c-0.1-0.2-0.3-0.2-0.6-0.2c-0.2,0-0.4,0.1-0.6,0.2c-0.1,0.1-0.2,0.3-0.2,0.5h-1.5c0-0.3,0.1-0.6,0.3-0.9
		c0.2-0.3,0.5-0.5,0.8-0.6c0.4-0.2,0.8-0.2,1.2-0.2c0.7,0,1.2,0.2,1.6,0.5c0.4,0.3,0.6,0.8,0.6,1.4v2.4c0,0.5,0.1,0.9,0.2,1.2v0.1
		H530z M528.8,489.5c0.2,0,0.4,0,0.6-0.1c0.2-0.1,0.3-0.2,0.4-0.4v-0.9h-0.5c-0.7,0-1.1,0.3-1.2,0.8l0,0.1c0,0.2,0.1,0.3,0.2,0.4
		C528.4,489.5,528.6,489.5,528.8,489.5z M534.6,489.5c0.3,0,0.5-0.1,0.7-0.2c0.2-0.1,0.3-0.3,0.3-0.6h1.4c0,0.4-0.1,0.7-0.3,1
		c-0.2,0.3-0.5,0.5-0.8,0.7c-0.3,0.2-0.7,0.3-1.1,0.3c-0.8,0-1.4-0.2-1.8-0.7c-0.5-0.5-0.7-1.2-0.7-2.1v-0.1c0-0.8,0.2-1.5,0.7-2
		c0.4-0.5,1.1-0.8,1.8-0.8c0.7,0,1.2,0.2,1.6,0.6c0.4,0.4,0.6,0.9,0.6,1.5h-1.4c0-0.3-0.1-0.5-0.3-0.7c-0.2-0.2-0.4-0.3-0.7-0.3
		c-0.3,0-0.6,0.1-0.8,0.4c-0.2,0.2-0.3,0.6-0.3,1.2v0.2c0,0.6,0.1,1,0.3,1.2C534,489.4,534.3,489.5,534.6,489.5z M539.5,483.8v1.3
		h0.9v1.1h-0.9v2.7c0,0.2,0,0.3,0.1,0.4c0.1,0.1,0.2,0.1,0.4,0.1c0.2,0,0.3,0,0.4,0v1.1c-0.3,0.1-0.6,0.1-0.9,0.1
		c-1,0-1.5-0.5-1.6-1.5v-2.9h-0.8v-1.1h0.8v-1.3H539.5z M542.8,490.6h-1.5v-5.5h1.5V490.6z M541.2,483.7c0-0.2,0.1-0.4,0.2-0.5
		c0.1-0.1,0.3-0.2,0.6-0.2c0.2,0,0.4,0.1,0.6,0.2c0.1,0.1,0.2,0.3,0.2,0.5c0,0.2-0.1,0.4-0.2,0.5c-0.1,0.1-0.3,0.2-0.6,0.2
		c-0.2,0-0.4-0.1-0.6-0.2C541.3,484.1,541.2,483.9,541.2,483.7z M543.8,487.8c0-0.5,0.1-1,0.3-1.4c0.2-0.4,0.5-0.8,0.9-1
		c0.4-0.2,0.8-0.3,1.4-0.3c0.7,0,1.3,0.2,1.8,0.7c0.5,0.5,0.7,1.1,0.8,1.8l0,0.4c0,0.8-0.2,1.5-0.7,2c-0.5,0.5-1.1,0.8-1.9,0.8
		c-0.8,0-1.4-0.3-1.9-0.8C544,489.4,543.8,488.7,543.8,487.8L543.8,487.8z M545.2,487.9c0,0.5,0.1,0.9,0.3,1.2
		c0.2,0.3,0.5,0.4,0.8,0.4c0.4,0,0.6-0.1,0.8-0.4c0.2-0.3,0.3-0.7,0.3-1.3c0-0.5-0.1-0.9-0.3-1.2c-0.2-0.3-0.5-0.4-0.8-0.4
		c-0.4,0-0.6,0.1-0.8,0.4C545.3,486.9,545.2,487.3,545.2,487.9z M551.2,485.1l0,0.6c0.4-0.5,0.9-0.7,1.6-0.7c0.6,0,1,0.2,1.3,0.5
		c0.3,0.3,0.4,0.8,0.4,1.5v3.5h-1.5v-3.5c0-0.3-0.1-0.5-0.2-0.7c-0.1-0.1-0.4-0.2-0.7-0.2c-0.4,0-0.7,0.2-0.9,0.5v3.9h-1.5v-5.5
		H551.2z"/>
	<path class="st8" d="M468.8,463.1h2.6v1.8h-2.6v2.9h-1.9v-2.9h-2.6v-1.8h2.6v-2.8h1.9V463.1z"/>
	<path class="st6" d="M457.8,499.9h-0.6v-3.7l-1.1,0.4V496l1.6-0.6h0.1V499.9z M459.6,499.6c0-0.1,0-0.2,0.1-0.2
		c0.1-0.1,0.1-0.1,0.3-0.1s0.2,0,0.3,0.1c0.1,0.1,0.1,0.1,0.1,0.2c0,0.1,0,0.2-0.1,0.2c-0.1,0.1-0.1,0.1-0.3,0.1s-0.2,0-0.3-0.1
		C459.6,499.7,459.6,499.7,459.6,499.6z M463,499.9h-0.6v-3.7l-1.1,0.4V496l1.6-0.6h0.1V499.9z M467.5,499.9h-2.9v-0.4l1.5-1.7
		c0.2-0.3,0.4-0.5,0.5-0.6c0.1-0.2,0.1-0.3,0.1-0.5c0-0.2-0.1-0.4-0.2-0.6c-0.1-0.1-0.3-0.2-0.6-0.2c-0.3,0-0.5,0.1-0.7,0.2
		c-0.2,0.2-0.2,0.4-0.2,0.7h-0.6c0-0.4,0.1-0.7,0.4-1c0.3-0.3,0.6-0.4,1.1-0.4c0.4,0,0.7,0.1,1,0.3c0.2,0.2,0.4,0.5,0.4,0.9
		c0,0.4-0.3,1-0.8,1.6l-1.2,1.3h2.2V499.9z M468.9,497.4h0.4c0.3,0,0.5-0.1,0.6-0.2c0.2-0.1,0.2-0.3,0.2-0.5c0-0.5-0.3-0.8-0.8-0.8
		c-0.2,0-0.4,0.1-0.6,0.2c-0.1,0.1-0.2,0.3-0.2,0.5H468c0-0.3,0.1-0.6,0.4-0.9c0.3-0.2,0.6-0.3,1-0.3c0.4,0,0.7,0.1,1,0.3
		c0.2,0.2,0.4,0.5,0.4,0.9c0,0.2-0.1,0.4-0.2,0.6c-0.1,0.2-0.3,0.3-0.5,0.4c0.2,0.1,0.4,0.2,0.6,0.4c0.1,0.2,0.2,0.4,0.2,0.7
		c0,0.4-0.1,0.7-0.4,0.9c-0.3,0.2-0.6,0.3-1,0.3c-0.4,0-0.8-0.1-1-0.3c-0.3-0.2-0.4-0.5-0.4-0.9h0.6c0,0.2,0.1,0.4,0.2,0.6
		c0.2,0.1,0.4,0.2,0.6,0.2c0.3,0,0.5-0.1,0.6-0.2c0.1-0.1,0.2-0.3,0.2-0.6c0-0.3-0.1-0.5-0.2-0.6c-0.2-0.1-0.4-0.2-0.7-0.2h-0.4
		V497.4z M473.8,499.4h2.1v0.5h-2.7v-4.4h0.6V499.4z M476.4,498.2c0-0.3,0.1-0.6,0.2-0.9c0.1-0.3,0.3-0.5,0.5-0.6
		c0.2-0.1,0.5-0.2,0.8-0.2c0.4,0,0.8,0.2,1.1,0.5c0.3,0.3,0.4,0.7,0.4,1.2v0c0,0.3-0.1,0.6-0.2,0.9c-0.1,0.3-0.3,0.4-0.5,0.6
		c-0.2,0.1-0.5,0.2-0.8,0.2c-0.4,0-0.8-0.2-1.1-0.5C476.5,499.1,476.4,498.7,476.4,498.2L476.4,498.2z M476.9,498.3
		c0,0.4,0.1,0.7,0.3,0.9c0.2,0.2,0.4,0.3,0.7,0.3c0.3,0,0.5-0.1,0.7-0.3c0.2-0.2,0.3-0.5,0.3-0.9c0-0.4-0.1-0.7-0.3-0.9
		c-0.2-0.2-0.4-0.3-0.7-0.3c-0.3,0-0.5,0.1-0.7,0.3C477,497.5,476.9,497.8,476.9,498.3z M482.1,499.5c-0.2,0.3-0.5,0.4-1,0.4
		c-0.3,0-0.6-0.1-0.8-0.3c-0.2-0.2-0.3-0.5-0.3-0.9v-2.1h0.6v2.1c0,0.5,0.2,0.7,0.6,0.7c0.4,0,0.7-0.2,0.9-0.5v-2.4h0.6v3.3h-0.5
		L482.1,499.5z M484,496.6l0,0.4c0.3-0.3,0.6-0.5,1-0.5c0.7,0,1,0.4,1,1.2v2.2h-0.6v-2.2c0-0.2-0.1-0.4-0.2-0.5
		c-0.1-0.1-0.3-0.2-0.5-0.2c-0.2,0-0.3,0-0.5,0.1c-0.1,0.1-0.2,0.2-0.3,0.4v2.3h-0.6v-3.3H484z M488.2,499.5c0.2,0,0.4-0.1,0.5-0.2
		c0.1-0.1,0.2-0.3,0.2-0.5h0.5c0,0.2-0.1,0.4-0.2,0.5c-0.1,0.2-0.3,0.3-0.5,0.4c-0.2,0.1-0.4,0.2-0.6,0.2c-0.4,0-0.8-0.1-1.1-0.4
		c-0.3-0.3-0.4-0.7-0.4-1.2v-0.1c0-0.3,0.1-0.6,0.2-0.9c0.1-0.2,0.3-0.4,0.5-0.6c0.2-0.1,0.5-0.2,0.8-0.2c0.4,0,0.7,0.1,0.9,0.3
		c0.2,0.2,0.4,0.5,0.4,0.9H489c0-0.2-0.1-0.4-0.2-0.5c-0.1-0.1-0.3-0.2-0.5-0.2c-0.3,0-0.5,0.1-0.7,0.3c-0.2,0.2-0.2,0.5-0.2,0.9
		v0.1c0,0.4,0.1,0.7,0.2,0.9C487.7,499.4,487.9,499.5,488.2,499.5z M490.7,497c0.2-0.3,0.6-0.5,1-0.5c0.7,0,1,0.4,1,1.2v2.2h-0.6
		v-2.2c0-0.2-0.1-0.4-0.2-0.5c-0.1-0.1-0.3-0.2-0.5-0.2c-0.2,0-0.3,0-0.5,0.1c-0.1,0.1-0.2,0.2-0.3,0.4v2.3h-0.6v-4.7h0.6V497z
		 M494.9,499.9c-0.4,0-0.8-0.1-1.1-0.4c-0.3-0.3-0.4-0.7-0.4-1.2v-0.1c0-0.3,0.1-0.6,0.2-0.9c0.1-0.3,0.3-0.5,0.5-0.6
		c0.2-0.1,0.5-0.2,0.7-0.2c0.4,0,0.8,0.1,1,0.4c0.2,0.3,0.4,0.7,0.4,1.2v0.2H494c0,0.3,0.1,0.6,0.3,0.8c0.2,0.2,0.4,0.3,0.7,0.3
		c0.2,0,0.4,0,0.5-0.1c0.1-0.1,0.3-0.2,0.4-0.3l0.3,0.3C495.9,499.7,495.5,499.9,494.9,499.9z M494.8,497c-0.2,0-0.4,0.1-0.6,0.2
		c-0.2,0.2-0.2,0.4-0.3,0.7h1.6v0c0-0.3-0.1-0.5-0.2-0.7C495.3,497.1,495.1,497,494.8,497z M498.7,499c0-0.2-0.1-0.3-0.2-0.4
		c-0.1-0.1-0.3-0.2-0.6-0.2c-0.3-0.1-0.5-0.1-0.7-0.2c-0.2-0.1-0.3-0.2-0.4-0.3c-0.1-0.1-0.1-0.3-0.1-0.4c0-0.3,0.1-0.5,0.3-0.7
		c0.2-0.2,0.5-0.3,0.9-0.3c0.4,0,0.7,0.1,0.9,0.3c0.2,0.2,0.3,0.4,0.3,0.7h-0.6c0-0.2-0.1-0.3-0.2-0.4c-0.1-0.1-0.3-0.2-0.5-0.2
		c-0.2,0-0.4,0-0.5,0.1c-0.1,0.1-0.2,0.2-0.2,0.3c0,0.1,0.1,0.2,0.2,0.3c0.1,0.1,0.3,0.1,0.6,0.2c0.3,0.1,0.5,0.1,0.7,0.2
		c0.2,0.1,0.3,0.2,0.4,0.3c0.1,0.1,0.1,0.3,0.1,0.4c0,0.3-0.1,0.5-0.4,0.7c-0.2,0.2-0.5,0.3-0.9,0.3c-0.3,0-0.5,0-0.7-0.1
		c-0.2-0.1-0.4-0.2-0.5-0.4c-0.1-0.2-0.2-0.3-0.2-0.5h0.6c0,0.2,0.1,0.3,0.2,0.4c0.1,0.1,0.3,0.2,0.6,0.2c0.2,0,0.4,0,0.5-0.1
		C498.7,499.2,498.7,499.1,498.7,499z"/>
	<path d="M282.2,570h-2.7v7.3h-1.8V570H275v-1.5h7.2V570z M285.6,577.5c-1,0-1.7-0.3-2.4-0.9c-0.6-0.6-0.9-1.4-0.9-2.4v-0.2
		c0-0.7,0.1-1.2,0.4-1.8c0.3-0.5,0.6-0.9,1.1-1.2c0.5-0.3,1-0.4,1.6-0.4c0.9,0,1.6,0.3,2.1,0.8c0.5,0.6,0.8,1.4,0.8,2.4v0.7h-4.2
		c0.1,0.4,0.2,0.8,0.5,1c0.3,0.3,0.6,0.4,1.1,0.4c0.7,0,1.2-0.2,1.6-0.7l0.9,1c-0.3,0.4-0.6,0.7-1.1,0.9
		C286.6,577.4,286.1,577.5,285.6,577.5z M285.4,572.1c-0.3,0-0.6,0.1-0.8,0.4c-0.2,0.2-0.4,0.6-0.4,1h2.4v-0.1
		c0-0.4-0.1-0.7-0.3-0.9C286,572.2,285.8,572.1,285.4,572.1z M290.9,570.8l0.1,0.8c0.5-0.6,1.1-0.9,1.9-0.9c0.7,0,1.2,0.2,1.6,0.6
		c0.3,0.4,0.5,1,0.5,1.8v4.2h-1.7v-4.2c0-0.4-0.1-0.6-0.2-0.8c-0.2-0.2-0.4-0.3-0.8-0.3c-0.5,0-0.9,0.2-1.1,0.6v4.6h-1.7v-6.6H290.9
		z M296,574c0-1,0.2-1.8,0.7-2.4c0.5-0.6,1.1-0.9,1.9-0.9c0.6,0,1.2,0.2,1.6,0.7v-3.3h1.8v9.3h-1.6l-0.1-0.7c-0.4,0.5-1,0.8-1.7,0.8
		c-0.8,0-1.4-0.3-1.9-0.9C296.2,576,296,575.1,296,574z M297.7,574.2c0,0.6,0.1,1.1,0.3,1.4c0.2,0.3,0.5,0.5,0.9,0.5
		c0.5,0,0.9-0.2,1.1-0.7v-2.6c-0.2-0.5-0.6-0.7-1.1-0.7C298.1,572.1,297.7,572.8,297.7,574.2z M306.2,577.5c-1,0-1.7-0.3-2.3-0.9
		c-0.6-0.6-0.9-1.4-0.9-2.4v-0.2c0-0.7,0.1-1.2,0.4-1.8c0.3-0.5,0.6-0.9,1.1-1.2c0.5-0.3,1-0.4,1.6-0.4c0.9,0,1.6,0.3,2.1,0.8
		c0.5,0.6,0.8,1.4,0.8,2.4v0.7h-4.2c0.1,0.4,0.2,0.8,0.5,1c0.3,0.3,0.6,0.4,1.1,0.4c0.7,0,1.2-0.2,1.6-0.7l0.9,1
		c-0.3,0.4-0.6,0.7-1.1,0.9C307.3,577.4,306.8,577.5,306.2,577.5z M306,572.1c-0.3,0-0.6,0.1-0.8,0.4c-0.2,0.2-0.4,0.6-0.4,1h2.4
		v-0.1c0-0.4-0.1-0.7-0.3-0.9C306.7,572.2,306.4,572.1,306,572.1z M313.6,572.5c-0.2,0-0.4,0-0.6,0c-0.7,0-1.1,0.2-1.3,0.7v4.3h-1.8
		v-6.6h1.7l0,0.8c0.4-0.6,0.8-0.9,1.5-0.9c0.2,0,0.4,0,0.5,0.1L313.6,572.5z M323.9,570h-2.7v7.3h-1.8V570h-2.7v-1.5h7.2V570z
		 M328.1,572.5c-0.2,0-0.4,0-0.6,0c-0.7,0-1.1,0.2-1.3,0.7v4.3h-1.7v-6.6h1.7l0,0.8c0.4-0.6,0.8-0.9,1.5-0.9c0.2,0,0.4,0,0.5,0.1
		L328.1,572.5z M332.6,577.4c-0.1-0.2-0.1-0.4-0.2-0.6c-0.4,0.5-1,0.7-1.7,0.7c-0.6,0-1.2-0.2-1.6-0.6c-0.4-0.4-0.6-0.8-0.6-1.4
		c0-0.7,0.3-1.2,0.8-1.6c0.5-0.4,1.3-0.6,2.2-0.6h0.8V573c0-0.3-0.1-0.5-0.2-0.7c-0.2-0.2-0.4-0.3-0.7-0.3c-0.3,0-0.5,0.1-0.7,0.2
		c-0.2,0.1-0.2,0.3-0.2,0.6h-1.7c0-0.4,0.1-0.7,0.4-1.1c0.2-0.3,0.6-0.6,1-0.8c0.4-0.2,0.9-0.3,1.4-0.3c0.8,0,1.4,0.2,1.9,0.6
		c0.5,0.4,0.7,1,0.7,1.7v2.8c0,0.6,0.1,1.1,0.3,1.4v0.1H332.6z M331.2,576.2c0.3,0,0.5-0.1,0.7-0.2c0.2-0.1,0.4-0.3,0.5-0.5v-1.1
		h-0.7c-0.9,0-1.3,0.3-1.4,0.9l0,0.1c0,0.2,0.1,0.4,0.2,0.5C330.7,576.1,330.9,576.2,331.2,576.2z M337.1,570.8l0.1,0.8
		c0.5-0.6,1.1-0.9,1.9-0.9c0.7,0,1.2,0.2,1.6,0.6c0.3,0.4,0.5,1,0.5,1.8v4.2h-1.7v-4.2c0-0.4-0.1-0.6-0.2-0.8
		c-0.2-0.2-0.4-0.3-0.8-0.3c-0.5,0-0.9,0.2-1.1,0.6v4.6h-1.8v-6.6H337.1z M346,575.6c0-0.2-0.1-0.4-0.3-0.5c-0.2-0.1-0.5-0.2-1-0.3
		c-1.6-0.3-2.3-1-2.3-2c0-0.6,0.2-1.1,0.7-1.5c0.5-0.4,1.1-0.6,1.9-0.6c0.8,0,1.5,0.2,2,0.6c0.5,0.4,0.8,0.9,0.8,1.5h-1.8
		c0-0.3-0.1-0.5-0.2-0.6c-0.2-0.2-0.4-0.2-0.8-0.2c-0.3,0-0.5,0.1-0.7,0.2c-0.2,0.1-0.2,0.3-0.2,0.5c0,0.2,0.1,0.4,0.3,0.5
		c0.2,0.1,0.5,0.2,0.9,0.3c0.4,0.1,0.8,0.2,1.1,0.3c0.9,0.3,1.4,0.9,1.4,1.8c0,0.6-0.3,1.1-0.8,1.5c-0.5,0.4-1.2,0.6-2,0.6
		c-0.5,0-1-0.1-1.5-0.3c-0.4-0.2-0.8-0.5-1-0.8c-0.2-0.3-0.4-0.7-0.4-1.1h1.7c0,0.3,0.1,0.5,0.3,0.7c0.2,0.2,0.5,0.2,0.9,0.2
		c0.3,0,0.6-0.1,0.8-0.2C345.9,575.9,346,575.8,346,575.6z M352.6,577.4c-0.1-0.2-0.1-0.4-0.2-0.6c-0.4,0.5-1,0.7-1.7,0.7
		c-0.6,0-1.2-0.2-1.6-0.6c-0.4-0.4-0.6-0.8-0.6-1.4c0-0.7,0.3-1.2,0.8-1.6c0.5-0.4,1.3-0.6,2.2-0.6h0.8V573c0-0.3-0.1-0.5-0.2-0.7
		c-0.2-0.2-0.4-0.3-0.7-0.3c-0.3,0-0.5,0.1-0.7,0.2c-0.2,0.1-0.2,0.3-0.2,0.6h-1.7c0-0.4,0.1-0.7,0.4-1.1c0.2-0.3,0.6-0.6,1-0.8
		c0.4-0.2,0.9-0.3,1.4-0.3c0.8,0,1.4,0.2,1.9,0.6c0.5,0.4,0.7,1,0.7,1.7v2.8c0,0.6,0.1,1.1,0.3,1.4v0.1H352.6z M351.1,576.2
		c0.3,0,0.5-0.1,0.7-0.2c0.2-0.1,0.4-0.3,0.5-0.5v-1.1h-0.7c-0.9,0-1.3,0.3-1.4,0.9l0,0.1c0,0.2,0.1,0.4,0.2,0.5
		C350.7,576.1,350.9,576.2,351.1,576.2z M358.2,576.1c0.3,0,0.6-0.1,0.8-0.3c0.2-0.2,0.3-0.4,0.3-0.7h1.6c0,0.4-0.1,0.9-0.4,1.2
		c-0.2,0.4-0.6,0.7-1,0.9c-0.4,0.2-0.9,0.3-1.4,0.3c-0.9,0-1.7-0.3-2.2-0.9c-0.5-0.6-0.8-1.4-0.8-2.5V574c0-1,0.3-1.8,0.8-2.4
		c0.5-0.6,1.3-0.9,2.2-0.9c0.8,0,1.5,0.2,2,0.7c0.5,0.5,0.7,1.1,0.8,1.9h-1.6c0-0.3-0.1-0.6-0.3-0.8c-0.2-0.2-0.5-0.3-0.8-0.3
		c-0.4,0-0.7,0.1-0.9,0.4c-0.2,0.3-0.3,0.8-0.3,1.4v0.2c0,0.7,0.1,1.2,0.3,1.5C357.4,575.9,357.8,576.1,358.2,576.1z M364,569.2v1.6
		h1.1v1.3H364v3.3c0,0.2,0,0.4,0.1,0.5c0.1,0.1,0.3,0.2,0.5,0.2c0.2,0,0.4,0,0.5,0v1.3c-0.3,0.1-0.7,0.2-1.1,0.2
		c-1.2,0-1.9-0.6-1.9-1.9v-3.5h-1v-1.3h1v-1.6H364z M368,577.4h-1.8v-6.6h1.8V577.4z M366.1,569.1c0-0.3,0.1-0.5,0.3-0.6
		c0.2-0.2,0.4-0.3,0.7-0.3c0.3,0,0.5,0.1,0.7,0.3c0.2,0.2,0.3,0.4,0.3,0.6c0,0.3-0.1,0.5-0.3,0.7c-0.2,0.2-0.4,0.3-0.7,0.3
		c-0.3,0-0.5-0.1-0.7-0.3C366.2,569.6,366.1,569.4,366.1,569.1z M369.1,574c0-0.6,0.1-1.2,0.4-1.7c0.3-0.5,0.6-0.9,1.1-1.2
		c0.5-0.3,1-0.4,1.6-0.4c0.9,0,1.6,0.3,2.2,0.8c0.6,0.5,0.9,1.3,0.9,2.2l0,0.4c0,1-0.3,1.8-0.8,2.4c-0.6,0.6-1.3,0.9-2.3,0.9
		s-1.7-0.3-2.3-0.9C369.4,576,369.1,575.2,369.1,574L369.1,574z M370.9,574.2c0,0.6,0.1,1.1,0.4,1.4c0.2,0.3,0.6,0.5,1,0.5
		c0.4,0,0.8-0.2,1-0.5c0.2-0.3,0.4-0.8,0.4-1.6c0-0.6-0.1-1.1-0.4-1.4c-0.2-0.3-0.6-0.5-1-0.5c-0.4,0-0.8,0.2-1,0.5
		C371,573,370.9,573.5,370.9,574.2z M378,570.8l0.1,0.8c0.5-0.6,1.1-0.9,1.9-0.9c0.7,0,1.2,0.2,1.6,0.6c0.3,0.4,0.5,1,0.5,1.8v4.2
		h-1.7v-4.2c0-0.4-0.1-0.6-0.2-0.8c-0.2-0.2-0.4-0.3-0.8-0.3c-0.5,0-0.9,0.2-1.1,0.6v4.6h-1.8v-6.6H378z"/>
	<line class="st12" x1="274.8" y1="590.3" x2="506.3" y2="590.3"/>
	<path class="st13" d="M467.9,575.3H467l-1.8-2.9v2.9h-0.9v-4.4h0.9l1.8,2.9v-2.9h0.9V575.3z M470.1,575.4c-0.5,0-0.9-0.1-1.2-0.4
		c-0.3-0.3-0.5-0.7-0.5-1.2v-0.1c0-0.3,0.1-0.6,0.2-0.9c0.1-0.3,0.3-0.5,0.5-0.6c0.2-0.1,0.5-0.2,0.8-0.2c0.4,0,0.8,0.1,1.1,0.4
		c0.3,0.3,0.4,0.7,0.4,1.2v0.4h-2.1c0,0.2,0.1,0.4,0.3,0.5c0.1,0.1,0.3,0.2,0.5,0.2c0.3,0,0.6-0.1,0.8-0.4l0.4,0.5
		c-0.1,0.2-0.3,0.3-0.5,0.4C470.6,575.3,470.4,575.4,470.1,575.4z M470,572.7c-0.2,0-0.3,0.1-0.4,0.2c-0.1,0.1-0.2,0.3-0.2,0.5h1.2
		v-0.1c0-0.2-0.1-0.3-0.2-0.4C470.4,572.7,470.2,572.7,470,572.7z M473.9,575.3c0-0.1-0.1-0.2-0.1-0.3c-0.2,0.2-0.5,0.4-0.8,0.4
		c-0.3,0-0.6-0.1-0.8-0.3c-0.2-0.2-0.3-0.4-0.3-0.7c0-0.3,0.1-0.6,0.4-0.8c0.3-0.2,0.6-0.3,1.1-0.3h0.4v-0.2c0-0.2,0-0.3-0.1-0.4
		c-0.1-0.1-0.2-0.1-0.4-0.1c-0.1,0-0.3,0-0.3,0.1c-0.1,0.1-0.1,0.2-0.1,0.3h-0.9c0-0.2,0.1-0.4,0.2-0.5c0.1-0.2,0.3-0.3,0.5-0.4
		c0.2-0.1,0.5-0.1,0.7-0.1c0.4,0,0.7,0.1,1,0.3c0.2,0.2,0.4,0.5,0.4,0.9v1.4c0,0.3,0,0.5,0.1,0.7v0.1H473.9z M473.1,574.7
		c0.1,0,0.2,0,0.4-0.1c0.1-0.1,0.2-0.1,0.2-0.2v-0.6h-0.3c-0.4,0-0.7,0.2-0.7,0.5l0,0.1c0,0.1,0,0.2,0.1,0.3
		C472.9,574.7,473,574.7,473.1,574.7z M477.1,572.9c-0.1,0-0.2,0-0.3,0c-0.3,0-0.5,0.1-0.7,0.3v2.1h-0.9V572h0.8l0,0.4
		c0.2-0.3,0.4-0.5,0.7-0.5c0.1,0,0.2,0,0.3,0L477.1,572.9z M480.5,573.7c0,0.5-0.1,0.9-0.3,1.2c-0.2,0.3-0.5,0.4-0.9,0.4
		c-0.4,0-0.6-0.1-0.9-0.4l0,0.3h-0.8v-4.7h0.9v1.7c0.2-0.2,0.5-0.4,0.8-0.4c0.4,0,0.7,0.1,0.9,0.4
		C480.4,572.7,480.5,573.1,480.5,573.7L480.5,573.7z M479.6,573.6c0-0.3-0.1-0.6-0.2-0.7c-0.1-0.2-0.3-0.2-0.5-0.2
		c-0.3,0-0.5,0.1-0.6,0.3v1.3c0.1,0.2,0.3,0.3,0.6,0.3c0.3,0,0.5-0.1,0.6-0.4C479.6,574.1,479.6,573.9,479.6,573.6z M482.2,574.1
		l0.6-2h0.9l-1.3,3.8l-0.1,0.2c-0.2,0.4-0.5,0.6-1,0.6c-0.1,0-0.3,0-0.4-0.1v-0.7l0.1,0c0.2,0,0.3,0,0.4-0.1
		c0.1-0.1,0.1-0.1,0.2-0.3l0.1-0.3l-1.1-3.3h0.9L482.2,574.1z M486.5,572.7h0.5c0.2,0,0.4-0.1,0.5-0.2c0.1-0.1,0.2-0.3,0.2-0.4
		c0-0.2-0.1-0.3-0.2-0.4c-0.1-0.1-0.3-0.1-0.4-0.1c-0.2,0-0.3,0-0.4,0.1c-0.1,0.1-0.2,0.2-0.2,0.4h-0.9c0-0.2,0.1-0.4,0.2-0.6
		c0.1-0.2,0.3-0.3,0.5-0.4c0.2-0.1,0.5-0.2,0.7-0.2c0.5,0,0.8,0.1,1.1,0.3c0.3,0.2,0.4,0.5,0.4,0.9c0,0.2-0.1,0.4-0.2,0.6
		c-0.1,0.2-0.3,0.3-0.5,0.4c0.2,0.1,0.4,0.2,0.6,0.4c0.1,0.2,0.2,0.4,0.2,0.6c0,0.4-0.1,0.7-0.4,0.9c-0.3,0.2-0.7,0.4-1.1,0.4
		c-0.4,0-0.8-0.1-1.1-0.3c-0.3-0.2-0.4-0.5-0.4-0.9h0.9c0,0.2,0.1,0.3,0.2,0.4c0.1,0.1,0.3,0.2,0.5,0.2c0.2,0,0.4-0.1,0.5-0.2
		c0.1-0.1,0.2-0.3,0.2-0.4c0-0.4-0.2-0.7-0.7-0.7h-0.5V572.7z M490.6,573.6c0-0.5,0.1-0.9,0.3-1.2c0.2-0.3,0.5-0.5,0.9-0.5
		c0.3,0,0.6,0.1,0.8,0.4v-1.7h0.9v4.7h-0.8l0-0.3c-0.2,0.3-0.5,0.4-0.8,0.4c-0.4,0-0.7-0.2-0.9-0.5
		C490.8,574.6,490.6,574.2,490.6,573.6z M491.5,573.7c0,0.3,0.1,0.5,0.2,0.7c0.1,0.2,0.3,0.2,0.5,0.2c0.3,0,0.5-0.1,0.6-0.3V573
		c-0.1-0.2-0.3-0.3-0.6-0.3C491.7,572.7,491.5,573,491.5,573.7z M496.2,575.3c0-0.1-0.1-0.2-0.1-0.3c-0.2,0.2-0.5,0.4-0.8,0.4
		c-0.3,0-0.6-0.1-0.8-0.3c-0.2-0.2-0.3-0.4-0.3-0.7c0-0.3,0.1-0.6,0.4-0.8c0.3-0.2,0.6-0.3,1.1-0.3h0.4v-0.2c0-0.2,0-0.3-0.1-0.4
		c-0.1-0.1-0.2-0.1-0.4-0.1c-0.1,0-0.3,0-0.3,0.1c-0.1,0.1-0.1,0.2-0.1,0.3h-0.9c0-0.2,0.1-0.4,0.2-0.5c0.1-0.2,0.3-0.3,0.5-0.4
		c0.2-0.1,0.5-0.1,0.7-0.1c0.4,0,0.7,0.1,1,0.3c0.2,0.2,0.4,0.5,0.4,0.9v1.4c0,0.3,0,0.5,0.1,0.7v0.1H496.2z M495.5,574.7
		c0.1,0,0.2,0,0.4-0.1c0.1-0.1,0.2-0.1,0.2-0.2v-0.6h-0.3c-0.4,0-0.7,0.2-0.7,0.5l0,0.1c0,0.1,0,0.2,0.1,0.3
		C495.2,574.7,495.3,574.7,495.5,574.7z M498.8,574.1l0.6-2h0.9l-1.3,3.8l-0.1,0.2c-0.2,0.4-0.5,0.6-1,0.6c-0.1,0-0.3,0-0.4-0.1
		v-0.7l0.1,0c0.2,0,0.3,0,0.4-0.1c0.1-0.1,0.1-0.1,0.2-0.3l0.1-0.3l-1.1-3.3h0.9L498.8,574.1z M502.4,574.4c0-0.1-0.1-0.2-0.2-0.3
		c-0.1-0.1-0.3-0.1-0.5-0.2c-0.8-0.2-1.2-0.5-1.2-1c0-0.3,0.1-0.5,0.4-0.7c0.2-0.2,0.6-0.3,0.9-0.3c0.4,0,0.7,0.1,1,0.3
		c0.3,0.2,0.4,0.4,0.4,0.8h-0.9c0-0.1,0-0.2-0.1-0.3c-0.1-0.1-0.2-0.1-0.4-0.1c-0.1,0-0.3,0-0.3,0.1c-0.1,0.1-0.1,0.2-0.1,0.3
		c0,0.1,0,0.2,0.1,0.2c0.1,0.1,0.2,0.1,0.5,0.2c0.2,0,0.4,0.1,0.6,0.1c0.5,0.2,0.7,0.5,0.7,0.9c0,0.3-0.1,0.5-0.4,0.7
		c-0.3,0.2-0.6,0.3-1,0.3c-0.3,0-0.5,0-0.7-0.1c-0.2-0.1-0.4-0.2-0.5-0.4c-0.1-0.2-0.2-0.4-0.2-0.6h0.8c0,0.2,0.1,0.3,0.2,0.4
		c0.1,0.1,0.3,0.1,0.4,0.1c0.2,0,0.3,0,0.4-0.1C502.4,574.6,502.4,574.5,502.4,574.4z"/>
	<path d="M275.6,612.5v-8.8h3.1c1.1,0,1.9,0.2,2.4,0.6c0.6,0.4,0.8,1,0.8,1.8c0,0.4-0.1,0.8-0.3,1.1c-0.2,0.3-0.5,0.6-0.9,0.7
		c0.5,0.1,0.8,0.3,1.1,0.7c0.3,0.3,0.4,0.8,0.4,1.3c0,0.8-0.3,1.5-0.8,1.9c-0.5,0.4-1.3,0.7-2.3,0.7H275.6z M277.4,608.7v2.4h1.6
		c0.4,0,0.8-0.1,1-0.3c0.2-0.2,0.4-0.5,0.4-0.8c0-0.8-0.4-1.2-1.3-1.2H277.4z M277.4,607.4h1.3c0.9,0,1.4-0.4,1.4-1.1
		c0-0.4-0.1-0.7-0.4-0.9c-0.2-0.2-0.6-0.3-1.1-0.3h-1.3V607.4z M285.2,612.5h-1.8v-9.3h1.8V612.5z M286.4,609.2
		c0-0.6,0.1-1.2,0.4-1.7c0.3-0.5,0.6-0.9,1.1-1.2c0.5-0.3,1-0.4,1.6-0.4c0.9,0,1.6,0.3,2.2,0.8c0.6,0.5,0.9,1.3,0.9,2.2l0,0.4
		c0,1-0.3,1.8-0.8,2.4c-0.6,0.6-1.3,0.9-2.3,0.9c-0.9,0-1.7-0.3-2.3-0.9C286.7,611.1,286.4,610.3,286.4,609.2L286.4,609.2z
		 M288.1,609.3c0,0.6,0.1,1.1,0.4,1.4c0.2,0.3,0.6,0.5,1,0.5c0.4,0,0.8-0.2,1-0.5c0.2-0.3,0.4-0.8,0.4-1.6c0-0.6-0.1-1.1-0.4-1.4
		c-0.2-0.3-0.6-0.5-1-0.5c-0.4,0-0.8,0.2-1,0.5C288.2,608.1,288.1,608.6,288.1,609.3z M296.4,611.2c0.3,0,0.6-0.1,0.8-0.3
		c0.2-0.2,0.3-0.4,0.3-0.7h1.6c0,0.4-0.1,0.9-0.4,1.2c-0.2,0.4-0.6,0.7-1,0.9c-0.4,0.2-0.9,0.3-1.4,0.3c-0.9,0-1.7-0.3-2.2-0.9
		c-0.5-0.6-0.8-1.4-0.8-2.5v-0.1c0-1,0.3-1.8,0.8-2.4c0.5-0.6,1.3-0.9,2.2-0.9c0.8,0,1.5,0.2,2,0.7c0.5,0.5,0.7,1.1,0.8,1.9h-1.6
		c0-0.3-0.1-0.6-0.3-0.8c-0.2-0.2-0.5-0.3-0.8-0.3c-0.4,0-0.7,0.1-0.9,0.4c-0.2,0.3-0.3,0.8-0.3,1.4v0.2c0,0.7,0.1,1.2,0.3,1.5
		C295.7,611.1,296,611.2,296.4,611.2z M302.5,609.9l-0.6,0.6v2h-1.7v-9.3h1.7v5.2l0.3-0.4l1.7-2h2.1l-2.4,2.7l2.6,3.8h-2
		L302.5,609.9z M309.4,611.2c0.3,0,0.6-0.1,0.8-0.3c0.2-0.2,0.3-0.4,0.3-0.7h1.6c0,0.4-0.1,0.9-0.4,1.2c-0.2,0.4-0.6,0.7-1,0.9
		c-0.4,0.2-0.9,0.3-1.4,0.3c-0.9,0-1.7-0.3-2.2-0.9c-0.5-0.6-0.8-1.4-0.8-2.5v-0.1c0-1,0.3-1.8,0.8-2.4c0.5-0.6,1.3-0.9,2.2-0.9
		c0.8,0,1.5,0.2,2,0.7c0.5,0.5,0.7,1.1,0.8,1.9h-1.6c0-0.3-0.1-0.6-0.3-0.8c-0.2-0.2-0.5-0.3-0.8-0.3c-0.4,0-0.7,0.1-0.9,0.4
		c-0.2,0.3-0.3,0.8-0.3,1.4v0.2c0,0.7,0.1,1.2,0.3,1.5C308.6,611.1,308.9,611.2,309.4,611.2z M314.8,606.7c0.5-0.6,1-0.8,1.7-0.8
		c1.4,0,2.1,0.8,2.2,2.5v4.2H317v-4.1c0-0.4-0.1-0.7-0.2-0.8c-0.2-0.2-0.4-0.3-0.8-0.3c-0.5,0-0.9,0.2-1.1,0.6v4.7h-1.7v-9.3h1.7
		V606.7z M323.8,612.5c-0.1-0.2-0.1-0.4-0.2-0.6c-0.4,0.5-1,0.7-1.7,0.7c-0.6,0-1.2-0.2-1.6-0.6c-0.4-0.4-0.6-0.8-0.6-1.4
		c0-0.7,0.3-1.2,0.8-1.6c0.5-0.4,1.3-0.6,2.2-0.6h0.8v-0.4c0-0.3-0.1-0.5-0.2-0.7c-0.2-0.2-0.4-0.3-0.7-0.3c-0.3,0-0.5,0.1-0.7,0.2
		c-0.2,0.1-0.2,0.3-0.2,0.6h-1.8c0-0.4,0.1-0.7,0.4-1.1c0.2-0.3,0.6-0.6,1-0.8c0.4-0.2,0.9-0.3,1.4-0.3c0.8,0,1.4,0.2,1.9,0.6
		c0.5,0.4,0.7,1,0.7,1.7v2.8c0,0.6,0.1,1.1,0.3,1.4v0.1H323.8z M322.4,611.3c0.3,0,0.5-0.1,0.7-0.2c0.2-0.1,0.4-0.3,0.5-0.5v-1.1
		h-0.7c-0.9,0-1.3,0.3-1.4,0.9l0,0.1c0,0.2,0.1,0.4,0.2,0.5C321.9,611.2,322.1,611.3,322.4,611.3z M328.5,612.5h-1.8V606h1.8V612.5z
		 M326.7,604.3c0-0.3,0.1-0.5,0.3-0.6c0.2-0.2,0.4-0.3,0.7-0.3c0.3,0,0.5,0.1,0.7,0.3s0.3,0.4,0.3,0.6c0,0.3-0.1,0.5-0.3,0.7
		c-0.2,0.2-0.4,0.3-0.7,0.3c-0.3,0-0.5-0.1-0.7-0.3C326.8,604.8,326.7,604.5,326.7,604.3z M331.6,606l0.1,0.8
		c0.5-0.6,1.1-0.9,1.9-0.9c0.7,0,1.2,0.2,1.6,0.6c0.3,0.4,0.5,1,0.5,1.8v4.2h-1.7v-4.2c0-0.4-0.1-0.6-0.2-0.8
		c-0.2-0.2-0.4-0.3-0.8-0.3c-0.5,0-0.9,0.2-1.1,0.6v4.6H330V606H331.6z M345.1,610.7h-3.2l-0.6,1.8h-1.9l3.3-8.8h1.7l3.3,8.8h-1.9
		L345.1,610.7z M342.4,609.2h2.2l-1.1-3.3L342.4,609.2z M349.7,606l0.1,0.8c0.5-0.6,1.1-0.9,1.9-0.9c0.7,0,1.2,0.2,1.6,0.6
		c0.3,0.4,0.5,1,0.5,1.8v4.2H352v-4.2c0-0.4-0.1-0.6-0.2-0.8c-0.2-0.2-0.4-0.3-0.8-0.3c-0.5,0-0.9,0.2-1.1,0.6v4.6H348V606H349.7z
		 M358.8,612.5c-0.1-0.2-0.1-0.4-0.2-0.6c-0.4,0.5-1,0.7-1.7,0.7c-0.6,0-1.2-0.2-1.6-0.6c-0.4-0.4-0.6-0.8-0.6-1.4
		c0-0.7,0.3-1.2,0.8-1.6c0.5-0.4,1.3-0.6,2.2-0.6h0.8v-0.4c0-0.3-0.1-0.5-0.2-0.7c-0.2-0.2-0.4-0.3-0.7-0.3c-0.3,0-0.5,0.1-0.7,0.2
		c-0.2,0.1-0.2,0.3-0.2,0.6h-1.7c0-0.4,0.1-0.7,0.4-1.1c0.2-0.3,0.6-0.6,1-0.8c0.4-0.2,0.9-0.3,1.4-0.3c0.8,0,1.4,0.2,1.9,0.6
		c0.5,0.4,0.7,1,0.7,1.7v2.8c0,0.6,0.1,1.1,0.3,1.4v0.1H358.8z M357.4,611.3c0.3,0,0.5-0.1,0.7-0.2c0.2-0.1,0.4-0.3,0.5-0.5v-1.1
		h-0.7c-0.9,0-1.3,0.3-1.4,0.9l0,0.1c0,0.2,0.1,0.4,0.2,0.5C356.9,611.2,357.1,611.3,357.4,611.3z M363.5,612.5h-1.8v-9.3h1.8V612.5
		z M367.4,610l1.2-4.1h1.9l-2.6,7.6l-0.1,0.3c-0.4,0.9-1,1.3-1.9,1.3c-0.3,0-0.5,0-0.8-0.1v-1.3l0.3,0c0.3,0,0.6-0.1,0.7-0.2
		c0.2-0.1,0.3-0.3,0.4-0.5l0.2-0.5l-2.3-6.6h1.9L367.4,610z M374.8,610.7c0-0.2-0.1-0.4-0.3-0.5c-0.2-0.1-0.5-0.2-1-0.3
		c-1.6-0.3-2.3-1-2.3-2c0-0.6,0.2-1.1,0.7-1.5c0.5-0.4,1.1-0.6,1.9-0.6c0.8,0,1.5,0.2,2,0.6c0.5,0.4,0.8,0.9,0.8,1.5h-1.7
		c0-0.3-0.1-0.5-0.2-0.6c-0.2-0.2-0.4-0.2-0.8-0.2c-0.3,0-0.5,0.1-0.7,0.2c-0.2,0.1-0.2,0.3-0.2,0.5c0,0.2,0.1,0.4,0.3,0.5
		c0.2,0.1,0.5,0.2,0.9,0.3c0.4,0.1,0.8,0.2,1.1,0.3c0.9,0.3,1.4,0.9,1.4,1.8c0,0.6-0.3,1.1-0.8,1.5c-0.5,0.4-1.2,0.6-2,0.6
		c-0.5,0-1-0.1-1.5-0.3c-0.4-0.2-0.8-0.5-1-0.8c-0.2-0.3-0.4-0.7-0.4-1.1h1.7c0,0.3,0.1,0.5,0.3,0.7c0.2,0.2,0.5,0.2,0.9,0.2
		c0.3,0,0.6-0.1,0.8-0.2C374.7,611.1,374.8,610.9,374.8,610.7z M379.4,612.5h-1.8V606h1.8V612.5z M377.6,604.3
		c0-0.3,0.1-0.5,0.3-0.6c0.2-0.2,0.4-0.3,0.7-0.3c0.3,0,0.5,0.1,0.7,0.3c0.2,0.2,0.3,0.4,0.3,0.6c0,0.3-0.1,0.5-0.3,0.7
		c-0.2,0.2-0.4,0.3-0.7,0.3c-0.3,0-0.5-0.1-0.7-0.3C377.7,604.8,377.6,604.5,377.6,604.3z M384.4,610.7c0-0.2-0.1-0.4-0.3-0.5
		c-0.2-0.1-0.5-0.2-1-0.3c-1.6-0.3-2.3-1-2.3-2c0-0.6,0.2-1.1,0.7-1.5c0.5-0.4,1.1-0.6,1.9-0.6c0.8,0,1.5,0.2,2,0.6
		c0.5,0.4,0.8,0.9,0.8,1.5h-1.7c0-0.3-0.1-0.5-0.2-0.6c-0.2-0.2-0.4-0.2-0.8-0.2c-0.3,0-0.5,0.1-0.7,0.2c-0.2,0.1-0.2,0.3-0.2,0.5
		c0,0.2,0.1,0.4,0.3,0.5c0.2,0.1,0.5,0.2,0.9,0.3c0.4,0.1,0.8,0.2,1.1,0.3c0.9,0.3,1.4,0.9,1.4,1.8c0,0.6-0.3,1.1-0.8,1.5
		c-0.5,0.4-1.2,0.6-2,0.6c-0.5,0-1-0.1-1.5-0.3c-0.4-0.2-0.8-0.5-1-0.8c-0.2-0.3-0.4-0.7-0.4-1.1h1.7c0,0.3,0.1,0.5,0.3,0.7
		c0.2,0.2,0.5,0.2,0.9,0.2c0.3,0,0.6-0.1,0.8-0.2C384.3,611.1,384.4,610.9,384.4,610.7z M393.7,609.3h-1.4v3.2h-1.8v-8.8h3.3
		c1,0,1.8,0.2,2.4,0.7c0.6,0.5,0.8,1.1,0.8,2c0,0.6-0.1,1.1-0.4,1.5c-0.3,0.4-0.7,0.7-1.2,1l1.9,3.6v0.1h-2L393.7,609.3z
		 M392.3,607.8h1.5c0.5,0,0.8-0.1,1.1-0.3c0.3-0.2,0.4-0.6,0.4-1c0-0.4-0.1-0.7-0.4-1c-0.2-0.2-0.6-0.4-1.1-0.4h-1.5V607.8z
		 M401.3,612.6c-1,0-1.7-0.3-2.4-0.9c-0.6-0.6-0.9-1.4-0.9-2.4v-0.2c0-0.7,0.1-1.2,0.4-1.8c0.3-0.5,0.6-0.9,1.1-1.2
		c0.5-0.3,1-0.4,1.6-0.4c0.9,0,1.6,0.3,2.1,0.8c0.5,0.6,0.8,1.4,0.8,2.4v0.7h-4.2c0.1,0.4,0.2,0.8,0.5,1c0.3,0.3,0.6,0.4,1.1,0.4
		c0.7,0,1.2-0.2,1.6-0.7l0.9,1c-0.3,0.4-0.6,0.7-1.1,0.9C402.3,612.5,401.8,612.6,401.3,612.6z M401.1,607.3c-0.3,0-0.6,0.1-0.8,0.4
		c-0.2,0.2-0.4,0.6-0.4,1h2.4v-0.1c0-0.4-0.1-0.7-0.3-0.9C401.8,607.4,401.5,607.3,401.1,607.3z M410.9,609.3c0,1-0.2,1.8-0.7,2.4
		c-0.5,0.6-1.1,0.9-1.9,0.9c-0.7,0-1.2-0.2-1.6-0.7v3.1H405V606h1.6l0.1,0.6c0.4-0.5,1-0.8,1.7-0.8c0.8,0,1.4,0.3,1.9,0.9
		C410.7,607.3,410.9,608.2,410.9,609.3L410.9,609.3z M409.1,609.2c0-0.6-0.1-1.1-0.3-1.4c-0.2-0.3-0.5-0.5-0.9-0.5
		c-0.5,0-0.9,0.2-1.1,0.6v2.7c0.2,0.4,0.6,0.6,1.1,0.6C408.7,611.2,409.1,610.5,409.1,609.2z M411.7,609.2c0-0.6,0.1-1.2,0.4-1.7
		c0.3-0.5,0.6-0.9,1.1-1.2c0.5-0.3,1-0.4,1.6-0.4c0.9,0,1.6,0.3,2.2,0.8c0.6,0.5,0.9,1.3,0.9,2.2l0,0.4c0,1-0.3,1.8-0.8,2.4
		c-0.6,0.6-1.3,0.9-2.3,0.9c-0.9,0-1.7-0.3-2.3-0.9C412,611.1,411.7,610.3,411.7,609.2L411.7,609.2z M413.5,609.3
		c0,0.6,0.1,1.1,0.4,1.4c0.2,0.3,0.6,0.5,1,0.5c0.4,0,0.8-0.2,1-0.5c0.2-0.3,0.4-0.8,0.4-1.6c0-0.6-0.1-1.1-0.4-1.4
		c-0.2-0.3-0.6-0.5-1-0.5c-0.4,0-0.8,0.2-1,0.5C413.6,608.1,413.5,608.6,413.5,609.3z M422.7,607.6c-0.2,0-0.4,0-0.6,0
		c-0.7,0-1.1,0.2-1.3,0.7v4.3H419V606h1.7l0,0.8c0.4-0.6,0.8-0.9,1.5-0.9c0.2,0,0.4,0,0.5,0.1L422.7,607.6z M425.9,604.4v1.6h1.1
		v1.3h-1.1v3.3c0,0.2,0,0.4,0.1,0.5c0.1,0.1,0.3,0.2,0.5,0.2c0.2,0,0.4,0,0.5,0v1.3c-0.3,0.1-0.7,0.2-1.1,0.2
		c-1.2,0-1.9-0.6-1.9-1.9v-3.5h-1V606h1v-1.6H425.9z"/>
	<path class="st14" d="M460.7,612.5h-1.5v-5.6l-1.7,0.5v-1.2l3-1.1h0.2V612.5z M467.1,605.1v1.2h-0.1c-0.7,0-1.2,0.2-1.6,0.5
		c-0.4,0.3-0.6,0.8-0.7,1.4c0.4-0.4,0.9-0.6,1.5-0.6c0.6,0,1.1,0.2,1.5,0.7c0.4,0.5,0.6,1.1,0.6,1.8c0,0.5-0.1,0.9-0.3,1.3
		c-0.2,0.4-0.5,0.7-0.9,0.9c-0.4,0.2-0.8,0.3-1.3,0.3c-0.8,0-1.4-0.3-1.9-0.8c-0.5-0.5-0.7-1.3-0.7-2.2v-0.5c0-0.8,0.1-1.5,0.4-2.1
		c0.3-0.6,0.7-1.1,1.3-1.4c0.6-0.3,1.2-0.5,2-0.5H467.1z M465.6,608.8c-0.2,0-0.4,0.1-0.6,0.2c-0.2,0.1-0.3,0.3-0.4,0.5v0.4
		c0,0.5,0.1,0.9,0.3,1.1c0.2,0.3,0.5,0.4,0.8,0.4c0.3,0,0.6-0.1,0.8-0.4c0.2-0.2,0.3-0.6,0.3-1c0-0.4-0.1-0.7-0.3-1
		C466.2,608.9,466,608.8,465.6,608.8z M469.2,611.8c0-0.2,0.1-0.4,0.2-0.6c0.2-0.1,0.4-0.2,0.6-0.2c0.2,0,0.4,0.1,0.6,0.2
		c0.2,0.1,0.2,0.3,0.2,0.6c0,0.2-0.1,0.4-0.2,0.6c-0.2,0.1-0.4,0.2-0.6,0.2c-0.2,0-0.4-0.1-0.6-0.2
		C469.3,612.2,469.2,612,469.2,611.8z M477,609.5c0,1-0.2,1.8-0.6,2.3c-0.4,0.5-1,0.8-1.8,0.8c-0.8,0-1.4-0.3-1.8-0.8
		c-0.4-0.5-0.6-1.3-0.7-2.3v-1.4c0-1,0.2-1.8,0.6-2.3c0.4-0.5,1-0.8,1.8-0.8c0.8,0,1.4,0.3,1.8,0.8c0.4,0.5,0.6,1.3,0.7,2.3V609.5z
		 M475.5,608c0-0.6-0.1-1.1-0.3-1.3c-0.2-0.3-0.4-0.4-0.8-0.4c-0.3,0-0.6,0.1-0.8,0.4c-0.2,0.3-0.2,0.7-0.3,1.2v1.8
		c0,0.6,0.1,1,0.2,1.3c0.2,0.3,0.4,0.4,0.8,0.4c0.4,0,0.6-0.1,0.8-0.4c0.2-0.3,0.2-0.7,0.2-1.3V608z M482.9,609.5
		c0,1-0.2,1.8-0.6,2.3c-0.4,0.5-1,0.8-1.8,0.8c-0.8,0-1.4-0.3-1.8-0.8c-0.4-0.5-0.6-1.3-0.7-2.3v-1.4c0-1,0.2-1.8,0.6-2.3
		c0.4-0.5,1-0.8,1.8-0.8c0.8,0,1.4,0.3,1.8,0.8c0.4,0.5,0.6,1.3,0.7,2.3V609.5z M481.5,608c0-0.6-0.1-1.1-0.3-1.3
		c-0.2-0.3-0.4-0.4-0.8-0.4c-0.3,0-0.6,0.1-0.8,0.4c-0.2,0.3-0.2,0.7-0.3,1.2v1.8c0,0.6,0.1,1,0.2,1.3c0.2,0.3,0.4,0.4,0.8,0.4
		c0.4,0,0.6-0.1,0.8-0.4c0.2-0.3,0.2-0.7,0.2-1.3V608z M491.1,609.3h-2.9v2h3.4v1.2h-4.9v-7.3h4.9v1.2h-3.4v1.8h2.9V609.3z
		 M498.1,606.4h-2.3v6.1h-1.5v-6.1h-2.2v-1.2h6V606.4z M504.9,612.5h-1.5v-3.1h-3v3.1H499v-7.3h1.5v3h3v-3h1.5V612.5z"/>
	<g>
		
			<image style="overflow:visible;opacity:0.75;" width="225" height="84" xlink:href="7B46D8A2.png"  transform="matrix(1 0 0 1 154.9921 380.9921)">
		</image>
		<g>
			<g>
				<path class="st15" d="M346.3,444.4H182.8c-7.2,0-13.1-5.9-13.1-13.1v-21.7c0-7.2,5.9-13.1,13.1-13.1h163.4
					c7.2,0,13.1,5.9,13.1,13.1v21.7C359.4,438.5,353.5,444.4,346.3,444.4z"/>
				<path class="st16" d="M205,432.8h-13.2c-2.9,0-5.3-2.4-5.3-5.3v-13.2c0-2.9,2.4-5.3,5.3-5.3H205c2.9,0,5.3,2.4,5.3,5.3v13.2
					C210.3,430.4,207.9,432.8,205,432.8z"/>
				<polygon class="st15" points="193.5,419.5 201.9,417.4 199.8,425.8 197.7,421.6 				"/>
				<text transform="matrix(1 0 0 1 217.3931 418.391)" class="st17 st18">Thanks for visiting our Portofolio !</text>
				<text transform="matrix(1 0 0 1 225.3663 429.0458)" class="st19 st17 st20">Just now</text>
				<circle class="st19" cx="220.1" cy="426.5" r="3.1"/>
				<polyline class="st21" points="219.8,424.8 219.8,426.9 221.9,426.9 				"/>
			</g>
		</g>
	</g>
	<g>
		
			<image style="overflow:visible;opacity:0.75;" width="337" height="106" xlink:href="D13D5024.png"  transform="matrix(1 0 0 1 72.9921 535.9921)">
		</image>
		<g>
			<g>
				<path class="st8" d="M370.6,621.3h-264c-10.4,0-18.8-8.4-18.8-18.8V569c0-10.4,8.4-18.8,18.8-18.8h264
					c10.4,0,18.8,8.4,18.8,18.8v33.5C389.3,612.9,380.9,621.3,370.6,621.3z"/>
				<path class="st22" d="M327.7,603.4H115.3c-0.7,0-1.2-0.5-1.2-1.2v-2c0-0.7,0.5-1.2,1.2-1.2h212.4c0.7,0,1.2,0.5,1.2,1.2v2
					C328.9,602.9,328.4,603.4,327.7,603.4z"/>
				<path class="st23" d="M289.7,603.4H114.2c-0.7,0-1.2-0.5-1.2-1.2v-2c0-0.7,0.5-1.2,1.2-1.2h175.5c0.7,0,1.2,0.5,1.2,1.2v2
					C290.9,602.9,290.3,603.4,289.7,603.4z"/>
				<text transform="matrix(1 0 0 1 343.1718 603.1633)" class="st17 st24">75%</text>
				<text transform="matrix(1 0 0 1 113.6313 577.7438)" class="st17 st25">Download dependencies - Walet</text>
			</g>
		</g>
	</g>
	<g>
		
			<image style="overflow:visible;opacity:0.75;" width="282" height="181" xlink:href="D13D5023.png"  transform="matrix(1 0 0 1 458.9921 103.9921)">
		</image>
		<g>
			<g>
				<path class="st8" d="M704.9,264.5H490c-8.9,0-16.2-7.2-16.2-16.2V134.7c0-8.9,7.2-16.2,16.2-16.2h214.9
					c8.9,0,16.2,7.2,16.2,16.2v113.7C721.1,257.3,713.8,264.5,704.9,264.5z"/>
				<path class="st26" d="M497.9,167.7c9.8,9.6,16.7,10.8,21.3,10.1c8.1-1.2,9.4-8.4,20.1-12.3c9.6-3.5,12.2,1,22.4-1.1
					c17-3.6,17-17.5,30.2-19c13.3-1.5,17.4,12.1,33.6,11.2c10.3-0.6,12.7-6.3,22.4-9c9.3-2.5,23.8-1.8,45.9,14.5"/>
				<circle class="st27" cx="629.3" cy="156" r="3.4"/>
				<text transform="matrix(1 0 0 1 498.0338 220.6786)" class="st17 st28">18,254</text>
				<text transform="matrix(1 0 0 1 498.4919 239.0048)" class="st17 st29">Sales this year</text>
				<text transform="matrix(1 0 0 1 650.2101 213.8549)" class="st30 st17 st31">25.5%</text>
			</g>
		</g>
	</g>
</g>
</svg>
