<svg id="a9784a21-b506-4143-b7f9-3268738cbfe1" data-name="Layer 1" xmlns="http://www.w3.org/2000/svg" viewBox="0 0 257.9 336.87"><title>Project</title><rect y="11.65" width="229.91" height="325.22" style="fill:#47c6e2"/><polygon points="27.98 336.87 11.36 336.87 0 11.65 16.63 11.65 27.98 336.87" style="fill:#c7c7c6"/><polygon points="257.9 336.87 27.98 336.87 16.63 11.65 246.54 11.65 257.9 336.87" style="fill:#ebebeb"/><polygon points="34.88 61.15 59.48 60.91 84.08 60.77 133.29 60.65 182.51 60.77 207.12 60.91 231.74 61.15 207.14 61.39 182.54 61.53 133.33 61.65 84.11 61.53 59.5 61.39 34.88 61.15" style="fill:#dcdbdb"/><polygon points="35.44 77.11 60.04 76.87 84.64 76.73 133.85 76.61 183.07 76.73 207.68 76.87 232.29 77.11 207.7 77.36 183.09 77.5 133.89 77.61 84.67 77.49 60.06 77.36 35.44 77.11" style="fill:#dcdbdb"/><polygon points="36 93.07 60.6 92.83 85.2 92.69 134.41 92.57 183.63 92.69 208.24 92.83 232.85 93.07 208.25 93.32 183.65 93.46 134.44 93.57 85.23 93.46 60.61 93.32 36 93.07" style="fill:#dcdbdb"/><polygon points="36.56 109.03 61.16 108.79 85.76 108.65 134.97 108.54 184.18 108.65 208.79 108.79 233.41 109.03 208.81 109.28 184.21 109.42 135 109.53 85.78 109.42 61.17 109.28 36.56 109.03" style="fill:#dcdbdb"/><polygon points="37.11 125 61.71 124.75 86.31 124.61 135.52 124.5 184.74 124.61 209.35 124.75 233.97 125 209.37 125.24 184.77 125.38 135.56 125.5 86.34 125.38 61.73 125.24 37.11 125" style="fill:#dcdbdb"/><polygon points="37.67 140.96 62.27 140.72 86.87 140.58 136.08 140.46 185.3 140.57 209.91 140.72 234.52 140.96 209.93 141.2 185.32 141.34 136.12 141.46 86.9 141.34 62.29 141.2 37.67 140.96" style="fill:#dcdbdb"/><polygon points="38.23 156.92 62.83 156.68 87.43 156.54 136.64 156.42 185.85 156.54 210.47 156.68 235.08 156.92 210.48 157.17 185.88 157.31 136.67 157.42 87.45 157.3 62.84 157.16 38.23 156.92" style="fill:#dcdbdb"/><polygon points="38.79 172.88 63.38 172.64 87.99 172.5 137.19 172.38 186.41 172.5 211.02 172.64 235.64 172.88 211.04 173.13 186.44 173.27 137.23 173.38 88.01 173.27 63.4 173.13 38.79 172.88" style="fill:#dcdbdb"/><polygon points="39.34 188.84 63.94 188.6 88.54 188.46 137.75 188.35 186.97 188.46 211.58 188.6 236.2 188.84 211.6 189.09 187 189.23 137.79 189.34 88.57 189.23 63.96 189.09 39.34 188.84" style="fill:#dcdbdb"/><polygon points="39.9 204.81 64.5 204.56 89.1 204.42 138.31 204.31 187.53 204.42 212.14 204.56 236.75 204.81 212.16 205.05 187.55 205.19 138.34 205.31 89.13 205.19 64.52 205.05 39.9 204.81" style="fill:#dcdbdb"/><polygon points="40.46 220.77 65.06 220.53 89.66 220.39 138.87 220.27 188.09 220.38 212.7 220.52 237.31 220.77 212.71 221.01 188.11 221.15 138.9 221.27 89.69 221.15 65.07 221.01 40.46 220.77" style="fill:#dcdbdb"/><polygon points="41.02 236.73 65.61 236.49 90.22 236.35 139.43 236.23 188.64 236.35 213.25 236.49 237.87 236.73 213.27 236.98 188.67 237.12 139.46 237.23 90.24 237.11 65.63 236.97 41.02 236.73" style="fill:#dcdbdb"/><polygon points="41.57 252.69 66.17 252.45 90.77 252.31 139.98 252.19 189.2 252.31 213.81 252.45 238.43 252.69 213.83 252.94 189.23 253.08 140.02 253.19 90.8 253.08 66.19 252.94 41.57 252.69" style="fill:#dcdbdb"/><polygon points="42.13 268.65 66.73 268.41 91.33 268.27 140.54 268.16 189.76 268.27 214.37 268.41 238.98 268.65 214.39 268.9 189.78 269.04 140.57 269.15 91.36 269.04 66.75 268.9 42.13 268.65" style="fill:#dcdbdb"/><polygon points="42.69 284.62 67.29 284.37 91.89 284.23 141.1 284.12 190.31 284.23 214.93 284.37 239.54 284.62 214.94 284.86 190.34 285 141.13 285.12 91.92 285 67.3 284.86 42.69 284.62" style="fill:#dcdbdb"/><polygon points="43.24 300.58 67.84 300.34 92.44 300.2 141.66 300.08 190.87 300.19 215.48 300.33 240.1 300.58 215.5 300.82 190.9 300.96 141.69 301.08 92.47 300.96 67.86 300.82 43.24 300.58" style="fill:#dcdbdb"/><polygon points="43.8 316.54 68.4 316.3 93 316.16 142.21 316.04 191.43 316.16 216.04 316.3 240.66 316.54 216.06 316.79 191.46 316.93 142.25 317.04 93.03 316.92 68.42 316.78 43.8 316.54" style="fill:#dcdbdb"/><path d="M323.57,55.9a2.7,2.7,0,0,1-2.71,2.81A2.93,2.93,0,0,1,318,55.9a2.69,2.69,0,0,1,2.71-2.81A2.94,2.94,0,0,1,323.57,55.9Z" transform="translate(-291.67 -32.08)" style="fill:#263238"/><path d="M327.29,43.72c.57,4.78-1,9.7-5.1,12.39-1.77,1.21-3.62-1.76-1.84-2.9a9.2,9.2,0,0,0,3.69-7.8,16.07,16.07,0,0,0-.15-1.69,13.2,13.2,0,0,0-2.06-5.79,4.86,4.86,0,0,0-3.92-2.41,3.81,3.81,0,0,0-3.17,2.31,14.57,14.57,0,0,0-1.19,5.89h-3.4a17.23,17.23,0,0,1,.8-5.86c1.07-3.09,3.25-5.65,6.78-5.78,3.19-.07,5.82,2.22,7.38,4.85A15.6,15.6,0,0,1,327.29,43.72Z" transform="translate(-291.67 -32.08)" style="fill:#455b64"/><path d="M342.35,55.9a2.69,2.69,0,0,1-2.71,2.81,2.92,2.92,0,0,1-2.9-2.81,2.69,2.69,0,0,1,2.71-2.81A2.92,2.92,0,0,1,342.35,55.9Z" transform="translate(-291.67 -32.08)" style="fill:#263238"/><path d="M346.07,43.72c.58,4.78-1,9.7-5.09,12.39-1.77,1.21-3.62-1.76-1.84-2.9a9.2,9.2,0,0,0,3.69-7.8,16.07,16.07,0,0,0-.15-1.69,13.2,13.2,0,0,0-2.06-5.79,4.86,4.86,0,0,0-3.92-2.41,3.81,3.81,0,0,0-3.17,2.31,14.57,14.57,0,0,0-1.19,5.89h-3.4a17.23,17.23,0,0,1,.8-5.86c1.07-3.09,3.25-5.65,6.78-5.78,3.19-.07,5.82,2.22,7.38,4.85A15.45,15.45,0,0,1,346.07,43.72Z" transform="translate(-291.67 -32.08)" style="fill:#455b64"/><path d="M361.14,55.9a2.69,2.69,0,0,1-2.71,2.81,2.94,2.94,0,0,1-2.91-2.81,2.7,2.7,0,0,1,2.72-2.81A2.92,2.92,0,0,1,361.14,55.9Z" transform="translate(-291.67 -32.08)" style="fill:#263238"/><path d="M364.86,43.72c.58,4.78-1,9.7-5.09,12.39-1.77,1.21-3.62-1.76-1.84-2.9a9.2,9.2,0,0,0,3.69-7.8,13.8,13.8,0,0,0-.16-1.69,13.06,13.06,0,0,0-2-5.79,4.86,4.86,0,0,0-3.92-2.41,3.81,3.81,0,0,0-3.17,2.31,14.38,14.38,0,0,0-1.19,5.89h-3.4a17,17,0,0,1,.8-5.86c1.07-3.09,3.25-5.65,6.78-5.78,3.19-.07,5.82,2.22,7.38,4.85A15.45,15.45,0,0,1,364.86,43.72Z" transform="translate(-291.67 -32.08)" style="fill:#455b64"/><path d="M379.93,55.9a2.69,2.69,0,0,1-2.71,2.81,2.94,2.94,0,0,1-2.91-2.81A2.7,2.7,0,0,1,377,53.09,2.93,2.93,0,0,1,379.93,55.9Z" transform="translate(-291.67 -32.08)" style="fill:#263238"/><path d="M383.65,43.72c.58,4.78-1,9.7-5.09,12.39-1.78,1.21-3.62-1.76-1.84-2.9a9.16,9.16,0,0,0,3.68-7.8,12.06,12.06,0,0,0-.15-1.69,13.19,13.19,0,0,0-2.05-5.79,4.86,4.86,0,0,0-3.92-2.41,3.84,3.84,0,0,0-3.18,2.31,14.31,14.31,0,0,0-1.18,5.89h-3.4a17,17,0,0,1,.8-5.86c1.06-3.09,3.25-5.65,6.78-5.78,3.19-.07,5.82,2.22,7.38,4.85A15.45,15.45,0,0,1,383.65,43.72Z" transform="translate(-291.67 -32.08)" style="fill:#455b64"/><path d="M398.72,55.9A2.7,2.7,0,0,1,396,58.71a2.94,2.94,0,0,1-2.91-2.81,2.7,2.7,0,0,1,2.71-2.81A2.93,2.93,0,0,1,398.72,55.9Z" transform="translate(-291.67 -32.08)" style="fill:#263238"/><path d="M402.44,43.72c.58,4.78-1,9.7-5.09,12.39-1.78,1.21-3.62-1.76-1.85-2.9a9.15,9.15,0,0,0,3.69-7.8,12.06,12.06,0,0,0-.15-1.69A13.08,13.08,0,0,0,397,37.93a4.86,4.86,0,0,0-3.91-2.41,3.82,3.82,0,0,0-3.18,2.31,14.31,14.31,0,0,0-1.18,5.89h-3.4a17.22,17.22,0,0,1,.79-5.86c1.07-3.09,3.26-5.65,6.78-5.78,3.2-.07,5.83,2.22,7.38,4.85A15.6,15.6,0,0,1,402.44,43.72Z" transform="translate(-291.67 -32.08)" style="fill:#455b64"/><path d="M417.51,55.9a2.7,2.7,0,0,1-2.71,2.81,2.93,2.93,0,0,1-2.91-2.81,2.7,2.7,0,0,1,2.71-2.81A2.94,2.94,0,0,1,417.51,55.9Z" transform="translate(-291.67 -32.08)" style="fill:#263238"/><path d="M421.23,43.72c.58,4.78-1,9.7-5.09,12.39-1.78,1.21-3.63-1.76-1.85-2.9a9.15,9.15,0,0,0,3.69-7.8,16.07,16.07,0,0,0-.15-1.69,13.08,13.08,0,0,0-2.06-5.79,4.86,4.86,0,0,0-3.92-2.41,3.82,3.82,0,0,0-3.17,2.31,14.31,14.31,0,0,0-1.18,5.89h-3.4a17.22,17.22,0,0,1,.79-5.86c1.07-3.09,3.25-5.65,6.78-5.78,3.19-.07,5.82,2.22,7.38,4.85A15.6,15.6,0,0,1,421.23,43.72Z" transform="translate(-291.67 -32.08)" style="fill:#455b64"/><path d="M436.3,55.9a2.7,2.7,0,0,1-2.71,2.81,2.93,2.93,0,0,1-2.91-2.81,2.69,2.69,0,0,1,2.71-2.81A2.94,2.94,0,0,1,436.3,55.9Z" transform="translate(-291.67 -32.08)" style="fill:#263238"/><path d="M440,43.72c.58,4.78-1,9.7-5.09,12.39-1.78,1.21-3.63-1.76-1.85-2.9a9.15,9.15,0,0,0,3.69-7.8,16.07,16.07,0,0,0-.15-1.69,13.08,13.08,0,0,0-2.06-5.79,4.86,4.86,0,0,0-3.92-2.41,3.82,3.82,0,0,0-3.17,2.31,14.57,14.57,0,0,0-1.19,5.89h-3.39a17.22,17.22,0,0,1,.79-5.86c1.07-3.09,3.25-5.65,6.78-5.78,3.19-.07,5.82,2.22,7.38,4.85A15.6,15.6,0,0,1,440,43.72Z" transform="translate(-291.67 -32.08)" style="fill:#455b64"/><path d="M455.09,55.9a2.7,2.7,0,0,1-2.72,2.81,2.92,2.92,0,0,1-2.9-2.81,2.69,2.69,0,0,1,2.71-2.81A2.94,2.94,0,0,1,455.09,55.9Z" transform="translate(-291.67 -32.08)" style="fill:#263238"/><path d="M458.81,43.72c.57,4.78-1,9.7-5.1,12.39-1.77,1.21-3.62-1.76-1.84-2.9a9.2,9.2,0,0,0,3.69-7.8,16.07,16.07,0,0,0-.15-1.69,13.2,13.2,0,0,0-2.06-5.79,4.86,4.86,0,0,0-3.92-2.41,3.81,3.81,0,0,0-3.17,2.31,14.57,14.57,0,0,0-1.19,5.89h-3.4a17.23,17.23,0,0,1,.8-5.86c1.07-3.09,3.25-5.65,6.78-5.78,3.19-.07,5.82,2.22,7.38,4.85A15.6,15.6,0,0,1,458.81,43.72Z" transform="translate(-291.67 -32.08)" style="fill:#455b64"/><path d="M473.87,55.9a2.69,2.69,0,0,1-2.71,2.81,2.92,2.92,0,0,1-2.9-2.81A2.69,2.69,0,0,1,471,53.09,2.92,2.92,0,0,1,473.87,55.9Z" transform="translate(-291.67 -32.08)" style="fill:#263238"/><path d="M477.59,43.72c.58,4.78-1,9.7-5.09,12.39-1.77,1.21-3.62-1.76-1.84-2.9a9.2,9.2,0,0,0,3.69-7.8,16.07,16.07,0,0,0-.15-1.69,13.2,13.2,0,0,0-2.06-5.79,4.86,4.86,0,0,0-3.92-2.41,3.81,3.81,0,0,0-3.17,2.31,14.57,14.57,0,0,0-1.19,5.89h-3.4a17.23,17.23,0,0,1,.8-5.86c1.07-3.09,3.25-5.65,6.78-5.78,3.19-.07,5.82,2.22,7.38,4.85A15.45,15.45,0,0,1,477.59,43.72Z" transform="translate(-291.67 -32.08)" style="fill:#455b64"/><path d="M492.66,55.9A2.69,2.69,0,0,1,490,58.71,2.94,2.94,0,0,1,487,55.9a2.7,2.7,0,0,1,2.72-2.81A2.92,2.92,0,0,1,492.66,55.9Z" transform="translate(-291.67 -32.08)" style="fill:#263238"/><path d="M496.38,43.72c.58,4.78-1,9.7-5.09,12.39-1.77,1.21-3.62-1.76-1.84-2.9a9.2,9.2,0,0,0,3.69-7.8,13.8,13.8,0,0,0-.16-1.69,13.06,13.06,0,0,0-2.05-5.79A4.86,4.86,0,0,0,487,35.52a3.81,3.81,0,0,0-3.17,2.31,14.38,14.38,0,0,0-1.19,5.89h-3.4a17,17,0,0,1,.8-5.86c1.07-3.09,3.25-5.65,6.78-5.78,3.19-.07,5.82,2.22,7.38,4.85A15.45,15.45,0,0,1,496.38,43.72Z" transform="translate(-291.67 -32.08)" style="fill:#455b64"/><path d="M511.45,55.9a2.69,2.69,0,0,1-2.71,2.81,2.94,2.94,0,0,1-2.91-2.81,2.7,2.7,0,0,1,2.71-2.81A2.93,2.93,0,0,1,511.45,55.9Z" transform="translate(-291.67 -32.08)" style="fill:#263238"/><path d="M515.17,43.72c.58,4.78-1,9.7-5.09,12.39-1.78,1.21-3.62-1.76-1.84-2.9a9.16,9.16,0,0,0,3.68-7.8,12.06,12.06,0,0,0-.15-1.69,13.19,13.19,0,0,0-2-5.79,4.86,4.86,0,0,0-3.92-2.41,3.84,3.84,0,0,0-3.18,2.31,14.31,14.31,0,0,0-1.18,5.89H498a17,17,0,0,1,.8-5.86c1.06-3.09,3.25-5.65,6.78-5.78,3.19-.07,5.82,2.22,7.38,4.85A15.45,15.45,0,0,1,515.17,43.72Z" transform="translate(-291.67 -32.08)" style="fill:#455b64"/><path d="M530.24,55.9a2.7,2.7,0,0,1-2.71,2.81,2.94,2.94,0,0,1-2.91-2.81,2.7,2.7,0,0,1,2.71-2.81A2.93,2.93,0,0,1,530.24,55.9Z" transform="translate(-291.67 -32.08)" style="fill:#263238"/><path d="M534,43.72c.58,4.78-1,9.7-5.09,12.39-1.78,1.21-3.62-1.76-1.85-2.9a9.15,9.15,0,0,0,3.69-7.8,12.06,12.06,0,0,0-.15-1.69,13.08,13.08,0,0,0-2.06-5.79,4.86,4.86,0,0,0-3.91-2.41,3.82,3.82,0,0,0-3.18,2.31,14.31,14.31,0,0,0-1.18,5.89h-3.4a17.22,17.22,0,0,1,.79-5.86c1.07-3.09,3.26-5.65,6.78-5.78,3.2-.07,5.83,2.22,7.38,4.85A15.6,15.6,0,0,1,534,43.72Z" transform="translate(-291.67 -32.08)" style="fill:#455b64"/><path d="M373.88,83.8h-2.54l.3,8.55a.84.84,0,0,1-.85.88.91.91,0,0,1-.91-.88l-.3-8.55h-2.53a.92.92,0,0,1-.91-.89A.83.83,0,0,1,367,82h6.83a.91.91,0,0,1,.91.88A.86.86,0,0,1,373.88,83.8Z" transform="translate(-291.67 -32.08)" style="fill:#263238"/><path d="M377.7,92.35l-.33-9.44a.83.83,0,0,1,.85-.88.92.92,0,0,1,.93.88l.13,3.84h4.15l-.14-3.84a.83.83,0,0,1,.85-.88.92.92,0,0,1,.93.88l.33,9.44a.85.85,0,0,1-.87.88.91.91,0,0,1-.91-.88l-.13-3.84h-4.15l.14,3.84a.85.85,0,0,1-.87.88A.91.91,0,0,1,377.7,92.35Z" transform="translate(-291.67 -32.08)" style="fill:#263238"/><path d="M388,82.91a.83.83,0,0,1,.85-.88.92.92,0,0,1,.92.88l.33,9.44a.85.85,0,0,1-.86.88.92.92,0,0,1-.92-.88Z" transform="translate(-291.67 -32.08)" style="fill:#263238"/><path d="M394.88,92.35a.85.85,0,0,1-.83.88.92.92,0,0,1-.91-.88l-.33-9.3v0a.86.86,0,0,1,.33-.73.89.89,0,0,1,1.22.19l5.42,7.15-.23-6.59a.84.84,0,0,1,.84-.86.93.93,0,0,1,.91.86l.32,9.3a.86.86,0,0,1-.85.88.87.87,0,0,1-.66-.33.38.38,0,0,1-.09-.09l-5.37-7.1Z" transform="translate(-291.67 -32.08)" style="fill:#263238"/><path d="M404,87.48a5.6,5.6,0,0,1,5.71-5.77A6.12,6.12,0,0,1,413.39,83a.9.9,0,1,1-1.07,1.45,4.29,4.29,0,0,0-2.56-.87,3.83,3.83,0,0,0-2.84,1.17,3.66,3.66,0,0,0-1.1,2.78,3.93,3.93,0,0,0,1.29,2.75A4.11,4.11,0,0,0,410,91.4a4.28,4.28,0,0,0,2.17-.61l-.08-2.19h-2.29a1,1,0,0,1-.94-.91.86.86,0,0,1,.88-.9H413a.94.94,0,0,1,1,.9l.13,3.54a2.19,2.19,0,0,1,0,.27.26.26,0,0,0,0,.08h0a.68.68,0,0,1-.29.39,5.75,5.75,0,0,1-3.59,1.25A6.08,6.08,0,0,1,404,87.48Z" transform="translate(-291.67 -32.08)" style="fill:#263238"/><path d="M417.26,90.44a.83.83,0,0,1,1.17-.11,5.33,5.33,0,0,0,3.1,1.23,3.37,3.37,0,0,0,2-.59,1.38,1.38,0,0,0,.65-1.15,1,1,0,0,0-.16-.51,1.78,1.78,0,0,0-.5-.48,6.61,6.61,0,0,0-2.22-.76h0a8.65,8.65,0,0,1-2.09-.62,3.61,3.61,0,0,1-1.53-1.25,2.48,2.48,0,0,1-.42-1.31,2.85,2.85,0,0,1,1.2-2.33,4.58,4.58,0,0,1,2.74-.85A6.5,6.5,0,0,1,424.69,83a.84.84,0,0,1,.26,1.13.79.79,0,0,1-1.13.24,4.8,4.8,0,0,0-2.61-1,3,3,0,0,0-1.77.54,1.21,1.21,0,0,0-.58,1,.88.88,0,0,0,.13.45,1.41,1.41,0,0,0,.45.41,5.57,5.57,0,0,0,2,.71h0a9.83,9.83,0,0,1,2.24.67,3.92,3.92,0,0,1,1.64,1.33,2.62,2.62,0,0,1,.44,1.36,3,3,0,0,1-1.29,2.48,4.93,4.93,0,0,1-2.93.91,7.2,7.2,0,0,1-4.16-1.6A.87.87,0,0,1,417.26,90.44Z" transform="translate(-291.67 -32.08)" style="fill:#263238"/><path d="M439.71,83.8h-2.55l.3,8.55a.83.83,0,0,1-.85.88.92.92,0,0,1-.91-.88l-.3-8.55h-2.53a.93.93,0,0,1-.91-.89.83.83,0,0,1,.85-.88h6.84a.91.91,0,0,1,.91.88A.86.86,0,0,1,439.71,83.8Z" transform="translate(-291.67 -32.08)" style="fill:#263238"/><path d="M451.17,83.42a6.05,6.05,0,0,1,1.75,4,5.64,5.64,0,0,1-1.47,4,5.06,5.06,0,0,1-3.77,1.72,5.61,5.61,0,0,1-4-1.72,6,6,0,0,1-1.72-4,5.62,5.62,0,0,1,1.44-4,5.13,5.13,0,0,1,3.86-1.71A5.39,5.39,0,0,1,451.17,83.42Zm-.07,4a4.3,4.3,0,0,0-1.19-2.8,3.58,3.58,0,0,0-2.57-1.14,3.37,3.37,0,0,0-2.55,1.14,3.91,3.91,0,0,0-1,2.8A4.15,4.15,0,0,0,445,90.25a3.6,3.6,0,0,0,2.63,1.15,3.35,3.35,0,0,0,2.49-1.15A4,4,0,0,0,451.1,87.47Z" transform="translate(-291.67 -32.08)" style="fill:#263238"/><path d="M461,92.35l-.33-9.44a.83.83,0,0,1,.85-.88h1.89a5.83,5.83,0,0,1,5.78,5.58,5.37,5.37,0,0,1-5.39,5.62H462A.93.93,0,0,1,461,92.35Zm1.75-.9h1a3.68,3.68,0,0,0,3.68-3.84,4,4,0,0,0-3.95-3.81h-1Z" transform="translate(-291.67 -32.08)" style="fill:#263238"/><path d="M480.83,83.42a6.11,6.11,0,0,1,1.76,4,5.65,5.65,0,0,1-1.48,4,5.05,5.05,0,0,1-3.76,1.72,5.6,5.6,0,0,1-4-1.72,6,6,0,0,1-1.73-4,5.66,5.66,0,0,1,1.44-4,5.14,5.14,0,0,1,3.86-1.71A5.36,5.36,0,0,1,480.83,83.42Zm-.07,4a4.24,4.24,0,0,0-1.18-2.8A3.59,3.59,0,0,0,477,83.53a3.37,3.37,0,0,0-2.56,1.14,4,4,0,0,0-1,2.8,4.15,4.15,0,0,0,1.19,2.78,3.63,3.63,0,0,0,2.63,1.15,3.35,3.35,0,0,0,2.49-1.15A4,4,0,0,0,480.76,87.47Z" transform="translate(-291.67 -32.08)" style="fill:#263238"/><path d="M360.57,122.85H348.76L348.34,111h11.82Zm-10.85-1h9.81l-.34-9.81h-9.81Z" transform="translate(-291.67 -32.08)" style="fill:#263238"/><path d="M361.69,154.94H349.88l-.42-11.81h11.82Zm-10.85-1h9.82l-.35-9.81H350.5Z" transform="translate(-291.67 -32.08)" style="fill:#263238"/><path d="M362.81,187H351l-.42-11.81H362.4ZM352,186h9.82l-.35-9.81h-9.81Z" transform="translate(-291.67 -32.08)" style="fill:#263238"/><path d="M363.93,219.12H352.12l-.42-11.81h11.82Zm-10.85-1h9.82l-.35-9.81h-9.81Z" transform="translate(-291.67 -32.08)" style="fill:#263238"/><path d="M365.05,251.21H353.24l-.41-11.81h11.81Zm-10.85-1H364l-.35-9.81h-9.81Z" transform="translate(-291.67 -32.08)" style="fill:#263238"/><polygon points="63.05 89.3 58.87 84.14 60.4 82.92 62.72 85.77 68.27 76.01 70.02 77.05 63.05 89.3" style="fill:#47c6e2"/><polygon points="64.17 121.47 59.99 116.31 61.53 115.09 63.84 117.94 69.39 108.19 71.14 109.22 64.17 121.47" style="fill:#47c6e2"/><polygon points="65.28 153.31 61.1 148.15 62.64 146.93 64.95 149.78 70.51 140.02 72.25 141.06 65.28 153.31" style="fill:#47c6e2"/><text transform="translate(82.1 89.3)" style="font-size:12px;fill:#263238;font-family:CenturyGothic, Century Gothic">Ecommerce App</text><text transform="translate(82.11 121.86)" style="font-size:12px;fill:#263238;font-family:CenturyGothic, Century Gothic">Mobile Application</text><text transform="translate(85.08 154.96)" style="font-size:12px;fill:#263238;font-family:CenturyGothic, Century Gothic">Blog</text><text transform="translate(86.08 186.05)" style="font-size:12px;fill:#263238;font-family:CenturyGothic, Century Gothic">Official Website</text><text transform="translate(87.08 219.14)" style="font-size:12px;fill:#263238;font-family:CenturyGothic, Century Gothic">Service Api</text></svg>