<svg id="aab0ba36-771f-472d-b7d0-c2af8af9d837" data-name="Layer 1" xmlns="http://www.w3.org/2000/svg" viewBox="0 0 269.05 161.36"><title>card-front-frame</title><rect width="269.05" height="161.36" rx="28.39" style="fill:#afdef7"/><path d="M499.2,222.67c0-.1,0-.21,0-.31,0-7.75-9.89-14-22.09-14s-22.09,6.28-22.09,14c0,.1,0,.21,0,.31Z" transform="translate(-286.42 -177.29)" style="fill:#fdfeff"/><path d="M539.16,222.67c0-.1,0-.21,0-.31a10.83,10.83,0,1,0-21.65,0c0,.1,0,.21,0,.31Z" transform="translate(-286.42 -177.29)" style="fill:#fdfeff"/><path d="M525.15,222.67a18.58,18.58,0,1,0-35.92,0Z" transform="translate(-286.42 -177.29)" style="fill:#fdfeff"/><path d="M486.14,217.09h-1.56l-.05-1a3.56,3.56,0,0,1-3.24,1.16,3.65,3.65,0,0,1-2.34-1.41,4.19,4.19,0,0,1,.4-5.54c1.46-1.38,3.41-1.34,5.18.18v-4h1.61Zm-4-1.31a2.33,2.33,0,0,0,2.4-2.41,2.41,2.41,0,0,0-2.43-2.49,2.37,2.37,0,0,0-2.38,2.52A2.28,2.28,0,0,0,482.15,215.78Z" transform="translate(-286.42 -177.29)"/><path d="M457.15,214.57c.43-1.42.89-2.84,1.28-4.28a.87.87,0,0,1,1.05-.75c.56,0,.84.15,1,.73.38,1.45.84,2.87,1.32,4.48.14-.38.24-.62.31-.86.35-1.22.71-2.44,1-3.67.12-.51.35-.74.88-.67a8.48,8.48,0,0,0,1,0c-.68,2.19-1.34,4.29-2,6.39l-.09.25a1.16,1.16,0,0,1-1.69.9c-.16,0-.29-.31-.35-.5-.46-1.42-.9-2.86-1.35-4.28,0,0-.05-.08-.12-.2-.48,1.52-1,3-1.38,4.43a.69.69,0,0,1-.88.58c-.43,0-.9.18-1.1-.54-.62-2.16-1.33-4.3-2-6.44-.06-.17-.09-.34-.15-.59.44,0,.82,0,1.21,0s.5.14.59.49c.41,1.51.85,3,1.28,4.51Z" transform="translate(-286.42 -177.29)"/><path d="M443.89,210.48l.06-.87h1.52v7.47H444l-.06-.85c-2.32,1.51-4.13,1.42-5.53-.25a4.22,4.22,0,0,1,.17-5.45C440,209,441.84,209,443.89,210.48Zm-2.44,5.3a2.37,2.37,0,0,0,2.45-2.44,2.42,2.42,0,1,0-4.84-.05A2.35,2.35,0,0,0,441.45,215.78Z" transform="translate(-286.42 -177.29)"/><path d="M471.43,217.1h-1.56v-7.48h1.52l.06.56a10,10,0,0,1,2-.8,2.71,2.71,0,0,1,3.22,2.7c.13,1.64,0,3.31,0,5h-1.59V213.7c0-.41,0-.82,0-1.23a1.55,1.55,0,0,0-1.45-1.61,1.79,1.79,0,0,0-2,1.09,4.18,4.18,0,0,0-.22,1.27C471.41,214.49,471.43,215.76,471.43,217.1Z" transform="translate(-286.42 -177.29)"/><path d="M493.76,214.6l1.31.77a3.92,3.92,0,0,1-4.48,1.85A4,4,0,0,1,487.7,213a3.89,3.89,0,0,1,3.11-3.59,3.71,3.71,0,0,1,4.22,1.89l-1.29.74a2.41,2.41,0,0,0-3.75-.42,2.5,2.5,0,0,0,0,3.45A2.45,2.45,0,0,0,493.76,214.6Z" transform="translate(-286.42 -177.29)"/><path d="M508.74,210.94l-1.31.71a1.6,1.6,0,0,0-1.7-.8c-.32.08-.76.38-.81.65s.29.69.57.84a11.29,11.29,0,0,0,1.67.56,2.13,2.13,0,0,1,1.73,2.42,2.33,2.33,0,0,1-2.23,1.94c-1.44.17-2.73,0-3.59-1.36a2.28,2.28,0,0,1-.13-.32l1.1-.69a13.93,13.93,0,0,0,1.69.93,1.28,1.28,0,0,0,.92-.07,1,1,0,0,0,.57-.66,1,1,0,0,0-.47-.72,5.23,5.23,0,0,0-1.07-.39c-.45-.16-.91-.3-1.34-.5a1.86,1.86,0,0,1-1.14-1.8,2.07,2.07,0,0,1,1.1-1.91A3.24,3.24,0,0,1,508.74,210.94Z" transform="translate(-286.42 -177.29)"/><path d="M501.71,210.93l-1.27.7.05-.22a11,11,0,0,0-1.71-.56.73.73,0,0,0-.92.68,1.25,1.25,0,0,0,.64.82,6.52,6.52,0,0,0,1.35.47c1.56.51,2.18,1.25,2,2.46s-1,1.82-2.49,2a3.14,3.14,0,0,1-3.5-1.71l1.13-.68c.58.34,1.07.67,1.6.92a.9.9,0,0,0,.72,0,5.08,5.08,0,0,0,.9-.72c-.25-.29-.44-.68-.76-.84a16,16,0,0,0-1.61-.54c-1.29-.49-1.77-1.14-1.71-2.23a2.29,2.29,0,0,1,2-2.07A3.11,3.11,0,0,1,501.71,210.93Z" transform="translate(-286.42 -177.29)"/><path d="M436.65,215.76v1.43a17.77,17.77,0,0,1-2-.13,1.56,1.56,0,0,1-1.4-1.47c-.1-1.13-.09-2.27-.12-3.4,0-.34,0-.68,0-1.09h-1.34v-1.51l1.34-.06a12.12,12.12,0,0,0,0-1.35.7.7,0,0,1,.66-.89c.31,0,.61-.15,1-.24v2.46l1.87.08v1.49H434.8c0,1.34,0,2.63,0,3.92,0,.22.36.52.61.61A5.42,5.42,0,0,0,436.65,215.76Z" transform="translate(-286.42 -177.29)"/><path d="M452.58,217.1h-1.51v-11h1.51Z" transform="translate(-286.42 -177.29)"/><path d="M449.05,217.1h-1.53v-7.49h1.53Z" transform="translate(-286.42 -177.29)"/><path d="M466.33,209.59h1.5v7.48h-1.5Z" transform="translate(-286.42 -177.29)"/><path d="M448.27,206.32a1,1,0,0,1,1,1,1,1,0,0,1-1,1,1.05,1.05,0,0,1-1.06-1A1,1,0,0,1,448.27,206.32Z" transform="translate(-286.42 -177.29)"/><path d="M468.13,207.36a1.06,1.06,0,0,1-1.08,1,1,1,0,0,1-1-1,1,1,0,0,1,1-1A1,1,0,0,1,468.13,207.36Z" transform="translate(-286.42 -177.29)"/><path d="M411.33,208.63a6.28,6.28,0,0,1,7.35-4.81s3.32.78,4.91,3.15a3.91,3.91,0,0,0,6.28-.78,6.06,6.06,0,0,1-7.27,4.91,6.79,6.79,0,0,1-4.66-2.65S414.94,204.42,411.33,208.63Z" transform="translate(-286.42 -177.29)" style="fill:#0bb7d3"/><path d="M405.2,215.93a6.28,6.28,0,0,1,7.35-4.8s3.32.78,4.91,3.14a3.91,3.91,0,0,0,6.28-.78,6.05,6.05,0,0,1-7.27,4.91,6.81,6.81,0,0,1-4.66-2.64S408.81,211.73,405.2,215.93Z" transform="translate(-286.42 -177.29)" style="fill:#0bb7d3"/><path d="M363.83,239.84c-.05.41-.11.82-.15,1.23a8,8,0,0,1-3.53,5.69,11.32,11.32,0,0,1-5.36,2.07,14.65,14.65,0,0,1-7.85-1.39l.19-.18c.55-.44,1.12-.86,1.65-1.33a.53.53,0,0,1,.65-.08,12.24,12.24,0,0,0,4.74.89,7.37,7.37,0,0,0,7.22-5.59,7,7,0,0,0-.35-4.3,13.63,13.63,0,0,0-5.9-6.95,18.91,18.91,0,0,0-7.38-2.73c-1.12-.15-2.26-.15-3.39-.22-.28,0-.4.13-.53.35a2.7,2.7,0,0,1-3.11,1.24,2.73,2.73,0,0,1-2-2.71,2.77,2.77,0,0,1,1.9-2.53,2.65,2.65,0,0,1,3,.95.91.91,0,0,0,.87.43,21.36,21.36,0,0,1,9.91,2.15,18,18,0,0,1,7.94,7.38,11,11,0,0,1,1.38,4.84,3.15,3.15,0,0,0,.09.42Z" transform="translate(-286.42 -177.29)" style="fill:#7153a2"/><path d="M354.1,223.85c-.75-.22-1.45-.42-2.14-.65a.56.56,0,0,1-.24-.39,12.62,12.62,0,0,0-2.63-6.26,6.34,6.34,0,0,0-4-2.48,8.22,8.22,0,0,0-3.74.44,8.39,8.39,0,0,0-5,4.54,14.23,14.23,0,0,0-1.48,5.31,18.49,18.49,0,0,0,2,10.36l.07.13a1.28,1.28,0,0,0,1.37.94,2.62,2.62,0,0,1,2.37,2.46,2.74,2.74,0,1,1-5.46,0,1.67,1.67,0,0,1,.14-.71.87.87,0,0,0-.08-.94,22,22,0,0,1-2.65-7.69,17.69,17.69,0,0,1,2.3-12,10.51,10.51,0,0,1,7.17-5,8.73,8.73,0,0,1,7.64,2.15,13,13,0,0,1,4,7.26c.17.75.25,1.51.37,2.27A1.89,1.89,0,0,1,354.1,223.85Z" transform="translate(-286.42 -177.29)" style="fill:#7153a2"/><path d="M330.28,229.15c.2.77.38,1.48.58,2.18.08.25-.08.33-.22.44a11.5,11.5,0,0,0-3.27,4.11,7.43,7.43,0,0,0,1.15,8.22,7,7,0,0,0,4.42,2.21,14.42,14.42,0,0,0,10-2.47,17.62,17.62,0,0,0,6.38-6.56.58.58,0,0,0-.05-.74,2.67,2.67,0,0,1,0-3.23,2.74,2.74,0,0,1,3.16-1,2.8,2.8,0,0,1,1.82,2.73,2.76,2.76,0,0,1-2.09,2.53.79.79,0,0,0-.62.48,18.8,18.8,0,0,1-9.06,8.8,20.49,20.49,0,0,1-6.16,1.76,11.55,11.55,0,0,1-8.24-1.93,8,8,0,0,1-3.28-5.39,11,11,0,0,1,2.5-9.32,33,33,0,0,1,2.6-2.55A3.05,3.05,0,0,1,330.28,229.15Z" transform="translate(-286.42 -177.29)" style="fill:#7153a2"/><ellipse cx="492.28" cy="285.98" rx="20.44" ry="52.94" transform="translate(-363.46 107.16) rotate(-30)" style="fill:none;stroke:#27aae1;stroke-miterlimit:10;stroke-width:5px"/><ellipse cx="492.24" cy="285.92" rx="52.94" ry="20.44" transform="matrix(0.53, -0.85, 0.85, 0.53, -297.86, 373.88)" style="fill:none;stroke:#27aae1;stroke-miterlimit:10;stroke-width:5px"/><ellipse cx="204.96" cy="109.01" rx="52.94" ry="20.44" style="fill:none;stroke:#27aae1;stroke-miterlimit:10;stroke-width:5px"/><circle cx="204.99" cy="107.19" r="8.08" style="fill:#09a5d2"/><path d="M427.16,338.53c0-.27,0-.53,0-.8,0-19.62-25-35.52-55.93-35.52s-55.92,15.9-55.92,35.52c0,.27,0,.53,0,.8Z" transform="translate(-286.42 -177.29)" style="fill:#fdfeff"/><path d="M528.32,338.53c0-.27,0-.53,0-.8a27.41,27.41,0,0,0-54.81,0c0,.27,0,.53,0,.8Z" transform="translate(-286.42 -177.29)" style="fill:#fdfeff"/><path d="M492.86,338.53a47,47,0,1,0-90.95,0Z" transform="translate(-286.42 -177.29)" style="fill:#fdfeff"/><path d="M344.19,254.68c0-.07,0-.15,0-.22,0-5.47-7-9.9-15.59-9.9S313,249,313,254.46v.22Z" transform="translate(-286.42 -177.29)" style="fill:#fdfeff"/><path d="M372.38,254.68a1.62,1.62,0,0,0,0-.22,7.64,7.64,0,0,0-15.28,0c0,.07,0,.15,0,.22Z" transform="translate(-286.42 -177.29)" style="fill:#fdfeff"/><path d="M362.5,254.68a13.28,13.28,0,0,0,.43-3.36,13.11,13.11,0,1,0-26.21,0,13.28,13.28,0,0,0,.43,3.36Z" transform="translate(-286.42 -177.29)" style="fill:#fdfeff"/><path d="M433.05,310.51h9.89v.91H433V319H443.7v.9H432V302.67h11.62v.89H433.05Z" transform="translate(-286.42 -177.29)"/><path d="M444.66,302.65a7.51,7.51,0,0,1,1.08,0c.13,0,.27.16.36.29,1.67,2.29,3.32,4.6,5,6.9l.25.32,12.31-16.08.13.09-11.69,16.88,6.46,8.9c-.44,0-.81,0-1.17,0-.11,0-.22-.15-.3-.26q-2.73-3.74-5.44-7.48l-.25-.33-.27.35-5.33,7.32a.77.77,0,0,1-.82.42,5.77,5.77,0,0,0-.74,0c.14-.19.23-.33.34-.47q3-4.06,5.94-8.11a.45.45,0,0,0,0-.63q-2.79-3.84-5.55-7.69C444.87,303,444.8,302.84,444.66,302.65Z" transform="translate(-286.42 -177.29)"/><path d="M418.47,304.11v15.83H417.4V302.65a11.76,11.76,0,0,1,1.19,0c.12,0,.25.19.34.32l7.72,11.49,9.25,13.77.26.41c-.51-.39-6.33-8.24-9-12.15l-8.56-12.43Z" transform="translate(-286.42 -177.29)"/><path d="M466.16,320l-.23,0h-.82V303.58H459v-.91h13.21v.9h-6.09Z" transform="translate(-286.42 -177.29)"/><path d="M476.31,317.75c.29-.05.51-.06.7.24a1.05,1.05,0,0,0,1.4.09.46.46,0,0,0-.19-.8c-.36-.14-.75-.2-1.11-.33a1,1,0,0,1-.66-1.28,1.31,1.31,0,0,1,1.46-.76,1.15,1.15,0,0,1,1.17,1c-.27,0-.49.09-.67-.23a.91.91,0,0,0-1.25-.11.43.43,0,0,0,.14.77c.34.13.71.2,1.07.31a1,1,0,0,1,.78,1.12,1,1,0,0,1-.08.3,1.44,1.44,0,0,1-1.54.71A1.2,1.2,0,0,1,476.31,317.75Z" transform="translate(-286.42 -177.29)"/><path d="M475,315h.58c0,.39,0,.77,0,1.15,0,.54,0,1.08,0,1.62a1,1,0,0,1-1.14,1.05,1,1,0,0,1-1.11-1c.25,0,.48-.11.65.23.07.15.38.23.59.23s.42-.23.43-.5c0-.62,0-1.24,0-1.85Z" transform="translate(-286.42 -177.29)"/><path d="M472.61,318.47c-.15.1-.3.27-.45.26s-.33-.23-.33-.35a.48.48,0,0,1,.33-.36c.14,0,.3.17.45.27Z" transform="translate(-286.42 -177.29)"/><polygon points="45.36 125.06 45.36 97.75 68.97 111.41 68.97 120.48 53.23 111.41 53.39 129.22 45.36 125.06" style="fill:#3eaadf"/><polygon points="92 98.08 68.97 111.41 68.97 120.48 84.23 111.31 84.3 120.13 68.97 129.22 76.58 133.69 92 124.95 92 98.08" style="fill:#1a81c5"/><polygon points="84.23 138.18 84.23 147.14 68.69 138.18 68.97 129.22 84.23 138.18" style="fill:#3eaadf"/><polygon points="99.84 120.27 107.39 116 107.39 133.91 84.23 147.14 84.23 138.18 99.91 129.22 99.84 120.27" style="fill:#1a81c5"/><polygon points="100.05 102.35 100.05 111.38 107.67 106.86 107.67 98.08 100.05 102.35" style="fill:#1a81c5"/><path d="M339.45,186.23A11.7,11.7,0,0,0,332,189.5s-4-2.19-7-.72a5.17,5.17,0,0,0-2.45,2.51s-1.38-4.49-7.39-4.82c-8.16-.44-9.22,6.29-9.22,6.29H351.3S349.42,186.23,339.45,186.23Z" transform="translate(-286.42 -177.29)" style="fill:#fff"/><path d="M515.15,268.38c0-.09,0-.18,0-.28a12.53,12.53,0,0,0-25,0c0,.1,0,.19,0,.28Z" transform="translate(-286.42 -177.29)" style="fill:#fdfeff"/><path d="M550.81,268.38c0-.09,0-.18,0-.28a9.67,9.67,0,0,0-19.33,0c0,.1,0,.19,0,.28Z" transform="translate(-286.42 -177.29)" style="fill:#fdfeff"/><path d="M538.31,268.38a17,17,0,0,0,.55-4.25,16.59,16.59,0,0,0-33.17,0,17,17,0,0,0,.55,4.25Z" transform="translate(-286.42 -177.29)" style="fill:#fdfeff"/></svg>