<svg id="bf39a66e-0335-4973-bc47-b201d9e0ccf7" data-name="Layer 1" xmlns="http://www.w3.org/2000/svg" viewBox="0 0 379.67 330.77"><title>card-back-databa</title><path d="M388.91,273.6q-67.38,0-134.76,0c-1,0-1.25-.23-1.25-1.25q0-56,0-112c0-1,.23-1.25,1.25-1.25q134.89,0,269.79,0c1,0,1.25.23,1.25,1.25q0,56,0,112.05c0,1-.23,1.25-1.25,1.25Q456.42,273.57,388.91,273.6Z" transform="translate(-184.41 -159.07)" style="fill:#fefefe"/><path d="M291.27,225.8c0-2.11,1.24-3.45,2.14-4.93q9.27-15.13,18.63-30.21c2.75-4.46,5.52-8.91,8.27-13.37a4.35,4.35,0,0,1,7.94.39q4.06,8.64,8.12,17.28,7.54,16,15.07,32.06,1.41,3,2.85,6a4.57,4.57,0,0,1-3,6.73l-28.82,8.53Q316.76,250,311,251.62a4.45,4.45,0,0,1-5.08-1.94q-6.4-9.9-12.77-19.83C292.34,228.54,291.15,227.37,291.27,225.8Z" transform="translate(-184.41 -159.07)" style="fill:#0c344b"/><path d="M437.43,216.81c0-2.72,0-5.43,0-8.15,0-1,.28-1.46,1.32-1.32a4.53,4.53,0,0,0,1.22,0,1.49,1.49,0,0,1,2,1.45c.13.89.47.8,1,.3,3.37-3,7.1-3,10.47.18.67.62.95.17,1.29-.25,2-2.48,6.62-2.41,8.67-1.32a5.7,5.7,0,0,1,3,5.29c.11,4.12,0,8.24.05,12.37,0,.76-.24,1-1,1a32.23,32.23,0,0,0-3.26,0c-.86,0-1.06-.34-1.05-1.13,0-3.22,0-6.43,0-9.65A12.7,12.7,0,0,0,461,214c-.22-1.67-1-2.51-2.38-2.67a3.18,3.18,0,0,0-3.57,2.06,8.84,8.84,0,0,0-.52,3.07c0,2.89,0,5.79,0,8.69,0,.92-.24,1.35-1.22,1.26-1.3-.13-2.95.53-3.81-.29s-.26-2.48-.29-3.78c-.05-2.26,0-4.53,0-6.79,0-.54,0-1.09-.09-1.62-.19-1.64-.82-2.4-2.1-2.58a3.27,3.27,0,0,0-3.69,1.87,10.79,10.79,0,0,0-.56,4.14c0,2.58-.06,5.16,0,7.74,0,1-.34,1.3-1.32,1.32-4,0-4,.07-4-4Z" transform="translate(-184.41 -159.07)" style="fill:#0d354b"/><path d="M374.84,213.93c0-3.62,0-7.24,0-10.86,0-1.2.28-1.73,1.59-1.67,3.05.12,6.12-.13,9.17.31,4.14.61,6.49,3.11,6.56,7.12.09,4.72-2.12,7.62-6.31,8.44a18.44,18.44,0,0,1-4.31.33c-.94,0-1.28.26-1.25,1.23.06,2.12,0,4.25,0,6.38,0,.89-.28,1.23-1.17,1.16-1.35-.1-3.06.55-4-.26s-.28-2.56-.31-3.89C374.8,219.46,374.84,216.7,374.84,213.93Z" transform="translate(-184.41 -159.07)" style="fill:#0f354c"/><path d="M486.55,219c0,2.13,0,4.26,0,6.39,0,.71-.23,1-.93.94a5,5,0,0,0-1.09,0,1.71,1.71,0,0,1-2.25-1.45c-.21-1.06-.56-.89-1.18-.27a7.39,7.39,0,0,1-8,1.69c-2.41-.79-3.33-2.7-3.47-5.13s.62-4.33,2.87-5.5,4.58-.94,6.91-1.17c.68-.07,1.79.58,1.93-.79a2.4,2.4,0,0,0-2-2.76,8.88,8.88,0,0,0-4.9.76c-.94.4-1.63.45-1.92-.73,0-.13-.15-.23-.21-.35-1.09-2.06-1.12-2.16,1.06-2.87a14.6,14.6,0,0,1,8.94-.35,5.65,5.65,0,0,1,4.25,5.61C486.57,215.05,486.55,217.05,486.55,219Z" transform="translate(-184.41 -159.07)" style="fill:#0d354b"/><path d="M427.2,207a15.8,15.8,0,0,1,5.44,1c.81.29,1.26.53.74,1.63-1.19,2.52-1.11,2.6-3.69,1.75a9.15,9.15,0,0,0-3.48-.38,1.32,1.32,0,0,0-1.35.93c-.17.63.22,1.08.79,1.41a33.09,33.09,0,0,0,4.06,1.86c3.57,1.43,4.85,3.71,4.08,7.32a4.89,4.89,0,0,1-3.53,3.61,16.19,16.19,0,0,1-9.62,0c-1-.25-1.17-.92-1.17-1.85,0-2.88,0-2.85,2.67-2a11,11,0,0,0,4.66.65c.88-.11,1.79-.31,2-1.35s-.55-1.48-1.32-1.84c-1.46-.71-3-1.34-4.42-2.07-2.72-1.35-3.89-3.39-3.5-6s2.21-4.06,5.23-4.49C425.57,207,426.39,207,427.2,207Z" transform="translate(-184.41 -159.07)" style="fill:#0d354b"/><path d="M400.31,210.37a14.72,14.72,0,0,1,2.58-2.49,6.24,6.24,0,0,1,4.29-.83c.53,0,.72.3.67.79s-.05.91-.11,1.36a6.09,6.09,0,0,1-.42,2.49c-.45.66-1.51.15-2.3.23a4.53,4.53,0,0,0-4.31,4.7c0,2.77-.08,5.53,0,8.29,0,1.25-.38,1.59-1.54,1.47a22.74,22.74,0,0,0-2.86,0c-.68,0-1-.21-1-.93q0-8.56,0-17.12c0-.7.26-1,.95-1a1.22,1.22,0,0,0,.27,0c2.6-.08,2.59-.08,3.43,2.33C400.1,209.86,400.18,210.06,400.31,210.37Z" transform="translate(-184.41 -159.07)" style="fill:#0d354b"/><path d="M410.51,216.9c0-2.72,0-5.44,0-8.15,0-1,.26-1.43,1.37-1.44,4,0,4-.05,4,3.95,0,4.58,0,9.15,0,13.72,0,1.07-.3,1.41-1.37,1.41-4,0-4,.05-4-3.93Z" transform="translate(-184.41 -159.07)" style="fill:#10364c"/><path d="M413.27,199.89a2.49,2.49,0,0,1,2.78,2.72c-.05,1.57-1.24,2.54-3.06,2.49a2.49,2.49,0,0,1-2.68-2.7C410.35,200.69,411.33,199.86,413.27,199.89Z" transform="translate(-184.41 -159.07)" style="fill:#17384f"/><path d="M313.94,246c-1.32,0-1.78-.56-1.58-1.64.53-2.75,1.06-5.5,1.63-8.24,1-5,2.12-10,3.17-15,1.22-5.83,2.41-11.67,3.63-17.51s2.44-11.68,3.66-17.52c.14-.66.19-1.38,1.07-1.52s1.16.55,1.45,1.16q3.75,7.94,7.48,15.89,7.31,15.48,14.62,30.94c1,2.07.56,2.94-1.43,3.5-4.65,1.29-9.26,2.72-13.88,4.09q-9.35,2.78-18.7,5.55C314.63,245.83,314.19,245.92,313.94,246Z" transform="translate(-184.41 -159.07)" style="fill:#fff"/><path d="M382.71,205.88a4.46,4.46,0,0,1,2.67.61,3.54,3.54,0,0,1,1.29,3.88,3,3,0,0,1-2.52,2.5l-.52.13c-3,.71-3.36.47-3.36-2.55V208C380.28,205.73,380,205.89,382.71,205.88Z" transform="translate(-184.41 -159.07)" style="fill:#f8f8f9"/><path d="M479.38,217.68c2-.06,2.57,1.17,1.68,3.13a4,4,0,0,1-4.72,1.9,1.86,1.86,0,0,1-1.32-1.84,2.45,2.45,0,0,1,1.39-2.55A5.82,5.82,0,0,1,479.38,217.68Z" transform="translate(-184.41 -159.07)" style="fill:#f8f8f9"/><path d="M295.08,484.22V278.36c.8-.76,1.85-.63,2.81-.79s1.1-1.05,1.16-1.88c.07-1,.11-2,1.24-2.41a4.68,4.68,0,0,1,3.39.23,2.61,2.61,0,0,1,.79,2.22c0,1.58.8,2.12,2.28,1.85,1.07-.32,1-1.22,1.06-2.05s.18-1.85,1.23-2.25a4.7,4.7,0,0,1,3.38.22,2.59,2.59,0,0,1,.8,2.22c0,1.56.77,2.13,2.25,1.87,1.08-.27,1-1.15,1.08-2s.11-1.82,1.11-2.28a5.47,5.47,0,0,1,3.44.06,1.35,1.35,0,0,1,.55.51,4.92,4.92,0,0,1,.37,2c.07.92.33,1.66,1.45,1.66a1.6,1.6,0,0,0,1.73-1.44c.8-3.23,1.86-3.72,5-2.43a4.05,4.05,0,0,1,.62,2.38c.08.84.34,1.48,1.35,1.48a1.63,1.63,0,0,0,1.78-1.37c.91-3.33,1.75-3.74,4.92-2.57.11.11.27.23.27.36-.06,2.89,1.67,4,4.25,4.15.6.59.38,1.28.16,1.93-3.34,10.12-3.16,20.35-1.08,30.67,3.4,16.8,7.74,33.32,14.69,49.06a51.79,51.79,0,0,0,9,14.39c3.28,3.57,7.13,5.84,12.27,4.33a12.07,12.07,0,0,0,4-2.27c1.19-.93,2.17-.79,3.53-.08,8,4.15,16.42,5.77,25.26,2.75,2.3-.78,2.94-.45,2.92,2.08a166.17,166.17,0,0,0,1,18.13,57.89,57.89,0,0,0,1.55,9.07,17,17,0,0,0,14.55,12.64c7.17,1,14-.63,20.29-3.74a18.81,18.81,0,0,0,10.33-13.4,203.76,203.76,0,0,0,3.54-24.35c0-.31,0-.62.05-.92.62-4.13.55-4.54,4.69-4.13a36.5,36.5,0,0,0,17.16-2.53c5.48-2.19,9.1-6.38,11.35-11.77a7.83,7.83,0,0,0,.55-3.16c-.06-3.12-2.21-5-5.51-4.73-2.52.22-5,.75-7.49,1.19a25.46,25.46,0,0,1-5.51.31c-3-.11-3.63-1.2-2.15-3.75A166.23,166.23,0,0,0,491,322.51c3.51-9.85,6.34-19.87,7-30.39.15-2.29.33-4.55.26-6.87-.28-9.46-6.53-14.89-13.37-19.77-7.94-5.66-17-7.83-26.68-8.13-2.09-.06-4.3.65-6.27-.67a7.54,7.54,0,0,1-.08-2.72,2.25,2.25,0,0,1,2.36-2.51,2,2,0,0,0,2.26-2.25c.05-2.44,1.89-1.82,3.33-1.93s2,.43,2.1,1.76c.08,1.54,0,3-2,3.27-1,.15-2,.35-2,1.73,0,.66.19,1.23,1,1.34s1.4,0,1.44-.74c.2-3.5,2.64-3.35,5.09-3.25a1,1,0,0,1,.63.34,6.18,6.18,0,0,1,.53,2.64,1.15,1.15,0,0,0,1.19,1.13,1.27,1.27,0,0,0,1.42-.89c.3-1,0-2.27,1.19-2.79a8.35,8.35,0,0,1,4-.36,1,1,0,0,1,.53.47,7.45,7.45,0,0,1,.4,2.25c.09.66.33,1.18,1.1,1.24s1.44-.24,1.48-1.07c.12-2.09,1.27-2.94,3.26-3,1.21-.05,1.44-1,1.46-2,.05-2.15,1.47-2,3-2.09s2.47.4,2.52,2.1c0,1,.27,2,1.67,2s1.5-.94,1.53-1.9c.06-1.83,1-2.2,2.71-2.19s2.84.28,2.86,2.28c0,1,.37,1.81,1.61,1.81s1.54-.84,1.57-1.83c0-1.77.87-2.32,2.62-2.26s2.92.14,2.93,2.21a1.84,1.84,0,0,0,2,2c1.36.06,2.37.56,2.55,2.1.11.91.18,1.94,1.5,1.89s1.22-1.13,1.33-2a5.15,5.15,0,0,1,.27-1.34,1.28,1.28,0,0,1,.45-.55,9.32,9.32,0,0,1,2.74,0,2.15,2.15,0,0,1,2.44,2.15c.08.94.21,1.91,1.51,1.87s1.28-1.06,1.36-2a4.38,4.38,0,0,1,.3-1.57,1,1,0,0,1,.5-.48,11.5,11.5,0,0,1,2.75,0,2.09,2.09,0,0,1,2.32,2c.1,1,.2,2.1,1.64,2s1.15-1.21,1.25-2.09a4,4,0,0,1,.35-1.56.92.92,0,0,1,.58-.42,12.89,12.89,0,0,1,2.06,0c1.68,0,2.82.58,3,2.45.07.92.41,1.66,1.55,1.56.76-.08,1-.57,1.06-1.26a1.49,1.49,0,0,0-1.41-1.75c-1.17-.19-2.38-.45-2.45-1.93-.06-1.21-.63-2.77,1.27-3.17,2.66-.56,3.76,0,4.08,2.06.19,1.24.62,2,2,2a2.39,2.39,0,0,1,2.68,2.49c.06.93.41,1.65,1.55,1.54a1.13,1.13,0,0,0,1.08-1.25,1.48,1.48,0,0,0-1.37-1.77c-1.29-.18-2.5-.5-2.55-2.1,0-1.15-.46-2.59,1.25-3,2.46-.6,3.83,0,4.14,2,.2,1.24.69,2,2,2.09,1.61.08,2.57.8,2.66,2.51.1,2.11,2,1.43,3.12,2a1.45,1.45,0,0,1,.58.49,5.06,5.06,0,0,1,.47,2.2c.09,1,.64,1.39,1.59,1.6,3.05.68,3.33,1.21,2.66,4.61a1.4,1.4,0,0,1-.49.56,7.2,7.2,0,0,1-2.47.45,1.29,1.29,0,0,0-1.24,1.39c0,.72.1,1.62.95,1.58,4.23-.16,3.64,3.46,4.37,5.78a5.69,5.69,0,0,1-.45,4.68,2.7,2.7,0,0,0,0,2.46,7.69,7.69,0,0,1,0,6.4,3,3,0,0,0,.08,2.47,7.59,7.59,0,0,1,0,6.19,3,3,0,0,0,0,2.46,7.61,7.61,0,0,1,0,6.2,3.14,3.14,0,0,0-.06,2.46,7.71,7.71,0,0,1,0,6.41,3,3,0,0,0,0,2.47,7.67,7.67,0,0,1,0,6.19,3.08,3.08,0,0,0,0,2.47,7.77,7.77,0,0,1,0,6.42,3.12,3.12,0,0,0,.06,2.47,7.63,7.63,0,0,1,0,6.19,2.89,2.89,0,0,0,0,2.47c1.58,3.18,0,6.11-.69,9.1-.21,1-1.23,1.06-2.08,1.14-1.14.1-2.17.29-2.09,1.81s1.16,1.38,2.15,1.47a4.76,4.76,0,0,1,1.35.27,1.47,1.47,0,0,1,.57.45c.93,3.38.58,4.07-2.58,4.81-1,.22-1.49.66-1.51,1.67s.59,1.47,1.56,1.53a5.78,5.78,0,0,1,2,.32,1.27,1.27,0,0,1,.54.46c.84,3.34.54,3.93-2.61,4.8-1,.29-1.57.83-1.49,1.92s.77,1.19,1.57,1.25a6,6,0,0,1,2,.33,1.2,1.2,0,0,1,.53.47c.82,3.36.56,3.86-2.67,4.79a1.68,1.68,0,0,0-1.45,1.74c0,1.12.73,1.37,1.65,1.43a5.32,5.32,0,0,1,2,.35,1.25,1.25,0,0,1,.51.51c.15,2.21,1.31,4.21,1.28,6.46a5.85,5.85,0,0,1-.52,2.89,3.44,3.44,0,0,0,0,3.11,6.71,6.71,0,0,1,0,5.53,3.8,3.8,0,0,0-.06,3.13,6.79,6.79,0,0,1,0,5.73,3.8,3.8,0,0,0,0,3.13,6.55,6.55,0,0,1,0,5.51,3.76,3.76,0,0,0,0,3.13,6.63,6.63,0,0,1,0,5.72,3.47,3.47,0,0,0,0,2.92,7,7,0,0,1,0,5.94,3.54,3.54,0,0,0,0,2.92,6.76,6.76,0,0,1,0,5.73,3.54,3.54,0,0,0,0,2.92,7.07,7.07,0,0,1,0,5.95,3.62,3.62,0,0,0,0,2.92,6.72,6.72,0,0,1,0,5.73,3.58,3.58,0,0,0,0,2.92,7,7,0,0,1,0,5.95,3.62,3.62,0,0,0,0,2.92,6.74,6.74,0,0,1,0,5.74c-.52,1.12-.18,2.44-.69,3.59a1.35,1.35,0,0,1-.53.53,4.26,4.26,0,0,1-1.79.37c-1.18,0-1.87.54-1.94,1.78-.1,1.75-1.15,2.35-2.78,2.32s-2.52-.53-2.72-2.16c-.11-1-.36-1.82-1.61-1.84s-1.56.78-1.64,1.77c-.15,1.63-1.11,2.22-2.64,2.23s-2.69-.5-2.88-2.26c-.1-1-.45-1.76-1.68-1.74s-1.47.91-1.57,1.86c-.17,1.66-1.22,2.14-2.71,2.14s-2.55-.47-2.76-2.12c-.12-.94-.3-1.84-1.57-1.88s-1.61.9-1.73,1.94c-.17,1.54-1.15,2-2.55,2.06s-2.61-.29-2.87-2c-.16-1-.27-2-1.69-2s-1.52,1-1.65,2c-.21,1.56-1.24,2-2.62,2s-2.46-.26-2.76-1.83c-.2-1-.23-2.22-1.79-2.18s-1.44,1.14-1.59,2.1c-.25,1.57-1.33,1.91-2.68,1.91s-2.46-.34-2.7-1.9c0-.15-.07-.3-.09-.45-.13-.91-.44-1.62-1.54-1.66s-1.59.71-1.68,1.72a2.29,2.29,0,0,1-2.59,2.3c-1.57,0-2.72-.44-2.92-2.22-.1-1-.4-1.79-1.63-1.81s-1.52.83-1.62,1.81c-.17,1.62-1.14,2.21-2.66,2.22s-2.68-.55-2.85-2.29c-.1-1-.47-1.77-1.69-1.74s-1.46.92-1.57,1.87c-.18,1.64-1.21,2.16-2.71,2.16s-2.55-.46-2.75-2.12c-.11-.93-.23-1.86-1.52-1.92s-1.66.83-1.78,1.9c-.18,1.66-1.25,2.13-2.73,2.14s-2.53-.5-2.72-2.15c-.11-.94-.29-1.83-1.56-1.88s-1.62.88-1.75,1.93c-.19,1.67-1.3,2.09-2.77,2.09s-2.51-.54-2.68-2.17c-.11-1-.33-1.83-1.6-1.85s-1.56.76-1.66,1.76c-.17,1.76-1.28,2.27-2.87,2.26s-2.49-.6-2.63-2.23c-.1-1-.39-1.79-1.64-1.78s-1.51.84-1.62,1.81c-.2,1.78-1.36,2.21-2.92,2.2a2.27,2.27,0,0,1-2.59-2.29c-.07-.89-.32-1.66-1.45-1.71s-1.66.59-1.76,1.65c-.16,1.71-1.17,2.35-2.8,2.36s-2.63-.64-2.75-2.37c-.06-.93-.39-1.63-1.51-1.64s-1.58.72-1.71,1.73c-.15,1.18-.64,2.09-1.95,2.19s-2.67.33-3.36-1.24c0-1.9-.75-3.09-2.9-2.91a1.77,1.77,0,0,1-1.23-.45,2,2,0,0,1-.58-1.44c.05-1.69-.49-2.74-2.42-2.74-1.05,0-1.49-.8-1.74-1.79-.64-2.56-1.09-2.72-3.27-1.25a.88.88,0,0,1-.83.2,3.73,3.73,0,0,1-.58-2.62c0-1.91,0-3.82,0-5.74,0-6.52,1.34-8.23,7.48-9.7-1.62-.85-3.17-.57-4.73.85-1.9,1.73-1.9,1.73-3.23-.25-.4.23-.39.65-.4,1-.07,5-.05,9.94,0,14.91a2.43,2.43,0,0,0,.37,1.31c.48.76,2.09,1.13,1.31,2.28-.95,1.39-2.49,1-3.89.53-1.2-.67-.74-2.05-1.29-3.16-.67,1.58.43,2.31,1.2,3.18a5.13,5.13,0,0,1,0,4.15,1.45,1.45,0,0,1-.56.51c-.3.06.09.09-.21.07-2.5-.14-3.77,1-3.87,3.53-1.67,1.21-3.29,1.3-4.85-.21a2.81,2.81,0,0,1-.35-2c.48-1.24,1.7-1.46,2.71-1.94a6,6,0,0,0,3.75-5.35c.22-6,.12-12.08,0-18.12a1,1,0,0,0-.4-.81c-.85.3-.43,1.74-1.45,1.79-.83,0-1.28-.76-1.83-1.26a7,7,0,0,0-4.42-1.66c-1.05-.07-2.16.13-3.1-.55-.45-.84.2-1.62.13-2.45s-.18-1.4-1.07-1.5-1.48.15-1.52,1c-.12,2.29-1.16,3.53-3.54,3.57-.85,0-1,.74-1.2,1.45-.63,2.56-2.37,3.34-4.69,2-.37-.2-.48-.26-.75,0-1.28-1.2-.76-2,.62-2.45.64-.23,1.36-.11,2.27-.4-1.16-.45-2.4-.05-3.1-.91s-.22-1.92-.32-2.89c-.08-.81.08-1.69-.86-2.45-.89,1.16-.47,2.48-.55,3.66a2.45,2.45,0,0,1-2.39,2.44c2.59,1.36,3.12,3.64,1.93,7.58a3.21,3.21,0,0,0-.91,1.49c-.59,3.41-.94,3.6-4.49,2.83-2-2.53-4.86-3.28-7.9-3.63a42.5,42.5,0,0,1-4.74-.88c-1.74-.4-3-1.25-3-3.22a4,4,0,0,1,2.94-3.94,9,9,0,0,1,10,2.87.72.72,0,0,0,.89.33c-.07-2.09-1.55-3.07-3.22-3.55a15.23,15.23,0,0,0-8.62,0c-2.75.82-3.74,2.67-3.24,5.45a10.39,10.39,0,0,1,.24,1.58c0,.69-.42,1.28-.48,2-.07.89-.29,1.89,1,2.08,1.12.17,1.7-.34,1.7-1.49a1,1,0,0,1,.37-.78c1.81-.32,3.46.42,5.16.78,1.07,2.23,2.78,1.55,4.47,1a1.52,1.52,0,0,1,1.51,1.14c-1.45,1.37-1.41,3.09-1.17,4.87a4.15,4.15,0,0,1-2,.85c-1.7.11-3.4.09-5.1,0a2.16,2.16,0,0,1-1-.39c-.49-1.07.51-1.06,1-1.31a1.54,1.54,0,0,0,.91-1.84c-.11-.74-.61-1-1.29-1-.92,0-1.34.5-1.47,1.37-.1.66-.12,1.37-.79,1.78-1.2.23-1.62-.66-2-1.47-.58-1.22-1.31-1.37-2.31-.5a5.66,5.66,0,0,1-2.8-2,2.39,2.39,0,0,1,0-1c.27-1.68.38-3.29,1.7-4.75,1.18-1.31.11-2.52-2.27-2.75a3.37,3.37,0,0,1-1.09-.82c-4.64-4.65-11.09-4.74-15.75-.23a2.9,2.9,0,0,1-1.69,1.12c-1.14-.09-2.37.17-3.28-.85-.36-1,.22-1.94.47-2.88,1.53-5.71-1.59-9.95-7.48-10.08-3.44-.07-6.88,0-10.33,0-2.69,0-2.9.21-2.91,2.86,0,6.73,0,13.46,0,20.2a6.06,6.06,0,0,1-.51,3.35,1.57,1.57,0,0,1-1.8.3c-.76-.45-.8-1.23-.87-2-.1-1,0-2.1-1.44-2.17-1.63-.09-1.8,1.06-1.9,2.27a2.25,2.25,0,0,1-.88,1.92c-.29.07.1.08-.2.08-2.24,0-3.34,1.12-3.32,3.36a1.59,1.59,0,0,1-1.07.89c-1.59.22-3.58-.06-3.3,2.57a2.09,2.09,0,0,1-1.11,2A3.81,3.81,0,0,1,295.08,484.22Z" transform="translate(-184.41 -159.07)" style="fill:#f2f1f1"/><path d="M562.19,383.36h-2.07c-1.28,0-2.59.33-2.59-1.82,0-2,.63-3,2.61-2.76,1.63.15,2.25-.5,2.06-2.1a17.86,17.86,0,0,1,0-2.07c.8-.56.71-1.42.74-2.34-.28.83,0,1.75-.74,2.34h-2.07c-1.28,0-2.59.33-2.59-1.82,0-2,.63-3,2.61-2.76,1.63.15,2.25-.5,2.06-2.1a17.86,17.86,0,0,1,0-2.07c.8-.56.71-1.42.74-2.34-.28.83,0,1.75-.74,2.34-.69,0-1.37,0-2.06,0-1.43.06-2.67.18-2.61-2,.05-2,.67-2.87,2.66-2.59,1.65.23,2.19-.54,2-2.09a20.21,20.21,0,0,1,0-2.06c.8-.56.71-1.42.74-2.34-.28.83,0,1.75-.74,2.34h-1.84c-2.67,0-3.44-1.07-2.74-3.67.36-1.37,1.46-1,2.25-.89,1.78.14,2.6-.44,2.35-2.31a2.32,2.32,0,0,1,.72-2,3.31,3.31,0,0,0,.09-4.33,3.13,3.13,0,0,1-.06-4.37,3.55,3.55,0,0,0,.08-4.38c-1.22-1.66-1.19-2.87.07-4.51a3.5,3.5,0,0,0-.05-4.24c-1.27-1.62-1.22-2.86,0-4.49a3.47,3.47,0,0,0,0-4.24c-1.26-1.63-1.25-2.87,0-4.5a3.48,3.48,0,0,0,0-4.24c-1.26-1.63-1.27-2.87,0-4.5a3.47,3.47,0,0,0,0-4.24c-1.25-1.63-1.3-2.87,0-4.5a3.5,3.5,0,0,0,.05-4.24c-1.26-1.63-1.29-2.85-.07-4.51a3.51,3.51,0,0,0-.08-4.37,3,3,0,0,1-.06-4.19c1.19-1.4.63-2.83.41-4.28,0-.2-.68-.34-.68-.52-.08-3-1.29-4.47-4.59-4.31-.8,0-.41-2.18-.39-3.36,0-1,.86-.9,1.55-.91h3c.7.62.51,1.51.71,2.46,0-1,.1-1.87-.71-2.47,0-.83,0-1.67,0-2.5.06-1.12-.33-1.81-1.55-1.63-2.62.4-3.4-.87-3.07-3.25a10.29,10.29,0,0,0,0-1.36,4.29,4.29,0,0,1,4.17-.37c1,.61,1,1.6,1.09,2.89A2.62,2.62,0,0,0,562,256c-.33-2-1.07-3.44-3.46-3.63-1.13-.1-1.54-1.35-1.61-2.51,0-.93-.36-1.67-1.5-1.58a1.07,1.07,0,0,0-1.12.94c-.16,1.05.38,1.46,1.33,1.77,2.78.88,3.31,2.4,2,5.26a17.85,17.85,0,0,0-2.07,0c-1.6.18-2.3-.46-2.07-2.08s-.41-2.26-2.05-2.1c-2,.19-2.84-.79-2.56-2.76.24-1.66-.72-1.86-2.07-1.86s-2.21.21-2.1,1.87c.08,1.29-.08,2.52,1.84,2.33.89-.08,2-.21,2.23,1,.19,1,.49,2.29-.18,3.12s-2,.46-3,.34-.86-1.17-.78-1.86c.17-1.7-.45-2.46-2.19-2.21-2,.28-2.69-.7-2.44-2.54.21-1.62-.47-2.16-2.08-2.1-1.35,0-2.15.21-2.12,1.87s.18,2.58,2.09,2.34c.84-.1,1.86-.08,2,1s.6,2.48-.34,3.27c-.79.67-2.06.37-3.1.14-.67-.14-.66-.83-.58-1.34.38-2.35-.77-3-2.87-2.7a5.3,5.3,0,0,1-1.76-.42c-.68-.64-.58-1.52-.72-2.32a1.25,1.25,0,0,0-1.44-1.11,1.14,1.14,0,0,0-1.26,1.26,1.26,1.26,0,0,0,1.11,1.45c.8.14,1.68,0,2.31.72a15.75,15.75,0,0,0,0,2.28c.28,2-.7,2.49-2.5,2.35-1.09-.08-1.83-.32-1.65-1.55.32-2.13-.55-3-2.64-2.63a3.16,3.16,0,0,1-2-.45c-.68-.64-.58-1.52-.72-2.32a1.25,1.25,0,0,0-1.44-1.11,1.14,1.14,0,0,0-1.26,1.26,1.26,1.26,0,0,0,1.11,1.45c.8.14,1.68,0,2.31.72a15.75,15.75,0,0,0,0,2.28c.28,2-.7,2.49-2.5,2.35-1.09-.08-1.83-.32-1.65-1.55.32-2.12-.55-3-2.64-2.63a3.14,3.14,0,0,1-2-.45c-.68-.64-.58-1.52-.72-2.32a1.25,1.25,0,0,0-1.44-1.11,1.14,1.14,0,0,0-1.26,1.26,1.26,1.26,0,0,0,1.11,1.45c.8.14,1.68,0,2.31.72a17.64,17.64,0,0,0,0,2.3c.23,1.8-.46,2.45-2.31,2.35-1.35-.08-2-.44-1.85-1.86.24-1.75-.37-2.62-2.26-2.34s-2.57-.63-2.34-2.4-.42-2.27-2.16-2.26-2.18.69-2,2.2c.2,1.7-.38,2.52-2.28,2.52s-2.54-.76-2.31-2.49-.49-2.22-2.2-2.23-2.13.76-2,2.23c.2,1.73-.45,2.48-2.31,2.49s-2.48-.82-2.28-2.52c.17-1.51-.29-2.18-2-2.2s-2.39.57-2.16,2.26-.52,2.64-2.34,2.4c-1.62-.21-2.54.29-2.26,2.11.25,1.63-.51,2.08-2.09,2.09s-2.24-.52-2.07-2.12a23.73,23.73,0,0,0,0-2.53c.63-.68,1.51-.58,2.31-.72a1.27,1.27,0,0,0,1.11-1.45,1.14,1.14,0,0,0-1.26-1.26,1.25,1.25,0,0,0-1.44,1.11c-.14.8,0,1.68-.72,2.32-.43.14-.88.46-1.29.41-2.38-.27-3.77.26-3.4,3.13.19,1.41-1.22,1-2,1s-2,.3-2-1.15c0-1.14,0-2.29,0-3.43.63-.68,1.51-.58,2.31-.72a1.27,1.27,0,0,0,1.11-1.45,1.14,1.14,0,0,0-1.26-1.26,1.25,1.25,0,0,0-1.44,1.11c-.14.8,0,1.68-.72,2.32-.36.14-.73.42-1.07.39-2.3-.16-4.16.06-3.59,3.18.14.76-.51,1.08-1.2,1-.93-.11-2.08.5-2.75-.55a2.64,2.64,0,0,1,2.16-4c1.38,0,1.94-.43,1.87-1.85s.11-2.4-1.82-2.38c-1.71,0-2.63.36-2.37,2.29.18,1.36-.14,2.58-1.9,2.34-2.29-.3-3,.7-2.7,2.84a2.69,2.69,0,0,1-.45,1.75c-2.68,1.47-5.62,1.41-8.54,1.42-1.6-1,0-1.34.36-1.95a2,2,0,0,1,1.48-.51c1.59.06,2.37-.57,2.44-2.25a2.41,2.41,0,0,1,2.37-2.36c1.06-.14,1.73-.59,1.57-1.78a1,1,0,0,0-1.09-1c-1.24-.08-1.52.76-1.62,1.75-.16,1.56-.9,2.64-2.56,2.69a1.88,1.88,0,0,0-2.09,2.12,2,2,0,0,1-.63,1.43,3.33,3.33,0,0,1-4.05,0c-1-.77-.78-2.07-.64-3.21a2.26,2.26,0,0,1,2.11-2.06c.91-.15,1.89-.25,1.77-1.58a1.12,1.12,0,0,0-1.18-1.13c-1.31-.07-1.35,1-1.61,1.83a3.86,3.86,0,0,1-.25.64c-1.89,1.72-2.83,1.85-5,.69a2.7,2.7,0,0,1-.52-1.47c-.1-1-.23-1.84-1.51-1.82-1.12,0-1.32.8-1.47,1.66a2.9,2.9,0,0,1-.37,1.07c-2.69,2.16-4.48,1.77-5.47-1.24-.26-.8-.55-1.41-1.51-1.39s-1.17.58-1.33,1.3a3,3,0,0,1-2.14,2.45,2.61,2.61,0,0,1-3.68-1.92c-.24-.78-.19-1.74-1.35-1.82s-1.33.73-1.66,1.54c-1,2.48-2.82,3-5.29,1.59a2.85,2.85,0,0,1-.48-1.47c-.1-.83-.18-1.67-1.3-1.76s-1.53.68-1.67,1.65a2.74,2.74,0,0,1-.37,1.06c-2.73,2.21-4.33,1.81-5.52-1.44-.22-.61-.46-1.12-1.19-1.17-.95-.07-1.28.51-1.62,1.28-1.2,2.73-2.88,3.28-5.36,1.83a3.27,3.27,0,0,1-.5-1.69c-.09-.81-.33-1.46-1.3-1.52s-1.47.53-1.61,1.46a2.83,2.83,0,0,1-.46,1.25c-2.9,2.18-4.19,1.83-5.48-1.5-.24-.63-.52-1.08-1.24-1.12-1-.05-1.24.59-1.55,1.35-1.11,2.69-2.82,3.24-5.35,1.79a3.29,3.29,0,0,1-.51-1.7c-.08-.81-.31-1.48-1.29-1.53s-1.48.53-1.62,1.47a3.14,3.14,0,0,1-.43,1.28c-1.5,1.42-3.09,1.85-4.87.51a3.14,3.14,0,0,1-.53-1.71c-.08-.8-.29-1.49-1.28-1.56s-1.5.52-1.64,1.47a3.18,3.18,0,0,1-.43,1.29c-1.5,1.42-3.09,1.85-4.87.51a3.14,3.14,0,0,1-.53-1.71c-.08-.81-.29-1.49-1.29-1.56s-1.49.52-1.63,1.47a3.18,3.18,0,0,1-.43,1.29c-1.5,1.42-3.09,1.85-4.87.51a3.14,3.14,0,0,1-.53-1.71c-.08-.81-.29-1.49-1.29-1.56s-1.49.52-1.63,1.47a3.18,3.18,0,0,1-.43,1.29c-1.5,1.42-3.09,1.85-4.87.51a3.14,3.14,0,0,1-.53-1.71c-.08-.8-.29-1.49-1.29-1.56s-1.49.52-1.63,1.47a3.18,3.18,0,0,1-.43,1.29c-1.5,1.42-3.09,1.85-4.87.51a3.13,3.13,0,0,1-.53-1.7c-.08-.81-.28-1.5-1.28-1.57s-1.5.51-1.64,1.46a3,3,0,0,1-.43,1.29c-1.48,1.43-3.07,1.85-4.85.54a3.1,3.1,0,0,1-.52-1.44c-.42-2.11-.86-2.29-3-1.29-1.36,3.65-2.55,4.25-5.25,2.68a3,3,0,0,1-.45-1.27c-.45-2.23-.85-2.41-3.05-1.41-1.36,3.64-2.56,4.25-5.25,2.68a3.07,3.07,0,0,1-.45-1.28c-.45-2.23-.87-2.42-3.06-1.37-1.3,3.52-2.36,4.12-5.11,2.86,0-1.54-.6-3.67.16-4.44s2.9-.17,4.44-.17q131.07,0,262.16,0c1.85,0,2.24.35,2.24,2.23q-.09,119.34,0,238.69c0,1.57-.31,2.18-1.88,1.84a5.19,5.19,0,0,0-4.61,0h-4.14a5.19,5.19,0,0,0-4.61,0h-4.14a5.19,5.19,0,0,0-4.61,0h-4.14a5.19,5.19,0,0,0-4.61,0h-4.14a5.19,5.19,0,0,0-4.61,0h-4.14a5.19,5.19,0,0,0-4.61,0h-4.14a5.19,5.19,0,0,0-4.61,0h-4.14a5.19,5.19,0,0,0-4.61,0h-4.14a5.19,5.19,0,0,0-4.61,0h-4.14a5.19,5.19,0,0,0-4.61,0h-4.14a5.19,5.19,0,0,0-4.61,0h-4.14a5.19,5.19,0,0,0-4.61,0h-4.14a5.19,5.19,0,0,0-4.61,0h-4.14a5.19,5.19,0,0,0-4.61,0h-4.14a5.19,5.19,0,0,0-4.61,0h-4.14a5.19,5.19,0,0,0-4.61,0H369.22c-1.29-.84-2.69-.4-4.06-.35-1.11.08-2.29-.55-3.31.35h-5.52a2.8,2.8,0,0,0-3.23,0h-5.52a2.8,2.8,0,0,0-3.23,0h-5.52a2.8,2.8,0,0,0-3.23,0h-5.52a2.8,2.8,0,0,0-3.23,0h-5.52a2.8,2.8,0,0,0-3.23,0h-1.38c-1.29-.84-2.69-.4-4.06-.35-1.11.08-2.29-.55-3.31.35H308c-1.29-.84-2.69-.4-4.06-.35-1.11.08-2.29-.55-3.31.35h-1.38c-1.21-1.06-2.93.12-4.14-.92v-.93a4.62,4.62,0,0,0,3.68-3.67c.66-.49.4-1.21.47-1.85,1.25,0,1.32.83,1.35,1.74,0,.3,0-.09,0,.22-.47,3.41-.18,3.68,3.32,3.1,2.16.12,3.32-.78,3.15-3.05,0-.15.06-.29.09-.44.6-3.59.2-4-3.25-3.2-.64-.1-1.11-.35-1-1.13a1,1,0,0,0,.93-.47,4.59,4.59,0,0,0,3.67-3.67c.66-.49.4-1.21.47-1.85,1.25-.05,1.31.82,1.35,1.72,0,.3,0-.08,0,.22-.49,3.43-.22,3.69,3.23,3.14,1.36-.36,2.94.18,4.07-1a1,1,0,0,1,.64,0c1,1.63,2.56,1.38,4.1,1a16.28,16.28,0,0,1,1.83-.21c.71-.08,1.43-.22,1.48-1.12,0-1.06-.76-1.19-1.55-1.29a5,5,0,0,1-1.57-.29,1.48,1.48,0,0,1-.49-.44c.05-2.42-1.38-3.64-3.5-4.3-1-1.48-.69-3.18-.78-4.8,0-.45.07-1.14.9-.89.93,1.19,2.62.27,3.61,1.3a2.14,2.14,0,0,1,.61,1.19c.18.8-.19,2,1.3,1.92.71,0,1.47-.25,1.47-1.12,0-1.49-1.29-1.2-2.19-1.39a2.26,2.26,0,0,1-1.2-.61,2.28,2.28,0,0,0-1.83-.69c-.72-.07-1.55-.05-1.86-1,.7-.94,1.74-.82,2.7-.84,2.2-.05,4.41-.11,6.6,0a22.46,22.46,0,0,0,6.92-1A1.4,1.4,0,0,1,335,464c.54,1.49,1.86,2,3.09,2.69a10.41,10.41,0,0,1,.52,4.76c-.3.67-.89.41-1.39.43-.95,0-1.34.57-1.4,1.44s.29,1.39,1.11,1.43c1.66.1,2.3.94,2.59,2.55s1.48,1.55,3.45-.18c1.89-.16,3.68.53,5.53.6,1.12.58,2.24,1,3.29-.14a.88.88,0,0,1,.58.21c1,1.61,2.5,1.19,4,.9a5,5,0,0,1,.66-.11c2.77-.28,2.77-.28,2.72-3.09.18-.68.26-1.42,1.18-1.53a1.78,1.78,0,0,1,.78,1.49c0,.3,0-.09,0,.22-.22,3.4,0,3.6,3.42,3,1.08-.23,2.25,0,3.21-.76a1.75,1.75,0,0,1,1.33.05c1.14,1.38,2.61,1,4.07.77a4.43,4.43,0,0,1,1.35-.17c1.67.13,2.19-.65,1.81-2.2.36-.69.57-1.59,1.68-1.38a1.91,1.91,0,0,1,.35.58,1.65,1.65,0,0,1,.1.44c.29,3.2.29,3.2,3.6,2.66,1.67-.23,3.42-.13,4.88-1.2.62-.32,1.35-.2,2-.5.1-.93-2.08-.35-1.18-1.79,2.53-.6,3-.43,3.67,1.79a2.71,2.71,0,0,0,1.82,1.79c.13.08.32.27.3.3-1.48,1.53-.18,3.29-.41,4.92a1.56,1.56,0,0,1-2.22.33,1.87,1.87,0,0,1-.53-.71c-.92-2.78-.92-2.78-3.8-2.63a14.88,14.88,0,0,0-4.47-.12c-2.89-.13-2.89-.13-3.31,3.36-.06.37-.16.74-.19,1.12-.17,2.12.15,2.45,2.23,2.32a10.5,10.5,0,0,0,1.12-.2c2.5.19,3.67-1.1,3.85-3.48a2.38,2.38,0,0,1,1-.38c1.25-.07,2.52-.3,3.69.38a2.31,2.31,0,0,1,.86,1.53c.11.75.18,1.55,1.19,1.64A1.89,1.89,0,0,0,395,486.1a3,3,0,0,1,1.21-1.31,26.49,26.49,0,0,1,6.77.43c1,1.79-1.17,1-1.43,1.8,1,.6,2.21-.35,3.16.42,1.22,1.7,2.71.93,4.17.46a1.38,1.38,0,0,1,1-.5c2.29.15,3-1.22,3.16-3.17h.46c2.69-1.26,3.85-.87,4.86,1.72.82,2.14,2.41.75,3.68.87a5,5,0,0,0,4.54.59c1.47,0,3-.7,4.41,0,.78,1.67,2.26.92,3.39.8s.79-1.35.73-2.1c-.16-1.81.83-2,2.25-1.95s2.67,0,2.39,2c-.21,1.48.23,2.22,2,2.22s2.44-.52,2.18-2.24c-.3-2,1-2,2.41-2s2.46.19,2.19,2,.4,2.28,2.16,2.27,2.21-.7,2-2.2c-.29-2,.89-2,2.36-2.05,1.65-.06,2.52.37,2.25,2.17s.56,2,2.11,2.07,2.26-.59,2-2.15c-.29-1.9.78-2.08,2.32-2.09s2.57.27,2.29,2.12c-.25,1.61.46,2.12,2.06,2.12s2.33-.48,2.08-2.11c-.28-1.84.68-2.16,2.28-2.13s2.62.16,2.33,2.08c-.23,1.55.36,2.14,2,2.17s2.36-.67,2.12-2.3c-.26-1.82.83-1.94,2.23-1.94s2.66.06,2.38,2c-.21,1.49.26,2.2,2,2.21s2.42-.56,2.16-2.26c-.3-2,1-1.94,2.42-2s2.45.22,2.18,2,.44,2.26,2.17,2.26,2.19-.73,2-2.22c-.28-2,.92-2,2.38-2s2.49.13,2.23,1.94c-.24,1.64.33,2.28,2.12,2.3s2.2-.9,2-2.4c-.24-1.94,1.05-1.8,2.33-1.83s2.53,0,2.28,1.89c-.22,1.58.22,2.34,2.08,2.34s2.27-.8,2.06-2.36c-.25-1.89.95-1.88,2.29-1.87s2.56-.08,2.32,1.84c-.19,1.52.12,2.41,2,2.39s2.33-.7,2.1-2.32c-.26-1.83.86-1.9,2.25-1.92s2.64.09,2.36,2c-.22,1.51.29,2.18,2,2.2s2.4-.6,2.16-2.27.75-2,2.2-2,2.7,0,2.4,2c-.26,1.71.46,2.24,2.18,2.23s2.17-.74,2-2.22c-.28-2,.95-2,2.39-2s2.48.16,2.22,1.95.36,2.27,2.13,2.29c1.95,0,2.19-.93,2-2.42-.23-1.95,1.07-1.77,2.35-1.81s2.52.05,2.26,1.9c-.23,1.6.26,2.32,2.09,2.33s2.25-.83,2.06-2.37.43-2,1.84-1.85c.91.08,1.84,0,2.76,0,.71.63.51,1.52.71,2.46,0-1,.1-1.86-.71-2.46.23-1.78-.61-3.69,1.2-5.28.59-.52.61-2.31-.18-3.23-1.52-1.75-1.52-3.23-.06-5.07a3,3,0,0,0-.1-3.8,3.54,3.54,0,0,1-.07-4.79,3.15,3.15,0,0,0-.08-4.09,3.43,3.43,0,0,1,.07-4.65,3.06,3.06,0,0,0,.09-3.94c-1.3-1.76-1.38-3.22.06-4.94a3,3,0,0,0,.1-3.63c-1.51-1.9-1.54-3.4,0-5.28a2.91,2.91,0,0,0,0-3.46c-1.56-1.88-1.53-3.37,0-5.28a3,3,0,0,0-.1-3.63c-1.44-1.72-1.39-3.2,0-4.93a3.07,3.07,0,0,0,0-3.8,3.46,3.46,0,0,1-.06-4.93,3.08,3.08,0,0,0,.08-3.81c-1.47-1.84-1.37-3.29.06-5.09a3,3,0,0,0,0-3.65c-1.5-1.82-1.47-3.31.05-5.07.79-.92.77-2.71.18-3.23-1.81-1.59-1-3.5-1.2-5.28.8-.56.71-1.42.74-2.34C562.65,381.85,562.91,382.77,562.19,383.36Z" transform="translate(-184.41 -159.07)" style="fill:#fafafa"/><path d="M295.08,251.65c3,.63,4.28-.94,4.59-3.69.06,0,.16.1.17.15.26,2.42,1.79,3.18,4,3.08,3,1,3.72.54,4.18-2.46a3,3,0,0,1,.41-.77c.06,0,.16.1.17.15.26,2.42,1.79,3.18,4,3.08,3,1,3.72.54,4.18-2.46a3,3,0,0,1,.41-.77c.06,0,.16.1.17.15.26,2.42,1.79,3.18,4,3.08,1.64.92,3.13.39,4.59-.46,1.37.35,2.79.18,4.16.46,1.64.92,3.13.39,4.59-.46,1.37.35,2.79.18,4.16.46,1.64.92,3.13.39,4.59-.46,1.37.35,2.79.18,4.17.46,1.63.92,3.12.39,4.58-.46,1.37.35,2.79.18,4.17.46,1.63.92,3.13.39,4.58-.46,1.37.35,2.79.18,4.17.46,1.63.92,3.13.39,4.59-.46,1.36.35,2.78.18,4.16.46,3,1,4.18.43,4.57-2.45.17-1.23.88-1.32,1.75-1.22s2-.55,2.41,1c.87,3.76.9,3.75,4.61,2.21,1.36.35,2.78.18,4.16.46,3,1,4.13.41,4.57-2.49.21-1.42,1.14-1.21,2-1.18s1.84-.4,2.15,1c.83,3.72,1.2,3.87,4.61,2.2,1.36.35,2.78.18,4.16.46,3,1,4.15.46,4.58-2.47.26-1.78,1.54-1.07,2.47-1.21,1.31-.19,1.78.47,1.71,1.74-.05.81-.25,1.82.76,2.22a3.31,3.31,0,0,0,3.07-.39c.9-.55.77-1.44.75-2.27,0-1.43,1-1.35,1.9-1.29s2-.44,2.27,1.17c.52,3.5,1.13,3.73,4.58,2a.93.93,0,0,1,.2,1,1.75,1.75,0,0,1-.42.52,3.9,3.9,0,0,1-2.16.53c-1,0-1.58.46-1.55,1.52s.78,1.33,1.7,1.37a4.34,4.34,0,0,1,2.21.4,1.47,1.47,0,0,1,.44.61c.3,1.34.22,2.5-1.37,3-2,.4-4-.24-5.93-.34-4.63-.23-9.13.61-13.66,1.3-.78,0-1.8-.21-1.84-1-.12-2.48-2.09-2.55-3.7-3.14-.75-.58-.76-1.45-.9-2.27-.17-1.05-.88-1.33-1.81-1.32s-1.32.59-1.39,1.46a2.94,2.94,0,0,1-.62,1.91c-.62.72-1.51.63-2.32.77s-1.22.79-1.14,1.65a1,1,0,0,0,1,1c.85.09,1.51-.15,1.67-1.12s.09-1.85.94-2.48a4.34,4.34,0,0,1,4.08-.05,1.9,1.9,0,0,1,.84,1.31,3.19,3.19,0,0,0,1.51,2.87c.49.26.36.77.08,1.19a2.53,2.53,0,0,1-1.53.79,2.91,2.91,0,0,1-1.5-.35c-1.44-.64-2.53-.4-3.08,1.22a19,19,0,0,1-9.68-2.66,8.84,8.84,0,0,1-.36-3.79v-.23c0-3.59,0-3.59-3.48-3.32a15,15,0,0,0-4.48-.13c-3.42-.19-3.47-.15-3.72,3.41a1.86,1.86,0,0,1-.45.91c-1.48-.12-2.93-.35-4.39-.58a1.49,1.49,0,0,1-.53-.4,4.45,4.45,0,0,1-.41-2c-.09-.87-.45-1.49-1.43-1.39a1.48,1.48,0,0,0-1.39,1.54c-.06.61.11,1.21,0,1.82a1.44,1.44,0,0,1-.84,1.06c-.55-.11-.72-.53-.86-1a3.11,3.11,0,0,1-.07-.44c-.18-3.19-.18-3.19-3.44-3a11.56,11.56,0,0,0-4.26.35,9.05,9.05,0,0,0-4.56-.36,11.56,11.56,0,0,0-4.22.36,9,9,0,0,0-4.54-.36,11.31,11.31,0,0,0-4.21.36,9,9,0,0,0-4.54-.36,11.24,11.24,0,0,0-4.2.36,8.8,8.8,0,0,0-4.49-.36c-3.44-.22-3.57-.09-3.53,3.37a1.36,1.36,0,0,1-.85,1c-.54-.12-.71-.55-.84-1a3.11,3.11,0,0,1-.07-.44c-.18-3.18-.18-3.18-3.39-2.94-3.56-.21-3.72-.06-3.53,3.39a8.87,8.87,0,0,0,.36,4.51A12.25,12.25,0,0,0,318,265a8.88,8.88,0,0,0,.36,4.54c-.32,1.38-.4,2.8-.67,4.2-.74.66-.38,1.55-.46,2.34-.09,1-.1,2-1.38,2.26-.51-1.53.67-3,.14-4.54a7.36,7.36,0,0,0-.34-4.18c.13-1.53.68-3,.34-4.59a7.54,7.54,0,0,0-.34-4.18c.15-1.53.66-3,.33-4.6.32-3.64.3-3.66-3.26-3.37-3.52-.22-3.66-.07-3.47,3.39a8.87,8.87,0,0,0,.36,4.51,12.25,12.25,0,0,0-.36,4.22,8.88,8.88,0,0,0,.36,4.54c-.32,1.38-.4,2.8-.67,4.2-.74.66-.38,1.55-.46,2.34-.09,1-.1,2-1.38,2.26-.51-1.53.67-3,.14-4.54a7.54,7.54,0,0,0-.34-4.18c.13-1.53.68-3,.34-4.59a7.54,7.54,0,0,0-.34-4.18c.15-1.53.66-3,.33-4.6.32-3.64.3-3.66-3.26-3.37-3.52-.22-3.66-.07-3.47,3.39a8.87,8.87,0,0,0,.36,4.51,12.25,12.25,0,0,0-.36,4.22,8.88,8.88,0,0,0,.36,4.54c-.32,1.38-.4,2.8-.67,4.2-.74.66-.38,1.55-.46,2.34-.09,1-.1,2-1.38,2.26-.51-1.53.67-3,.14-4.54a7.54,7.54,0,0,0-.34-4.18c.13-1.53.68-3,.34-4.59a7.44,7.44,0,0,0-.35-4.2,15.33,15.33,0,0,0,.34-4.68c1.08-3.17-1.49-3.32-3.35-4.05Z" transform="translate(-184.41 -159.07)" style="fill:#f9f9f9"/><path d="M298.76,256.26c.92,1.64.39,3.13-.46,4.59a2.35,2.35,0,0,1-3.22,0v-4.61A2.78,2.78,0,0,1,298.76,256.26Z" transform="translate(-184.41 -159.07)" style="fill:#fafafa"/><path d="M298.76,265c.92,1.64.39,3.13-.46,4.59a2.35,2.35,0,0,1-3.22,0V265A2.78,2.78,0,0,1,298.76,265Z" transform="translate(-184.41 -159.07)" style="fill:#fafafa"/><path d="M298.76,273.76c1.05,1.65.12,3.1-.46,4.59h-3.22v-4.61A2.78,2.78,0,0,1,298.76,273.76Z" transform="translate(-184.41 -159.07)" style="fill:#fafafa"/><path d="M298.76,256.26h-3.68v-4.14h1.14C299.52,252.11,300,252.88,298.76,256.26Z" transform="translate(-184.41 -159.07)" style="fill:#f2f1f1"/><path d="M298.76,273.76h-3.68v-4.14h3.22C300,270.82,299.23,272.31,298.76,273.76Z" transform="translate(-184.41 -159.07)" style="fill:#f2f1f1"/><path d="M298.76,265h-3.68v-4.14h3.22C300,262.07,299.23,263.56,298.76,265Z" transform="translate(-184.41 -159.07)" style="fill:#f2f1f1"/><path d="M298.76,484.23c-.05,4.18.49,3.62-3.68,3.67v-3.68Z" transform="translate(-184.41 -159.07)" style="fill:#fbfbfb"/><path d="M487.58,489.75a3.16,3.16,0,0,1,4.61,0Z" transform="translate(-184.41 -159.07)" style="fill:#f2f1f1"/><path d="M496.33,489.75a3.16,3.16,0,0,1,4.61,0Z" transform="translate(-184.41 -159.07)" style="fill:#f2f1f1"/><path d="M513.83,489.75a3.16,3.16,0,0,1,4.61,0Z" transform="translate(-184.41 -159.07)" style="fill:#f2f1f1"/><path d="M522.58,489.75a3.16,3.16,0,0,1,4.61,0Z" transform="translate(-184.41 -159.07)" style="fill:#f2f1f1"/><path d="M531.33,489.75a3.16,3.16,0,0,1,4.61,0Z" transform="translate(-184.41 -159.07)" style="fill:#f2f1f1"/><path d="M540.08,489.75a3.16,3.16,0,0,1,4.61,0Z" transform="translate(-184.41 -159.07)" style="fill:#f2f1f1"/><path d="M548.83,489.75a3.16,3.16,0,0,1,4.61,0Z" transform="translate(-184.41 -159.07)" style="fill:#f2f1f1"/><path d="M505.08,489.75a3.16,3.16,0,0,1,4.61,0Z" transform="translate(-184.41 -159.07)" style="fill:#f2f1f1"/><path d="M470.08,489.75a3.16,3.16,0,0,1,4.61,0Z" transform="translate(-184.41 -159.07)" style="fill:#f2f1f1"/><path d="M557.58,489.75a3.16,3.16,0,0,1,4.61,0Z" transform="translate(-184.41 -159.07)" style="fill:#f2f1f1"/><path d="M426.33,489.75a3.16,3.16,0,0,1,4.61,0Z" transform="translate(-184.41 -159.07)" style="fill:#f2f1f1"/><path d="M435.08,489.75a3.16,3.16,0,0,1,4.61,0Z" transform="translate(-184.41 -159.07)" style="fill:#f2f1f1"/><path d="M443.83,489.75a3.16,3.16,0,0,1,4.61,0Z" transform="translate(-184.41 -159.07)" style="fill:#f2f1f1"/><path d="M452.58,489.75a3.16,3.16,0,0,1,4.61,0Z" transform="translate(-184.41 -159.07)" style="fill:#f2f1f1"/><path d="M461.33,489.75a3.16,3.16,0,0,1,4.61,0Z" transform="translate(-184.41 -159.07)" style="fill:#f2f1f1"/><path d="M478.83,489.75a3.16,3.16,0,0,1,4.61,0Z" transform="translate(-184.41 -159.07)" style="fill:#f2f1f1"/><path d="M295.08,488.83c1.36.4,3.1-.91,4.14.92-1.23,0-2.46,0-3.68,0C294.63,489.78,295.27,489.11,295.08,488.83Z" transform="translate(-184.41 -159.07)" style="fill:#f2f1f1"/><path d="M303.82,489.28c1.45-.45,2.94-1.24,4.15.47h-4.14c-.16-.1-.22-.21-.17-.31S303.77,489.28,303.82,489.28Z" transform="translate(-184.41 -159.07)" style="fill:#f2f1f1"/><path d="M312.57,489.28c1.45-.45,2.94-1.24,4.15.47h-4.14c-.16-.1-.22-.2-.17-.31S312.52,489.28,312.57,489.28Z" transform="translate(-184.41 -159.07)" style="fill:#f2f1f1"/><path d="M365.07,489.28c1.45-.45,2.94-1.24,4.15.47h-4.14c-.16-.1-.22-.21-.17-.31S365,489.28,365.07,489.28Z" transform="translate(-184.41 -159.07)" style="fill:#e9e9e9"/><path d="M303.82,489.28v.47H300.6C301.46,488.08,302.67,488.93,303.82,489.28Z" transform="translate(-184.41 -159.07)" style="fill:#fbfbfb"/><path d="M326.85,489.75c1.08-1.66,2.15-1.22,3.23,0Z" transform="translate(-184.41 -159.07)" style="fill:#fbfbfb"/><path d="M312.57,489.28v.47h-3.23C310.21,488.08,311.42,488.93,312.57,489.28Z" transform="translate(-184.41 -159.07)" style="fill:#fbfbfb"/><path d="M344.35,489.75c1.08-1.66,2.15-1.22,3.23,0Z" transform="translate(-184.41 -159.07)" style="fill:#fbfbfb"/><path d="M353.1,489.75c1.08-1.66,2.15-1.22,3.23,0Z" transform="translate(-184.41 -159.07)" style="fill:#fbfbfb"/><path d="M318.1,489.75c1.08-1.66,2.15-1.22,3.23,0Z" transform="translate(-184.41 -159.07)" style="fill:#fbfbfb"/><path d="M335.6,489.75c1.08-1.66,2.15-1.22,3.23,0Z" transform="translate(-184.41 -159.07)" style="fill:#fbfbfb"/><path d="M365.07,489.28v.47h-3.23C362.71,488.08,363.93,488.93,365.07,489.28Z" transform="translate(-184.41 -159.07)" style="fill:#fbfbfb"/><path d="M410.25,260a52.67,52.67,0,0,1,19.66-.89c3.22.1,6.44.23,9.56-1a8.16,8.16,0,0,1,4-.41l8.66-1c6.36-.05,12.68.13,18.91,1.77a44.57,44.57,0,0,1,24.34,15.84c3.8,4.84,4,10.67,3.49,16.44-1.77,21.83-9.78,41.59-20.49,60.41-.22.39-.39.8-.68,1.4a30.51,30.51,0,0,0,10.37-.22c1.89-.27,3.76-.72,5.66-.9,4-.37,6.87,2.69,5.95,6.63-1.83,7.83-6.92,12.81-14.47,15.14a37.79,37.79,0,0,1-17.45,1.53c-1.22-.2-1.3.25-1.41,1.29-.93,8.81-1.89,17.62-3.54,26.34-1.83,9.64-7.94,15.22-17.05,17.79A35.87,35.87,0,0,1,431,421.57c-8.22-1.11-14.42-7.39-15.8-15.86-1.44-8.88-1.72-17.81-1.86-27.1A19.94,19.94,0,0,1,400,381c-4-.61-8-1.12-11.8-2.69-.5-.2-1.21-.26-1.45-.63-2.12-3.14-3.79-.93-5.68.3-4.78,3.11-10.48,2-15-2.83-5.61-6-8.94-13.31-11.9-20.78A242.8,242.8,0,0,1,341.24,308a57.31,57.31,0,0,1,2.11-29.6,1.37,1.37,0,0,1,0-1.58,28.72,28.72,0,0,0,1.43-2.89,26.63,26.63,0,0,1,11.45-11.25c1.89-.74,3.7-1.66,5.63-2.31,1.14-.29,2.29-.56,3.42-.9a13.54,13.54,0,0,1,3.79-.62,66.6,66.6,0,0,1,19.07.46,5.74,5.74,0,0,1,3.19,1.1l9.64,2.44c1.41-.36,2.84-.61,4.24-1l1.32-.52C407.48,260.06,409,260.24,410.25,260Z" transform="translate(-184.41 -159.07)" style="fill:#080808"/><path d="M479.85,463.37c0-10,3.82-16.25,10.41-18.81,8-3.1,16.86-1.36,22,4.32,5.7,6.28,5.81,19,0,25.23-1.38,1.48-1.08,2.12.31,3a15.72,15.72,0,0,1,1.94,1.62c.75.67,1.84,1.12.6,2.48-1,1.13-1.73,1.23-2.67.07-.18-.23-.49-.37-.69-.6-1.94-2.21-3.89-2.44-6.91-1.5-7.06,2.19-16.37,1.19-21.43-5.74A18.71,18.71,0,0,1,479.85,463.37Z" transform="translate(-184.41 -159.07)" style="fill:#306093"/><path d="M465.29,480.13a24.53,24.53,0,0,1-8.57-1.39,10.12,10.12,0,0,1-6.5-9.64c0-.72-.08-1.47,1-1.33.91.11,2.41-.51,2.55.76.43,3.77,2,6.58,5.65,7.88a19.17,19.17,0,0,0,10.19.49c4.41-.84,6.51-3.93,5.66-8.32a5.06,5.06,0,0,0-3.54-4.12c-3.27-1.15-6.7-1.56-10.05-2.31a37,37,0,0,1-4.85-1.33c-4.06-1.5-5.63-3.7-5.67-8.15,0-4.19,1.75-7.12,5.55-8.31a23.08,23.08,0,0,1,15.74.26,8.46,8.46,0,0,1,5.56,7.73c.06.72.45,1.75-.87,1.54-.95-.16-2.33.87-2.82-1-1.39-5.29-3.6-6.95-9.11-6.94-2.14,0-4.29-.15-6.36.6a5.71,5.71,0,0,0-4.06,6c0,3,1.26,4.75,4.2,5.53,4.36,1.14,8.81,1.93,13.14,3.18,5.49,1.58,7.37,4.32,7.05,9.48-.3,4.73-3.35,7.93-8.41,8.87A30.63,30.63,0,0,1,465.29,480.13Z" transform="translate(-184.41 -159.07)" style="fill:#306093"/><path d="M325.47,256.26a1,1,0,0,0,.45.92c.61.46.56,1.19.73,1.82a1.23,1.23,0,0,0,1.24,1.08,1.35,1.35,0,0,0,1.44-1.15c.22-.93,0-2,.71-2.78a1.23,1.23,0,0,1,.81-.38c2.07.18,3.09-1.08,3.83-2.74a3.44,3.44,0,0,1,4.14-.46,2.84,2.84,0,0,1,.17,3.51c-.25.15.12,0-.15.15a10.52,10.52,0,0,0-4.1,4.57c-.23.21-.46.52-.76.5-2.57-.23-3.33,1.44-3.72,3.51a2.83,2.83,0,0,1-2.25.87,1.37,1.37,0,0,0-1.37,1.69c.06.74.28,1.38,1.16,1.43s1.48-.58,1.59-1.53,0-1.69.74-2.32c.29-.12-.11-.1.19-.13a4.46,4.46,0,0,0,4.34-3.94c.23-.2.46-.46.76-.48,1.94-.12,2.95-1.06,2.86-3.07a1.5,1.5,0,0,1,.49-1c.27-.28.58-.59,1-.57,2,.13,3-1.11,3.7-2.72a3.44,3.44,0,0,1,4.14-.46c.92,1,.69,2.18.42,3.34a1.5,1.5,0,0,1-.45.58,1.21,1.21,0,0,1-.61.25c-2.38-.2-3.13,1.08-3,3.23a1.51,1.51,0,0,1-.18.64,1.24,1.24,0,0,1-.44.52,1.19,1.19,0,0,1-.64.23c-2.61-.33-3.47,1.12-3.53,3.41a1.24,1.24,0,0,1-.45.51c-2.8,0-3.75,1.57-3.69,4.1a1.39,1.39,0,0,1-.45.51c-.14.07-.28.18-.42.17-2.52-.22-3.76,1-3.84,3.47l-.25.22a20.21,20.21,0,0,1-2.06,0c-1.54-.17-2.32.37-2.09,2,.28,2-.59,2.62-2.59,2.66-2.19.06-2.07-1.17-2-2.61,0-.68,0-1.37,0-2.05.63-.69,1.51-.59,2.31-.73a1.25,1.25,0,0,0,1.11-1.44,1.15,1.15,0,0,0-1.26-1.26,1.25,1.25,0,0,0-1.44,1.11c-.14.8,0,1.68-.73,2.31h-3.68a3.46,3.46,0,0,1,.46-4.14c2.42-.58,2.46-2.82,3.2-4.57.63-.7,1.52-.62,2.34-.75a1.26,1.26,0,0,0,1.12-1.47,1.1,1.1,0,0,0-1.09-1.22c-.86-.07-1.5.21-1.63,1.18s-.12,1.85-1,2.46a2.87,2.87,0,0,1-3.41-.24,3.46,3.46,0,0,1,.46-4.14c1.64-.71,2.82-1.73,2.73-3.73a1.44,1.44,0,0,1,.69-1.15A3.7,3.7,0,0,1,325.47,256.26Z" transform="translate(-184.41 -159.07)" style="fill:#fafafa"/><path d="M393.7,483.73c-.26-.45-.55-.88-.79-1.34-1.21-2.27-1.05-2.65,1.3-3.12.6-.12.78.36,1,.73,2,3,5,4,9,2.81,2.78-.8,3.93-2.66,4-6.42a2,2,0,0,0-.11-.82c-4,2.52-8.16,3.15-12.52,1.18-2.82-1.27-4.16-3.71-4.83-6.61a37,37,0,0,1-.07-4.59c.32-4.08,2.37-6.74,6.12-7.92a2.26,2.26,0,0,1,2.38.26c3.6-.2,7.07-.05,9.31,3.42.58-.44.36-.94.36-1.34,0-.88-.13-1.6,1.21-1.6s1.17.84,1.17,1.65c0,5.74,0,11.47,0,17.21-.06,4.74-1.4,6.47-5.9,8-.4.14-.91.21-1.07.74-.47.34-.69,0-.92-.33a30.24,30.24,0,0,1-7.35-.57A2.08,2.08,0,0,1,393.7,483.73Z" transform="translate(-184.41 -159.07)" style="fill:#171717"/><path d="M334.2,463.45c-2.35,1.5-5,1.63-7.67,1.66-2.95,0-5.91-.36-8.84.23l0,0c-.55,1.83-.11,3.66,0,5.48.41,1.58.24,3.24.59,4.83,0,.84,0,1.7-1.05,2l-.22,0-.21.1a1.64,1.64,0,0,1-2.34-2.3c0-8.36.12-16.71.06-25.07,0-1.74.45-2.21,2.17-2.15,3.83.14,7.67,0,11.51.05,7.27,0,11,5.88,8,12.54-.19.41-.37.83-.56,1.25A1.44,1.44,0,0,1,334.2,463.45Z" transform="translate(-184.41 -159.07)" style="fill:#1b1c1c"/><path d="M518.88,461.49c0-5.21,0-10.43,0-15.65,0-1.44.39-1.8,1.8-1.81s1.81.45,1.81,1.85c-.06,9.44,0,18.88-.07,28.32,0,1.67.35,2.25,2.14,2.21,6-.12,12,0,18-.05,1,0,1.92-.16,1.88,1.44s-1,1.41-2,1.41c-7.21,0-14.42,0-21.63.08-1.52,0-1.93-.41-1.9-1.91C518.94,472.09,518.88,466.79,518.88,461.49Z" transform="translate(-184.41 -159.07)" style="fill:#316193"/><path d="M391.27,470.41c2.54,6,6.73,8.09,13.15,6.39a7.28,7.28,0,0,0,4.06-2.79c1.15,4.39-.22,8.22-3.3,9.28-5.15,1.79-8.89.42-11-4-1.77,0-3-.16-3-2.63,0-2.15-2.09-.78-3.2-1.12a1.19,1.19,0,0,1-1.7-1c-.85-4.13-1.16-8.26.36-12.33a3.74,3.74,0,0,1,.1-.67c.19-.59.26-.14.5,0,2.4,1.49,4,.78,4-2,0-1.63.95-1.65,2.09-1.59,1.41.07,2.59,0,2.59-2,0-.91-.71-2.35,1-2.58.94-.13,2.32-.54,2.79.33a3.28,3.28,0,0,1-.25,3.81l-.32.32c-4.82.47-7.5,3.11-8,7.46,0,1.11-.4,1.9-1.67,2-1,.06-1.77.49-1.65,1.68s1.15,1.18,2.06,1.19A2.32,2.32,0,0,1,391.27,470.41Z" transform="translate(-184.41 -159.07)" style="fill:#fbfbfb"/><path d="M446,471.4c-1.23,5-5.82,7.65-11.43,6.74-5.95-1-8.78-5-8.28-11.89.36-5,4.09-8.21,9.7-8.33,6.22-.13,9.51,2.74,10.46,8.87.24,1.59-.3,1.79-1.65,1.77-4.83-.06-9.66.05-14.49-.06-1.59,0-1.83.6-1.56,1.88a7.34,7.34,0,0,0,6.48,5.9c3.66.51,6.21-.63,7.76-3.82C443.66,471,444.66,471.33,446,471.4Z" transform="translate(-184.41 -159.07)" style="fill:#171818"/><path d="M369.68,478.3l-1.38-.06c-1,.76-2.07.43-3.12.06-1.39-.74-3.26-.88-3.7-2.86l-.62-1.34a1,1,0,0,1-.34-1c-.08-.79-.15-1.57,1.05-1.37.66.11,1.57-.36,1.65.91a2.41,2.41,0,0,0,1.41,2.31c.61.29,1.43.14,1.84.86l.7.13a17.58,17.58,0,0,0,5.79,0c.48-.51,1.17-.42,1.76-.61a10.48,10.48,0,0,0,.95-4.47c-.11-.69-1-.44-1.2-1-1.5.07-3.06.41-4.33-.79-1.93.17-3.64-.86-5.52-1a2.56,2.56,0,0,1-2.79-1.7c-2.45-5.86,1-8.12,5.62-8.43a18.14,18.14,0,0,1,6.6.44,5.42,5.42,0,0,1,3.86,3.86c.16.55.79,1.63-.52,1.78-.72.08-1.46.3-1.91-.95-1.33-3.6-8.49-4.8-11.11-2a2.81,2.81,0,0,0,1.24,4.71c2.51.61,5.1.93,7.65,1.38s4.56,1.24,5.62,3.71a2.76,2.76,0,0,1-.47,4.06l-1.35,1.48c-.62,1.51-2,1.66-3.36,2S371,479.29,369.68,478.3Z" transform="translate(-184.41 -159.07)" style="fill:#171818"/><path d="M352.19,477.8l-.47.05a2.12,2.12,0,0,1-2.75.46,18.24,18.24,0,0,1-6-.94,5.69,5.69,0,0,1-4.67-5.59,21.5,21.5,0,0,1-.48-5.06,3.52,3.52,0,0,1,1-4.13c4.33-5.21,11.66-6.37,16.26-2.61a18.12,18.12,0,0,1,2.21,2.59,2.77,2.77,0,0,1,1.39,3.11c-.33,1.57-.11,3.17-.44,4.72l-.11.87A6.8,6.8,0,0,1,352.19,477.8Z" transform="translate(-184.41 -159.07)" style="fill:#171819"/><path d="M352.18,253a3.44,3.44,0,0,1,4.14-.46c.92,1,.69,2.18.42,3.34a1.5,1.5,0,0,1-.45.58,1.21,1.21,0,0,1-.6.25c-2.39-.2-3.14,1.08-3,3.23a1.51,1.51,0,0,1-.18.64,1.24,1.24,0,0,1-.44.52,1.16,1.16,0,0,1-.64.23c-2.61-.33-3.47,1.12-3.53,3.41a1.24,1.24,0,0,1-.45.51c-2.8,0-3.75,1.57-3.69,4.1a1.39,1.39,0,0,1-.45.51c-.14.07-.28.18-.42.17-2.52-.22-3.76,1-3.84,3.47l-.25.22a20.21,20.21,0,0,1-2.06,0c-1.55-.17-2.32.37-2.09,2,.28,2-.6,2.62-2.59,2.66-2.19.06-2.07-1.18-2-2.61,0-.68,0-1.37,0-2.06h0c.27-.13-.12-.1.17-.12a4.55,4.55,0,0,0,4.43-4h0c.17-.14.35-.37.55-.38,2.2-.12,3.14-1.35,3.14-3.47,0-.29.27-.52.46-.76h0c.28-.13-.12-.1.17-.13a4.54,4.54,0,0,0,4.43-4h0c.17-.14.35-.37.55-.38,2.2-.12,3.14-1.35,3.14-3.47,0-.29.27-.52.46-.76h0c.23-.19.47-.47.76-.45C350.39,255.92,351.45,254.72,352.18,253Z" transform="translate(-184.41 -159.07)" style="fill:#fafafa"/><path d="M356.33,263.12a28.23,28.23,0,0,0-11.09,11.09c-1.59.27-1.22,1.58-1.37,2.61-.67.34-.22,1.07-.52,1.54-4.52,0-4.52,0-4.52-4.61h0c.28-.13-.12-.1.17-.12a4.55,4.55,0,0,0,4.43-4h0c.17-.14.35-.37.55-.38,2.2-.12,3.14-1.35,3.14-3.47,0-.29.27-.52.46-.76h0c.28-.13-.12-.1.17-.13a4.54,4.54,0,0,0,4.43-4h0c.17-.14.35-.37.55-.38,2.21-.12,3.14-1.35,3.14-3.47,0-.29.27-.52.46-.76h0c.23-.19.47-.47.76-.45,2.05.12,3.11-1.08,3.84-2.77a3.44,3.44,0,0,1,4.14-.46c.92,1,.7,2.2.4,3.37a1.39,1.39,0,0,1-.46.58,1.62,1.62,0,0,1-.83.28c-2-.14-2.79.92-2.71,2.81a1.62,1.62,0,0,1-.28.84,2.86,2.86,0,0,1-2.19.94A3.19,3.19,0,0,0,356.33,263.12Z" transform="translate(-184.41 -159.07)" style="fill:#fafafa"/><path d="M422.18,487a4.19,4.19,0,0,1-3.37.93c-.85-.05-1.34-.45-1.2-1.26.39-2.4-1-2.61-2.81-2.44a12.34,12.34,0,0,1-1.36,0c0-1.54,0-3.07,0-4.61.92,0,1.84,0,2.76,0,.52,0,1.21.08,1.25-.66s-.68-.68-1.19-.72a1,1,0,0,1-.92-.56,2.51,2.51,0,0,1,2.31-.35c.44-1,.72-2,2.31-1.92s2.47.38,2.25,2.19c-.11,1-.16,2.24,1.38,2,2.59-.4,3,.93,2.76,3a12.35,12.35,0,0,0,0,1.61c-.07.08-.15.16-.22.25C424.51,484.85,422.71,484.93,422.18,487Z" transform="translate(-184.41 -159.07)" style="fill:#fbfbfb"/><path d="M386.67,462.2c-.05,3.63-.77,7.26-.07,10.89.19,1-.19,2.28,1.41,2.43.5.52,1.16.32,1.73.3s1.13-.06,1.17.87-.41,1.15-1.21,1.13-1.38,0-2.06.05a2.94,2.94,0,0,1-3.92-2.2,14.21,14.21,0,0,1,.2-8.95c0-1.22,0-2.44.1-3.66.16-1.76.16-3.26-2.34-2.75-.65.14-.93-.22-.95-.91,0-.88.46-1.11,1.14-1,2.21.44,2.29-.86,2.15-2.48-.08-.91,0-1.83,0-2.74s.36-1.14,1.24-1.15,1.26.22,1.24,1.12c0,.6.09,1.21.1,1.82,0,3.11,0,3.12,3.15,3.41.66.06,1.16.07,1.17,1s-.41,1-1.12,1-1.23.05-1.83,0C386.32,460.15,386.13,460.91,386.67,462.2Z" transform="translate(-184.41 -159.07)" style="fill:#1d1d1e"/><path d="M417.64,477.32c-.68.7-1.55.14-2.31.35-.05-6-.08-12.09-.16-18.13,0-.92.33-1.18,1.2-1.15s1.35.09,1.23,1.1a5.17,5.17,0,0,0,.16,1.86c1.36-3.24,4-3.46,6.89-3.47,1.06,0,1.26.39,1.26,1.34s-.45,1-1.26,1.06c-5,.13-6.94,2.11-7,7.17C417.55,470.73,417.63,474,417.64,477.32Z" transform="translate(-184.41 -159.07)" style="fill:#151616"/><path d="M383.92,466.72c0,2.2,0,4.39.08,6.58.05,3,.65,3.75,3.64,4.57-1.34,1.8-3.29,1.16-5.05,1.28-.4-2.33-2.15-3.15-4.16-3.68l0-.52a8.77,8.77,0,0,0,.47-4.06c.5-.47,1-.05,1.51,0,1.65.18,2.41-.38,2.22-2.14C382.5,467.82,382.32,466.64,383.92,466.72Z" transform="translate(-184.41 -159.07)" style="fill:#fbfbfb"/><path d="M307.51,265c.92,1.64.39,3.13-.46,4.59-2.05.51-2.78,2-3,3.93l-.25.22h-3.69a3.46,3.46,0,0,1,.46-4.14c2.43-.56,2.68-2.55,3-4.52a1.4,1.4,0,0,1,.57-.48C305.31,264.3,306.48,264.08,307.51,265Z" transform="translate(-184.41 -159.07)" style="fill:#fafafa"/><path d="M308.89,273.75a3.46,3.46,0,0,1,.46-4.14c2.43-.56,2.68-2.55,3-4.52a1.4,1.4,0,0,1,.57-.48c1.18-.31,2.35-.53,3.38.4.92,1.64.39,3.13-.46,4.59-2.05.51-2.78,2-3,3.93l-.25.22Z" transform="translate(-184.41 -159.07)" style="fill:#fafafa"/><path d="M352.19,477.8a10.2,10.2,0,0,0,5.95-6.53c1.47-.23,1.84.94,2.38,1.88a.84.84,0,0,1,.34,1c-.28.46-.56.92-.85,1.38a4.57,4.57,0,0,0-3.67,3.67C353.51,480.19,352.47,479.85,352.19,477.8Z" transform="translate(-184.41 -159.07)" style="fill:#e9e9e9"/><path d="M308.89,475.46a1.63,1.63,0,0,0-.91-1.83c-.06-1.62.19-2.79,2.32-2.82,1.84,0,2.52.57,2.29,2.37a19.42,19.42,0,0,0,0,2.29l-.29.28A3,3,0,0,1,308.89,475.46Z" transform="translate(-184.41 -159.07)" style="fill:#fbfbfb"/><path d="M302.91,479.62l.91.92a2.6,2.6,0,1,1-3.68,3.67,1.63,1.63,0,0,0-.91-1.83C299.28,479.61,299.28,479.61,302.91,479.62Z" transform="translate(-184.41 -159.07)" style="fill:#fbfbfb"/><path d="M307.51,273.76c1.05,1.65.12,3.1-.46,4.59-3.94,0-3.13.44-3.22-4.6h0A2.78,2.78,0,0,1,307.51,273.76Z" transform="translate(-184.41 -159.07)" style="fill:#fafafa"/><path d="M316.26,273.76c1.05,1.65.12,3.1-.46,4.59-3.94,0-3.13.44-3.22-4.6h0A2.78,2.78,0,0,1,316.26,273.76Z" transform="translate(-184.41 -159.07)" style="fill:#fafafa"/><path d="M366.47,475.86a2.47,2.47,0,0,1-1.84-.86c.48-.38.39-.93.46-1.45.11-.81-.46-2,.94-2.16,1-.09,2.32-.57,3,.43a3.59,3.59,0,0,1,.07,3.09C368.64,476,367.17,475,366.47,475.86Z" transform="translate(-184.41 -159.07)" style="fill:#e9e9e9"/><path d="M430.93,487.44a12.48,12.48,0,0,1-4.59.46,2.76,2.76,0,0,1,0-3.68h1.34C430.94,484.23,430.94,484.23,430.93,487.44Z" transform="translate(-184.41 -159.07)" style="fill:#fbfbfb"/><path d="M338.83,462.59l-1,4.13c-2.85.72-2.74-1.82-3.62-3.27l1.33-1.36C336.62,462.31,337.84,461.69,338.83,462.59Z" transform="translate(-184.41 -159.07)" style="fill:#fbfbfb"/><path d="M413,484.23c.92,2.77.31,3.64-2.55,3.67-.53,0-1.06,0-1.59,0C408.87,483.59,408.31,484.29,413,484.23Z" transform="translate(-184.41 -159.07)" style="fill:#fbfbfb"/><path d="M361.83,466.38l2.79,1.7c.34.91,1.05,2.07-.12,2.61-.95.43-2.53.69-3.22-.22a3.38,3.38,0,0,1,.05-3.64C361.43,466.64,361.66,466.53,361.83,466.38Z" transform="translate(-184.41 -159.07)" style="fill:#e9e9e9"/><path d="M307.51,475.48c-.05,4.17.5,3.62-3.67,3.67C303.86,475,303.35,475.51,307.51,475.48Z" transform="translate(-184.41 -159.07)" style="fill:#fbfbfb"/><path d="M358.25,470.4c0-2.65.16-5.32-.95-7.83,1.06-.47,2.45-1,2.91.35.41,1.19,1.15,2.91-.83,3.86C357.78,467.54,359.29,469.39,358.25,470.4Z" transform="translate(-184.41 -159.07)" style="fill:#e9e9e9"/><path d="M314.38,475.47c-.22,1.79.7,2.41,2.34,2.3-.7,2.5-2.75.93-4.13,1.38a2.75,2.75,0,0,1,0-3.68h1.8Z" transform="translate(-184.41 -159.07)" style="fill:#fbfbfb"/><path d="M375.67,470.87c1,1.77.9,3.3-.95,4.47C373.13,473.39,373.44,471.93,375.67,470.87Z" transform="translate(-184.41 -159.07)" style="fill:#e9e9e9"/><path d="M403.29,485.69l.92.33c.16.48.31,1,.46,1.42a8.91,8.91,0,0,1-3.36.46c-.56-.06-1.1-.1-1.16-.82s.51-1,1.18-1S402.72,486.24,403.29,485.69Z" transform="translate(-184.41 -159.07)" style="fill:#fbfbfb"/><path d="M413.41,479.62c-.6-.1-1.5.25-1.7-.65a5.1,5.1,0,0,1,.13-3.09c.08-.19.5-.32.77-.32.55,0,.78.39.79.89C413.42,477.51,413.41,478.56,413.41,479.62Z" transform="translate(-184.41 -159.07)" style="fill:#fbfbfb"/><path d="M370.14,469.07a12.81,12.81,0,0,1,4.33.79c-.92,1.22-2.25,1-3.52,1C369.39,470.84,369.65,470,370.14,469.07Z" transform="translate(-184.41 -159.07)" style="fill:#e9e9e9"/><path d="M373,476a10,10,0,0,1-5.79,0Z" transform="translate(-184.41 -159.07)" style="fill:#e9e9e9"/><path d="M443.46,257.68c-2.67.75-5.31,1.66-8,2.22-1.86.38-3.7-.45-5.53-.84,1.71-.43.77-1.84,1-2.81a2,2,0,0,1,1.65-.65,1.69,1.69,0,0,0,1.84-1.86c0-1.64,1-2,2.45-1.87a2.58,2.58,0,0,0,2.8-1.14c.32-1.23-1-3.22,1.8-3.28,2,0,2.5.68,2.39,2.51-.07,1.3-.52,1.85-1.78,1.69-2.23-.29-2.4,1-2.45,2.79-.06,2.17,1.32,1.8,2.58,1.81h1.61C444.09,256.83,443,257,443.46,257.68Z" transform="translate(-184.41 -159.07)" style="fill:#f2f1f1"/><path d="M557.58,256.25c0-.76-.05-1.53,0-2.29.14-1.63-.47-2.53-2.2-2.3-2,.26-1.92-1-2-2.4-.07-1.72.9-1.72,2.16-1.79,1.66-.1,2.22.57,2,2.13s.31,2.62,1.88,2.44c2.58-.3,3,1,2.73,3.07a8.66,8.66,0,0,0,0,1.14h-4.61Z" transform="translate(-184.41 -159.07)" style="fill:#f2f1f1"/><path d="M443.83,256.25a17.86,17.86,0,0,0,0-2.07c-.19-1.6.45-2.3,2.07-2.07,2.08.29,2.81-.74,2.54-2.67-.24-1.78.76-1.95,2.2-2s2,.49,2,2-.19,2.42-2,2.22c-1.16-.13-2.4.09-2.16,1.6.49,3.08-1.31,3.2-3.51,3a11,11,0,0,0-1.15,0Z" transform="translate(-184.41 -159.07)" style="fill:#f2f1f1"/><path d="M338.3,471.78a10.33,10.33,0,0,0,4.67,5.59c.07,2.09-1.44,1.73-2.72,1.79-1.57.07-1.48-1-1.41-2,.1-1.35-.55-1.75-1.79-1.69-.7,0-1.74.28-1.83-.83s-.49-2.29.66-3.19C336.85,470.68,337.56,471.16,338.3,471.78Z" transform="translate(-184.41 -159.07)" style="fill:#fbfbfb"/><path d="M439.68,250.73c-.21,1.74-1.56,1.34-2.63,1.37s-2.19,0-1.94,1.45c.42,2.6-1,3-3,2.71a8.67,8.67,0,0,0-1.14,0h0a3.92,3.92,0,0,1,0-4.6h0c1.29-1,2.71-.77,4.15-.46C436.73,252.11,438.22,251.57,439.68,250.73Z" transform="translate(-184.41 -159.07)" style="fill:#f9f9f9"/><path d="M387.19,484.22h-.93c-1.06.9-2.24.7-3.44.35a1.36,1.36,0,0,1-.58-.56c-.39-1.21-.59-2.4.33-3.49a5.25,5.25,0,0,1,4.61,0A2.83,2.83,0,0,1,387.19,484.22Z" transform="translate(-184.41 -159.07)" style="fill:#e9e9e9"/><path d="M303.82,484.22v-3.68c1.11-1.14,2.83-1.49,3.7-.57s.78,2.82,0,4.26a3.16,3.16,0,0,1-3.4.27Z" transform="translate(-184.41 -159.07)" style="fill:#f2f1f1"/><path d="M321.32,480.53c1.1-1.06,2.63-1.49,3.62-.47s.83,2.75.07,4.17c-1.06.9-2.24.7-3.44.35A1.36,1.36,0,0,1,321,484C320.6,482.81,320.4,481.62,321.32,480.53Z" transform="translate(-184.41 -159.07)" style="fill:#f2f1f1"/><path d="M312.57,480.53c1.1-1.06,2.63-1.49,3.62-.47s.83,2.75.07,4.17a3.48,3.48,0,0,1-3.44.35,1.42,1.42,0,0,1-.58-.56C311.85,482.81,311.65,481.62,312.57,480.53Z" transform="translate(-184.41 -159.07)" style="fill:#f2f1f1"/><path d="M312.58,251.19c-3.5,1.28-4.14.78-4.16-3.23C311.93,246.69,312.57,247.18,312.58,251.19Z" transform="translate(-184.41 -159.07)" style="fill:#f2f1f1"/><path d="M321.33,251.19c-3.5,1.28-4.14.78-4.16-3.23C320.68,246.69,321.32,247.18,321.33,251.19Z" transform="translate(-184.41 -159.07)" style="fill:#f2f1f1"/><path d="M330.08,251.19c-1.45.46-2.94,1.24-4.16-.46,0-3.39.06-3.46,2.65-3.22C331.37,247.77,329.54,250,330.08,251.19Z" transform="translate(-184.41 -159.07)" style="fill:#f2f1f1"/><path d="M338.83,251.19c-1.45.46-2.94,1.24-4.16-.46,0-3.39.06-3.46,2.65-3.22C340.12,247.77,338.29,250,338.83,251.19Z" transform="translate(-184.41 -159.07)" style="fill:#f2f1f1"/><path d="M347.59,251.19c-1.46.46-2.95,1.24-4.17-.46,0-3.39.06-3.46,2.65-3.22C348.87,247.77,347,250,347.59,251.19Z" transform="translate(-184.41 -159.07)" style="fill:#f2f1f1"/><path d="M356.34,251.19c-1.46.46-2.95,1.24-4.17-.46,0-3.39.06-3.46,2.65-3.22C357.62,247.77,355.79,250,356.34,251.19Z" transform="translate(-184.41 -159.07)" style="fill:#f2f1f1"/><path d="M365.09,251.19c-1.46.46-2.95,1.24-4.16-.46,0-3.39.05-3.46,2.64-3.22C366.37,247.77,364.54,250,365.09,251.19Z" transform="translate(-184.41 -159.07)" style="fill:#f2f1f1"/><path d="M373.84,251.19c-1.46.46-2.95,1.24-4.16-.46,0-3.39.06-3.46,2.64-3.22C375.12,247.77,373.29,250,373.84,251.19Z" transform="translate(-184.41 -159.07)" style="fill:#eae9e9"/><path d="M391.34,251.19c-1.46.46-2.95,1.24-4.16-.46,0-3.38.06-3.46,2.64-3.22C392.62,247.77,390.79,250,391.34,251.19Z" transform="translate(-184.41 -159.07)" style="fill:#eae9e9"/><path d="M408.84,251.19c-1.46.46-2.95,1.24-4.16-.46,0-3.39.06-3.46,2.64-3.22C410.12,247.77,408.29,250,408.84,251.19Z" transform="translate(-184.41 -159.07)" style="fill:#eaeae9"/><path d="M435.09,251.19c-1.3.91-2.78.27-4.15.46,0-.31,0-.62,0-.92,0-3.34.1-3.46,2.64-3.22C436.37,247.77,434.55,250,435.09,251.19Z" transform="translate(-184.41 -159.07)" style="fill:#f2f1f1"/><path d="M465.94,251.65a13.81,13.81,0,0,1,0-1.82c.1-.82-.48-2,.85-2.25,1-.15,2.29-.55,3,.35s.35,2,.16,3.08c-.12.67-.77.62-1.29.63-.91,0-1.82,0-2.73,0Z" transform="translate(-184.41 -159.07)" style="fill:#f2f1f1"/><path d="M474.69,251.65a15.77,15.77,0,0,1,0-1.82c.1-.82-.48-2,.85-2.25,1-.15,2.29-.55,3,.35s.35,2,.16,3.08c-.12.67-.77.62-1.29.63-.91,0-1.82,0-2.73,0Z" transform="translate(-184.41 -159.07)" style="fill:#f2f1f1"/><path d="M513.83,251.65a15.77,15.77,0,0,1-1.82,0c-.81-.1-2,.48-2.24-.85-.16-1-.56-2.3.34-3s2-.35,3.08-.16c.68.13.62.78.63,1.3,0,.91,0,1.82,0,2.73Z" transform="translate(-184.41 -159.07)" style="fill:#f2f1f1"/><path d="M522.58,251.65a15.77,15.77,0,0,1-1.82,0c-.81-.1-2,.48-2.24-.85-.15-1-.56-2.3.34-3s2-.35,3.08-.16c.68.13.62.78.63,1.3,0,.91,0,1.82,0,2.73Z" transform="translate(-184.41 -159.07)" style="fill:#f2f1f1"/><path d="M531.33,251.65a15.79,15.79,0,0,1-1.82,0c-.81-.1-2,.48-2.24-.85-.15-1-.56-2.3.34-3s2-.35,3.08-.16c.68.13.62.78.63,1.3,0,.91,0,1.82,0,2.73Z" transform="translate(-184.41 -159.07)" style="fill:#f2f1f1"/><path d="M373.82,480.53c1.26-.76,2.9-.92,3.76-.06s.7,2.5-.07,3.76a3.48,3.48,0,0,1-3.44.35,1.42,1.42,0,0,1-.58-.56C373.1,482.81,372.9,481.62,373.82,480.53Z" transform="translate(-184.41 -159.07)" style="fill:#e9e9e9"/><path d="M365.07,480.53c1.26-.76,2.9-.92,3.76-.06s.7,2.5-.07,3.76c-1.06.9-2.24.7-3.44.35a1.36,1.36,0,0,1-.58-.56C364.35,482.81,364.15,481.62,365.07,480.53Z" transform="translate(-184.41 -159.07)" style="fill:#e9e9e9"/><path d="M312.58,475.47c0,1.23,0,2.46,0,3.68-1.26.77-2.9.93-3.76.07s-.71-2.5.06-3.76Z" transform="translate(-184.41 -159.07)" style="fill:#f2f1f1"/><path d="M426.33,484.22c0,1.23,0,2.46,0,3.68-1.53.33-3.29,1.73-4.16-.92C422.24,483.7,421.89,484.27,426.33,484.22Z" transform="translate(-184.41 -159.07)" style="fill:#f2f1f1"/><path d="M321.34,487.9c-1.26.77-2.9.93-3.76.07s-.71-2.5.06-3.76a2.83,2.83,0,0,1,3.68,0h0A2.83,2.83,0,0,1,321.34,487.9Z" transform="translate(-184.41 -159.07)" style="fill:#f2f1f1"/><path d="M382.59,487.9c-1.26.77-2.9.93-3.76.07s-.71-2.5.06-3.76a2.85,2.85,0,0,1,3.69,0h0A2.83,2.83,0,0,1,382.59,487.9Z" transform="translate(-184.41 -159.07)" style="fill:#e9e9e9"/><path d="M373.84,487.9c-1.26.77-2.9.93-3.76.07s-.71-2.5.06-3.76a2.85,2.85,0,0,1,3.69,0h0A2.83,2.83,0,0,1,373.84,487.9Z" transform="translate(-184.41 -159.07)" style="fill:#e9e9e9"/><path d="M303.83,251.19c-3.5,1.28-4.14.78-4.16-3.23C303.18,246.69,303.82,247.18,303.83,251.19Z" transform="translate(-184.41 -159.07)" style="fill:#f2f1f1"/><path d="M365.09,487.9c-1.26.77-2.9.93-3.76.07s-.71-2.5.06-3.76a2.85,2.85,0,0,1,3.69,0h0A2.83,2.83,0,0,1,365.09,487.9Z" transform="translate(-184.41 -159.07)" style="fill:#e9e9e9"/><path d="M300.14,484.21h3.69a2.83,2.83,0,0,1,0,3.68c-1.26.77-2.9.93-3.76.07S299.37,485.47,300.14,484.21Z" transform="translate(-184.41 -159.07)" style="fill:#f2f1f1"/><path d="M378.43,475.47h.45c4.31,0,3.62-.42,3.71,3.68C379,480.47,378.43,480,378.43,475.47Z" transform="translate(-184.41 -159.07)" style="fill:#e9e9e9"/><path d="M312.59,487.9c-1.26.77-2.9.93-3.76.07s-.71-2.5.06-3.76a2.83,2.83,0,0,1,3.68,0h0A2.83,2.83,0,0,1,312.59,487.9Z" transform="translate(-184.41 -159.07)" style="fill:#f2f1f1"/><path d="M317.63,475.47a10.44,10.44,0,0,1,0-4.62l.23,0c3.49.95,3.49.95,3.49,4.57A2.78,2.78,0,0,1,317.63,475.47Z" transform="translate(-184.41 -159.07)" style="fill:#fbfbfb"/><path d="M317.63,475.47h3.7a2.83,2.83,0,0,1,0,3.68c-2.82,1.06-3.9.69-4.19-1.44C317.73,477.06,317.38,476.2,317.63,475.47Z" transform="translate(-184.41 -159.07)" style="fill:#f2f1f1"/><path d="M387.19,484.22v-3.68c3.75-1,4.14-.64,4.15,3.68h-4.14Z" transform="translate(-184.41 -159.07)" style="fill:#fbfbfb"/><path d="M393.7,483.73l2.24,1.39c-.39,1.18-.46,2.59-2.16,2.78-2.34.27-2.44.14-2.46-3.67h0A4,4,0,0,0,393.7,483.73Z" transform="translate(-184.41 -159.07)" style="fill:#fbfbfb"/><path d="M330.08,466.71c.77,0,1.53,0,2.29,0,1.22,0,1.85.46,1.86,1.75s-.34,1.82-1.65,2c-2.5.26-2.49.32-2.51-3.71Z" transform="translate(-184.41 -159.07)" style="fill:#fbfbfb"/><path d="M321.33,466.72c.77,0,1.53,0,2.29,0,1.22,0,1.85.46,1.86,1.75s-.34,1.82-1.66,2c-2.49.26-2.48.32-2.5-3.71Z" transform="translate(-184.41 -159.07)" style="fill:#fbfbfb"/><path d="M330.08,475.46l2.52,0c1.34,0,1.63.81,1.63,2,0,1.49-.9,1.76-2.12,1.72-1,0-2.1.18-2-1.39,0-.77,0-1.53,0-2.29Z" transform="translate(-184.41 -159.07)" style="fill:#fbfbfb"/><path d="M356.33,484.21l2.52,0c1.35,0,1.63.81,1.63,2,0,1.49-.9,1.76-2.11,1.72-1,0-2.11.19-2-1.39,0-.77,0-1.53,0-2.29Z" transform="translate(-184.41 -159.07)" style="fill:#fbfbfb"/><path d="M373.83,484.22h-3.69v-1.14c0-3.13.63-3.55,3.68-2.54C373.82,481.76,373.83,483,373.83,484.22Z" transform="translate(-184.41 -159.07)" style="fill:#fbfbfb"/><path d="M365.09,487.9c0-1.22,0-2.45,0-3.68h3.68C369.86,487.52,369.47,487.9,365.09,487.9Z" transform="translate(-184.41 -159.07)" style="fill:#fbfbfb"/><path d="M347.58,484.21l2.52,0c1.35,0,1.63.81,1.63,2,0,1.49-.9,1.76-2.11,1.72-1,0-2.11.19-2-1.39,0-.77,0-1.53,0-2.29Z" transform="translate(-184.41 -159.07)" style="fill:#fbfbfb"/><path d="M382.58,484.22h-3.69v-1.14c0-3.13.63-3.55,3.68-2.54C382.57,481.76,382.58,483,382.58,484.22Z" transform="translate(-184.41 -159.07)" style="fill:#fbfbfb"/><path d="M312.57,484.22h-3.68v-1.14c0-3.13.63-3.55,3.68-2.54Z" transform="translate(-184.41 -159.07)" style="fill:#fbfbfb"/><path d="M356.34,479.15c0-4.19-.49-3.64,3.67-3.67C361.11,478.77,360.72,479.16,356.34,479.15Z" transform="translate(-184.41 -159.07)" style="fill:#fbfbfb"/><path d="M321.34,487.9c0-1.22,0-2.45,0-3.68H325C326.11,487.52,325.72,487.91,321.34,487.9Z" transform="translate(-184.41 -159.07)" style="fill:#fbfbfb"/><path d="M330.08,484.21l2.52,0c1.34,0,1.63.81,1.63,2,0,1.49-.9,1.76-2.12,1.72-1,0-2.1.19-2-1.39,0-.77,0-1.53,0-2.29Z" transform="translate(-184.41 -159.07)" style="fill:#fbfbfb"/><path d="M330.07,475.48a14,14,0,0,0-1.83,0c-2.11.24-1.86-1.19-1.84-2.51,0-1.7,1.18-1.71,2.39-1.61a1.26,1.26,0,0,1,1.26,1.36c0,.91,0,1.83,0,2.74Z" transform="translate(-184.41 -159.07)" style="fill:#fbfbfb"/><path d="M338.83,484.21l2.52,0c1.34,0,1.63.81,1.63,2,0,1.49-.9,1.76-2.12,1.72-1,0-2.1.19-2-1.39,0-.77,0-1.53,0-2.29Z" transform="translate(-184.41 -159.07)" style="fill:#fbfbfb"/><path d="M321.34,479.15c0-1.22,0-2.45,0-3.68.77,0,1.53,0,2.29,0,1.39-.06,1.89.63,1.86,2s-.66,1.76-1.86,1.73C322.86,479.13,322.1,479.15,321.34,479.15Z" transform="translate(-184.41 -159.07)" style="fill:#fbfbfb"/><path d="M321.32,484.22h-3.68v-1.14c0-3.13.63-3.55,3.68-2.54Z" transform="translate(-184.41 -159.07)" style="fill:#fbfbfb"/><path d="M330.07,484.23a14,14,0,0,0-1.83,0c-2.11.24-1.86-1.19-1.84-2.51,0-1.7,1.18-1.71,2.39-1.61a1.26,1.26,0,0,1,1.26,1.36c0,.91,0,1.83,0,2.74Z" transform="translate(-184.41 -159.07)" style="fill:#fbfbfb"/><path d="M338.82,484.23a14,14,0,0,0-1.83,0c-2.11.24-1.86-1.19-1.84-2.51,0-1.7,1.18-1.71,2.39-1.61a1.26,1.26,0,0,1,1.26,1.36c0,.91,0,1.83,0,2.75Z" transform="translate(-184.41 -159.07)" style="fill:#fbfbfb"/><path d="M347.57,484.23a14,14,0,0,0-1.83,0c-2.11.24-1.86-1.19-1.84-2.51,0-1.7,1.18-1.71,2.39-1.61a1.26,1.26,0,0,1,1.26,1.36c0,.91,0,1.83,0,2.75Z" transform="translate(-184.41 -159.07)" style="fill:#fbfbfb"/><path d="M356.32,484.23a14,14,0,0,0-1.83,0c-2.11.24-1.86-1.19-1.84-2.51,0-1.7,1.18-1.71,2.39-1.61a1.26,1.26,0,0,1,1.26,1.36c0,.91,0,1.83,0,2.75Z" transform="translate(-184.41 -159.07)" style="fill:#fbfbfb"/><path d="M365.08,484.22h-3.69v-1.14c0-3.13.63-3.55,3.68-2.54C365.07,481.76,365.08,483,365.08,484.22Z" transform="translate(-184.41 -159.07)" style="fill:#fbfbfb"/><path d="M382.59,487.9c0-1.22,0-2.45,0-3.68h3.68C387.28,487.27,386.65,487.9,382.59,487.9Z" transform="translate(-184.41 -159.07)" style="fill:#fbfbfb"/><path d="M373.84,487.9c0-1.22,0-2.45,0-3.68h3.68C378.38,487.5,378,487.9,373.84,487.9Z" transform="translate(-184.41 -159.07)" style="fill:#fbfbfb"/><path d="M303.84,487.9c0-1.22,0-2.45,0-3.68h3.68C307.46,488.4,308,487.85,303.84,487.9Z" transform="translate(-184.41 -159.07)" style="fill:#fbfbfb"/><path d="M312.59,487.9c0-1.22,0-2.45,0-3.68h3.68C316.21,488.41,316.76,487.85,312.59,487.9Z" transform="translate(-184.41 -159.07)" style="fill:#fbfbfb"/><path d="M361.48,475.44a10.74,10.74,0,0,0,3.57,2.34c0,.46.55.9,0,1.37-1.27.76-2.93.94-3.78,0A3,3,0,0,1,361.48,475.44Z" transform="translate(-184.41 -159.07)" style="fill:#e9e9e9"/><path d="M373.83,477.89l3.23-1.46c.28.65,1.17,1.09.75,2s-1.38.72-2.18.75c-.59,0-1.19,0-1.79,0C373.19,478.74,373,478.32,373.83,477.89Z" transform="translate(-184.41 -159.07)" style="fill:#fbfbfb"/><path d="M373.83,477.89a1,1,0,0,0,0,1.26c-1.52.35-3.23,1.66-4.16-.85Z" transform="translate(-184.41 -159.07)" style="fill:#e9e9e9"/><path d="M562.19,357.11c0-1,0-2,0-2.94,0-.45,0-1,.6-1,.79-.07.84.62.74,1.1-.22,1,.93,2.79-1.35,2.88Z" transform="translate(-184.41 -159.07)" style="fill:#f2f1f1"/><path d="M563.65,249.46c-.34.71.45,2-.86,2-1-.05-.57-1.22-.57-1.9s-.4-1.82.65-1.83S563.33,248.88,563.65,249.46Z" transform="translate(-184.41 -159.07)" style="fill:#f2f1f1"/><path d="M562.19,265c1.19.43,2,2.83,1.17,3.74a.77.77,0,0,1-.56.25c-.46,0-.58-.43-.59-.82,0-1.05,0-2.11,0-3.16Z" transform="translate(-184.41 -159.07)" style="fill:#f2f1f1"/><path d="M562.19,365.86c0-1,0-2,0-2.94,0-.45,0-1,.6-1,.79-.07.84.62.74,1.1-.22,1,.93,2.79-1.35,2.88Z" transform="translate(-184.41 -159.07)" style="fill:#f2f1f1"/><path d="M562.19,484.22c1.19.43,2,2.83,1.17,3.74a.81.81,0,0,1-.56.25c-.46,0-.58-.43-.59-.82,0-1.06,0-2.11,0-3.17Z" transform="translate(-184.41 -159.07)" style="fill:#f2f1f1"/><path d="M562.19,374.61c0-1,0-2,0-2.94,0-.45,0-1,.6-1,.79-.07.84.62.74,1.1-.22,1,.93,2.79-1.35,2.88Z" transform="translate(-184.41 -159.07)" style="fill:#f2f1f1"/><path d="M562.19,383.36c0-1,0-2,0-2.94,0-.45,0-1,.6-1,.79-.07.84.62.74,1.1-.22,1,.93,2.79-1.35,2.88Z" transform="translate(-184.41 -159.07)" style="fill:#f2f1f1"/><path d="M562.19,256.25c1.19.43,2,2.83,1.17,3.74a.77.77,0,0,1-.56.25c-.46,0-.58-.43-.59-.82,0-1.05,0-2.11,0-3.16Z" transform="translate(-184.41 -159.07)" style="fill:#f2f1f1"/><path d="M330.07,466.72c-1.05,0-2.1,0-3.14-.08a.77.77,0,0,1-.75-.72.59.59,0,0,1,.8-.55c1.09.31,2.92-1,3.1,1.35Z" transform="translate(-184.41 -159.07)" style="fill:#fbfbfb"/><path d="M321.32,466.72c-1.18-.55-3.25,1.27-3.67-1.35l0,0c1.2.49,3.23-1.23,3.64,1.38Z" transform="translate(-184.41 -159.07)" style="fill:#fbfbfb"/><path d="M365.09,479.15c.39-.46-1.21-.88,0-1.37a8.15,8.15,0,0,0,3.25.46C367.62,479.93,366.15,478.83,365.09,479.15Z" transform="translate(-184.41 -159.07)" style="fill:#fbfbfb"/><path d="M349,478.31l2.75-.46C351.08,479.67,350.11,479.52,349,478.31Z" transform="translate(-184.41 -159.07)" style="fill:#fbfbfb"/><path d="M391.33,260.37c-4.92-.49-9.8-1.51-14.79-1.36-2.59.08-5.18.26-7.77.39a11.35,11.35,0,0,1,.91-2.23,1,1,0,0,1,.46-.92,2.8,2.8,0,0,1,3.69,0h0c1.53,2,2.05,2.13,4.6.92v-.92c.12-.1.24-.26.37-.27,2.22-.08,3.23-1.48,3.77-3.41a5.22,5.22,0,0,1,4.61,0c.35,2.4,2.17,3.12,4.15,3.68Z" transform="translate(-184.41 -159.07)" style="fill:#eae9e9"/><path d="M308.89,265a3.46,3.46,0,0,1,.46-4.14c1.62-.71,2.83-1.71,2.73-3.71a1.44,1.44,0,0,1,.67-1.16,3.09,3.09,0,0,1,3.51.27c.92,1.64.39,3.13-.46,4.59-2.32.42-2.53,2.47-3.22,4.15h0A2.78,2.78,0,0,1,308.89,265Z" transform="translate(-184.41 -159.07)" style="fill:#fafafa"/><path d="M300.14,265a3.46,3.46,0,0,1,.46-4.14c1.62-.71,2.83-1.71,2.73-3.71A1.44,1.44,0,0,1,304,256a3.09,3.09,0,0,1,3.51.27c.92,1.64.39,3.13-.46,4.59-2.32.42-2.53,2.47-3.22,4.15h0A2.78,2.78,0,0,1,300.14,265Z" transform="translate(-184.41 -159.07)" style="fill:#fafafa"/><path d="M430.94,251.65v4.6a17.3,17.3,0,0,0-2.28,0c-2,.28-2.47-.66-2.37-2.48.07-1.28.5-1.78,1.76-1.7A4.6,4.6,0,0,0,430.94,251.65Z" transform="translate(-184.41 -159.07)" style="fill:#f2f1f1"/><path d="M410.25,260l-3.72,1.34.12-.43c-2.62-.7-1.94-2.8-2-4.61h0c.68,0,1.37.05,2,0,1.49-.15,2.34.29,2.12,2C408.7,259.25,409,260,410.25,260Z" transform="translate(-184.41 -159.07)" style="fill:#eaeae9"/><path d="M400.08,256.25v-1.13c0-1.54-.46-3.16,2.22-3.09,2.46.06,2.49,1.37,2.39,3.09,0,.38,0,.76,0,1.14h-4.6Z" transform="translate(-184.41 -159.07)" style="fill:#eaeae9"/><path d="M303.83,256.26v1.37c0,3.08-.08,3.16-3.23,3.23-1.5-1.4-1.1-3-.46-4.61a3.1,3.1,0,0,1,3.41-.28Z" transform="translate(-184.41 -159.07)" style="fill:#f2f1f1"/><path d="M334.68,253c-.07,3.22-.07,3.22-4.6,3.23l-.28-.29a3.1,3.1,0,0,1,.27-3.4C331.69,251.93,333.28,251.53,334.68,253Z" transform="translate(-184.41 -159.07)" style="fill:#f2f1f1"/><path d="M360.93,253c-.07,3.23-.07,3.23-4.6,3.22,0-1.22,0-2.45,0-3.68C357.94,251.93,359.53,251.53,360.93,253Z" transform="translate(-184.41 -159.07)" style="fill:#f2f1f1"/><path d="M330.08,256.26a19.62,19.62,0,0,0,0,2c.18,1.7-.49,2.53-2.25,2.58-2,.06-2-1.2-1.91-2.56,0-.38,0-.76,0-1.13a1,1,0,0,1,.47-.93,2.79,2.79,0,0,1,3.68,0Z" transform="translate(-184.41 -159.07)" style="fill:#f2f1f1"/><path d="M352.18,253c-.07,3.23-.07,3.23-4.6,3.22,0-1.22,0-2.45,0-3.68C349.19,251.93,350.78,251.53,352.18,253Z" transform="translate(-184.41 -159.07)" style="fill:#f2f1f1"/><path d="M321.33,256.26v1.37c0,3.08-.08,3.16-3.23,3.23-1.5-1.4-1.1-3-.46-4.61a3.1,3.1,0,0,1,3.41-.28Z" transform="translate(-184.41 -159.07)" style="fill:#f2f1f1"/><path d="M312.58,256.26v1.37c0,3.08-.08,3.16-3.23,3.23-1.5-1.4-1.1-3-.46-4.61a3.1,3.1,0,0,1,3.41-.28Z" transform="translate(-184.41 -159.07)" style="fill:#f2f1f1"/><path d="M308.89,265h3.69v1.38c0,3.08-.08,3.16-3.23,3.23C307.85,268.21,308.25,266.61,308.89,265Z" transform="translate(-184.41 -159.07)" style="fill:#f2f1f1"/><path d="M343.43,253c-.07,3.22-.07,3.22-4.6,3.23h0v-3.68C340.44,251.93,342,251.53,343.43,253Z" transform="translate(-184.41 -159.07)" style="fill:#f2f1f1"/><path d="M317.64,265h3.69v1.37c0,3.08-.08,3.16-3.23,3.23C316.6,268.21,317,266.61,317.64,265Z" transform="translate(-184.41 -159.07)" style="fill:#f2f1f1"/><path d="M300.14,265h3.69v1.38c0,3.08-.08,3.16-3.23,3.23C299.1,268.21,299.5,266.61,300.14,265Z" transform="translate(-184.41 -159.07)" style="fill:#f2f1f1"/><path d="M316.26,273.76h-3.68v-.89c0-3.24,0-3.24,3.22-3.26C317.5,270.82,316.73,272.31,316.26,273.76Z" transform="translate(-184.41 -159.07)" style="fill:#f2f1f1"/><path d="M307.51,256.26h-3.69a2.79,2.79,0,0,1,0-3.68c1.25-.77,2.9-.92,3.76-.06S308.28,255,307.51,256.26Z" transform="translate(-184.41 -159.07)" style="fill:#f2f1f1"/><path d="M316.26,256.26h-3.69a2.79,2.79,0,0,1,0-3.68c1.25-.77,2.9-.92,3.76-.06S317,255,316.26,256.26Z" transform="translate(-184.41 -159.07)" style="fill:#f2f1f1"/><path d="M325.47,256.26h-4.15a2.79,2.79,0,0,1,0-3.68C324.93,251.26,325.48,251.74,325.47,256.26Z" transform="translate(-184.41 -159.07)" style="fill:#f2f1f1"/><path d="M365.08,256.26c0-1.23,0-2.46,0-3.69,3.61-1.31,4.16-.82,4.15,3.68A3.28,3.28,0,0,1,365.08,256.26Z" transform="translate(-184.41 -159.07)" style="fill:#eae9e9"/><path d="M400.08,256.25a13.8,13.8,0,0,1,0,1.82c-.1.82.49,2-.84,2.25-1,.15-2.3.56-3-.35s-.34-2-.16-3.08c.13-.67.78-.62,1.3-.63.91,0,1.82,0,2.73,0Z" transform="translate(-184.41 -159.07)" style="fill:#eaeae9"/><path d="M312.58,265v-.89c0-3.24,0-3.24,3.22-3.26,1.7,1.22.93,2.71.46,4.16Z" transform="translate(-184.41 -159.07)" style="fill:#f2f1f1"/><path d="M303.83,265c0-.29,0-.59,0-.89,0-3.24,0-3.24,3.23-3.26,1.7,1.22.93,2.71.46,4.16Z" transform="translate(-184.41 -159.07)" style="fill:#f2f1f1"/><path d="M307.51,273.76h-3.68c0-.29,0-.59,0-.89,0-3.24,0-3.24,3.23-3.26C308.75,270.82,308,272.31,307.51,273.76Z" transform="translate(-184.41 -159.07)" style="fill:#f2f1f1"/><path d="M391.33,256.25h-.45c-4.21,0-3.65.49-3.7-3.68l.89-.21c2.67-.67,3.24-.23,3.26,2.52Z" transform="translate(-184.41 -159.07)" style="fill:#fafafa"/><path d="M382.57,252.57c0,4.31.54,3.62-4.14,3.68C378.44,252.19,379.25,251.46,382.57,252.57Z" transform="translate(-184.41 -159.07)" style="fill:#fafafa"/><path d="M303.82,252.57v3.68h-3.68c-.56-1.25-.92-2.55.24-3.61S302.66,252,303.82,252.57Z" transform="translate(-184.41 -159.07)" style="fill:#fafafa"/><path d="M321.32,252.57v3.68h-3.68c-.56-1.25-.92-2.55.24-3.61S320.16,252,321.32,252.57Z" transform="translate(-184.41 -159.07)" style="fill:#fafafa"/><path d="M330.07,256.25h-3.68c-.56-1.25-.92-2.55.24-3.61s2.28-.61,3.44-.07Z" transform="translate(-184.41 -159.07)" style="fill:#fafafa"/><path d="M373.83,256.25h-3.69c-.58-1.33-.92-2.66.4-3.76a2.54,2.54,0,0,1,2.43-.25c.8.24.86,1,.86,1.71S373.83,255.48,373.83,256.25Z" transform="translate(-184.41 -159.07)" style="fill:#fafafa"/><path d="M312.57,252.57v3.68h-3.68c-.56-1.25-.92-2.55.24-3.61S311.41,252,312.57,252.57Z" transform="translate(-184.41 -159.07)" style="fill:#fafafa"/><path d="M365.08,256.26h4.14a1,1,0,0,0,.46.92c.16.93.31,1.86-.91,2.23-1.25.05-2.39.78-3.68.57a2.79,2.79,0,0,1,0-3.72Z" transform="translate(-184.41 -159.07)" style="fill:#fafafa"/><path d="M378.43,257.17c-.26,2.5-2.18,1.18-3.32,1.32-1.74.21-1.15-1.31-1.28-2.24C375.38,256.49,377.15,255.6,378.43,257.17Z" transform="translate(-184.41 -159.07)" style="fill:#fafafa"/><path d="M405.21,261.81c-1.31.75-2.46,2.23-4.24,1-.13-.56-1.08-.76-.71-1.5s1.07-.33,1.62-.46C403.17,260.55,404.13,261.37,405.21,261.81Z" transform="translate(-184.41 -159.07)" style="fill:#eaeae9"/><path d="M407,358.21a18.52,18.52,0,0,1-7.79-2c-1.26-.64-1.66.36-2.2,1-3.76,4.24-7.47,8.53-11.2,12.79-3,3.4-6.31,6.11-11.28,5.11a12.61,12.61,0,0,1-7-4.5c-5.95-6.83-9.13-15.13-12.05-23.5a215,215,0,0,1-9.95-40.36,53.05,53.05,0,0,1,2.21-25.6c3.43-9.68,10.65-14.78,20.47-16.6,11.06-2,21.81-.32,32.32,3.13,2.55.84,4.65,1,6.73-.75s4.79-2.26,7.39-2.77a45,45,0,0,1,16.89-.08,20,20,0,0,0,8.56-.56c13.88-3.36,27.44-3,40.26,4.13a35.2,35.2,0,0,1,11.42,10.15c2.15,3,2.48,6.56,2.68,10,.63,11.19-2.14,21.85-5.67,32.3a142.18,142.18,0,0,1-15.79,33c-1.07,1.63-.77,2.24,1.06,2.66,4.7,1.08,9.28.08,13.88-.64a28.66,28.66,0,0,1,3.2-.32,3.75,3.75,0,0,1,3.83,2c.9,1.68.36,3.13-.65,4.47a21,21,0,0,1-7.64,6.1,35.42,35.42,0,0,1-21.39,3.23c-1.56-.24-1.95.43-2.13,1.84-1,8-2,16.08-3.12,24.11-1.81,12.8-7.25,19.23-22.17,21-7.52.89-14.48-3.11-16.93-9.14a43.6,43.6,0,0,1-2.82-13.61c-.51-7.35-.56-14.72-.5-22.39a24,24,0,0,1-9.82,4.71,25.37,25.37,0,0,1-15.43-1.72,7.11,7.11,0,0,1-2.71-2.08,4,4,0,0,1,.8-6.16c1.92-1.39,4.21-1.75,6.44-2.19C401.07,364.08,404.85,362.69,407,358.21Z" transform="translate(-184.41 -159.07)" style="fill:#fff"/><path d="M365.08,256.25c0,1.24,0,2.48,0,3.72a6.83,6.83,0,0,1-3.25.83c-.27-.2-.71,0-.91-.4C360.93,256.26,360.93,256.26,365.08,256.25Z" transform="translate(-184.41 -159.07)" style="fill:#eae9e9"/><path d="M360.93,260.4l.91.4a26.16,26.16,0,0,1-5.51,2.32c-.25-1.72.37-2.55,2.21-2.28A3.52,3.52,0,0,0,360.93,260.4Z" transform="translate(-184.41 -159.07)" style="fill:#f2f1f1"/><path d="M343.87,276.82a2.54,2.54,0,0,1-.2-2.72c.4-.68,1.05-.09,1.57.11A6.31,6.31,0,0,1,343.87,276.82Z" transform="translate(-184.41 -159.07)" style="fill:#f2f1f1"/><path d="M498.34,446c9.17,0,14.65,6.12,14.62,16.2,0,9.28-5.88,15.23-15,15.21-8.67,0-14.63-6.48-14.54-15.74C483.55,451.74,489.07,445.94,498.34,446Z" transform="translate(-184.41 -159.07)" style="fill:#f8f7f7"/><path d="M334.68,260.86v-.45c0-4.16,0-4.16,4.14-4.16h0v.45c0,4.15,0,4.15-4.15,4.15Z" transform="translate(-184.41 -159.07)" style="fill:#f2f1f1"/><path d="M347.58,256.25v.46c0,4.14,0,4.14-4.15,4.15v-.45C343.51,255.59,342.75,256.32,347.58,256.25Z" transform="translate(-184.41 -159.07)" style="fill:#f2f1f1"/><path d="M334.68,260.86c0,.38,0,.76,0,1.14,0,2.8-.24,3-3,3h-1.61c0-4.15,0-4.15,4.61-4.14Z" transform="translate(-184.41 -159.07)" style="fill:#f2f1f1"/><path d="M343.43,260.86c0,.38,0,.76,0,1.14,0,2.8-.24,3-3,3h-1.6C338.82,260.85,338.82,260.85,343.43,260.86Z" transform="translate(-184.41 -159.07)" style="fill:#f2f1f1"/><path d="M334.68,269.61c0,.38,0,.76,0,1.14,0,2.8-.24,3-3,3h-1.6C330.07,269.6,330.07,269.6,334.68,269.61Z" transform="translate(-184.41 -159.07)" style="fill:#f2f1f1"/><path d="M338.83,265v.46c0,4.14,0,4.14-4.15,4.15v-.45C334.76,264.34,334,265.07,338.83,265Z" transform="translate(-184.41 -159.07)" style="fill:#f2f1f1"/><path d="M330.08,265c0,.83-.05,1.67,0,2.5.11,1.68-.92,2-2.29,2.1-1.78.09-1.86-1-1.89-2.38s.07-2.46,1.89-2.24a19.1,19.1,0,0,0,2.27,0Z" transform="translate(-184.41 -159.07)" style="fill:#f2f1f1"/><path d="M321.32,265a15.79,15.79,0,0,1,0-1.82c.1-.81-.48-2,.85-2.24,1-.15,2.29-.56,3,.35s.35,2,.16,3.08c-.12.67-.77.61-1.29.63h-2.74Z" transform="translate(-184.41 -159.07)" style="fill:#f2f1f1"/><path d="M321.32,273.75a15.79,15.79,0,0,1,0-1.82c.1-.81-.48-2,.85-2.24,1-.15,2.29-.56,3,.35s.35,2,.16,3.08c-.12.67-.77.61-1.29.63-.91,0-1.82,0-2.73,0Z" transform="translate(-184.41 -159.07)" style="fill:#f2f1f1"/><path d="M408.83,467.3c0,5-2.79,8.1-7.35,8.08-4.94,0-7.79-2.79-7.82-7.56,0-5.13,2.81-8.05,7.82-8C406,459.81,408.81,462.68,408.83,467.3Z" transform="translate(-184.41 -159.07)" style="fill:#f5f4f4"/><path d="M391.27,470.41a4.33,4.33,0,0,1-2.21.47c-1.35.1-2-.35-1.9-1.81.07-1.25-.17-2.63,1.79-2.34a1.86,1.86,0,0,0,2.26-1.38Z" transform="translate(-184.41 -159.07)" style="fill:#f2f1f1"/><path d="M323.67,450.66c1.77,0,3.54-.1,5.29,0,3.28.23,5,2.29,5.15,5.86s-1.5,5.62-4.82,6.08c-3.59.49-7.2.07-10.79.25-1,.05-1.11-.43-1.1-1.27,0-3.21,0-6.42,0-9.62,0-1.11.35-1.46,1.46-1.39,1.61.1,3.22,0,4.83,0Z" transform="translate(-184.41 -159.07)" style="fill:#f3f3f3"/><path d="M428.66,466.73c.63-3.78,2.29-6.27,6-6.93a7.42,7.42,0,0,1,7.87,3,9.72,9.72,0,0,1,1.2,2.44c.35,1,.15,1.52-1.13,1.5C438,466.68,433.4,466.73,428.66,466.73Z" transform="translate(-184.41 -159.07)" style="fill:#f4f3f3"/><path d="M348.15,459.79c5,0,7.67,2.85,7.68,8.21s-2.8,8.26-7.71,8.29c-4.72,0-7.82-3.26-7.81-8.29S343.31,459.81,348.15,459.79Z" transform="translate(-184.41 -159.07)" style="fill:#f6f6f6"/><path d="M356.33,256.25v.46c0,4.14,0,4.14-4.15,4.15v-.45C352.26,255.59,351.5,256.32,356.33,256.25Z" transform="translate(-184.41 -159.07)" style="fill:#f2f1f1"/><path d="M352.18,260.86c0,.38,0,.76,0,1.14,0,2.8-.24,3-3,3h-1.6C347.57,260.85,347.57,260.85,352.18,260.86Z" transform="translate(-184.41 -159.07)" style="fill:#f2f1f1"/><path d="M343.43,269.61c0,.38,0,.76,0,1.14,0,2.8-.24,3-3,3h-1.6C338.82,269.6,338.82,269.6,343.43,269.61Z" transform="translate(-184.41 -159.07)" style="fill:#f2f1f1"/><path d="M347.58,265v.46c0,4.14,0,4.14-4.15,4.15v-.45C343.51,264.34,342.75,265.07,347.58,265Z" transform="translate(-184.41 -159.07)" style="fill:#f2f1f1"/><path d="M391.47,304.84c1.8-13,4.54-25.11,16.13-32.77,5.9-3.9,12.6-4.48,19.44-3.92,13.41,1.08,23.93,7.43,32.1,17.9a46.61,46.61,0,0,1,7.7,13.91c-3,.14-5.77-.27-8.56.31-8.3,1.74-12,7.49-10.55,15.88,1.32,7.42,4.37,14.15,8,20.65,3.22,5.81,5.56,12.14,10.41,17.32-5.77,1.88-6.68,6.27-7.05,11.42-.78,11-2.36,21.9-4.06,32.8-1.31,8.43-6.49,12.59-14.41,14.1-2.65.5-5.31.9-7.95.13-5.91-1.72-8.22-6.38-9.07-11.84-1.74-11.18-1.37-22.47-1.28-33.74,0-2.28.29-4.61-.68-6.79-1.51-3.4-3.87-5.73-7.8-5.81-1.46,0-1.38-.5-1-1.64A107.29,107.29,0,0,1,417,342.08c4.23-9.69,3.9-19.67,1.78-29.74-.16-.75-.28-1.5-.47-2.24-1.68-6.67-7.12-10.21-14-9.34A39.52,39.52,0,0,0,391.47,304.84Z" transform="translate(-184.41 -159.07)" style="fill:#316193"/><path d="M399.8,272.13a43.44,43.44,0,0,0-7.5,11c-4.74,10.36-6.1,21.27-5.41,32.52a107.7,107.7,0,0,1-.63,16.75,23.32,23.32,0,0,0,6.93,19.45c1,1,.71,1.49-.05,2.34-3.72,4.17-7.39,8.4-11.08,12.6-4.41,5-7.82,4.87-12-.43a54.08,54.08,0,0,1-7.29-13.23A206.42,206.42,0,0,1,350,305.39a45.52,45.52,0,0,1,1.14-19.16c2.92-10.36,10.43-16.5,21.1-17.64C381.62,267.6,390.52,269.56,399.8,272.13Z" transform="translate(-184.41 -159.07)" style="fill:#316193"/><path d="M469,350.2a.92.92,0,0,1-.38-1.45c3.8-6.56,3.63-13.65,2.7-20.8-.69-5.27-1.1-10.56.11-15.74,2.77-11.8-2.45-21-9.23-29.74a50.74,50.74,0,0,0-18.51-14.82,13,13,0,0,1,4.93-1c9.07-.92,17.9-.23,26.25,3.83a34.56,34.56,0,0,1,12.55,10.21c2.79,3.66,2.56,8.1,2.24,12.38-1.13,15.09-6.13,29.08-12.55,42.63-2,4.3-4.34,8.43-6.74,12.52C470,348.9,469.49,349.54,469,350.2Z" transform="translate(-184.41 -159.07)" style="fill:#316193"/><path d="M415.63,325a37.51,37.51,0,0,1-3.08,15.56,80.79,80.79,0,0,0-4.24,11.12c-.4,1.44-1.12,1.84-2.63,1.62-7.91-1.18-14.47-8.65-14.87-17-.16-3.39.41-6.73.65-10.08a81.07,81.07,0,0,0,0-12.85c-.1-1.21-.66-2.58.88-3.49,4.41-2.62,9-4.58,14.26-4.45,3.91.1,6.24,1.84,7.12,5.6A72.86,72.86,0,0,1,415.63,325Z" transform="translate(-184.41 -159.07)" style="fill:#316193"/><path d="M465.31,345.17c-3.64-7.47-7.93-14.12-10.69-21.53-1.34-3.59-2.53-7.23-2.47-11.13.06-4.16,2-6.58,6.07-7.46a28.23,28.23,0,0,1,7.79-.35c1.26.08,1.56.66,1.41,1.77-.34,2.65-.58,5.32-1,8-1,6.08.11,12.08.72,18.09A25.56,25.56,0,0,1,465.31,345.17Z" transform="translate(-184.41 -159.07)" style="fill:#316193"/><path d="M393.49,370.5c2.51-.61,4.35-1.1,6.2-1.49,3.86-.82,7.21-2.43,9.54-5.78a29.57,29.57,0,0,1,1.9-2.29c1.92-2.23,2.9-2.48,4.59-1.21a4.35,4.35,0,0,1,1.06,6.07,16.38,16.38,0,0,1-14.27,6.84A18.44,18.44,0,0,1,393.49,370.5Z" transform="translate(-184.41 -159.07)" style="fill:#316193"/><path d="M489,359.72a24.05,24.05,0,0,1-11.83,5.68,37.45,37.45,0,0,1-9.8.57c-1.2-.09-2.82.08-3.28-1.08a4.64,4.64,0,0,1,.73-4.56c1.12-1.36,2.72-2.52,4.58-1.49,4.5,2.5,9.28,2.14,14.08,1.71C485.11,360.41,486.74,360.07,489,359.72Z" transform="translate(-184.41 -159.07)" style="fill:#316193"/><path d="M407.17,307.88c.47.1,1.37.23,2.24.49,1,.31,2.15.71,2.29,1.95s-.87,2-1.9,2.56a4.68,4.68,0,0,1-6.21-2.08C402.71,309,403.93,307.83,407.17,307.88Z" transform="translate(-184.41 -159.07)" style="fill:#fcfcfc"/><path d="M460.38,306.72c1,.14,2.25-.09,2.66,1,.47,1.28-.53,2.11-1.43,2.85a3.57,3.57,0,0,1-1.83.88c-1.7.23-4.38-1.13-4.23-2.35.22-1.81,1.92-1.88,3.28-2.23A10.64,10.64,0,0,1,460.38,306.72Z" transform="translate(-184.41 -159.07)" style="fill:#fbfcfc"/><path d="M388.84,418.66c0,3.74,0,7.48,0,11.22,0,.41-.09.5-.51.5H195.14c-.41,0-.51-.09-.51-.5q0-25.92,0-51.84c0-.42.1-.51.51-.51q96.6,0,193.2,0c.42,0,.51.09.51.51q0,19.65,0,39.29c-.29,0-.25-.28-.32-.44a2.74,2.74,0,0,0-2.62-1.7,2.64,2.64,0,0,0-2.42,1.39,2.81,2.81,0,1,0,5,2.45C388.58,418.88,388.58,418.65,388.84,418.66Z" transform="translate(-184.41 -159.07)" style="fill:#fefefd"/><path d="M388.84,418.66a3.37,3.37,0,0,1-1.28,1.78,3,3,0,0,1-3.28,0,3,3,0,0,1,.93-5.31,2.9,2.9,0,0,1,3.54,2.07c0,.05.06.09.09.13Z" transform="translate(-184.41 -159.07)" style="fill:#c4c1c0"/><path d="M206.34,378.32a16.18,16.18,0,0,0,3.32,4.6,28.59,28.59,0,0,1,7.77,15.48c1.49,9.06-1.17,16.81-8.09,23-.34.3-.73.56-1.09.84a.65.65,0,0,1-.71-.3,3.34,3.34,0,0,1-.55-.88,11.24,11.24,0,0,1-.67-3.59,1.9,1.9,0,0,0-.09-.53,20.88,20.88,0,0,1,.1-2.37c0-1.08.17-2.15.19-3.23,0-1.27,0-2.54.09-3.81s-.1-2.83-.1-4.25c0-3.59,0-7.18,0-10.78,0-2.65,0-5.3-.13-7.95-.05-1.87-.05-3.75-.26-5.62C206.08,378.7,206,378.43,206.34,378.32Z" transform="translate(-184.41 -159.07)" style="fill:#469f47"/><path d="M336.78,409c0-2.42,0-4.43,0-6.43a16.62,16.62,0,0,0-.13-1.87,1.42,1.42,0,0,0-1.06-1.22,9.09,9.09,0,0,0-1.94-.36c-.67-.07-.73-.17-.45-.78a1.09,1.09,0,0,1,1.19-.8c3.09.08,6.19.09,9.28,0a21.56,21.56,0,0,1,5.84.47,10.3,10.3,0,0,1,7.72,8.8,13.16,13.16,0,0,1-1.14,7.72,11.06,11.06,0,0,1-4.44,4.55,14.77,14.77,0,0,1-7.49,1.92c-3.07,0-6.15,0-9.22,0a2,2,0,0,1-.55-.06c-.27-.08-.78.18-.71-.46s.41-1.1.92-1.11a3.52,3.52,0,0,0,1.28-.3c.75-.34.73-1,.77-1.7C336.84,414.41,336.76,411.48,336.78,409Z" transform="translate(-184.41 -159.07)" style="fill:#c2c0be"/><path d="M374.64,407.72a11.25,11.25,0,0,1,2.37.93,5.2,5.2,0,0,1,2.82,3.62,6.07,6.07,0,0,1-2.06,6,11.21,11.21,0,0,1-6,2.56c-2.77.41-5.54,0-8.31.09-1.07,0-2.13-.14-3.2-.09-.38,0-.43-.14-.33-.47.26-.9.39-1,1.35-1.09a3.89,3.89,0,0,0,1.37-.38c.69-.36.54-1.08.62-1.66a11.43,11.43,0,0,0,0-1.55c.13-4.76.09-9.53.1-14.3a6.79,6.79,0,0,0-.14-1.2c-.09-.56-.75-.93-1.62-1-.45,0-.9-.14-1.35-.19s-.35-.21-.31-.46a1.06,1.06,0,0,1,1.16-1c3.52,0,7,0,10.56,0a7.59,7.59,0,0,1,4.52,1.33,4.4,4.4,0,0,1,1.89,3.34c.24,2.52-1,4.15-3.12,5.26Z" transform="translate(-184.41 -159.07)" style="fill:#c2c0be"/><path d="M206.69,411.36c-.1,1.65-.14,3.31-.32,5,0,.21,0,.43,0,.65a17.91,17.91,0,0,1-.55,4.95c-.07.29,0,.75-.55.72a28.52,28.52,0,0,1-6.88-7.6,23.52,23.52,0,0,1-3.54-14.67A31.37,31.37,0,0,1,198,388.82a.54.54,0,0,1,.09-.12c.21-.12.3,0,.4.16a1.59,1.59,0,0,1,.16.41c2.51,7.48,5,14.94,7.52,22.43a2.07,2.07,0,0,1,.06.26C206.29,411.67,206.29,411.34,206.69,411.36Z" transform="translate(-184.41 -159.07)" style="fill:#47a548"/><path d="M230.53,413.44c0,1.51,0,3,0,4.53,0,1.09.27,1.4,1.34,1.57a3.38,3.38,0,0,0,.54.09c.4,0,.49.18.48.55,0,.79,0,.83-.83.8a60.91,60.91,0,0,0-6.62,0c-.29,0-.55,0-.5-.38s-.27-.87.4-1l.54-.11c1.35-.27,1.56-.53,1.59-1.92.06-2.7.13-5.41.05-8.11a1.16,1.16,0,0,0-.68-1.15,9.94,9.94,0,0,0-1.63-.66c-.25-.08-.53-.16-.52-.49s.29-.46.57-.51a25.75,25.75,0,0,0,5-1.25c.38-.15.36.16.36.35,0,.46,0,.92-.08,1.38,0,.19-.06.39.12.5s.35-.05.49-.16a12.12,12.12,0,0,1,3.42-1.87,4.21,4.21,0,0,1,5.09,1.67c.44.61.44.61,1,.18a14.2,14.2,0,0,1,3-1.68,4.71,4.71,0,0,1,6.72,3.71,12.74,12.74,0,0,1,.2,2.69c0,1.95,0,3.9,0,5.85a1.06,1.06,0,0,0,.91,1.25,7.88,7.88,0,0,0,1.34.31c.34,0,.38.2.36.47-.07.84-.12.91-.94.86a60.34,60.34,0,0,0-6.45,0c-.35,0-.52-.07-.49-.43s-.23-.78.33-.89c1.71-.37,1.85-.45,1.87-2.36s.06-4,0-6a3.39,3.39,0,0,0-4.46-3.35,6.6,6.6,0,0,0-2.14,1,.63.63,0,0,0-.33.59,51.57,51.57,0,0,1,.09,6.34c0,.82,0,1.65,0,2.48a1,1,0,0,0,.76,1,6.49,6.49,0,0,0,1.23.3c.6.06.38.47.37.78s0,.59-.51.57c-2.3-.07-4.6-.08-6.9,0-.38,0-.52-.15-.5-.47s-.17-.77.38-.88.84-.14,1.25-.25a1,1,0,0,0,.79-.88,19.84,19.84,0,0,0,.1-2.31,31,31,0,0,0-.13-5.62,3.2,3.2,0,0,0-4.37-2.74,8.34,8.34,0,0,0-1.85.84,1.37,1.37,0,0,0-.73,1.32c0,1.14,0,2.28,0,3.42Z" transform="translate(-184.41 -159.07)" style="fill:#49484a"/><path d="M311.81,405.68c.54,1.86-.38,3-2.2,2.81-.69-.07-.7-.07-.58.65.76,4.38-2.21,6.68-5.5,7.3a10,10,0,0,1-1.1.12c-.74.05-1.25.44-1.28,1s.37,1,1.14,1.12,1.69.17,2.53.23c1.14.08,2.27.17,3.4.36,2.81.5,4.12,2.79,3.19,5.57a7,7,0,0,1-2.56,3.37,10.23,10.23,0,0,1-9.19,1.73,4.75,4.75,0,0,1-3.58-3.48,2.6,2.6,0,0,1,.7-2.69,18.38,18.38,0,0,1,2.54-2c.59-.42.59-.41,0-.73a3.19,3.19,0,0,1-1.75-1.87.69.69,0,0,1,.34-.93c.68-.4,1.36-.81,2-1.24.46-.3.44-.46-.05-.65a4.83,4.83,0,0,1-3.23-4.8,5.08,5.08,0,0,1,2.8-4.89,8.31,8.31,0,0,1,7.47-.57,5.91,5.91,0,0,0,1.81.48A3.62,3.62,0,0,0,311.81,405.68Z" transform="translate(-184.41 -159.07)" style="fill:#49484a"/><path d="M206.69,411.36c-.45.15-.23.65-.5,1l-1.49-4.48q-1.9-5.7-3.8-11.39c-.81-2.42-1.64-4.83-2.46-7.25-.07-.21-.07-.49-.39-.53a25.39,25.39,0,0,1,6.45-8.3,3.59,3.59,0,0,0,1.52-2.75,1.16,1.16,0,0,1,.32.67c-.22.34,0,.67,0,1,0,.64.09,1.29.1,1.92,0,2.13.11,4.27.15,6.4.12,5.57,0,11.15.11,16.72a30.33,30.33,0,0,1,.06,3.3C206.67,408.9,206.73,410.13,206.69,411.36Z" transform="translate(-184.41 -159.07)" style="fill:#5baf4e"/><path d="M280.42,407.89l.84-.66a9.22,9.22,0,0,1,3.68-1.82,4.63,4.63,0,0,1,5.4,3.51,10.34,10.34,0,0,1,.35,2.78c0,2.19,0,4.38.06,6.57a1,1,0,0,0,.79,1,9.43,9.43,0,0,0,1.28.28c.36.05.47.21.44.54s0,.37,0,.55c0,.37-.19.55-.6.52a48.8,48.8,0,0,0-6.84,0c-.43,0-.68-.08-.63-.56s-.25-.92.51-1c1.75-.27,1.75-.3,1.74-2.06,0-2,0-3.93,0-5.9,0-3.17-2.49-4.23-4.91-3.44-.28.1-.55.23-.81.35a1.87,1.87,0,0,0-1.19,2c.06,2.5,0,5,0,7.51,0,1.11.26,1.38,1.36,1.53l.33,0c.83.12.82.12.74.95,0,.48-.22.72-.76.66a44.21,44.21,0,0,0-5.52-.07c-.47,0-.95,0-1.43.07-.3,0-.46-.09-.46-.39V420c0-.27.14-.39.4-.42s.69-.12,1-.19a1,1,0,0,0,.89-1c.17-3,.09-5.93.1-8.89a.9.9,0,0,0-.52-.84A9.07,9.07,0,0,0,275,408c-.33-.11-.68-.24-.64-.64s.36-.56.74-.62a24.3,24.3,0,0,0,4.9-1.25c.44-.17.48.18.49.44,0,.43-.06.87-.08,1.31C280.41,407.39,280.42,407.58,280.42,407.89Z" transform="translate(-184.41 -159.07)" style="fill:#49484a"/><path d="M330.29,413.41a7.54,7.54,0,0,1-3,6.18c-3.26,2.41-7.76,2.31-10.38,0a7.58,7.58,0,0,1-2.36-4.91c-.36-3,.34-5.66,2.93-7.5a9.1,9.1,0,0,1,6.37-1.69,6.77,6.77,0,0,1,5.22,3.09A8.41,8.41,0,0,1,330.29,413.41Z" transform="translate(-184.41 -159.07)" style="fill:#49484a"/><path d="M255.52,413.31c-.12-3.78,2.25-6.71,6.4-7.68a7.83,7.83,0,0,1,6,.81,6.91,6.91,0,0,1,3.35,5.49c.31,3.12-.47,5.9-3.15,7.78a8.36,8.36,0,0,1-9.94,0,7.78,7.78,0,0,1-2.68-6.05C255.51,413.57,255.52,413.44,255.52,413.31Z" transform="translate(-184.41 -159.07)" style="fill:#49484a"/><path d="M207.13,421.09c.33.42.51,1,1.12,1.14a3.73,3.73,0,0,0-.8,2.17c-.31.81-.57,1.63-.87,2.44-.07.21-.17.64-.54.21a23.3,23.3,0,0,0-.33-2.88,25.56,25.56,0,0,0,.93-2.53C206.73,421.41,206.75,421.07,207.13,421.09Z" transform="translate(-184.41 -159.07)" style="fill:#bfbda4"/><path d="M207.13,421.09c-.22.11-.27.33-.34.54-.22.64-.44,1.29-.65,1.93a.93.93,0,0,1-.43.61c-.15-.51-.3-1-.46-1.53.38-.18.36-.57.42-.88a25.69,25.69,0,0,0,.6-4.36,2.31,2.31,0,0,1,.08-.43,9.73,9.73,0,0,1,.22,1.78C206.7,419.55,206.94,420.31,207.13,421.09Z" transform="translate(-184.41 -159.07)" style="fill:#a7a787"/><path d="M206,427.05c.27.19.35,0,.41-.21.17-.49.33-1,.49-1.49a2.43,2.43,0,0,1,.51-1c-.12,1.17-.09,2.34-.11,3.51a1,1,0,0,1-.1.43c-.09.19-.09.54-.45.41s-.79,0-.76-.59C206.05,427.79,206,427.42,206,427.05Z" transform="translate(-184.41 -159.07)" style="fill:#d4d3bf"/><path d="M388.52,418a2.6,2.6,0,0,1-2.64,2.66,2.66,2.66,0,0,1,.07-5.31A2.56,2.56,0,0,1,388.52,418Z" transform="translate(-184.41 -159.07)" style="fill:#fff"/><path d="M353.37,409.11a11.37,11.37,0,0,1-1.66,6.64A7.26,7.26,0,0,1,347,419a9.17,9.17,0,0,1-5.08-.37,2,2,0,0,1-1.36-1.95c-.19-4.53-.12-9.06-.09-13.59,0-1,.06-2,.08-3,0-.5.32-.71.74-.82a7.6,7.6,0,0,1,2.47-.09,12.59,12.59,0,0,1,2.93.45,8.78,8.78,0,0,1,6.46,7.09A10,10,0,0,1,353.37,409.11Z" transform="translate(-184.41 -159.07)" style="fill:#fff"/><path d="M367.06,413.27c0-1.2,0-2.39,0-3.59,0-.28,0-.52.4-.52a15,15,0,0,1,5.49.63,4.79,4.79,0,0,1,3,5.17,4.51,4.51,0,0,1-2.2,3.6,6,6,0,0,1-3.74.6,7.52,7.52,0,0,1-1.15-.14,2.3,2.3,0,0,1-1.8-2.27c0-1.16,0-2.32,0-3.48Z" transform="translate(-184.41 -159.07)" style="fill:#fff"/><path d="M367.07,403.52c0-1.09,0-2.17,0-3.26,0-.75.19-.94.94-.95a9.25,9.25,0,0,1,4,.53,3.78,3.78,0,0,1,2.35,3.48,6.06,6.06,0,0,1-.11,1.7,3.13,3.13,0,0,1-2.73,2.37,19.09,19.09,0,0,1-4.07,0c-.32,0-.42-.1-.41-.46,0-1.14,0-2.28,0-3.42Z" transform="translate(-184.41 -159.07)" style="fill:#fff"/><path d="M302.48,421.6a21.36,21.36,0,0,1,4,.46c1.21.33,2.21.91,2.4,2.27a3.17,3.17,0,0,1-1.57,3.23,7.08,7.08,0,0,1-7.08-.21,2.84,2.84,0,0,1-.2-4.76A3.36,3.36,0,0,1,302.48,421.6Z" transform="translate(-184.41 -159.07)" style="fill:#fff"/><path d="M306.14,411.47a5.42,5.42,0,0,1-.27,1.53,2.85,2.85,0,0,1-4.74,1.26,5.44,5.44,0,0,1-.95-6.07,3.09,3.09,0,0,1,4.93-.22A5.24,5.24,0,0,1,306.14,411.47Z" transform="translate(-184.41 -159.07)" style="fill:#fff"/><path d="M326.87,414.34a8.62,8.62,0,0,1-.3,2.57,3.56,3.56,0,0,1-4.8,2.56,4.81,4.81,0,0,1-2.77-2.31,9.47,9.47,0,0,1-.95-7.08c.94-3.86,4.86-3.67,6.8-1.72a7.65,7.65,0,0,1,2,5.43C326.88,413.94,326.87,414.09,326.87,414.34Z" transform="translate(-184.41 -159.07)" style="fill:#fff"/><path d="M268,414.24a9.58,9.58,0,0,1-.28,2.56c-.9,3.52-4.43,3.37-6.24,1.93a6.53,6.53,0,0,1-2.2-3.54,10.34,10.34,0,0,1-.19-4.85,3.71,3.71,0,0,1,2.57-3.16,4.28,4.28,0,0,1,4.31,1.18,7,7,0,0,1,1.9,4A13,13,0,0,1,268,414.24Z" transform="translate(-184.41 -159.07)" style="fill:#fff"/><path d="M384.76,417.92a5.15,5.15,0,0,1,0-.88c.06-.31-.25-.76.23-.91a1.78,1.78,0,0,1,2,.51,1.14,1.14,0,0,1-.39,1.45c-.18.11-.16.19-.09.34.16.35.32.7.47,1.05,0,.13.18.28,0,.37a.29.29,0,0,1-.38-.14c-.17-.35-.32-.7-.48-1s-.2-.5-.54-.44-.2.37-.23.58,0,.44,0,.66.06.4-.23.4-.29-.22-.3-.4c0-.51,0-1,0-1.54Z" transform="translate(-184.41 -159.07)" style="fill:#c3c1bf"/><path d="M385.31,417.15c-.05-.38,0-.64.5-.6s.84.2.82.65-.37.57-.8.59S385.26,417.54,385.31,417.15Z" transform="translate(-184.41 -159.07)" style="fill:#fefefe"/><path d="M184.45,373q0-50.65,0-101.3c0-1.26.25-1.51,1.51-1.51q72.65.06,145.29,0c1.27,0,1.52.25,1.52,1.51q-.08,49.9,0,99.82c0,1.26-.25,1.51-1.52,1.51Q257.83,373,184.45,373Z" transform="translate(-184.41 -159.07)" style="fill:#fff"/><path d="M291.41,324c-.62,2.35-2.36,3-4.47,3.08a4.2,4.2,0,0,1-4.49-3.13c-1.22,2-2.78,3.26-5.07,3.12a5,5,0,0,1-4.7-3.54,5.91,5.91,0,0,1-2.68,3.05,5.39,5.39,0,0,1-3.95.23c-2.3-.74-3.64-2.9-3.57-5.82s1.55-5,3.94-5.57,4.58.43,6.25,3.29c1.11-2.44,2.92-3.66,5.58-3.39a4.44,4.44,0,0,1,3.3,1.79c.65.93,1,1.08,1.56-.08.85-1.65,2.5-1.85,4.15-1.7,1.47.14,2.78.62,3.36,2.17.16.43.61,1,0,1.3s-1,.1-1.24-.64a2.14,2.14,0,0,0-1.92-1.51c-1.33-.21-2.74-.26-3.19,1.35s.94,1.89,2.06,2.23c1.56.48,3.27.6,4.61,2a28.09,28.09,0,0,1,.38-3,5,5,0,0,1,5.64-3.93,5.12,5.12,0,0,1,4.21,5.27c0,.95-.53.95-1.19.94-2,0-4.06.08-6.09,0-1.43-.07-1.52.52-1.13,1.61a3.43,3.43,0,0,0,2.8,2.6,3.24,3.24,0,0,0,3.62-1.58c.36-.63.81-1.11,1.4-.76.81.49,0,1.09-.23,1.54C299.05,327.56,293.55,328.44,291.41,324Z" transform="translate(-184.41 -159.07)" style="fill:#7b1616"/><path d="M224.56,317.09c3.33-3.07,6.06-2.35,7.29,2.2a5.68,5.68,0,0,1,2.63-3.4,5.22,5.22,0,0,1,4.29-.24,4.37,4.37,0,0,1,3.09,4c0,.67.06,1.35.06,2,0,3-1.36,4.84-4,5.39s-4.6-.66-5.87-3.33c0-.08-.14-.13-.37-.33v2.44c0,.52,0,1-.75,1s-.69-.53-.69-1c0-2.1,0-4.19,0-6.28,0-1.38-.14-2.63-1.83-2.92a3.1,3.1,0,0,0-3.4,2.2,5.42,5.42,0,0,0-.28,2c0,1.53,0,3.07,0,4.61,0,.5.41,1.35-.65,1.39s-.76-.76-.77-1.32c0-2,0-3.94,0-5.91,0-1.46-.11-2.76-2-3a3,3,0,0,0-3.3,2.55,15.61,15.61,0,0,0-.27,2.74c-.05,1.35,0,2.71,0,4.06,0,.45,0,.88-.66.86s-.6-.34-.6-.73c0-3.26,0-6.52,0-9.79,0-.78.92-.75,1-.51.53,1.71,1.14.36,1.67.08C221.1,314.82,222.94,315.23,224.56,317.09Z" transform="translate(-184.41 -159.07)" style="fill:#7c1717"/><path d="M260.66,325.78c-3.61,1.86-6.13,1.64-7.71-.64s-1.41-6.74.51-8.57,4.51-1.63,7.13.39c.36-.39-.15-1.38.89-1.3s.61.92.61,1.41c0,3.19.07,6.39,0,9.58a4.41,4.41,0,0,1-3.19,4.46c-2.26.69-4.95.06-6.1-1.46-.31-.41-.9-.95-.44-1.4s1.09-.21,1.52.42c1.17,1.72,2.87,1.71,4.59,1.13S260.75,327.61,260.66,325.78Z" transform="translate(-184.41 -159.07)" style="fill:#7d1b19"/><path d="M242.35,321.12c0-1.54,0-3.08,0-4.62,0-.78.8-1.14,1-.74.77,1.74,1.43.31,2,0a3.87,3.87,0,0,1,5.85,3.07c.18,2.33.08,4.67.1,7,0,.55-.09,1-.79,1s-.65-.58-.66-1c0-2,0-4.07,0-6.1,0-1.6-.49-2.78-2.22-3.07A3.24,3.24,0,0,0,244,319c-.58,2-.12,4.16-.29,6.24,0,.55.5,1.58-.66,1.54s-.6-1-.63-1.58C242.3,323.83,242.35,322.47,242.35,321.12Z" transform="translate(-184.41 -159.07)" style="fill:#801f1c"/><path d="M271.39,321.41a4.72,4.72,0,0,1-.87,3,3.57,3.57,0,0,1-5.18.54c-1.86-1.71-1.85-5.87.05-7.52a3.39,3.39,0,0,1,3.77-.59C271,317.67,271.38,319.32,271.39,321.41Z" transform="translate(-184.41 -159.07)" style="fill:#fefdfc"/><path d="M273.88,321.28c0-3.47,2.21-5.46,5-4.47q2.5.88,2.41,4.69c0,2.14-1.06,3.74-2.63,4.2C276,326.48,273.89,324.55,273.88,321.28Z" transform="translate(-184.41 -159.07)" style="fill:#fffdfd"/><path d="M283,320c1,1.33,2.61,1.46,4.08,1.82,1.09.27,2.41.35,2.7,1.79a1.64,1.64,0,0,1-1.14,1.89c-1.3.51-2.86.69-3.78-.4C283.68,323.77,281.85,322.48,283,320Z" transform="translate(-184.41 -159.07)" style="fill:#fefaf9"/><path d="M296.16,320.47c-.62,0-1.23,0-1.84,0s-1.22.3-1.52-.23.09-1.31.43-1.88a3.4,3.4,0,0,1,6.26.68c.41,1.22,0,1.55-1.13,1.45C297.63,320.42,296.89,320.47,296.16,320.47Z" transform="translate(-184.41 -159.07)" style="fill:#fcf5f4"/><path d="M240.64,321.19A5.16,5.16,0,0,1,240,324a3.53,3.53,0,0,1-6.23-.13,6.35,6.35,0,0,1-.37-4.31,3.6,3.6,0,0,1,3.63-3,3.64,3.64,0,0,1,3.54,3.35A9.07,9.07,0,0,1,240.64,321.19Z" transform="translate(-184.41 -159.07)" style="fill:#fffdfd"/><path d="M253.29,321.31c0-2.88,1.52-4.74,3.74-4.74s3.63,1.76,3.71,4.42a5.78,5.78,0,0,1-.42,2.52,3.45,3.45,0,0,1-3.41,2.31,3.35,3.35,0,0,1-3.26-2.52A4.2,4.2,0,0,1,253.29,321.31Z" transform="translate(-184.41 -159.07)" style="fill:#fefdfd"/></svg>