<svg id="b20b487e-ecda-4cab-8a37-7d21b1b357e4" data-name="Layer 1" xmlns="http://www.w3.org/2000/svg" viewBox="0 0 269.05 161.36"><title>card-dront-api</title><rect width="269.05" height="161.36" rx="28.39" style="fill:#afdef7"/><path d="M537.17,433.3l-2.7-1.56,30.1-52.13,2.7,1.56Z" transform="translate(-486.4 -291.8)" style="fill:#da2590"/><path d="M533.85,427.58h60.2v3.12h-60.2Z" transform="translate(-486.4 -291.8)" style="fill:#da2590"/><path d="M565.15,446.71,535,429.33l1.56-2.7L566.71,444Zm26.16-45.31L561.2,384l1.56-2.7,30.11,17.38Z" transform="translate(-486.4 -291.8)" style="fill:#da2590"/><path d="M536.61,401.39l-1.56-2.7,30.11-17.38,1.56,2.7Z" transform="translate(-486.4 -291.8)" style="fill:#da2590"/><path d="M590.75,433.3l-30.1-52.13,2.7-1.56,30.1,52.13Zm-54.51-36.68h3.12v34.77h-3.12Zm52.32,0h3.12v34.77h-3.12Z" transform="translate(-486.4 -291.8)" style="fill:#da2590"/><path d="M564.62,445.39,563.26,443l26.18-15.12,1.37,2.36Z" transform="translate(-486.4 -291.8)" style="fill:#da2590"/><path d="M595.81,432.41a6.56,6.56,0,1,1-2.4-9,6.55,6.55,0,0,1,2.4,9m-52.36-30.24a6.56,6.56,0,1,1-2.4-9,6.55,6.55,0,0,1,2.4,9M532.1,432.41a6.56,6.56,0,1,1,9,2.4,6.58,6.58,0,0,1-9-2.4m52.36-30.24a6.56,6.56,0,1,1,9,2.4,6.58,6.58,0,0,1-9-2.4M564,450.81a6.56,6.56,0,1,1,6.56-6.56,6.56,6.56,0,0,1-6.56,6.56m0-60.48a6.56,6.56,0,1,1,6.56-6.56,6.56,6.56,0,0,1-6.56,6.56" transform="translate(-486.4 -291.8)" style="fill:#da2590"/><g style="opacity:0.31"><path d="M524.75,337.68l-1.52-.89,17-29.46,1.52.88Z" transform="translate(-486.4 -291.8)" style="fill:#149c99"/><path d="M522.88,334.44h34v1.76h-34Z" transform="translate(-486.4 -291.8)" style="fill:#149c99"/><path d="M540.57,345.25l-17-9.82.88-1.53,17,9.83Zm14.78-25.6-17-9.82.88-1.53,17,9.82Z" transform="translate(-486.4 -291.8)" style="fill:#149c99"/><path d="M524.44,319.64l-.88-1.52,17-9.83.88,1.53Z" transform="translate(-486.4 -291.8)" style="fill:#149c99"/><path d="M555,337.68l-17-29.47,1.52-.88,17,29.46ZM524.23,317H526V336.6h-1.76Zm29.57,0h1.76V336.6H553.8Z" transform="translate(-486.4 -291.8)" style="fill:#149c99"/><path d="M540.27,344.51l-.77-1.34,14.8-8.54.77,1.33Z" transform="translate(-486.4 -291.8)" style="fill:#149c99"/><path d="M557.9,337.17a3.71,3.71,0,1,1-1.36-5.07,3.72,3.72,0,0,1,1.36,5.07m-29.59-17.09A3.71,3.71,0,1,1,527,315a3.72,3.72,0,0,1,1.36,5.07m-6.42,17.09a3.71,3.71,0,1,1,5.07,1.36,3.72,3.72,0,0,1-5.07-1.36m29.59-17.09a3.71,3.71,0,1,1,5.07,1.36,3.72,3.72,0,0,1-5.07-1.36m-11.59,27.49a3.71,3.71,0,1,1,3.71-3.71,3.7,3.7,0,0,1-3.71,3.71m0-34.18a3.71,3.71,0,1,1,3.71-3.71,3.7,3.7,0,0,1-3.71,3.71" transform="translate(-486.4 -291.8)" style="fill:#149c99"/></g><path d="M554.12,347.57c0-.11,0-.21,0-.32,0-7.75-9.89-14-22.09-14S510,339.5,510,347.25c0,.11,0,.21,0,.32Z" transform="translate(-486.4 -291.8)" style="fill:#fdfeff"/><path d="M594.08,347.57v-.32a10.82,10.82,0,0,0-21.64,0v.32Z" transform="translate(-486.4 -291.8)" style="fill:#fdfeff"/><path d="M580.07,347.57a18.58,18.58,0,1,0-35.92,0Z" transform="translate(-486.4 -291.8)" style="fill:#fdfeff"/><path d="M632.6,453.11c0-.27,0-.53,0-.8,0-19.62-25-35.52-55.93-35.52s-55.92,15.9-55.92,35.52c0,.27,0,.53,0,.8Z" transform="translate(-486.4 -291.8)" style="fill:#fdfeff"/><path d="M733.76,453.11c0-.27,0-.53,0-.8a27.41,27.41,0,1,0-54.81,0c0,.27,0,.53,0,.8Z" transform="translate(-486.4 -291.8)" style="fill:#fdfeff"/><path d="M698.3,453.11a47,47,0,1,0-90.95,0Z" transform="translate(-486.4 -291.8)" style="fill:#fdfeff"/><path d="M620.88,394.7c.21-1.05.36-2.11.62-3.14a17.88,17.88,0,0,1,10-12.07,40.65,40.65,0,0,1,5.47-2,1.28,1.28,0,0,0,1-1A27.52,27.52,0,0,1,657.55,357a30.28,30.28,0,0,1,13.4-.57c-.05.69-.08,1.34-.16,2,0,.12-.23.24-.38.32a7.77,7.77,0,0,0-2.87,2.5,1.15,1.15,0,0,1-.89.34,23.57,23.57,0,0,0-9.87,1.57c-7.4,3-11.85,8.45-13.7,16.13-.12.47-.21.95-.31,1.43-.29,1.44-.29,1.44-1.76,1.7a22.93,22.93,0,0,0-8.69,3.09,13,13,0,0,0-5.53,13.82,14.11,14.11,0,0,0,5.94,9.28,29.81,29.81,0,0,0,3.86,1.85c.21.1.49.33.5.51,0,1.74,0,3.48,0,5.3a18,18,0,0,1-8.25-3.51,20.13,20.13,0,0,1-7.83-14.2,2.1,2.1,0,0,0-.15-.42Z" transform="translate(-486.4 -291.8)" style="fill:#149c99"/><path d="M675.8,373.38c-.21-1-.41-1.89-.58-2.79a.6.6,0,0,0-.65-.57,14.43,14.43,0,0,1-1.83-.27,1.41,1.41,0,0,1-1.32-1.59c.1-1.2.28-2.39.48-3.57a1.48,1.48,0,0,1,1.68-1.16c.63.06,1.27.17,1.9.27s.84.05,1.08-.53a8.41,8.41,0,0,1,1.11-1.74.6.6,0,0,0,0-.92c-.37-.43-.7-.89-1-1.35a1.54,1.54,0,0,1,.31-2.35c.8-.64,1.62-1.26,2.45-1.86a1.55,1.55,0,0,1,2.31.32c.52.63.89,1.6,1.55,1.84s1.54-.38,2.34-.41,1-.38,1-1.06a12.94,12.94,0,0,1,.22-1.52,1.55,1.55,0,0,1,1.73-1.3c1.06.13,2.13.28,3.19.44a1.51,1.51,0,0,1,1.4,1.7,18.86,18.86,0,0,1-.28,2c-.08.48,0,.83.51,1a6.73,6.73,0,0,1,1.13.65c.36.24.71.5,1.12.79.6-.44,1.2-.91,1.82-1.35a1.57,1.57,0,0,1,2.41.35c.61.79,1.23,1.58,1.81,2.39a1.54,1.54,0,0,1-.35,2.35c-.63.49-1.54.86-1.8,1.49s.33,1.44.37,2.18c0,.92.45,1.25,1.31,1.24a7,7,0,0,1,1.29.17,1.51,1.51,0,0,1,1.29,1.73c-.11,1.14-.28,2.28-.47,3.42a1.42,1.42,0,0,1-1.58,1.17,17.26,17.26,0,0,1-2.13-.28.72.72,0,0,0-.91.44,15.16,15.16,0,0,1-1.19,1.87.59.59,0,0,0,0,.87c.37.42.7.89,1,1.34a1.57,1.57,0,0,1-.3,2.42c-.79.62-1.58,1.23-2.4,1.81a1.54,1.54,0,0,1-2.39-.35c-.43-.55-.83-1.12-1.29-1.63a.79.79,0,0,0-.62-.19c-.75.13-1.5.34-2.25.48-.38.08-.64.18-.66.66a17.17,17.17,0,0,1-.26,1.75,1.49,1.49,0,0,1-1.75,1.42c-1.15-.12-2.29-.29-3.43-.48a1.39,1.39,0,0,1-1.16-1.5,20.86,20.86,0,0,1,.28-2.21.71.71,0,0,0-.45-.9,12.38,12.38,0,0,1-1.82-1.15c-.34-.25-.58-.32-.93,0a13.59,13.59,0,0,1-1.34,1,1.56,1.56,0,0,1-2.37-.27c-.67-.81-1.3-1.65-1.91-2.51a1.52,1.52,0,0,1,.36-2.28C674.51,374.36,675.16,373.87,675.8,373.38Zm11.76,2.08a6.47,6.47,0,1,0-6.42-6.48A6.47,6.47,0,0,0,687.56,375.46Z" transform="translate(-486.4 -291.8)" style="fill:#149c99"/><path d="M642.54,429.65c.68-1.81,1.3-3.51,1.94-5.21,1.83-4.86,3.69-9.72,5.49-14.59a1.26,1.26,0,0,1,1.46-1c1.8.06,3.6,0,5.39,0a.73.73,0,0,1,.82.58q3.63,9.72,7.28,19.42c.09.23.15.47.24.77h-6.67c-.27-.9-.56-1.83-.82-2.76a.69.69,0,0,0-.79-.61c-2.06,0-4.11,0-6.17,0-.41,0-.64.1-.75.55a17.19,17.19,0,0,1-.74,2.34.85.85,0,0,1-.6.5C646.65,429.67,644.67,429.65,642.54,429.65Zm13.53-8-2.19-7.19h-.15l-2.22,7.28h4A3.51,3.51,0,0,0,656.07,421.64Z" transform="translate(-486.4 -291.8)" style="fill:#149c99"/><path d="M666.83,408.88l.58,0c3.59,0,7.18,0,10.77,0a9.2,9.2,0,0,1,2.7.5,4.93,4.93,0,0,1,3.22,3.37A8,8,0,0,1,684,418c-.92,2.43-2.9,3.51-5.36,3.76-1.5.16-3,.11-4.53.15h-.9v7.65h-6.37Zm6.42,9a31.2,31.2,0,0,0,3.41-.37,2,2,0,0,0,1.54-2.18,2,2,0,0,0-1.7-2.07c-1-.16-2.13-.15-3.25-.21Z" transform="translate(-486.4 -291.8)" style="fill:#149c99"/><path d="M698.38,415.82c0-2.11,0-3.91,0-5.7,0-.21.36-.48.61-.62,1.64-.94,3.4-1.71,4.93-2.79a12.83,12.83,0,0,0,5.11-8.23,21.29,21.29,0,0,0-1-12.38,15,15,0,0,0-3.21-4.93c-.79-.82-.65-1.42.22-2.06,1.06-.76,2-1.69,3.07-2.6a19.29,19.29,0,0,1,5,7.06,26,26,0,0,1,.16,20.07,18.65,18.65,0,0,1-9.07,9.57C702.39,414.17,700.45,414.91,698.38,415.82Z" transform="translate(-486.4 -291.8)" style="fill:#149c99"/><path d="M693.52,429.61H687.2V408.9h6.32Z" transform="translate(-486.4 -291.8)" style="fill:#149c99"/><path d="M643.72,391.74c2.83,0,5.6-.12,8.36,0a3,3,0,0,1,3,3,3.46,3.46,0,0,1-2.29,3.69l-.55.22c2.22,1.21,2.56,3.65,3.94,5.6-1.54,0-2.87,0-4.19,0-.2,0-.45-.3-.57-.52-.69-1.22-1.35-2.46-2-3.7a1.54,1.54,0,0,0-1.81-.82v5h-3.85Zm3.88,5c.95-.08,1.82-.12,2.66-.25a1.18,1.18,0,0,0,0-2.3c-.85-.09-1.71-.09-2.61-.13Z" transform="translate(-486.4 -291.8)" style="fill:#149c99"/><path d="M666.79,396.28v2.53h-5.94v2.52h6.67v2.81H656.93V391.67h10.31v2.54h-6.39v2.07Z" transform="translate(-486.4 -291.8)" style="fill:#149c99"/><path d="M679.41,395.12c-1,.07-2,.16-3,.18a.92.92,0,0,1-.65-.44,1.83,1.83,0,0,0-2.34-1.05,1.48,1.48,0,0,0-.8.88c-.05.18.38.66.67.77.91.32,1.87.51,2.81.77a11.74,11.74,0,0,1,1.3.45,3.54,3.54,0,0,1,2.53,3.64,4.08,4.08,0,0,1-2.74,3.65,9,9,0,0,1-6.11-.05c-1.68-.61-2.32-2.06-2.62-3.86l3.64-.24c.1.28.17.52.25.75a2.16,2.16,0,0,0,3,1.15,1.43,1.43,0,0,0,.66-1,1.5,1.5,0,0,0-.62-1.1,7.17,7.17,0,0,0-1.65-.59c-1-.34-2-.61-3-1a3,3,0,0,1-1.87-2.78,3.13,3.13,0,0,1,1.73-3,7.94,7.94,0,0,1,6.91-.12A3.26,3.26,0,0,1,679.41,395.12Z" transform="translate(-486.4 -291.8)" style="fill:#149c99"/><path d="M680.57,391.65h11.76v3h-3.92v9.52h-3.85v-9.46h-4Z" transform="translate(-486.4 -291.8)" style="fill:#149c99"/><path d="M710.25,360.79v-.28a12.52,12.52,0,0,0-25,0v.28Z" transform="translate(-486.4 -291.8)" style="fill:#fdfeff"/><path d="M745.9,360.79a2.53,2.53,0,0,0,0-.28,9.66,9.66,0,0,0-19.32,0,2.53,2.53,0,0,0,0,.28Z" transform="translate(-486.4 -291.8)" style="fill:#fdfeff"/><path d="M733.4,360.79a16.58,16.58,0,1,0-32.06,0Z" transform="translate(-486.4 -291.8)" style="fill:#fdfeff"/></svg>