<svg id="ab125b77-45b5-42c3-9506-30f8f9a9269d" data-name="Layer 1" xmlns="http://www.w3.org/2000/svg" viewBox="0 0 120.39 68.75"><title>speed-2</title><path d="M327.8,307.39h11.35A51.12,51.12,0,0,1,346.48,282L337,276.23A60.94,60.94,0,0,0,327.8,307.39Z" transform="translate(-325.25 -245.23)" style="fill:#8dc640;stroke:#8dc63f;stroke-miterlimit:10;stroke-width:5px"/><path d="M337,276.23l9.23,5.59.24.14a45.5,45.5,0,0,1,18.27-16.87l-6-10A66.24,66.24,0,0,0,337,276.23Z" transform="translate(-325.25 -245.23)" style="fill:#fcee21;stroke:#fff200;stroke-miterlimit:10;stroke-width:5px"/><path d="M387.53,247.77v11.17c9.22-.15,28.68,2.12,41.92,21.2l9.9-4.82S420.78,247.21,387.53,247.77Z" transform="translate(-325.25 -245.23)" style="fill:#ec2027;stroke:#ed1c24;stroke-miterlimit:10;stroke-width:5px"/><path d="M360.22,254.24s-.55.27-1.49.82l6,10a61.54,61.54,0,0,1,17.51-5.75,37.06,37.06,0,0,1,5.27-.4V247.77A69.11,69.11,0,0,0,360.22,254.24Z" transform="translate(-325.25 -245.23)" style="fill:#f79520;stroke:#f7941d;stroke-miterlimit:10;stroke-width:5px"/><path d="M445.63,274.48l-52,25.26a7.65,7.65,0,1,0,3.75,6.69Z" transform="translate(-325.25 -245.23)" style="fill:#434444"/></svg>