<svg id="ab74162d-0377-4e2a-b46f-709551096396" data-name="Layer 1" xmlns="http://www.w3.org/2000/svg" viewBox="0 0 109.85 110.03"><title>stability-2</title><path d="M533.82,394.8l-2.55-.19a52,52,0,0,1-35.16-17.46,49.55,49.55,0,0,1-12.3-24.59c-3-16.38.71-31.13,11.3-44A50.61,50.61,0,0,1,516,293.34,51.64,51.64,0,0,1,533,289.82a50.89,50.89,0,0,1,30.18,8.08,51.52,51.52,0,0,1,22.61,30.18,50.34,50.34,0,0,1,1.81,11.1c0,.21.06.42.09.63v4.71c-.07.69-.14,1.37-.19,2.06a55.41,55.41,0,0,1-1.61,9.58,2,2,0,0,0,.07,1.17,5.2,5.2,0,0,1-2.23,6.58,5.22,5.22,0,0,1-7.69-5.69,5.05,5.05,0,0,1,4.1-4,3.78,3.78,0,0,1,1.16-.1c.5,0,.7-.12.82-.62a49.38,49.38,0,0,0,1.2-14.39,44.52,44.52,0,0,0-3.7-15.67c-6.77-15.12-18.16-24.93-34.4-28.34-17-3.56-31.84,1.11-44.19,13.3a46.75,46.75,0,0,0-13.24,25.83,48.22,48.22,0,0,0,18.12,46.38,47.78,47.78,0,0,0,46.47,6.8l.52-.18,1.48,3.93c-1.08.37-2.18.77-3.29,1.12a52.64,52.64,0,0,1-13.91,2.4,4.85,4.85,0,0,0-.53.08Z" transform="translate(-480.29 -287.27)" style="fill:#cb2828;stroke:#ed1c24;stroke-miterlimit:10;stroke-width:5px"/><path d="M526.33,328.61c-1.27,1.19-2.56,2.37-3.81,3.59s-2.19,2.24-3.3,3.36a1.56,1.56,0,0,1-2.47.18l-6.67-5a1.91,1.91,0,0,1-.52-2.52,2,2,0,0,1,2.85-.32c1.61,1.33,3.2,2.68,4.79,4l.32.26.38-.36,6.24-6.38.32-.36a1.81,1.81,0,0,1,2.64-.42c2.06,1.32,4.12,2.63,6.16,4a.73.73,0,0,0,1,0q6.38-4.28,12.76-8.51l.53-.38-4.07-4c.23,0,.36,0,.49,0h10.91a1.87,1.87,0,0,1,2,1.46,2.05,2.05,0,0,1-1,2.13l-9.14,6c-3.58,2.37-7.15,4.76-10.73,7.12a2.81,2.81,0,0,1-3.22.07l-6.29-3.84-.28-.14Z" transform="translate(-480.29 -287.27)" style="fill:#36af4d;stroke:#35ae4b;stroke-miterlimit:10;stroke-width:0.5px"/><path d="M551.59,347.83V329.7a5.76,5.76,0,0,1,0-.59,2.7,2.7,0,0,1,2.9-2.15,2.75,2.75,0,0,1,3,2.1,4.64,4.64,0,0,1,0,.53v36.48a3.12,3.12,0,0,1-.06.75,2.84,2.84,0,0,1-3.08,1.88,2.68,2.68,0,0,1-2.75-2.09c0-.22,0-.43,0-.64Z" transform="translate(-480.29 -287.27)" style="fill:#fbb716"/><path d="M544.74,352.2v14.18a3.45,3.45,0,0,1-.12,1,3.18,3.18,0,0,1-3.24,1.64c-1.35-.07-2.66-.95-2.84-1.94a3.44,3.44,0,0,1,0-.64q0-14.13,0-28.25a2.62,2.62,0,0,1,.51-1.53,3.71,3.71,0,0,1,3.66-.92c1.41.29,2.07,1,2.06,2.06,0,4.8,0,9.6,0,14.39Z" transform="translate(-480.29 -287.27)" style="fill:#fbb716"/><path d="M525.56,354.27c0-3.93,0-7.85,0-11.77a2.58,2.58,0,0,1,.25-1.21,3.59,3.59,0,0,1,3.38-1.38c1.4.09,2.65.86,2.87,1.81a3.53,3.53,0,0,1,.08.86q0,11.73,0,23.48a2.68,2.68,0,0,1-.27,1.26,3.6,3.6,0,0,1-3.45,1.37c-1.43-.11-2.66-.93-2.82-1.91a4.65,4.65,0,0,1,0-.75Z" transform="translate(-480.29 -287.27)" style="fill:#fbb716"/><path d="M519.41,356.43q0,4.88,0,9.73a2.75,2.75,0,0,1-.12.9,3.37,3.37,0,0,1-3.36,1.84,3.58,3.58,0,0,1-3.33-1.82,2.54,2.54,0,0,1-.15-.85q0-9.71,0-19.41a2.79,2.79,0,0,1,.15-.9c.41-1.16,2-1.86,3.81-1.74s3,1.05,3,2.2v10.05Z" transform="translate(-480.29 -287.27)" style="fill:#fbb716"/></svg>